<?xml version="1.0" encoding="UTF-8" standalone="no"?>
<!-- Created with Inkscape (http://www.inkscape.org/) -->

<svg
   version="1.1"
   id="svg2"
   width="2829.3333"
   height="2829.3333"
   viewBox="0 0 2829.3333 2829.3333"
   sodipodi:docname="vecteezy_explosive-danger-effect_16927717.eps"
   xmlns:inkscape="http://www.inkscape.org/namespaces/inkscape"
   xmlns:sodipodi="http://sodipodi.sourceforge.net/DTD/sodipodi-0.dtd"
   xmlns="http://www.w3.org/2000/svg"
   xmlns:svg="http://www.w3.org/2000/svg">
  <defs
     id="defs6" />
  <sodipodi:namedview
     id="namedview4"
     pagecolor="#ffffff"
     bordercolor="#000000"
     borderopacity="0.25"
     inkscape:showpageshadow="2"
     inkscape:pageopacity="0.0"
     inkscape:pagecheckerboard="0"
     inkscape:deskcolor="#d1d1d1" />
  <g
     id="g8"
     inkscape:groupmode="layer"
     inkscape:label="ink_ext_XXXXXX"
     transform="matrix(1.3333333,0,0,-1.3333333,0,2829.3333)">
    <g
       id="g10"
       transform="scale(0.1)">
      <path
         d="m 20314.1,16365.7 c -24,150.5 -92.6,254.5 -181.4,374.4 -90.6,122.7 -189.7,222.6 -296,331.6 -21.9,22.3 -44.7,39.6 -69.1,54.4 -21,53.3 -62.4,91 -112.2,96.8 -18.9,120.2 -89.6,210.6 -177.5,213.1 -49.3,1.5 -94.7,-25.7 -129.9,-70.1 -30.6,121.3 -108.4,208.2 -202,210.9 -47.9,1.4 -92.9,-19.6 -130.5,-56.3 -57.2,109.7 -153.5,192.3 -275.2,221 -133.4,31.4 -268.7,-8.7 -373.4,-97 -75.8,129.3 -201.9,228.9 -359.4,266 -302,71.1 -604.1,-113.3 -680.4,-412.7 -16.5,5.6 -33.4,10.4 -51.1,13.6 -164.8,29.8 -323.4,-56.3 -393.2,-199.9 -100.6,159.3 -277.8,265.4 -480.1,265.4 -313.7,0 -568.1,-254.4 -568.1,-568.1 0,-26.3 2.4,-51.9 5.9,-77.3 -83.2,27.6 -171.9,43.1 -264.3,43.1 -35.5,0 -70.3,-2.9 -104.7,-7.2 1.7,13.6 2.7,27.4 2.7,41.4 0,192.6 -156.1,348.7 -348.7,348.7 -63.4,0 -122.6,-17.1 -173.8,-46.7 -297.4,764.6 -1040.1,1306.7 -1909.8,1306.7 -174.8,0 -344.5,-22 -506.5,-63.2 -105.5,242.4 -346.9,412.1 -628.2,412.1 -247.7,0 -464.2,-132 -584.4,-329.1 -124.3,47.8 -258.9,75.1 -400,75.1 -561.8,0 -1025.26,-415.5 -1103.14,-955.7 -114.74,80.3 -254.13,127.8 -404.81,127.8 -213.85,0 -405.1,-95.3 -534.77,-245.4 -303.29,421.1 -797.45,695.5 -1356.01,695.5 -698.27,0 -1296.18,-428.6 -1545.77,-1036.9 -63.29,9.2 -127.97,14.1 -193.84,14.1 -737.76,0 -1335.83,-598.1 -1335.83,-1335.8 0,-417.6 191.69,-790.4 491.81,-1035.3 -93.52,-84.5 -158.58,-199.4 -179.73,-329.4 -96.08,-24.6 -183.83,-74.2 -254.81,-142.9 -33.86,156 -167.7,277 -334.86,287 -17.93,1 -35.51,0.3 -52.92,-1.1 -3.47,308.9 -253.54,559.5 -563.78,561.5 -161.74,1.1 -307.84,-65.8 -412.02,-173.6 -80.85,110.5 -202.88,181.4 -339.95,182.4 -124.97,0.8 -238.13,-56.7 -319.57,-149.8 -27.89,44.5 -66.64,75.5 -113.54,85.5 -91.61,19.5 -187.72,-46.6 -246.04,-157.3 -23.73,51.5 -61.41,88.6 -109.67,98.8 -86.02,18.3 -176.05,-52.9 -222.78,-165.2 -49.76,6.1 -98.9,-20.8 -131.88,-67.7 -27.19,-8.5 -53.5,-19.9 -79.98,-36.5 -128.99,-80.8 -248.87,-154.5 -365.97,-252.3 -114.49,-95.7 -205.72,-180.5 -264.549,-321.1 -37.028,-88.4 -73.961,-233.6 -52.723,-329.7 68.141,-12.4 105.542,110 121.902,155.9 30.23,84.8 64.55,155.6 126.14,222.5 61.02,66.3 139.07,105.2 207.95,161.6 44.11,36.1 79.14,76 131.86,99 40.58,17.7 84.33,26.1 123.04,48.9 14.67,8.6 27.99,17.4 40.8,25.9 18.71,-29.5 45.51,-51.1 78.69,-58.1 30.45,-6.5 61.07,0.2 88.43,16.3 21.99,-27 49.11,-46.5 81.41,-53.4 69.96,-14.9 142.44,29.8 192.43,107.2 25.84,-77.3 75.93,-133.5 142.31,-147.6 51.52,-10.9 104.41,5.4 151.25,41.3 60.17,-184.2 213.23,-317.3 395.77,-326.8 22.92,-240.7 224.81,-429.8 471.85,-431.4 40.71,-0.3 80.05,5.1 117.83,14.4 10.75,-273.5 227.46,-499.6 506.47,-516.2 21.39,-1.3 42.46,-0.9 63.33,0.3 51.74,-144.1 160.9,-264.7 306.63,-328.4 -194.23,-185.3 -315.84,-446 -315.84,-735.6 l 0.34,-7.3 c -26.65,4.4 -53.84,7.3 -81.75,7.3 -270.82,0 -490.85,-215.2 -499.76,-483.9 -96.83,-74.8 -154.25,-182 -168.38,-295.1 -102.04,31 -211.18,18.1 -296.97,-45.4 -78.27,-58 -121.81,-146.8 -128.97,-243 -38.17,14.7 -76.83,16.1 -110.69,0.4 -66.14,-30.8 -95.06,-116.9 -79.61,-213.1 -38.88,21 -79.66,26.5 -114.54,10.3 -62.1,-28.9 -84.9,-115.3 -61.45,-207.1 -29.91,-17.2 -47.79,-50.1 -50.56,-88.4 -91.05,-71.2 -176.01,-137 -256.96,-220.4 -80.95,-83.4 -144.7,-156.5 -178.85,-270.2 -21.52,-71.5 -38.32,-186.9 -14.06,-259.6 53.76,-4.2 72.79,93.7 81.75,130.7 16.52,68 37.37,125.7 79.61,182.5 41.9,56.3 99.22,92.8 147.97,142 31.23,31.6 55.13,65.3 94.1,87.4 29.99,17 63.19,27.1 91.33,47.9 7.35,5.4 13.84,10.8 20.41,16.1 33.74,-25.4 74.7,-33.4 109.4,-17.3 22.01,10.3 37.94,28.8 47.43,51.6 26.31,-6.5 52.36,-6 75.7,4.8 50.71,23.6 74.93,85.7 69.59,157.6 52.3,-36.1 109.72,-48.5 157.71,-26.2 37.2,17.3 61.86,52.7 74.25,96.9 80,-56.2 174.23,-80.9 263,-69.8 -11.84,-62.1 -18.61,-125.9 -18.61,-191.4 0,-182.9 48.91,-354.1 133.37,-502.4 -134.35,-308.7 -209.3,-649.2 -209.3,-1007.4 0,-535.4 166.96,-1031.6 451,-1440.3 -18.09,-150 7.09,-301.9 71.72,-437.3 -221.55,24.5 -441.26,-98.9 -528.72,-315.8 -9.4,-23.3 -16.3,-46.9 -22.07,-70.5 -410.56,132.7 -853.37,-87 -994.08,-496.7 -73.35,-213.7 -49.67,-436.8 46.73,-622.7 -182.29,-57.9 -330.38,-187.9 -392.55,-369 -56.69,-165 -30.77,-340.4 56.25,-489.6 -71.35,-17.1 -129.67,-54.6 -163.7,-112.3 -66.38,-112.4 -21.97,-268.7 98.09,-394.9 -78.56,-8.6 -143.82,-42.7 -178.8,-102 -62.51,-105.9 -8.98,-257.4 119.37,-369.3 -29.7,-63 -15.91,-139.5 31.25,-203.8 -0.71,-39.8 2.63,-79.6 12.81,-122.1 49.63,-206.6 93.94,-398.1 171.36,-596.6 75.69,-194.1 147.4,-352.6 307.37,-493 100.72,-88.3 276.38,-201.7 413.09,-216.3 46.8,84.6 -98.71,188.6 -152.23,230.7 -98.78,77.7 -177.27,154.6 -238.43,265.8 -60.64,110.3 -77.43,230.9 -121.45,347.2 -28.21,74.4 -65.48,138.5 -72.47,218.5 -5.38,61.6 2.95,123.3 -10.01,184.7 -4.92,23.2 -10.58,44.7 -16.22,65.5 47.38,11.7 87.94,37.6 112.01,78.3 21.82,37 26.77,80 18.12,122.8 45.7,17.1 82.9,45.7 106.43,85.6 50.72,85.9 25.02,201.9 -54.98,302.4 113.15,0.2 209.25,41.5 257.22,122.8 37.39,63.3 39.29,140.6 12.64,218.6 270.57,-2.3 514.81,141.2 608.51,378.6 328.84,-76.6 668.89,106.6 780.92,432.9 18.46,53.7 28.82,108.2 33.28,162.4 366.89,-107.4 762.53,79 908.51,441 11.2,27.7 20.13,55.8 27.81,83.9 200.68,4.2 396.34,84.6 543.01,230.6 132.55,-203.6 361.73,-338.5 622.79,-338.5 100.94,0 197.09,20.3 284.84,56.8 335.54,-641.5 1006.92,-1079.5 1781,-1079.5 73.98,0 146.97,4.3 218.9,12.1 0.97,-14.2 2.51,-28.5 4.9,-42.8 20.55,-124.3 91.25,-227.6 187.77,-293.3 -74.13,-76.7 -112.4,-179.7 -94.98,-285 15.91,-96.1 75.13,-175.4 157.41,-225.5 -30.5,-27.4 -49.35,-61.1 -50.79,-98.4 -2.8,-72.9 60.66,-137.9 153.3,-168 -36.4,-25.1 -59.85,-58.9 -61.34,-97.3 -2.62,-68.4 63.9,-128.1 156.32,-149.1 1.66,-34.5 22.74,-65.4 55.55,-85.3 21.84,-113.5 41.71,-219.1 78.99,-329.2 37.33,-110 73.28,-200.1 158.91,-282.4 53.87,-51.7 148.9,-119.3 224.71,-130.9 28.18,46 -50.26,107.6 -79.04,132.4 -53.07,45.7 -94.85,90.6 -126.16,154.1 -31.01,62.9 -37.31,130.6 -58.93,196.4 -13.85,42.2 -33,78.9 -34.91,123.6 -1.43,34.5 4.74,68.6 -0.94,103.1 -1.46,9 -3.29,17.3 -5.04,25.6 37.99,18.4 63.8,51.2 65.28,89.4 0.93,24.3 -8.31,46.9 -24.24,65.8 17.78,20.4 29.21,43.8 30.21,69.5 2.14,55.9 -42.12,105.8 -108.55,133.8 56.03,30.1 93.2,75.6 95.23,128.4 1.58,41 -18.67,79.1 -52.39,110.3 133.82,70.4 216.04,205.7 199.13,347.4 181.7,49.4 300.1,229.4 268.7,419.2 -5.16,31.3 -14.5,60.8 -26.67,88.5 86.43,18.4 161.69,63.1 218.76,124.3 159.87,-87.1 343.13,-136.7 538.07,-136.7 330,0 626,142.9 832,369.1 386.3,-293.4 867.9,-467.8 1390.4,-467.8 260.5,0 510.6,43.9 744.1,123.7 65.4,-74.4 159.5,-122.4 263.9,-126.5 15.2,-141.8 125.6,-255.3 271.8,-294 -25.8,-38 -37.1,-79.6 -26.3,-119.2 13.8,-51.1 60.2,-87.1 121.5,-103.8 -58.5,-42.2 -90.4,-100.8 -75.8,-154.8 6.7,-24.8 23.1,-45 45,-61 -11.3,-21.9 -15.3,-46 -8.9,-69.4 10,-37 42.5,-63.2 83.6,-72.7 0.1,-8.4 0.2,-16.8 0.8,-26 2.2,-34.9 15.9,-66.8 22.1,-100.7 8.3,-44 -2.2,-84 -6.3,-128.2 -6.3,-69.1 2.7,-136.4 -13.4,-204.7 -16.3,-68.9 -47.1,-121.9 -88.5,-178.4 -22.5,-30.6 -85.2,-108.2 -47.4,-146.7 71.2,28.3 148.8,115.4 189.7,177.9 65,99.3 79.9,195.2 91.6,310.7 11.8,115.7 7.4,223.1 3.3,338.6 27.6,26.8 41.2,61.6 35.1,95.6 85.4,41.1 136.9,114.2 119,180.3 -10,37.1 -40.5,64.8 -81.6,81 83.6,50.1 130.9,127.7 111.8,198.1 -9.7,36 -35.7,64.7 -71.5,84.5 69,67.3 109,157.8 103,255 -6.6,106.6 -67,198.4 -156.4,256.6 79.4,85.6 125.1,202.1 117.4,327.8 -2.8,45.4 -12.4,88.7 -27.7,129.1 212.7,239.1 376.4,522.7 475,835.2 49.7,-6.4 99.9,-10.7 151.3,-10.7 360.3,0 682.4,161.6 899.3,415.8 51.7,-4.6 103.7,-5.7 155.6,-2 12.7,-33.6 26.7,-67 43.6,-99.8 220,-427.3 726.2,-611.2 1163.9,-437.9 11.6,-66 30.5,-131.6 59.2,-195.4 174.3,-387.5 612,-573.7 1006.6,-442.5 141.7,-280.5 457.4,-428.8 788.9,-395.4 -23.8,-98.7 -12.7,-193.2 40.3,-266.6 68,-94.2 190.5,-134 329.2,-121.5 -86.7,-132.2 -105.1,-277.4 -33.2,-377 33.4,-46.2 82.2,-77.1 140.2,-92.9 -5.7,-53.5 5.2,-105.6 36.2,-148.5 34.1,-47.3 86.7,-74.4 146.2,-83.4 -4.6,-26.1 -9.1,-53.1 -12.5,-82.2 -9,-76.7 8.2,-151.4 8.6,-227.5 0.5,-98.9 -38,-181.8 -64.1,-276.2 -40.9,-147.5 -47.8,-297.3 -109.7,-439.4 -62.4,-143.3 -150,-246.5 -262.3,-353 -60.8,-57.6 -227.5,-201.6 -160.6,-300.1 166,33.4 368.6,192.3 482.1,312.1 180.3,190.2 250.3,392.6 321.1,639.2 72.5,252.2 105.1,492 142.7,751 7.7,53.3 7.5,102.7 2,151.5 50.4,84 58.6,179.3 15.1,253.1 144.8,151.7 193.2,343.5 104.6,466.3 -49.6,68.7 -133.5,103.1 -230.8,104.8 133,168.4 169.7,365 75.6,495.4 -48.2,66.8 -124,106.2 -213.4,119.1 89.8,192.8 101.8,410.8 13.6,606.8 -96.7,214.9 -293,357.6 -523.1,408 97.2,238.8 101,515.1 -13.1,768.8 -219,486.5 -786.7,705.7 -1275.2,496.6 -9.7,28.3 -20.9,56.5 -35,84 -131.8,256 -415.2,382.4 -684,327.3 111.9,304 71.3,656.8 -140.4,932.9 -90,117.3 -201.9,207.6 -325,271.5 56.7,99.8 89.6,214.9 89.6,337.8 0,88.5 -17.4,172.8 -47.9,250.4 653.1,454.6 1080.9,1210.4 1080.9,2066.4 0,1059.3 -654.9,1965.2 -1581.6,2336.4 77.2,131.3 122.4,283.7 122.4,447.1 0,157.7 -41.8,305.4 -114.2,433.5 133.6,118.1 229.9,277.4 267.3,458.6 88.6,-57.1 193.9,-90.6 307.2,-90.6 198.3,0 372.7,101.8 474.4,255.8 19.9,-6.1 40.4,-11.4 61.4,-15.2 275.1,-49.7 539,118.9 614,382.1 34.5,-17.9 71.5,-32.5 111.1,-41.8 240.5,-56.7 481.3,79.4 560.4,307.9 179.5,-33.9 359.7,59.4 461.6,224.1 37.1,-45.9 84.7,-74.2 137.3,-75.7 67.8,-2 129.8,40.8 173.1,109.8 30.3,-87 90.2,-147.5 161.7,-149.6 33,-1 64,11.7 91.7,32.7 22.8,-22.1 51,-35.9 82.1,-36.8 33.9,-1 65,13.7 90.2,38 10.4,-11.4 21.3,-23 33.5,-34.9 32.2,-31.2 72.8,-49.7 108.1,-76.5 45.8,-34.8 70.4,-81.8 104.7,-127.3 53.6,-71.1 120.3,-127.3 164,-206.1 44,-79.6 60.7,-156.5 70,-246 5.1,-48.5 12.5,-176.3 81.7,-180.3 43.3,88.5 41.7,238.2 26.6,332.9"
         style="fill:#ef381f;fill-opacity:1;fill-rule:nonzero;stroke:none"
         id="path12" />
      <path
         d="m 18895.7,17334.8 c -11.7,28.7 -25.1,56.1 -40.1,81.5 -76.3,129.1 -195.9,206 -362.7,136 -85.8,-36.1 -79.1,-68.7 -102.2,-147.1 -21.5,-73.2 -68.9,-138.8 -115.1,-197.1 77.2,331.6 -298,599.3 -598.2,457 -69.2,-32.9 -119.5,-77.9 -164.8,-138.5 -41,-54.7 -54.4,-65.6 -28,-119.3 68,-138.5 70.2,-247.4 37.3,-398.6 -30.4,140 -137.4,290.4 -289,305.6 -86.8,8.8 -175.3,-10.7 -243.6,-64.1 -78.6,-61.5 -32.8,-91.9 -9,-182.7 33.2,-126.2 22,-249.8 4.3,-377.4 11.7,194.5 -147.4,426.9 -288.5,549.7 -88.2,76.9 -236.8,105.4 -351.4,90.4 -177.3,-23.2 -297.3,-202.6 -335.3,-364.2 50.8,-40.1 97.7,-102.3 133,-155.9 43.8,-66.5 107.2,-151.5 127.5,-227.2 -117.7,144.7 -293.2,195.2 -471.1,230.2 -81.7,16 -190.4,17.6 -270.5,-12.6 4.8,-24.1 80.9,-71.5 102.5,-90.4 64.9,-56.9 121.2,-108.5 175.2,-177.5 52,-66.6 102.8,-140.2 147,-212.1 39.4,-64 79.1,-127.3 110.3,-195.6 53.4,-116.3 34.7,-229.8 29.1,-354 53.4,38.9 87.1,94.2 105.7,157.2 18.7,62.9 29.7,143.7 30.7,209.1 0.7,46.8 -37.1,209 27.1,230.1 91.6,29.9 178,-214.1 226.7,-262.4 37.3,-37 65.8,-56.2 111.5,-27.5 37.5,23.4 43.1,49 91.3,33.7 29.9,-9.5 44.5,-33 77.8,-26.5 18.1,3.5 26.7,23.8 43.7,28.9 52.3,15.4 89,-26 135.2,-31.2 68.1,-7.7 99.3,89.9 110.6,147.3 7.5,38.3 -9.5,190.2 32.5,211.7 78.9,40.5 111.2,-184 164.7,-208.9 37.7,-17.6 51.4,34.2 87.2,44.8 51.9,15.3 66.1,-9.5 111.9,42.6 26.9,30.5 46.9,113.8 93.5,115.9 25,1.1 37.5,-35.3 63.4,-33.2 27.8,2.2 34.4,32.3 44.8,53.2 48.4,97.3 57.5,214 69.9,320 4.7,40.2 -5.5,132.2 24.7,162.7 110.7,-57.1 77.7,-224.2 142.5,-311.8 44.1,-59.5 96.1,-30.7 154.9,-11.2 50.8,16.7 47.8,-7.9 100.1,-21.7 61.9,-16.3 99.1,28.1 127.7,80.1 42,76.5 76.8,177 104.7,259.6 10.7,31.6 11.2,100.1 41.7,116.2 41.4,-42.9 53.9,-112.2 97,-150.8 42.8,-38.4 60.4,-8.9 100.5,13.7 44.8,25.2 86,8 130.9,24.7 59.8,22.2 100.2,95.6 126.2,150 38.8,80.9 58.3,163.9 24.2,247.6"
         style="fill:#f79424;fill-opacity:1;fill-rule:nonzero;stroke:none"
         id="path14" />
      <path
         d="m 19622.2,5533.2 c -25.2,28.7 -72.1,57.5 -111.3,38.2 -16.7,-8.2 -30.4,-31.6 -45.2,-43.6 -72,-58.2 -168.6,-88 -251.7,-120.9 49.2,100 118.5,185.3 147,295.2 19.1,73.5 20,150.2 19.5,225.5 -1.2,162.3 -40.2,329.7 -163.2,444.7 -71.7,66.9 -157.3,90.2 -238.2,130.2 -133.3,-109.5 -301.6,-234.6 -481.1,-245.3 68.5,99.1 158.6,187.4 213.8,299 70.5,142.8 119,311.1 140.5,469.3 18.3,134.4 7.9,300.4 -43.7,426.9 -39.8,97.7 -122,181.5 -203.2,247.2 -138.4,112.1 -303.9,156 -479.1,163.1 -55.1,2.2 -111.6,2.5 -165.6,-8.7 -31.1,-6.4 -70.7,-26.4 -98.4,-25.3 9.4,-87.5 -36.5,-201.9 -64.8,-282.9 -34.4,-98.4 -85.1,-188.2 -134.8,-276 5.2,244.5 21.6,519.5 -162.9,712 l -8.2,8.4 c -33.5,33.4 -75,75.1 -116.7,97.3 -43.2,23 -93.2,21.2 -138.9,36.8 -85,28.9 -209,92.7 -287.8,16.4 -19.7,-19.1 -38,-39.6 -58.6,-57.6 -48.2,-42.2 -101.1,-80.3 -155.2,-114.5 -53.6,-33.9 -117.6,-71.4 -177.1,-93.8 -11.3,-4.3 -18.6,-10.3 -29.6,-4.6 79,95.3 136,220.9 179.3,336 6.3,17 12.7,33.9 19.1,50.9 59.5,157.9 117,325.8 120.9,495.8 3.6,161.4 -49,321.1 -147.1,449.1 -56.7,73.9 -132.2,155.9 -214.3,201.4 -51,-96.4 -154.9,-181.1 -245.7,-236.3 -48.5,-29.4 -96.5,-52.5 -150.1,-71.2 -17.9,-6.2 -46.2,-24.2 -64.2,-18.9 40.9,26.7 73,71.1 102.3,109.1 59,76.3 110.9,152.6 158.3,236.7 92.2,163.7 128.8,365.4 133.4,551.6 4.1,163 -14.9,323.4 -67,477.8 -16.6,48.9 -35,107.6 -62.2,151.9 -15.1,24.8 -32.3,44.4 -52.4,64.9 -19.2,19.7 -33.1,44.2 -50.2,66.6 73.6,1.7 169.8,-98.9 221.7,-145.5 30.5,-27.4 83.3,-94.7 115.2,-116.5 111.9,72.6 252.1,213.3 296,259.4 104.1,109.4 197.2,229.2 277.5,357.1 160.4,255.5 268.8,542.9 316.7,840.8 18.9,117.9 28.4,237.3 28.4,356.7 0,480.3 -153.9,954.8 -439.7,1341.2 -165.5,223.6 -372.7,415.5 -608,563.8 -60.1,37.9 -341.2,191.9 -359.5,187.5 -225.9,-53.8 -330.9,-70.2 -475.4,-76.5 55.7,39 119.1,101.1 168.1,153 77.9,82.3 134.3,183.8 186.1,283.9 68.2,131.8 106.4,274 105.7,422.9 -0.2,38.4 -6,106.3 -37.7,133.5 3.2,-24.6 -18.9,-55.5 -30.1,-76.1 -20.3,-37.3 -44.4,-69.8 -73.9,-100.5 -31.7,-33.1 -62.7,-67.3 -99.1,-95.4 -12.1,-9.3 -31.1,-29.5 -46.2,-30.5 4.8,9.7 9.6,19.4 14.4,29.1 76.7,155.7 150.9,316.4 178.9,488.7 28.2,173.7 25.6,354.8 -15.9,526.2 -47.7,197.1 -185.8,391.7 -341.6,520.6 -46.7,38.6 -111.2,97.2 -171.5,106.7 -21.6,-152.8 -108.9,-373.8 -275.1,-419.9 126.9,215.4 209.5,515.5 88.7,752.6 -52,102 -116.6,102.6 -215.7,123.9 54.5,-257.2 -36.1,-531 -158.4,-753.8 15.8,65.4 12.2,145.7 18.1,214.4 9.7,112.4 5.6,224.3 -19.5,334.7 -30.9,135.6 -86,264.2 -155.9,384.2 -60.5,103.7 -115.1,210.1 -184.9,308.2 -332.5,467.2 -880.7,745.5 -1453.3,745.5 -33.9,0 -411.8,-49.1 -410.8,-52.6 16.7,-56.2 9,-130.2 9.1,-189 0.1,-94.9 -7.2,-199.9 -28.1,-292.6 -43.8,159 -80.3,314.2 -159.5,460.9 -50.1,92.8 -107.6,175.1 -181.7,249.9 -94.7,95.4 -224,172.3 -363.7,172.3 -77.4,0 -154.2,-21.4 -220.2,-61.9 -14.7,-9.1 -148.3,-121.7 -142.3,-133.1 4.6,-8.7 30.1,-20.8 34.6,-28 67.5,-57.1 120.2,-144.5 156.3,-204 42.7,-70.4 79.4,-148.4 102.1,-227.9 15,-52.7 22.8,-111.6 46.8,-159.7 -51.9,40.8 -90.5,116.8 -135.5,166.3 -65,71.5 -139.1,127.6 -218.8,181.7 -172.8,117.2 -397,212.6 -607.4,212.6 -250.3,0 -492,-115 -652.8,-306.2 -79.1,-94.2 -137.7,-205.1 -170,-323.8 -16.2,-59.4 -47.9,-112.9 -37.3,-176.3 10.5,-62.5 46.9,-117.8 59.2,-180.1 31.9,-160.9 46.4,-325.2 -0.8,-484.4 -34.1,271.1 -267.8,574.3 -553.62,608.5 -166.55,19.9 -346.02,-40.9 -495.25,-109.6 -106.87,-49.2 -209.33,-118.9 -288.16,-206.8 -37.13,-41.4 -65.97,-88.2 -101.9,-130 -25.8,-30.1 -105.53,-114.1 -102.24,-156.3 -12.65,161.9 -8.41,375.3 80.9,516.5 -38.96,83.7 -149.72,170.3 -218.91,229.6 -84.06,72.2 -176.61,134.4 -275.12,185 -198.13,101.9 -419.91,156.1 -642.73,156.1 -296.64,0 -589.84,-94.4 -829.7,-269.2 -116.98,-85.2 -220.5,-188.6 -305.96,-305.4 -50.65,-69.3 -155.39,-274.8 -170.96,-367.5 20.02,-33.3 75.24,-61.4 102.73,-90.9 94.39,-101.6 142.55,-217.3 200.04,-340.3 -93.42,97.4 -202.31,180.4 -323.4,240.4 -687.34,340.5 -1486.17,-216.5 -1486.17,-963.7 0,-216.6 66.21,-430.9 189.3,-609.2 46.24,-66.9 126.12,-207.4 202.95,-241.9 93.4,34.2 171.16,54.6 252.3,65.9 87.5,12.1 323.78,63.3 385.71,-18.2 -184.71,6.8 -390.51,-150.9 -518.11,-270 -122.04,-114 -217.36,-284.4 -245.64,-450.2 -2.57,-15.1 -4.88,-32 -6.73,-50.2 -11.49,-113.3 -5.23,-276.3 66.55,-349.5 -84.06,85.7 -187.11,176.3 -207.25,300.7 -112.96,-29.4 -208.68,-39.5 -309.62,-109.5 -97.69,-67.8 -177.77,-157.5 -266.32,-236 16.88,46.7 18.86,100.7 37.62,148.5 23.65,60.3 62.57,101.3 97.29,151.6 10.47,15.3 27.02,14.1 32.86,35.3 8.58,31.1 -24.5,105.9 -41.48,131.7 -37.98,57.7 -121.46,117.3 -189.26,129.6 -196.3,35.7 -327.19,-84.2 -466.58,-192.7 -10.71,124.2 109.77,268.3 223,300.1 -26.4,66.5 -5.7,145.1 -44.05,217.3 -53.81,101.4 -150.98,150.7 -260.44,171 -248.62,46 -580.04,-83.5 -703.99,-313 -4.63,89.7 63.39,209.9 143.42,249.1 -35.32,48.1 -106.08,65.4 -162.17,72.9 -209.24,27.7 -311.85,-125.5 -345.38,-314 -13.77,-77.4 -5.73,-138.3 26.98,-210.1 31.16,-68.3 57,-57.6 109.6,-92.5 50.99,-33.8 61.76,-123 149.28,-86.8 50.8,21 107.67,142.4 173.18,131.9 74.49,-12 37,-140.4 28.67,-189 -10.9,-63.8 -42.96,-180.7 26.29,-229.4 48.21,-34 65.01,17.8 105.29,3 40.53,-14.9 18.51,-102.6 82.29,-108.5 78.93,-7.4 69.96,83.3 136.19,16.4 23.37,-23.5 16.74,-65.4 55.7,-75.5 31.49,-8.1 59.44,24.5 83.45,39.9 65.41,41.7 157.25,92.8 181.34,-12.3 24.09,-105 -49.06,-216.3 -22.75,-323.6 23.89,-97.5 61.83,-70.8 136.73,-80.1 82.66,-10.2 58.93,-120.6 145.78,-105.9 64.31,10.9 114.03,104.2 160.41,35.6 27.36,-40.5 1.69,-114.9 82,-98 62.12,13.1 89.16,114 167.74,92.8 25.8,-85.1 -83.75,-234.8 -42.6,-299.1 24.97,-39 31.27,-20.2 66.65,-6.5 100.19,38.7 189.82,96.5 299.6,101.7 109.07,5.2 269.1,19.2 364.22,-41.3 -220.58,-25.9 -447.97,-182.7 -609.08,-329.2 -128.89,-117.3 -215.43,-253.4 -279.56,-414.3 -19.95,-50.1 -80.98,-180.5 -56.52,-234.9 6.82,-15.2 62.54,-38.5 77.16,-49.8 68.95,-53.1 105.86,-109.6 157.7,-176.4 66.26,-85.2 152.79,-184.9 167.5,-295.2 -147.58,137.3 -255.78,280 -473.35,302.9 -119.97,12.6 -256.82,7.2 -361.45,-60.4 -95.86,-62 -146.73,-166.5 -164.97,-275.8 -12.19,-73 -27.14,-231.6 46.3,-279.2 -36.49,29.3 -74.59,56.4 -106.09,92.6 -39.07,44.9 -54.74,95.2 -84.77,143.6 -112.43,-119.5 -139.93,-323.2 -3.8,-435.9 -111.48,33.2 -189.33,93 -271.53,169.1 -89.11,-26.6 -139.38,-130.1 -138.29,-217.4 2.32,-182.7 118.15,-287.5 278.34,-261 82.51,83.7 186.85,125.5 289.11,176.3 -49.89,-51.2 -82.38,-114.4 -103.83,-182.7 -52.12,-166.1 -56.72,-374.3 -3.21,-540.7 6.08,-18.8 40.32,-80.8 33.67,-96.5 30.6,72 108.53,127.8 164.53,179.2 69.87,64.2 167.18,147.9 255.13,182.7 -90.74,-96.7 -157.96,-224.9 -220.85,-342.7 -167.12,-313.1 -340.93,-688.1 -356.78,-1047 -13.35,-302 39.51,-594.8 214.49,-845 421.92,-603.3 1316.17,-696.3 1940.9,-385.1 -17.81,-178.7 -334.53,-291.3 -483.36,-290.5 98.53,-259.5 510.93,-271.8 736.83,-269.2 149.64,1.7 296.63,35.2 438.98,81.8 159.63,52.2 268.33,158 407.61,245.3 -132.91,56.4 -248.44,137.7 -268.15,296 78.93,-89.6 197.93,-161.5 305.77,-210.1 82.61,-37.2 181.5,-76.4 273.55,-76.3 92.71,0.1 184.48,1.2 276.97,9.4 93.38,8.2 184.33,12.5 278.04,23.2 80,9.2 148.66,47.8 225.4,59.7 -141.05,-142.9 -285.38,-221 -485.41,-252.4 1.46,0.2 126.4,-139.7 145.47,-152.6 69.44,-46.9 149.44,-77.5 231.02,-95.5 219.51,-48.3 447.6,-34 665.1,17.8 107.45,25.7 212.66,60.2 315.34,100.8 22.25,8.7 236.42,89.5 268.09,124.5 -66.24,-139.1 -216.98,-258.6 -362.58,-302.2 21.34,-60.5 106.28,-120.8 150.43,-166.7 114.49,-119.1 265.76,-174.9 421.99,-215.6 229.52,-59.9 491.91,-71.3 724.97,-35 180.68,28.1 356.82,54.2 526.32,125.9 131.4,55.7 258.9,116.8 386.1,180.9 -164.4,112.1 -232.3,352.3 -230.5,544.1 55.2,-76.1 90.8,-175.2 142.3,-256.1 79.3,-124.5 164.6,-224.6 289.8,-307.6 208.8,-138.3 475.3,-201.8 723.1,-217.9 149.4,-9.7 300.4,25.8 440.4,74.3 79.8,27.6 201.8,115.2 284.9,110.5 -34.8,-54.1 -77.5,-108.3 -131.5,-146.7 -79.2,-56.5 -179.8,-109.3 -271.6,-140.7 -73.9,-25.3 -156.2,-25.1 -229.1,-45.8 -25.1,-7.1 165.6,-192.3 180.9,-204.2 87.4,-68.2 183,-125.5 283.1,-173 205.6,-97.8 429.4,-155.1 654.8,-183.8 172,-21.9 357.1,-34.2 541.9,-26.3 353.3,15.2 706.1,104.1 967.6,340.4 -239.8,18.9 -385.6,256.8 -377.3,492.5 -3.9,-109.1 173.9,-258.2 254.2,-308.6 120.5,-75.7 222.2,-113.1 366.4,-129.5 280.2,-31.8 582.9,19.1 782,234.7 -143.5,26.6 -265.5,189.7 -339.1,304.1 216.6,-123.3 486.3,-190.5 737.4,-152.4 47.9,7.2 147.7,50.7 190.6,24.7 37.3,-22.6 17.1,-79.2 37.4,-101.3 47.5,-51.4 129,64.8 149.1,-41.3 13.2,-70 -4.1,-162.8 23.6,-226.3 48.4,-111.1 170.5,-3.7 232.2,-91.3 61.8,-88 32.2,-245.3 189.2,-192 164.6,55.9 287.4,197.2 418.1,302.9 80.2,64.9 220.2,149.4 272.2,10.4 23.8,-63.6 27.8,-136.7 28,-203.5 0.1,-30.7 -13.6,-96 12.5,-122.4 47,-47.9 138.3,22.8 176.2,-43.2 20.1,-35.1 -20.8,-133.9 -31.5,-170.8 -13.1,-45.3 -27.6,-89.7 -37.6,-135.8 -9.4,-43.3 -28.5,-98.3 10.3,-132 23.8,-20.6 55.6,-12.6 81.5,-27 27.1,-15.1 38.1,-43 65.5,-57.4 31,-16.2 82.3,-17.3 115.8,-13.6 129.8,14 250.3,148.1 326.5,243.2 37.7,47 65.4,130.1 110.7,169 27.2,23.3 34.6,26.6 51.1,-6.5 25.5,-51.3 -3.5,-174.9 -3.6,-227.6 -0.1,-43.8 -16.3,-109.4 -7.9,-151.9 6.5,-32.7 20.9,-22.8 32,-44.5 15.9,-31.4 11.6,-59.1 16.4,-97.6 14.7,-119.6 79.6,-83.6 159.4,-138.3 57.1,-39 62.7,-94.7 133.9,-118.6 99.1,-33.1 186.1,-40.1 288.1,-13.9 31.8,8.2 64.5,16.6 93.4,32.4 24.7,13.5 40,36.3 69,35.9 23.4,-46.9 5.4,-94.5 9.4,-143.6 4,-49.2 14.5,-46 56.5,-64.8 48.7,-21.8 38.8,-26.7 33.4,-85.3 -5.2,-55.5 9.7,-113.8 55.6,-150 187.9,-148.1 454.5,68.1 547.7,227 45.6,77.7 49.6,175.4 -12.1,245.8"
         style="fill:#f79424;fill-opacity:1;fill-rule:nonzero;stroke:none"
         id="path16" />
      <path
         d="m 9066.47,12392.1 c -183.18,78 -374.34,85.6 -569.49,73 -90.53,-5.9 -149.4,-47.2 -230.43,-71.9 21.81,82.5 143.9,147.2 219.37,176 57.18,21.7 117.96,19.9 178.01,22.9 34.63,1.8 -68.71,313.6 -80.42,344.9 -29.38,78.5 -96.47,156.2 -176.54,192 19.07,18.3 39.32,35.5 60.95,51.3 76.14,55.7 189.18,88.8 279.17,47.5 -210.04,131.6 -432.89,182.5 -658.78,54.5 -6.09,-3.4 -12.19,-7.2 -18.2,-11.3 -15.54,13.5 -30.67,24.6 -43.9,31.8 -65.82,36.1 -259.82,73.9 -333.66,25.7 85.94,-88.1 85.97,-376.5 11.18,-460.7 -8.9,358.7 -290.77,685.7 -610.14,821.7 -497.54,211.8 -1068.49,-42.7 -1281.16,-531.9 -34.37,-79.1 -53.31,-164.2 -69.43,-248.5 -11.84,-61.9 5.99,-141.9 -11.94,-197.5 3.72,11.5 -45.77,99.8 -50.04,121.3 -8.72,44.4 -8.52,89.8 -6.25,134.7 2.19,43.4 18.41,71.3 -29.75,67.9 -33.03,-2.3 -77.98,-33.3 -106.41,-49.1 -145.87,-81.3 -261.82,-210.4 -327.23,-364 -29.07,-68.3 -100.2,-249.1 -53.67,-319 43.12,18.1 114.56,23.2 163.27,25.9 59.9,3.4 115.9,-10.9 173.03,-26.8 53.32,-14.7 100.36,-50.9 151.28,-63.1 -39.93,-12.1 -80.97,11.3 -122.02,16.3 -66,8 -132.09,-15.4 -193.52,-37.8 -224.42,-81.8 -390.5,-222.6 -485.66,-446.1 -23.02,-54.1 -59.48,-135.4 -79.97,-217.6 -77.7,10.9 -161.42,6.1 -227.89,-3.2 -98.17,-13.8 -188.65,-35.2 -272.19,-91.6 -31.56,-21.3 -81.14,-70.3 -119.28,-126.3 -23.05,15 -47.94,27 -71.92,35.8 -205.01,74.9 -370.04,-41.3 -490.45,-198.9 75.1,41 235.5,59.3 313.3,22.8 -62.07,-57 -10.69,-243.3 25.15,-302.3 39.04,-64.3 94.12,-139.1 163.94,-170 -12.89,-16.1 -23.66,-30.5 -31.09,-39.6 -179.82,-221.9 -153.24,-467 -161.87,-733.9 22.39,78.4 68.7,176.1 144.63,241.9 38.12,33.1 75.93,48.6 118.59,66.5 -5.68,-180.1 55.93,-373.7 215.93,-433.6 -25.19,-280.5 210.18,-609.5 504.36,-570.1 55.17,7.3 133.13,15.4 181.16,48.2 42.81,29.1 80.25,97.3 96.74,165.4 71.45,4.6 154.69,42.8 211.62,63.4 37.03,13.4 41.98,7 30.55,41.2 -10.77,32.3 -46.16,65.4 -61.14,98.4 -13.92,30.6 -24.44,62.8 -33.28,95.2 -20.17,73.9 -56.45,186.6 -45.97,263.2 88.28,-267.9 310.92,-469 592.37,-512 146.78,-22.4 345.12,-53 468.22,50.2 -98.52,106.4 -186.8,313.3 -120.79,459.1 22.24,-65.2 41.71,-128.5 73.37,-190.3 98.81,-192.7 304.27,-372.3 501.76,-456.4 239.58,-102 516.3,-94.4 750.06,20.2 115.81,56.8 219.05,138.4 300.65,238.3 98.42,120.5 136.4,265.5 187.29,410 5.6,15.9 11.36,31.7 17.57,47.4 42.97,-56.4 48.96,-186.5 15.83,-250.8 4.24,8.2 131.47,17.3 149.08,23 60.47,19.4 118.04,47.6 171.52,81.7 109.49,69.9 203.34,165.6 272.31,275.5 44.63,71.2 86.09,155.5 107.45,236.8 17.81,67.7 21.2,143.6 38.81,208.3 25.92,-86.9 54.73,-166.3 28.34,-256.7 88.67,-7.5 165.5,43.6 244.3,75.7 81.93,33.5 159.56,77.4 230.36,130.5 144.18,108.2 258.05,254.1 328.67,419.9 223.45,524.9 -20.88,1131.5 -545.71,1355"
         style="fill:#fab222;fill-opacity:1;fill-rule:nonzero;stroke:none"
         id="path18" />
      <path
         d="m 15257.3,11235.3 c 83.5,113.9 55.4,316 3.8,442.2 -100.2,245.1 -361.7,371.3 -628.4,421.7 309.6,502.5 95.6,1053.2 -342.3,1408.5 75.8,-70.5 78.1,-178.8 87.7,-273.6 32.2,-320.7 1.8,-668.5 -125.7,-973.3 27.8,182.2 -112,728.8 -416.7,677 218.1,-159.7 29,-638.4 -57.6,-820.1 117.5,339.8 -35.2,721.1 -270.3,987.2 -258,292.1 -557.1,322.7 -907,460.2 239.1,-266 210.7,-617 178.9,-937.6 -81,140.9 -349.6,194.2 -509.8,193 467.1,-589.8 381.9,-1582.3 -9.1,-2194.4 25,263 -81,639.7 -316.7,814.6 42.8,-191.4 117.6,-436.2 57,-627.2 -16.9,139.2 -42.2,268.2 -129.1,387.9 -29.7,41 -98.2,102.9 -147,114 139.9,-738.9 134.7,-1725.5 -606.6,-2229.6 326.7,-30.7 629.4,172.3 848.7,374.1 3.4,-218.7 224.7,-385.1 436.9,-450.5 369.1,-113.7 763.9,5.7 1059.2,211.9 -136.2,-68.8 -373.3,-55.2 -515.1,13.3 683.1,-9.9 1304.1,482.8 1605.9,998.3 11.7,-232.2 -42.6,-447.2 -196.9,-628.8 331.2,18.3 542.7,270.6 681.2,520.4 299.4,540.2 153.6,1156.9 -415.2,1490.7 328.2,-7.3 509.1,-101.2 634.2,-379.9"
         style="fill:#fab222;fill-opacity:1;fill-rule:nonzero;stroke:none"
         id="path20" />
      <path
         d="m 11685.9,12391.6 c -14.9,133.7 -103.9,258.8 -191,343 -129.1,124.8 -253,156.8 -412.8,211.6 69.3,255.4 -56.2,546.8 -243.7,713 141.7,-159.1 140.2,-451.7 24,-649 11,128.4 -7.2,269.6 -57.8,380.7 -59.6,131.1 -171.6,248 -292.2,309.8 -117.2,60 -271,105.2 -393.9,56.5 47.8,223.2 -229.37,338.2 -322.45,369.5 -361.58,121.7 -774.76,69.5 -1107.07,-196.6 193.85,6.5 415.19,-166.2 473.89,-379.8 12.67,1.4 24.9,1.7 35.84,0.6 223.16,-56.9 397.88,-284.8 332.32,-545.4 97.9,-41 150.58,-75.4 210.94,-173.6 58.32,-94.8 70.01,-169.5 76.4,-291.5 6.4,-122.9 -57.83,-209.3 -63.05,-323.5 189.41,68.3 425.38,-11.8 580.98,-103.4 112.8,-66.3 217.2,-144.9 300.5,-249.9 41.8,-52.5 69,-131.1 110.5,-174.1 67.2,75.4 103.9,175.1 182,251.8 147.9,145.3 331.7,303.6 532.1,277 40.3,-5.3 134,-66 166.1,-49.1 54.6,28.7 63.9,173 58.4,222.4"
         style="fill:#fab222;fill-opacity:1;fill-rule:nonzero;stroke:none"
         id="path22" />
      <path
         d="m 14818,14772.7 c 100.4,144.7 139.2,335.8 117.5,517.3 -48,400.6 -436.1,682.8 -827.2,713 130.2,102.5 411.7,26.7 537.3,-51.4 41.5,102.9 -103,188.9 -177.8,229.5 -58.1,31.6 -109.1,48.8 -177.5,64.9 -104.9,24.9 -324,35.1 -534.9,6.8 82,257.4 -53.4,546.8 -292,688.2 -116.7,69.1 -271.5,101.8 -424.7,103.5 -90.4,241 -378.3,387.1 -644.8,464.2 -643.6,186 -1304.3,-45.3 -1648,-640.9 -36.3,-62.9 -68.3,-139 -94,-221.5 -30.3,0.3 -60.4,-0.4 -90.3,-3.1 -278,-25.6 -565.72,-154.5 -763.8,-355.2 -17.17,-17.4 -40.28,-46.7 -63.13,-82.1 -95.57,113 -253.53,189.3 -383.15,220 -359.36,85 -654.73,-156.8 -869.67,-415.6 122.29,115.1 335.51,137.1 491.08,79.2 -127.52,-114.8 -236.61,-271.2 -279.61,-358.4 -2.51,-5.1 -5.19,-11 -7.89,-16.9 -39.41,19.9 -77.74,35.2 -109.41,44.7 -480.16,144.9 -883.23,-179.4 -1082.48,-596.9 61.1,83.6 155.03,142.4 251.64,176.4 98.84,34.7 187.34,17.7 282.5,26.2 l 1.21,0.2 c -2.85,-14 -4.99,-28.4 -5.7,-43.5 -1.51,-32.2 -1.95,-65.7 0.85,-98.9 -52.98,0.3 -99.51,-5 -123.7,-13.9 -168.91,-62.3 -280.88,-229.8 -293.81,-408.2 -6.4,-88.2 22.09,-156.8 68.53,-202.8 -5.02,-13.3 -9.89,-26.4 -14.5,-38.9 -50.11,-135.2 -6.02,-284.6 23.66,-419.2 8.87,-40 19.22,-87.5 31.83,-134.5 229.82,497.2 764.1,854.6 1315.81,854.6 266.54,0 509.43,-73.3 717.12,-198.3 283.42,234.8 643.52,378.9 1010.72,378.9 717.2,0 1282.9,-476 1491,-1111.8 18.9,23 39.1,45.3 61.6,66.1 75.1,80.9 164,138 266.8,171.5 98.8,51.9 205.3,75.7 319.4,71.4 h 9.4 c 149.7,-0.4 289.2,-38.2 418.5,-113.2 55.9,-43.2 111.8,-86.4 167.8,-129.7 58.9,-59.3 106.2,-125.5 144.3,-197 50.7,26.3 103.6,48.8 160.4,64.7 73.5,9.9 147,19.8 220.5,29.6 114.1,4.3 220.6,-19.5 319.4,-71.4 102.8,-33.4 191.7,-90.6 266.8,-171.4 28,-26.1 52.2,-54.4 74.6,-83.8 191.9,57.8 349.3,237.8 426.8,418.3 137.6,320.8 -27.2,641 -289,789.3"
         style="fill:#fab222;fill-opacity:1;fill-rule:nonzero;stroke:none"
         id="path24" />
      <path
         d="m 14499.6,7795.9 c 15.7,-67.5 39.4,-131.9 75.2,-196.6 -326,87.9 -745,373 -745.6,742.4 -0.1,69.6 17.1,141.4 11.8,210 -199.4,-329.8 -210,-747.9 -142.5,-1112.4 -96.8,-30.9 -228.7,-27.3 -330.3,-34.9 -146.2,-10.9 -287.2,-3 -430.9,21.7 -113,19.4 -298.1,24.4 -372.6,124 56,77.2 164.6,123.8 230.9,196.5 199.6,218.7 325.1,518.4 399.3,801.1 19.8,75.3 66.6,235.4 30,307.5 -107.8,-143.1 -203.5,-296.2 -330.2,-423.7 -182.7,-183.8 -406.4,-335.8 -644.5,-437.1 -378.9,-161.2 -805.6,-159.3 -1182.1,9.2 -258.9,116 -455.9,368.4 -576.8,619.2 -54.6,113.2 -123.5,263.7 -124.7,391 -69.8,-86.3 -108.2,-248.1 -132.1,-356.3 -24.5,-111.8 -36.2,-226 -57.5,-337.8 -18.1,-94.8 -40.2,-202.9 3.3,-294.6 -178.4,-101 -411.46,-156.4 -610.55,-195.3 -112.18,-21.9 -293.53,-71.7 -403.52,-35.3 365.2,219.7 670.84,660.5 740.63,1085.8 -156.33,-153.4 -326.26,-269.8 -529.71,-355.4 -132.72,-55.8 -271.69,-109.3 -406.46,-160.2 -95.51,-36.1 -214.66,-48.9 -315.66,-72.2 -94.08,-21.7 -268.43,-25.7 -346.96,-81.6 128.18,91.3 223.7,209.7 323.87,329.6 62.31,74.7 127.77,148.9 134.29,248.3 -88.2,-44.9 -165.27,-117.6 -247.76,-174.1 -168.17,-115.1 -365.82,-193.1 -559.25,-254.2 -355.88,-112.3 -744.04,-113.2 -1101.24,-13.5 -430.91,120.4 -786.07,529.3 -881.66,958.8 -79.09,-111.3 -64.99,-332.6 -58.02,-461.4 6.88,-128.1 18.63,-268.1 58.95,-390.7 15.15,-46.1 45.39,-91.8 55.95,-137 -187.79,75.1 -377.41,190.3 -525.77,329.5 -158.9,149 -240.6,320.8 -351.91,502.5 -24.6,-238 -15.28,-477.7 158.88,-677.5 -1511.18,-511.9 -1972.15,456.9 -1978.71,514.1 23.1,-201.1 84.71,-393.2 204.83,-565 421.92,-603.3 1316.17,-696.3 1940.9,-385.1 -17.81,-178.7 -334.53,-291.3 -483.36,-290.5 98.53,-259.5 510.93,-271.8 736.83,-269.2 149.64,1.7 296.63,35.2 438.98,81.8 159.63,52.2 268.33,158 407.61,245.3 -132.91,56.4 -248.44,137.7 -268.15,296 78.93,-89.6 197.93,-161.5 305.77,-210.1 82.61,-37.2 181.5,-76.4 273.55,-76.3 92.71,0.1 184.48,1.2 276.97,9.4 93.38,8.2 184.33,12.5 278.04,23.2 80,9.2 148.66,47.8 225.4,59.7 -141.05,-142.9 -285.38,-221 -485.41,-252.4 1.46,0.2 126.4,-139.7 145.47,-152.6 69.44,-46.9 149.44,-77.5 231.02,-95.5 219.51,-48.3 447.6,-34 665.1,17.8 107.45,25.7 212.66,60.2 315.34,100.8 22.25,8.7 236.42,89.5 268.09,124.5 -66.24,-139.1 -216.98,-258.6 -362.58,-302.2 21.34,-60.5 106.28,-120.8 150.43,-166.7 114.49,-119.1 265.76,-174.9 421.99,-215.6 229.52,-59.9 491.91,-71.3 724.97,-35 180.68,28.1 356.82,54.2 526.32,125.9 131.4,55.7 258.9,116.8 386.1,180.9 -164.4,112.1 -232.3,352.3 -230.5,544.1 55.2,-76.1 90.8,-175.2 142.3,-256.1 79.3,-124.5 164.6,-224.6 289.8,-307.6 208.8,-138.3 475.3,-201.8 723.1,-217.9 149.4,-9.7 300.4,25.8 440.4,74.3 79.8,27.6 201.8,115.2 284.9,110.5 -34.8,-54.1 -77.5,-108.3 -131.5,-146.7 -79.2,-56.5 -179.8,-109.3 -271.6,-140.7 -73.9,-25.3 -156.2,-25.1 -229.1,-45.8 -25.1,-7.1 165.6,-192.3 180.9,-204.2 87.4,-68.2 183,-125.5 283.1,-173 205.6,-97.8 429.4,-155.1 654.8,-183.8 172,-21.9 357.1,-34.2 541.9,-26.3 353.3,15.2 706.1,104.1 967.6,340.4 -239.8,18.9 -385.6,256.8 -377.3,492.5 -3.9,-109.1 173.9,-258.2 254.2,-308.6 120.5,-75.7 222.2,-113.1 366.4,-129.5 280.2,-31.8 582.9,19.1 782,234.7 -143.5,26.6 -265.5,189.7 -339.1,304.1 216.6,-123.3 486.3,-190.5 737.4,-152.4 47.9,7.2 147.7,50.7 190.6,24.7 37.3,-22.6 17.1,-79.2 37.4,-101.3 47.5,-51.4 129,64.8 149.1,-41.3 13.2,-70 -4.1,-162.8 23.6,-226.3 48.4,-111.1 170.5,-3.7 232.2,-91.3 61.8,-88 32.2,-245.3 189.2,-192 164.6,55.9 287.4,197.2 418.1,302.9 80.2,64.9 220.2,149.4 272.2,10.4 23.8,-63.6 27.8,-136.7 28,-203.5 0.1,-30.7 -13.6,-96 12.5,-122.4 47,-47.9 138.3,22.8 176.2,-43.2 20.1,-35.1 -20.8,-133.9 -31.5,-170.8 -13.1,-45.3 -27.6,-89.7 -37.6,-135.8 -9.4,-43.3 -28.5,-98.3 10.3,-132 23.8,-20.6 55.6,-12.6 81.5,-27 27.1,-15.1 38.1,-43 65.5,-57.4 31,-16.2 82.3,-17.3 115.8,-13.6 129.8,14 250.3,148.1 326.5,243.2 37.7,47 65.4,130.1 110.7,169 27.2,23.3 34.6,26.6 51.1,-6.5 25.5,-51.3 -3.5,-174.9 -3.6,-227.6 -0.1,-43.8 -16.3,-109.4 -7.9,-151.9 6.5,-32.7 20.9,-22.8 32,-44.5 15.9,-31.4 11.6,-59.1 16.4,-97.6 14.7,-119.6 79.6,-83.6 159.4,-138.3 57.1,-39 62.7,-94.7 133.9,-118.6 89.9,-30 169.9,-38.2 260.1,-20 -39.2,82.9 -116.2,146.4 -186,212 -87,81.8 -157.1,129.2 -198.4,248.2 -33,95.5 -51.1,204.1 -39,305.1 18.6,155.7 78.2,313.4 82.4,470.1 0.7,25.9 -3.1,139.1 -37.7,153.5 -62.6,26.2 -165.5,-169.4 -196.3,-207.4 -65.4,-80.2 -282,-312.1 -402.8,-208 -15.9,13.7 -13.2,46 -29.3,57.8 -33.8,24.7 -15.7,-8.7 -55,0.5 -85,19.9 -65.4,75.2 -86.3,157.9 -20.9,82.6 -57.6,178.5 -117.9,241.3 -56,58.4 -152.2,77.3 -202.2,137.6 -62.8,75.4 4,187.8 -59.2,268.4 -82.6,105.1 -299,-62.8 -379.6,-96.4 -94.4,-39.3 -270.2,-102.5 -346.3,-5.2 -31.8,40.6 -34.6,100.4 -87.6,129 -49.6,26.7 -93.3,1.2 -143.6,6.2 -162.2,16.1 -110.4,250 -311.7,169.1 -258.7,-103.9 -600.2,142.3 -800.1,298.3 -238.2,186 -527.3,448.9 -619,747.3 -70.8,-156.2 -63.1,-368.5 -51.8,-535.4 4.4,-65 12.1,-125.5 25.7,-183.7"
         style="fill:#f47126;fill-opacity:1;fill-rule:nonzero;stroke:none"
         id="path26" />
      <path
         d="m 5193.18,6905.8 c -135.45,-46.3 -494.59,-50.5 -597,18.5 -305.82,206 -573.51,442.1 -784.31,738.1 8.45,-56.4 -6.7,-119.2 -7.36,-178.3 -1.36,-123.3 -4.24,-247.6 7.97,-370.4 21.8,-219.7 120.02,-394.1 241.14,-571.9 -61.85,25.1 -123.06,95.5 -175.88,137.9 -55.38,44.4 -91.23,95 -129.16,153.9 -24.04,37.4 -43.61,116.7 -71.32,144.9 -28.25,28.8 -79.43,19.9 -121.24,15 -98.99,-11.7 -197.08,-52.5 -257.91,-134.5 -192.57,-259.6 -38.73,-633.7 137.34,-859.1 -110.35,22 -206.6,187.5 -257.32,277.2 -46.12,81.6 -136.78,229 -109.17,325.1 -71.75,41.4 -249.71,22 -323.13,-4.3 -140.44,-50.3 -266.6,-144.2 -357.52,-262.8 -248.5,-324 -89.11,-838.5 200.27,-1075.1 -67.09,10.1 -147.94,49.6 -211.5,79.8 -55.03,26.2 -114.51,58.1 -156.95,103.3 -19.71,21 -54.69,111 -84.19,113.8 -40.51,3.9 -142.68,-121.8 -164.92,-149.3 -52.08,-64.3 -93.72,-153.7 -96.66,-238.3 -2.86,-81.9 45.14,-157.8 93.47,-221.8 54.1,-71.7 113.27,-127.9 178.98,-170.6 103.82,-67.5 223.96,-101.2 366.26,-109 139.61,-7.6 301.29,33 389.08,149.6 99.1,131.7 -96.83,214.4 -45.12,335 46.7,-6.9 267.58,-151.5 238.18,-24.7 40.48,0.2 67.84,-46.1 109.04,-48.2 52.03,-2.6 42.53,35 68.57,46.2 73.21,31.6 165.99,-31.4 219.92,70.4 33.48,63.1 -39.26,146.2 -2.55,193.2 7.8,10 47.62,4.5 64.56,25.8 31.73,40 3.04,104.9 -13.94,143.8 -33.06,75.8 -115.37,218.6 25.48,215.8 92.71,-1.8 130.25,-58.9 201.56,-100.1 80.15,-46.3 184.19,-66.4 274.81,-78.7 35.52,-4.8 115.9,-13.3 143.61,11.9 33.97,31 10.69,93.8 19.9,136.1 26.31,121 96.97,55.5 171.64,99.9 28.82,17.1 26.8,52.5 46.38,65.3 17.59,11.5 69.65,7.7 92.3,14.4 94.09,27.9 108.14,63.3 49.65,132.3 -66.23,78.1 -168.82,168.4 -212.45,285.6 55.45,-30.7 130.3,-94.8 190.38,-131.5 41.49,-25.4 66.92,-8.6 116.64,10.3 46.99,17.9 16.47,42.4 87.06,34.8 96.35,-10.3 161.86,-29.4 258.11,-3.8 68.87,18.3 184.38,80.2 252.68,94.1 -84.94,126.8 -144.77,345.6 -65.38,560.4"
         style="fill:#f79424;fill-opacity:1;fill-rule:nonzero;stroke:none"
         id="path28" />
      <path
         d="m 7150.5,6477.6 c 76.41,20.5 151.55,43.6 223.53,77.9 -75.06,33.9 -146.99,56.5 -217.65,76.5 -70,24.1 -137.86,46.2 -204.93,64.2 -130.15,48.3 -257.68,85.2 -369.5,144.4 -113.4,55.8 -217.93,120.3 -313.35,206.2 -95.98,86 -184.9,189.5 -267.53,326 -47.3,-156.2 -10.66,-330.2 72.45,-476.5 50.21,-88.4 119.34,-165.5 198.66,-229 -75.12,-22.1 -153.21,-32.7 -231.57,-30.6 -187.92,5.2 -409.94,78.4 -513.25,245 -61.05,98.4 -115.1,246.7 -73.25,358.8 -18.1,-48.4 -49.94,-89.6 -65.65,-140.5 -4.65,-15.1 -9.04,-30.3 -13.13,-45.5 -38.62,-143.9 -50.5,-294 -5.49,-438.8 76.2,-245.1 278.91,-418.4 537.86,-434.1 142.29,-8.6 253.86,49.2 386.77,83.8 6.99,-224.3 156.06,-420.9 351.09,-522.8 157.44,-82.2 371.96,-83.9 540.02,-46.6 -189.72,63.9 -329.09,165.3 -432.64,344.5 -78.71,136.2 -141.78,299.6 -176.59,463.6 111.59,-35.3 227.33,-48.4 339.7,-52.6 79.25,4.4 157.84,11 234.45,26.1"
         style="fill:#d32027;fill-opacity:1;fill-rule:nonzero;stroke:none"
         id="path30" />
      <path
         d="m 13352.3,5292.6 c -95.4,30.8 -195.1,81.1 -281.6,143.8 67.8,31 128.1,74.3 183.1,120.3 35.6,35.9 69.9,72.7 99.7,112.5 27.4,42.4 53.1,85.4 72.4,132.4 -50,-16 -93.6,-36.1 -135.5,-56.8 -43.5,-18.5 -85,-37.1 -124.4,-57.2 -82.2,-32.8 -158.3,-69.9 -236.5,-89.7 -77.5,-22 -154.5,-36.2 -236.4,-36.3 -82.1,-0.4 -168.4,10.6 -265.7,39.8 44.3,-94.1 136,-160.7 237.8,-194.4 61.4,-20.3 126.8,-27.2 191.3,-23.4 -26,-42.5 -58,-81 -95.9,-113.4 -91.1,-77.9 -227.4,-138.2 -347.4,-103.5 -71,20.5 -159.9,67.5 -188,138.4 12.1,-30.6 14.7,-63.7 29,-94.5 4.2,-9.2 8.6,-18.2 13.2,-27.2 43.3,-84.5 101.8,-160.6 184.9,-209.8 140.9,-83.4 310.7,-78.7 439.9,24.5 71,56.8 99.1,131.8 147.1,204.9 99.2,-103 253.7,-132.3 389.5,-97.2 109.6,28.4 211.8,119.3 275.3,208.8 -117,-50.9 -226.2,-62.5 -351.8,-22"
         style="fill:#d32027;fill-opacity:1;fill-rule:nonzero;stroke:none"
         id="path32" />
      <path
         d="m 16382.8,12903 c 0.6,-133 -16.5,-276.2 -49.6,-405 -51.9,82.1 -113.3,151.4 -175.6,212.8 -46.3,38.4 -93,75 -141.2,104.9 -50,26 -99.9,49.7 -151.9,64.1 31.6,-62.1 65.1,-114.8 98.7,-165.2 31.9,-52.9 63.2,-103.2 95.4,-150.3 58.1,-100.6 118.5,-192 162.8,-290.4 46.2,-96.8 84.6,-194.9 110.9,-302.7 26.6,-108.1 43.6,-224.3 46.4,-359.5 77.2,80.7 112.6,217.2 112.8,359.2 0.1,85.7 -14.2,173.5 -38.5,257.5 49.6,-24.3 97.3,-57.2 140.9,-99.5 104.8,-101.6 207,-266.9 211.8,-433.2 2.7,-98.3 -14.5,-226.5 -74.4,-280.3 25.9,23.2 57.2,34.4 82.6,60.5 7.5,7.8 14.9,15.7 22.1,23.9 68.3,76.9 123.5,171.9 144.8,293.1 35.9,205.1 -23,427.8 -164.7,573.6 -77.8,80.1 -159.7,99.3 -246.2,145.4 68.5,154.9 47.5,365.4 -30.2,535.9 -62.6,137.6 -183.6,250.8 -290.9,313.4 86.9,-142.2 133.1,-283.3 134,-458.2"
         style="fill:#fab222;fill-opacity:1;fill-rule:nonzero;stroke:none"
         id="path34" />
      <path
         d="m 10677.8,10593.6 c -115.1,-66.4 -247.9,-122.6 -376.2,-157.6 45.5,85.7 75.3,173.3 97.8,257.9 10.4,59.3 19,117.9 21,174.7 -2.1,56.2 -6.3,111.4 -19.6,163.6 -38.2,-58.2 -67.4,-113.4 -94.5,-167.5 -30.1,-53.9 -58.3,-106.1 -83.3,-157.4 -58.5,-100.3 -108,-198.1 -171.5,-285.2 -61.2,-88.2 -127.34,-170.1 -207.9,-246.4 -80.7,-76.7 -173.25,-149.1 -289.27,-218.5 108.28,-27.1 244.4,9.8 367.89,80.1 74.39,42.3 143.58,98.2 204.58,161 3.5,-55.1 -1.5,-112.9 -16.6,-171.7 -36.3,-141.4 -129.25,-312 -271.34,-398.6 -83.98,-51.2 -203.91,-99.7 -280.33,-74.3 33.04,-11 58.28,-32.7 93.55,-41.7 10.45,-2.7 21,-5.2 31.65,-7.5 100.65,-21.2 210.55,-22 326.37,19.6 196,70.4 360.2,232 416.6,427.2 31,107.4 7.1,188 4.2,286 168.5,17.3 340.9,139.8 450.5,291.8 88.5,122.6 126.9,283.8 128,407.9 -80.4,-145.8 -180,-255.9 -331.6,-343.4"
         style="fill:#fab222;fill-opacity:1;fill-rule:nonzero;stroke:none"
         id="path36" />
      <path
         d="m 6610.97,15686.7 c -18.6,-131.6 -21.05,-275.8 -5.51,-407.9 62.44,74.3 132.57,134.7 202.61,187.2 51.08,31.7 102.26,61.7 154.13,84.8 52.96,19 105.72,35.7 159.1,43 -39.69,-57.2 -80.01,-105 -120.08,-150.4 -38.71,-48 -76.51,-93.7 -114.79,-136.1 -71.21,-91.7 -143.33,-174.2 -200.45,-265.6 -58.89,-89.8 -110.17,-181.7 -150.82,-285 -40.98,-103.5 -73.47,-216.4 -94.48,-349.9 -65.62,90.3 -82.28,230.3 -63.24,371.1 11.46,84.9 37.42,170 72.84,250 -52.4,-17.4 -104.12,-43.7 -153.02,-79.7 -117.57,-86.5 -241.13,-236.5 -268.3,-400.6 -16.05,-97 -16.27,-226.4 35.84,-287.8 -22.51,26.5 -52.06,41.8 -73.67,71.1 -6.37,8.8 -12.61,17.6 -18.71,26.7 -57.31,85.4 -99.14,187 -103.85,309.9 -7.94,208.1 80.49,420.8 240.57,546.2 87.94,68.8 171.67,76.8 263.55,110.8 -46.87,162.7 2.32,368.4 102.27,526.9 80.65,127.9 215.83,223.8 330.58,271.2 -105.27,-129.1 -170.14,-262.7 -194.57,-435.9"
         style="fill:#fab222;fill-opacity:1;fill-rule:nonzero;stroke:none"
         id="path38" />
      <path
         d="m 10549.6,5729.7 c -137.1,-21.9 -266.3,-52.4 -392.8,-55.7 -126.2,-7.1 -248.86,-2.2 -374.22,25.7 -123.7,27.3 -249.85,72.9 -386.12,148.8 l 0.81,2.6 c 191.94,-116.1 438,-98.1 629.63,10.2 154.6,87.3 272.8,266.4 332.9,427.7 -156.9,-124.4 -317.7,-186.2 -524.41,-175.6 -235.37,12.1 -503.87,85.6 -704.48,211.3 6.68,-4.2 -70.03,-229 -78.02,-258.1 -22.15,-80.9 -57.79,-157.4 -105.34,-226.5 -106.57,-154.8 -288.74,-301.3 -484.75,-297.3 -115.81,2.3 -269.68,37.6 -340.97,133.7 30.82,-41.5 48.06,-90.6 82.26,-131.5 10.11,-12.1 20.46,-24.1 31.04,-35.8 99.7,-110.7 219.15,-202.3 365.16,-243.3 247.11,-69.4 502.81,6.3 656.86,215.1 81.92,111 96.17,231.8 136.27,357.7 39.03,-153.2 153.11,-281.8 293.18,-365.9 145.72,-87.6 321.8,-122.5 488.3,-112.6 169.2,5.4 323.7,66.5 464.1,138.9 66.8,42.8 132.1,87.1 191.4,137.9 56.5,55.4 110.6,112.4 156.4,177.7 -82,-7.4 -155.7,-23.1 -227.1,-40.3 -72.8,-13.4 -142.8,-27.5 -210.1,-44.7"
         style="fill:#d32027;fill-opacity:1;fill-rule:nonzero;stroke:none"
         id="path40" />
      <path
         d="m 8807.4,11920.5 c -79.29,54.5 -172.22,87.8 -268.13,95.7 -24.02,2 -48.53,2.9 -72.62,1.4 -31.96,-2.1 -30.74,-2.3 -32.88,-32.8 -3.47,-49.7 -7.39,-97.7 -32.4,-142.2 22.31,209.4 -82.79,426.2 -254.11,543.8 -134.4,92.3 -279.22,112.3 -435.81,77.7 -42.85,-9.4 -88.73,-20 -123.22,-48.3 -21.45,-17.6 -36.24,-45.6 -63.23,-53.2 24.45,25.3 38.05,62.7 62.92,90.3 26.68,29.5 53.22,57.8 88.36,77.5 28.56,16 70.86,38.9 101.82,44.1 1.17,56.4 -104.28,133.2 -145.31,161.4 -92.4,63.4 -204.58,94.7 -316.49,88.2 -21.81,-1.2 -58.44,0.1 -78,-10.4 -28.48,-15.5 -9.26,-25.4 7.65,-49.3 17.46,-24.6 33.93,-50.2 44.94,-78.5 5.36,-13.7 9.14,-81.5 15.4,-86.7 -30.21,25 -48.92,76.7 -77.91,107.5 -39.53,42 -80.9,83.4 -128.87,115.8 -459.33,310.4 -992.88,-42.9 -1092.23,-535.6 -32.42,-160.8 -4.04,-293.2 53.04,-443.4 -72.25,45.2 -150.74,75.9 -182.29,163.4 -29.59,82.1 -26.17,195 19.49,270.5 -238.54,-195.6 -464.29,-554.1 -385.87,-863.6 -105.51,-17.4 -216.67,-140.3 -261.07,-233.3 -83.53,-175.1 -75.38,-412.7 22.41,-580.4 -48.23,173.2 3.86,421.6 180.78,498 -153.84,-297 -2.3,-667.3 257.54,-845.7 99.75,-68.5 216.8,-110.1 337.46,-119.4 59.22,-4.6 119.02,-1.5 177.49,9.1 56.23,10.2 118.1,8.9 165.65,45.1 -47.53,41.7 -59.82,97.1 -76.46,155.6 33.3,-30.3 62.58,-72 97.02,-104 41.42,-38.3 95.25,-71.1 146.19,-95.4 78.69,-37.4 166.31,-57.8 253.5,-57.9 42.61,-0.1 85.33,4.7 126.6,15.5 12.01,3.1 87.35,43.8 92.74,40.7 -41.98,24.5 -85.41,100.3 -81.39,147.7 9.16,-6.6 18.1,-13.5 27.02,-20.5 80.85,-63.5 154.61,-131.9 253.76,-164.7 82.21,-27.2 170.11,-36.2 256.18,-26.7 173.71,19.3 333.14,114.7 432.1,258.8 81.56,118.8 133.21,294.6 119.76,439.3 -4.34,46.4 -16.1,89.3 -27,134.2 89.92,-58.8 114.46,-207.7 97,-303.5 106.9,-14.2 208.22,74.7 283.25,140.3 143.92,125.7 197.61,319.8 151.11,503.3 33.47,-39.5 53.55,-116.4 68.79,-165.6 6.68,-21.6 12.28,-43.6 15.42,-65.9 3.39,-24 -4.72,-55.6 0.81,-77.8 5.87,-23.5 6.38,-18.1 32.15,-12.3 23.29,5.2 46.58,13.4 68.36,23.2 89.55,40.1 167.38,113.9 222.53,194.3 174.18,253.6 109.74,600.5 -143.95,774.7"
         style="fill:#f8e43d;fill-opacity:1;fill-rule:nonzero;stroke:none"
         id="path42" />
      <path
         d="m 14470.8,15058.3 c 0,299.2 -242.6,541.7 -541.7,541.7 -19.4,0 -38.5,-1.1 -57.4,-3.1 37,263.1 -117.7,537.4 -347,681 85.4,-128.8 133.6,-376.4 20.2,-498.5 -9.3,230.5 -63,414.4 -204.2,606.3 -120.9,164.3 -285.2,307.4 -475.5,386.9 -201,83.8 -366.6,6 -564,25.1 84.9,104.7 291.4,99 409.4,66 -91,77.7 -237,84.6 -356.3,71 -339.2,-38.7 -683.6,-288.4 -778.2,-622.5 -143,39.5 -318.2,37.7 -413.5,26.7 -410.7,-47.4 -754.9,-263.2 -933.5,-634.7 35.8,210.6 98.6,323.4 240.5,483.9 -217.2,-63.4 -393,-356.9 -493.18,-545.8 -80.98,-152.7 -167.75,-334.7 -188.04,-564.1 261.92,314.2 666.92,428.1 1059.72,476 348,42.4 777.5,-12 1047.4,-257.7 218.8,-199.1 337.4,-423.1 416.5,-701.6 153.7,203.1 510,282.5 748.4,231.3 290.7,-62.4 519.1,-287.4 612.9,-566.4 68.6,24.2 179.1,132.4 265.6,257.3 294.6,5.3 531.9,245.4 531.9,541.2"
         style="fill:#f8e43d;fill-opacity:1;fill-rule:nonzero;stroke:none"
         id="path44" />
    </g>
  </g>
</svg>
