<?xml version="1.0" encoding="UTF-8" standalone="no"?>
<!-- Created with Inkscape (http://www.inkscape.org/) -->

<svg
   version="1.1"
   id="svg2"
   width="2829.3333"
   height="2829.3333"
   viewBox="0 0 2829.3333 2829.3333"
   sodipodi:docname="vecteezy_explosion-vector-style_16754537.eps"
   xmlns:inkscape="http://www.inkscape.org/namespaces/inkscape"
   xmlns:sodipodi="http://sodipodi.sourceforge.net/DTD/sodipodi-0.dtd"
   xmlns="http://www.w3.org/2000/svg"
   xmlns:svg="http://www.w3.org/2000/svg">
  <defs
     id="defs6" />
  <sodipodi:namedview
     id="namedview4"
     pagecolor="#ffffff"
     bordercolor="#000000"
     borderopacity="0.25"
     inkscape:showpageshadow="2"
     inkscape:pageopacity="0.0"
     inkscape:pagecheckerboard="0"
     inkscape:deskcolor="#d1d1d1" />
  <g
     id="g8"
     inkscape:groupmode="layer"
     inkscape:label="ink_ext_XXXXXX"
     transform="matrix(1.3333333,0,0,-1.3333333,0,2829.3333)">
    <g
       id="g10"
       transform="scale(0.1)">
      <path
         d="m 16173.2,10354.5 1803.4,56.4 c -770.4,78.3 -1535,212.8 -2285.8,402.1 710.9,40.7 1421.8,81.4 2132.8,122.1 -688.7,-39.4 -1557,268.9 -2363.5,398 134.7,340.2 267.2,734.2 264.9,898.8 -4.5,293.5 -199.6,575.8 -472.5,683.7 68.4,65.5 136.2,131.1 204.6,196.7 -158.5,151.2 -356.9,260.7 -569.8,314.1 244.6,65.6 326.9,440.8 132.3,603 373.9,249.5 521.4,785.2 333,1191.9 27.7,28.4 55.5,56.8 83.3,85 1454.3,1473.6 2908.7,2947.2 4363,4420.8 -1452.1,-1471.3 -3229.1,-2778.1 -4835,-4081 560.8,738.7 1017.1,1597 1588.7,2356.4 -484.2,-445.7 -968.4,-891.4 -1452.5,-1337.2 347.1,491.2 694.2,982.3 1041.3,1473.5 -526.6,-567.8 -1094.5,-1097.1 -1697.9,-1582.4 395.8,592 791.5,1184 1187.3,1776 -399.6,-597.8 -1218.5,-1123.8 -1815.3,-1719.1 -1.9,-0.3 -3.9,-0.6 -5.9,-0.9 184.5,437.4 -389.1,958.2 -807.1,732.5 -71.1,464.7 -384.6,885.5 -810.4,1086.2 -172.3,81.1 -362.4,129.5 -516.9,240.6 -255.7,184.6 -434.7,544.2 -749.8,532 -355.8,-13.9 -479.7,-472.5 -725.9,-730.4 -141.2,-147.3 -334.64,-232.3 -492.5,-363 -157.3,-130 -281.81,-343.5 -207.89,-534.1 -256.23,105 -585.84,-100.6 -605.85,-376.9 10.56,146.8 -601.96,-266.8 -653.65,-402.9 -91.71,-240.2 1.67,-575.3 183.42,-748.7 -36.12,18.3 -1593,529.1 -1247.83,-33.9 -269.75,439.7 -947.3,534.6 -1346.83,223.5 -549.84,1051.4 -1099.68,2102.8 -1649.51,3154.2 103.53,-738.7 328.97,-1460.2 664.44,-2126.4 -227.94,250 -417.65,534.8 -560.5,841.5 -21.17,-367.2 29.17,-738.2 147.37,-1086.4 -231.51,225.2 -463.02,450.4 -694.53,675.6 181.02,-459.2 390.42,-907.2 626.57,-1340.6 -8.41,-9 -16.46,-18.2 -24.14,-27.7 -868.76,912.1 -1789.19,1775 -2755.45,2583.1 747.41,-1004.5 1494.84,-2008.9 2242.26,-3013.3 -168.41,-210.8 -208.94,-546.3 4.78,-726.7 -20.43,-31.7 -40.79,-64.2 -60.92,-97.4 -765.67,329.9 -1552.65,610.3 -2354.46,838.7 658.84,-522.6 1345.13,-1010.6 2055.01,-1461.5 -56.42,-164.4 -92.82,-330 -97.33,-487.4 -48.32,-6.7 -96.46,-14.7 -144.33,-24 47.01,9.2 95.05,8 143.87,-1.2 -1.6,-235.4 70.37,-451.2 256.4,-616.5 245.67,-219 475.23,-294.6 689.23,-559.1 -268.47,-92.9 -399.09,-456.4 -251.79,-698.7 147.29,-242.4 530.26,-293.5 735.91,-98.4 -101.72,-130.6 -43.35,-351.8 109.5,-415.8 81.71,2.3 163.42,5 245.67,7.3 -222.32,-102.3 -371.85,-344.7 -362.94,-589.2 9.44,-244 176.2,-475.3 405.2,-560.9 -236.24,16.2 -491.36,26.7 -689.24,-103.3 -202.88,-134 -295.7,-413.6 -212.87,-642 82.81,-229 332.94,-384.6 574.72,-357.4 -271.8,-179.6 -317.93,-479.7 -580.29,-653.1 -12.22,-85.6 16.67,-152.9 42.25,-236.8 76.7,-254 336.83,-433.5 599.74,-436.9 -58.93,-270.1 17.22,-574.1 222.33,-762.6 13.35,-12.2 27.23,-23.9 41.69,-35 l 7.22,-10 -2.23,6.1 c 306.83,-236.2 797.07,-203.4 1062.2,82.8 146.18,-295.7 317.93,-613.6 621.96,-742.6 7.79,-3.3 15.01,-6.1 22.79,-8.9 197.98,-71.5 447.69,-6.3 584.4,136.5 4.43,4.6 8.76,9.3 12.95,14.1 7.14,8.2 13.96,16.6 20.37,25.3 2.31,3.1 4.56,6.3 6.75,9.4 1.75,2.5 3.49,5.1 5.17,7.6 3.59,5.5 7,11 10.26,16.5 1.47,2.5 2.93,5.1 4.34,7.6 2.08,3.8 4.1,7.6 6.04,11.5 0.03,0 0.07,0.1 0.11,0.2 3.39,6.7 6.53,13.5 9.45,20.4 1.86,4.4 3.63,8.8 5.31,13.3 1.29,3.5 2.56,7 3.74,10.5 0.89,2.7 1.74,5.4 2.57,8.1 1.05,3.4 2.02,6.8 2.96,10.2 0.28,1.1 0.55,2.1 0.82,3.2 1.01,3.9 1.96,7.8 2.81,11.7 0.5,2.3 0.96,4.5 1.41,6.8 0.89,4.5 1.67,9.1 2.36,13.7 0.7,4.6 1.29,9.3 1.77,13.9 0.49,4.7 0.88,9.4 1.16,14.1 1.27,21.3 0.43,43.2 -2.74,65.7 97.27,-371.3 352.4,-698.2 688.68,-882.1 145.62,-79.5 315.71,-134 477.45,-96.8 107.95,24.9 189.1,77.5 252.25,149.5 -95.35,-425.6 -169.31,-857.8 -262.66,-1243.5 264.13,384.3 528.26,768.7 792.39,1153 l 101.03,147 C 9468.2,4593.3 9228.62,3039.9 8922.26,1499.7 c 322.82,1326.4 645.61,2652.8 968.42,3979.2 73.34,301.4 153.72,616.4 362.12,846 39.8,-846.4 56.1,-1694 48.8,-2541.3 166.5,790.7 332.9,1581.5 499.4,2372.2 113.5,-512.3 253.1,-1018.9 418,-1517 -106.1,624.3 -71.2,1272.3 101.4,1881.6 209.8,-989.5 419.6,-1979 629.4,-2968.4 133.7,-630.6 269.4,-1267.5 540.9,-1852.1 -405.1,1522.2 -677.7,3079.5 -813.8,4648.8 473,-522.6 852.7,-1129.4 1115.7,-1783.4 -196.2,644 -411.5,1282.3 -645.4,1913.6 233.4,-292.8 466.9,-585.6 700.3,-878.3 -125.9,391.1 -251.7,782.2 -377.5,1173.3 670.7,-983.2 1280.3,-2007.9 1824.2,-3066.5 -492.9,1261.7 -866.8,2558.9 -1323.6,3820.3 15.4,8.9 30.5,18.6 45.2,29.1 67.9,-145.1 144.6,-299 285.2,-376.3 71.4,-39.2 125.8,-47.6 168.4,-33.2 93.1,7.5 180.4,54.8 211.2,136.6 3.9,10 6.7,20 8.9,31.1 260.1,-326.8 635.3,-582.5 1052.2,-613.6 416.9,-31.1 863.2,204 999.9,599.2 136.2,394.6 -131.7,901 -547.5,942.7 301.3,219.5 448.6,630.3 355.8,991.6 -0.1,0.1 -0.1,0.1 -0.1,0.2 709.2,-85 1415.4,-132.9 2130.4,-178.1 -744.8,219.1 -1483,460.5 -2213.3,723.7 477.4,-9.5 954.8,-18.9 1432.2,-28.3 -184.4,73.2 -368.7,146.5 -553,219.8 590.3,14.9 1179.8,27.6 1769.4,28.4 -647.4,118 -1294.8,236 -1942.3,353.9"
         style="fill:#f9a70d;fill-opacity:1;fill-rule:nonzero;stroke:none"
         id="path12" />
      <path
         d="m 5230.36,7138.3 c -8.89,10 -17.78,20.5 -26.13,31.1 9.45,-23.3 18.34,-38.9 26.13,-31.1"
         style="fill:#f9a70d;fill-opacity:1;fill-rule:nonzero;stroke:none"
         id="path14" />
      <path
         d="m 5230.36,7138.3 c -8.89,10 -17.78,20.5 -26.13,31.1 9.45,-23.3 18.34,-38.9 26.13,-31.1"
         style="fill:#ef3720;fill-opacity:1;fill-rule:nonzero;stroke:none"
         id="path16" />
      <path
         d="m 3829.66,15170.6 c -20.43,-31.7 -40.79,-64.2 -60.92,-97.4 227.08,-97.9 452.27,-200 675.43,-306.5 -106.29,138.1 -212.59,276.1 -318.87,414.2 104.25,-35.9 208.51,-71.7 312.76,-107.6 l -613.18,824 c -168.41,-210.8 -208.94,-546.3 4.78,-726.7"
         style="fill:#ef3720;fill-opacity:1;fill-rule:nonzero;stroke:none"
         id="path18" />
      <path
         d="m 4352.39,13915.8 c -298.15,171.9 -592.59,350.1 -883.1,534.6 -56.42,-164.4 -92.82,-330 -97.33,-487.4 325.98,44.9 660.29,29 980.43,-47.2"
         style="fill:#ef3720;fill-opacity:1;fill-rule:nonzero;stroke:none"
         id="path20" />
      <path
         d="m 4362.21,16355.2 c -8.41,-9 -16.46,-18.2 -24.14,-27.7 31.53,-33.1 63,-66.2 94.38,-99.4 -23.68,42.2 -47.09,84.6 -70.24,127.1"
         style="fill:#ef3720;fill-opacity:1;fill-rule:nonzero;stroke:none"
         id="path22" />
      <path
         d="m 10399,7385.2 c -225.2,-9.9 -437.65,191.3 -440.01,416.7 -65.42,-77.8 -178.12,-89.7 -276.44,-56.5 -37.91,12.8 -73.68,32.4 -103.78,57.5 -108.14,90.1 -161.26,228.4 -210.06,360.5 28.46,-138.3 -100.62,-285.2 -241.37,-274.7 -140.75,10.4 -246.77,174.7 -198.26,307.2 -137.61,-241.7 -275.21,-483.5 -412.82,-725.2 -24.15,-42.5 -49.43,-86.2 -88.67,-115.3 -481.83,-357 -221.14,800.2 -298.22,886.7 62.96,15.3 253.38,177.6 276.88,176.6 181.04,-7.1 362.08,-14.2 543.13,-21.4 78.9,-3.1 162.04,-5.3 231.85,31.7 69.8,36.9 117.75,127.6 80.36,197.1 131.83,-87.4 298.59,-120.3 453.76,-89.6 4.47,12.4 7.81,25.3 10.06,38.3 -19.56,48.2 -28.94,100.2 -24.91,153.9 25.32,-46.5 33.93,-101.7 24.91,-153.9 82.43,-203 345.99,-337.4 550.69,-239.3 -13.9,-45.3 -17.1,-91.4 -11.7,-136.4 28.8,-238.1 300.7,-446.3 536.2,-360.1 17.5,-224.8 -176.4,-443.9 -401.6,-453.8 z m 4795.1,858.1 c 301.3,219.5 448.6,630.3 355.8,991.6 -0.1,0.1 -0.1,0.1 -0.1,0.2 -92.9,360.6 -420.2,649.5 -789.8,696.2 158.4,297.9 316.9,595.3 475.8,893.2 53.4,100.5 139.3,293.8 224.3,508.6 134.7,340.2 267.2,734.2 264.9,898.8 -4.5,293.5 -199.6,575.8 -472.5,683.7 68.4,65.5 136.2,131.1 204.6,196.7 -158.5,151.2 -356.9,260.7 -569.8,314.1 244.6,65.6 326.9,440.8 132.3,603 373.9,249.5 521.4,785.2 333,1191.9 -4.3,9.2 -8.7,18.5 -13.4,27.6 -218.4,2.3 -437.4,-67.2 -614.7,-194.5 14.4,346.3 26.1,706.4 -109,1025.5 -134.2,317.7 -459.2,582.7 -800,533.4 -1.9,-0.3 -3.9,-0.6 -5.9,-0.9 184.5,437.4 -389.1,958.2 -807.1,732.5 -71.1,464.7 -384.6,885.5 -810.4,1086.2 -172.3,81.1 -362.4,129.5 -516.9,240.6 -255.7,184.6 -434.7,544.2 -749.8,532 -355.8,-13.9 -479.7,-472.5 -725.9,-730.4 -141.2,-147.3 -334.64,-232.3 -492.5,-363 -157.3,-130 -281.81,-343.5 -207.89,-534.1 -256.23,105 -585.84,-100.6 -605.85,-376.9 10.56,146.8 -601.96,-266.8 -653.65,-402.9 -91.71,-240.2 1.67,-575.3 183.42,-748.7 -36.12,18.3 -1593,529.1 -1247.83,-33.9 -269.75,439.7 -947.3,534.6 -1346.83,223.5 119.28,-228.1 238.56,-456.2 357.85,-684.3 -183.36,5.5 -363.9,-168 -362.09,-351.9 -26.43,60.8 -94.07,105.9 -160.68,94.2 -88.33,-15.6 -144.24,-125.6 -107.88,-206.6 -40.34,75.7 -150.8,105 -222.54,56.8 -74.15,-49.7 -87.37,-169.2 -25.91,-234 -76.22,5.5 -152.45,11 -228.67,16.4 -14.85,-127.9 13.15,-260.5 78.5,-371.5 -81.94,-19.3 -163.88,-38.6 -245.81,-57.8 24.15,-84.5 48.32,-169 72.47,-253.5 -124.05,19.1 -256.76,-47.8 -315.1,-158.9 -58.36,-111.2 -38.05,-258.4 48.2,-349.6 -180.46,55.3 -404.61,-44.1 -454.47,-226.2 -8.99,-32.8 -10.51,-66.6 -5.93,-99.8 -289.13,146.4 -600.24,473.4 -884.81,527.2 -1.6,-235.4 70.37,-451.2 256.4,-616.5 245.67,-219 475.23,-294.6 689.23,-559.1 -268.47,-92.9 -399.09,-456.4 -251.79,-698.7 147.29,-242.4 530.26,-293.5 735.91,-98.4 -101.72,-130.6 -43.35,-351.8 109.5,-415.8 81.71,2.3 163.42,5 245.67,7.3 -222.32,-102.3 -371.85,-344.7 -362.94,-589.2 9.44,-244 176.2,-475.3 405.2,-560.9 -236.24,16.2 -491.36,26.7 -689.24,-103.3 -202.88,-134 -295.7,-413.6 -212.87,-642 82.81,-229 332.94,-384.6 574.72,-357.4 -271.8,-179.6 -317.93,-479.7 -580.29,-653.1 -12.22,-85.6 16.67,-152.9 42.25,-236.8 76.7,-254 336.83,-433.5 599.74,-436.9 -58.93,-270.1 17.22,-574.1 222.33,-762.6 13.35,-12.2 27.23,-23.9 41.69,-35 l 7.22,-10 -2.23,6.1 c 306.83,-236.2 797.07,-203.4 1062.2,82.8 146.18,-295.7 317.93,-613.6 621.96,-742.6 7.79,-3.3 15.01,-6.1 22.79,-8.9 197.98,-71.5 447.69,-6.3 584.4,136.5 4.43,4.6 8.76,9.3 12.95,14.1 7.14,8.2 13.96,16.6 20.37,25.3 2.31,3.1 4.56,6.3 6.75,9.4 1.75,2.5 3.49,5.1 5.17,7.6 3.59,5.5 7,11 10.26,16.5 1.47,2.5 2.93,5.1 4.34,7.6 2.08,3.8 4.1,7.6 6.04,11.5 0.03,0 0.07,0.1 0.11,0.2 3.39,6.7 6.53,13.5 9.45,20.4 1.86,4.4 3.63,8.8 5.31,13.3 1.29,3.5 2.56,7 3.74,10.5 0.89,2.7 1.74,5.4 2.57,8.1 1.05,3.4 2.02,6.8 2.96,10.2 0.28,1.1 0.55,2.1 0.82,3.2 1.01,3.9 1.96,7.8 2.81,11.7 0.5,2.3 0.96,4.5 1.41,6.8 0.89,4.5 1.67,9.1 2.36,13.7 0.7,4.6 1.29,9.3 1.77,13.9 0.49,4.7 0.88,9.4 1.16,14.1 1.27,21.3 0.43,43.2 -2.74,65.7 97.27,-371.3 352.4,-698.2 688.68,-882.1 145.62,-79.5 315.71,-134 477.45,-96.8 107.95,24.9 189.1,77.5 252.25,149.5 267.5,305.2 211.46,959.5 497.01,1331.8 413.53,-588.6 1322.35,-752.6 1915.35,-345.7 117.9,311.3 295.2,600.3 519.2,846 118.9,-408.4 666.4,-613.3 1029.7,-402.1 15.4,8.9 30.5,18.6 45.2,29.1 67.9,-145.1 144.6,-299 285.2,-376.3 71.4,-39.2 125.8,-47.6 168.4,-33.2 93.1,7.5 180.4,54.8 211.2,136.6 3.9,10 6.7,20 8.9,31.1 260.1,-326.8 635.3,-582.5 1052.2,-613.6 416.9,-31.1 863.2,204 999.9,599.2 136.2,394.6 -131.7,901 -547.5,942.7"
         style="fill:#ef3720;fill-opacity:1;fill-rule:nonzero;stroke:none"
         id="path24" />
      <path
         d="m 5230.36,7138.3 c -8.89,10 -17.78,20.5 -26.13,31.1 9.45,-23.3 18.34,-38.9 26.13,-31.1"
         style="fill:#f1491c;fill-opacity:1;fill-rule:nonzero;stroke:none"
         id="path26" />
      <path
         d="m 8392.1,15141.9 c -5.08,-27.6 -13.93,-56.1 -34.18,-75.6 -109.78,-106 -321.18,171.4 -413.94,50.2 l 46.62,-281.1 c -87.94,47.7 -193.93,61.1 -290.97,36.7 -27.52,-130.6 -10.6,-270.2 47.35,-390.4 -142.31,29.1 -280.3,-110 -285.54,-255.1 -5.24,-145.2 91.6,-278.4 212.67,-358.7 -57.9,-61.7 -115.79,-123.4 -173.69,-185.1 142.44,-87.6 297.25,-191.6 335,-354.5 37.78,-162.9 -144.12,-359.9 -284.24,-268.7 -137.54,89.5 -70.2,320.1 -174.2,447 -130.16,-112.8 -373.93,-6.1 -379.39,166.1 -1.7,54.2 14.85,112.9 -12.18,159.8 -21.94,38.2 -67.78,58.1 -88.79,96.7 -74.19,136.5 204.08,206.2 246,355.7 36.78,131.2 -129.38,250.5 -105.69,384.7 10.84,61.4 59.11,108 96.41,158 282.49,378.9 -359.45,1102.4 418.16,947.7 55.02,-11 126.1,17.8 127.51,73.9 138.51,-34.7 277.04,-69.4 415.55,-104.1 -1.23,-54.6 -28.81,-108 -72.62,-140.7 223.66,-8.8 410.52,-242.3 370.16,-462.5 z m 6802,-6898.6 c 301.3,219.5 448.6,630.3 355.8,991.6 -0.1,0.1 -0.1,0.1 -0.1,0.2 -92.9,360.6 -420.2,649.5 -789.8,696.2 158.4,297.9 316.9,595.3 475.8,893.2 53.4,100.5 139.3,293.8 224.3,508.6 134.7,340.2 267.2,734.2 264.9,898.8 -4.5,293.5 -199.6,575.8 -472.5,683.7 68.4,65.5 136.2,131.1 204.6,196.7 -158.5,151.2 -356.9,260.7 -569.8,314.1 244.6,65.6 326.9,440.8 132.3,603 373.9,249.5 521.4,785.2 333,1191.9 -4.3,9.2 -8.7,18.5 -13.4,27.6 -218.4,2.3 -437.4,-67.2 -614.7,-194.5 14.4,346.3 26.1,706.4 -109,1025.5 -134.2,317.7 -459.2,582.7 -800,533.4 -1.9,-0.3 -3.9,-0.6 -5.9,-0.9 184.5,437.4 -389.1,958.2 -807.1,732.5 -71.1,464.7 -384.6,885.5 -810.4,1086.2 -172.3,81.1 -362.4,129.5 -516.9,240.6 -255.7,184.6 -434.7,544.2 -749.8,532 -355.8,-13.9 -479.7,-472.5 -725.9,-730.4 -141.2,-147.3 -334.64,-232.3 -492.5,-363 -157.3,-130 -281.81,-343.5 -207.89,-534.1 -256.23,105 -585.84,-100.6 -605.85,-376.9 10.56,146.8 -601.96,-266.8 -653.65,-402.9 -91.71,-240.2 1.67,-575.3 183.42,-748.7 -36.12,18.3 -1593,529.1 -1247.83,-33.9 -269.75,439.7 -947.3,534.6 -1346.83,223.5 119.28,-228.1 238.56,-456.2 357.85,-684.3 27.76,-0.8 55.59,-5.8 82.85,-15.4 102.46,-36.1 183.42,-120.3 287.5,-151.5 67.93,-20.3 141.87,-16.8 208.1,-42.1 122.61,-46.9 190.56,-185.1 194.71,-316.3 4.17,-131.2 -42.71,-258 -88.89,-380.9 -16.87,0 -33.01,7.2 -45.35,18.6 40.22,-133.7 -60.85,-303.2 -204.85,-312.7 -109.56,-7.3 -207.58,60.6 -307.24,106.7 -99.66,46.1 -234.48,64.4 -305.29,-19.5 -39.35,-46.6 -47.31,-113.2 -85,-161.2 -51.53,-65.6 -142.83,-79.8 -221.29,-108.2 -327.38,-118.5 -453.02,-595.8 -226.4,-860.1 -110.73,68.5 -277.7,-57 -242.7,-182.4 38.65,-138.5 231.02,-170.6 304.32,-294.4 23.2,-39.1 32.59,-84.8 38.56,-130 15.01,-113.4 3.25,-244.9 -86.1,-316.3 -89.34,-71.5 -263.11,-9.6 -245.22,103.4 -60.02,-359.1 -351.45,127.1 -381.93,158.4 -107.46,110.2 -405.13,197 -428.97,358.9 -8.67,58.9 28.43,123.2 79.78,145.9 -126.81,7.4 -238.59,126.8 -256.5,256.7 -289.13,146.4 -600.24,473.4 -884.81,527.2 -1.6,-235.4 70.37,-451.2 256.4,-616.5 245.67,-219 475.23,-294.6 689.23,-559.1 -268.47,-92.9 -399.09,-456.4 -251.79,-698.7 147.29,-242.4 530.26,-293.5 735.91,-98.4 -101.72,-130.6 -43.35,-351.8 109.5,-415.8 81.71,2.3 163.42,5 245.67,7.3 -222.32,-102.3 -371.85,-344.7 -362.94,-589.2 9.44,-244 176.2,-475.3 405.2,-560.9 -236.24,16.2 -491.36,26.7 -689.24,-103.3 -202.88,-134 -295.7,-413.6 -212.87,-642 82.81,-229 332.94,-384.6 574.72,-357.4 -271.8,-179.6 -317.93,-479.7 -580.29,-653.1 -12.22,-85.6 16.67,-152.9 42.25,-236.8 76.7,-254 336.83,-433.5 599.74,-436.9 -58.93,-270.1 17.22,-574.1 222.33,-762.6 13.35,-12.2 27.23,-23.9 41.69,-35 l 7.22,-10 -2.23,6.1 c 306.83,-236.2 797.07,-203.4 1062.2,82.8 146.18,-295.7 317.93,-613.6 621.96,-742.6 7.79,-3.3 15.01,-6.1 22.79,-8.9 197.98,-71.5 447.69,-6.3 584.4,136.5 -136.69,-142.8 -386.32,-207.8 -584.07,-136 163.28,242.8 956.63,1049 378.42,1244.2 227.06,-9.8 451.86,148.8 485.6,385.4 25.7,180.3 -45.91,361.3 -142.35,515.7 -248.3,397.5 -676.64,677.6 -1140.38,745.6 172.76,31.6 218.85,283 118.06,426.8 -100.81,143.9 -281.64,203.4 -449.82,254 181.32,88.6 201.85,361.8 82.08,524.2 -119.78,162.4 -328.36,232.4 -527.84,262.8 188.11,135.9 259.47,399.3 195.34,619.1 -37.43,63.7 -71.92,129.4 -105.89,194.5 50.01,-56.4 85.08,-123.1 105.89,-194.5 69.94,-118.9 150.13,-230.7 256.38,-317.5 163.1,-133.1 405.26,-193.1 586.97,-86.7 33.9,-224 70.37,-455.2 190.68,-647.2 120.32,-192 348.1,-335.8 569.35,-286.9 -25.44,-392.6 400.59,-743.4 781.05,-643.2 -30.54,-272.2 149.73,-553.5 409.79,-639.5 260.04,-86 572.49,32.4 710.25,269.2 13.32,22.9 23.54,54.1 14.95,76.5 -11.19,-8.1 -22.7,-15.7 -34.5,-23 -33,-10.2 -6.87,60.8 21.09,40.5 6.51,-4.7 10.81,-10.7 13.41,-17.5 168.93,122.2 266.93,338.1 244.01,545.8 -24.45,221.5 -185.13,422.1 -395.88,494.4 150.08,2.4 285.44,138.1 287.36,288.2 1.93,150.1 -129.91,289.3 -279.88,295.5 219.23,39.4 453.75,110.4 580.1,293.9 126.35,183.4 56.25,501.2 -163.91,535 197.42,137.4 200.19,476.3 5.03,616.8 168.98,197.9 -54.55,555.4 -311.52,514.6 -210.96,-33.5 -330.47,-284.5 -278.37,-487.2 29.11,-35.6 50.18,-77.6 59.41,-122.9 -28.53,36.8 -48.04,78.7 -59.41,122.9 -60.83,74.6 -156.78,121.7 -253.27,115.1 -142.65,-9.8 -268.03,-135.9 -277.12,-278.6 -124.29,108.4 -254.79,226.4 -297.37,385.7 -42.55,159.2 50.94,364.7 215.4,373.9 -316,-17.7 -110.04,521 -619.06,497.3 192.87,71.2 230.11,382.5 59.46,497.5 163.98,25 291.82,173.4 316.83,334.6 -12.78,55.6 -17.79,112.3 -13.33,170.1 19.45,-55 22.79,-113.4 13.33,-170.1 67.81,-284.6 346.83,-519.1 643.1,-505.2 354.62,17.2 649.76,385.2 589.73,734.8 133.4,-366.9 598.05,-519.7 978.85,-434.7 380.7,85.1 694.8,344.6 993.2,595.9 -21.6,-196.2 -41.7,-403 34.5,-585.3 76.1,-181.8 284,-325.7 470.2,-260.1 -187.3,-323.5 41.7,-802.7 411.3,-860.5 -375.9,-205.3 -802.7,-238.1 -1171,-461.9 -270.3,-164.4 -489.1,-437.3 -523.6,-751.8 -34.6,-314.4 152.3,-657.7 456.7,-743.7 -170.3,-88 -349.3,-184 -447.1,-348.9 -97.9,-164.8 -71,-418.9 103,-499.3 -236.2,4.5 -461.9,-180.2 -504.3,-412.6 -42.4,-232.4 103.5,-484.9 326,-564.2 -18.2,-220.3 164.5,-437.6 384.7,-457.5 220.2,-19.8 438.8,161.3 460.2,381.3 227.6,-94.1 510.4,-33.6 679.6,145.4 169.2,179 213.5,464.9 106.6,686.7 106.5,-188.6 342.2,-294.4 554,-248.6 211.8,45.7 382.7,239.3 401.9,455.1 4.7,-15.7 10.5,-30.8 17.3,-45.2 114.9,-243.8 519.2,-299.5 682.6,-75.7 -48.9,-235.4 304.7,-426.7 474.9,-256.8 -58.9,-165.1 -269.6,-200.3 -430,-271.1 -6.2,-2.8 -12.5,-5.8 -18.6,-9.1 -140.5,-75.4 -243,-283.2 -134.8,-372.3 9.6,-4.7 18.8,-10.5 27.5,-17.7 -10.4,5.2 -19.5,11.1 -27.5,17.7 -102.2,50 -248.3,-36.2 -267.1,-154.7 -20.6,-129.7 74.8,-255.6 193.2,-312.4 118.3,-56.7 254.6,-59.4 385.8,-58.1 -69.9,-36 -126.8,-96.8 -158,-169 111.1,-52.4 194.8,-140.7 231.6,-254.8 -488.5,44 -492.2,-511.6 -591.1,-804 -28.6,-84.5 -65.1,-147 -123.6,-166.7 93.1,7.5 180.4,54.8 211.2,136.6 3.9,10 6.7,20 8.9,31.1 260.1,-326.8 635.3,-582.5 1052.2,-613.6 416.9,-31.1 863.2,204 999.9,599.2 136.2,394.6 -131.7,901 -547.5,942.7"
         style="fill:#f1491c;fill-opacity:1;fill-rule:nonzero;stroke:none"
         id="path28" />
      <path
         d="m 11111.7,16238.5 c -72.4,93 -232.1,51.8 -302.5,-42.7 -70.4,-94.6 -82.9,-218.4 -113.7,-332.2 -30.8,-113.8 -97.2,-234.9 -212.3,-260.4 -147.8,-32.7 -282.7,123.5 -286.9,274.8 -4.1,151.3 79.9,289.3 163.2,415.7 51.2,77.7 105.6,167.3 83.4,257.7 -16.9,68.6 -76.9,129.4 -63.5,198.8 15.8,81.5 115.7,108.2 195.4,131.4 73.7,21.4 157.5,84.5 142.2,153.5 l -5.7,17 c 2.6,-5.7 4.5,-11.4 5.7,-17 l 40.4,-119 c -7.5,103.5 -14.3,211.6 26.4,307 40.7,95.5 145,172.5 245.3,145.9 117.1,-31.1 160.4,-171 239.1,-263.2 55,-64.5 130.8,-107.3 193.7,-164.1 188,-170.2 237,-474.8 111.8,-695.3 -138.4,69.9 -276.7,139.8 -415.1,209.7 -15.6,-72.6 -31.3,-145.1 -46.9,-217.6 z m 1968.4,-850.7 -6.6,-13.4 c 14.5,21.9 30,42.7 46.4,61.9 76.7,89.4 172.9,142.8 277.6,97.9 79.1,-33.9 125.1,-116.3 157.1,-196.2 97.9,-244.4 117.9,-519.3 56.4,-775.3 -25.3,-105.4 -74.5,-216 -151.2,-288 -40.5,-38 -88.7,-65.3 -145.1,-75.2 -214.7,-37.9 -380,199 -414.9,414.2 -43.6,268.3 22.7,552.7 180.3,774.1 z m -1680.2,186.7 c -59.1,-166.5 35.8,-371.6 200.9,-434.6 165.1,-62.9 372.4,27 439.2,190.6 -90.5,-310.4 258.5,-651.1 566.7,-553.1 -33.8,-260.4 -64.8,-539.1 53.4,-773.6 118.1,-234.5 449,-378.7 652.6,-212.8 41.6,33.9 76.9,79.2 127.9,96.2 101,33.6 201.5,-62.3 238.2,-162.2 36.7,-100 39.5,-212.5 93.3,-304.4 121.5,-207.8 459.2,-190.8 619.7,-11.5 160.6,179.3 173.8,449.6 119.2,684 131.3,118.8 262.7,237.7 394,356.5 41.6,37.6 86.4,82.3 86.1,138.3 -0.4,62.6 -55.8,106.8 -113.2,137 -8,4.3 -16.1,8.3 -24.1,12 -194.4,90.1 -404.2,146.7 -617.4,166.7 238.3,344.8 72.6,893.1 -316.9,1048.2 -149.2,59.4 -364,204.2 -244.6,311.6 -65.1,-36.8 -137.3,-51.7 -209.7,-48.7 -236.1,9.6 -473.5,209.1 -468.6,453.2 -12.1,-244.3 -428.6,-216.9 -540,0.9 -111.3,217.9 -47.1,480.2 -71.8,723.6 -24.7,243.4 -243.7,516.5 -468.3,419.7 -23.7,189 -128.6,363.6 -274.6,485.9 -262.6,220 -665.1,260.9 -960.3,87.1 -295.2,-173.8 -454.9,-555.2 -359.6,-884.3 l -1.6,-0.1 c -349.06,-39.7 -559.73,-425.3 -462.85,-746 -127.59,422.4 -633.82,-105.4 -608.5,-378.2 -161.72,198.9 -553.45,274.7 -649.42,-38.6 -60.54,-197.7 101.46,-424.6 306.63,-449.9 -131.45,-37.5 -197.94,-216.3 -122.99,-330.6 78,-119 238.49,-104.6 344.65,-42.5 1.15,-10.2 0.55,-23.8 -1.53,-40.3 -34.65,-275 -479.41,-1356.6 -22.56,-1056.7 42.02,27.6 70.06,71.4 96.85,114 160.43,254.9 320.88,509.8 481.32,764.7 -122.23,-298.6 270.57,-648.8 553.3,-493.4 49,-280.7 455.5,-416.4 663.4,-221.5 280.8,263.3 138.4,863.9 501.2,992.8"
         style="fill:#f36118;fill-opacity:1;fill-rule:nonzero;stroke:none"
         id="path30" />
      <path
         d="m 12875.4,10950.2 c -223,134.8 -316.3,439.7 -229.1,681.5 -24,86.8 0.3,188.3 68.9,248 93.1,81.3 251.5,71.1 333.5,-21.5 32.7,-36.9 53.1,-83.1 68,-130.1 87.9,-275.4 -13,-600.6 -241.3,-777.9 z m 2296.2,971 c 58.6,269 -82.3,568.7 -326.7,695.3 -244.4,126.6 -570.5,68.7 -756.4,-134.3 -57.6,-62.9 -119.1,-145.2 -203.9,-136.7 -41.3,4.1 -76.6,30.1 -109.4,55.4 -141.2,108.8 -289.2,225.8 -466,248.4 -176.9,22.6 -384.7,-96.2 -384.5,-274.5 -273.9,40 -415.1,-227.9 -610.4,-231.1 -164.3,-2.6 -313.3,200.8 -498.6,193 -387.9,-16.1 -699.7,-414.6 -649.4,-804.2 33.2,-257.7 236.7,-489.1 491.5,-540.2 -18.2,-115.2 -110.8,-202.4 -199.1,-278.7 -88.3,-76.3 -182.9,-159.9 -207.5,-274 -24.6,-114.1 67.4,-256.4 181.5,-232.2 -137.3,-99.5 -250.6,-292.9 -152.7,-431.3 86.7,-122.5 286.3,-103.6 398.6,-4.1 112.2,99.5 161.6,249.7 214.3,390.2 52.7,140.4 121.7,287.8 253.1,360.3 32.2,-121.8 155.1,-213.1 281.1,-208.8 125.9,4.4 242.3,103.9 266.1,227.7 8.6,-154.5 253.1,-170.6 362.4,-60.9 109.2,109.6 141.7,274.4 233,399.4 41,56.1 124.9,104.6 174.3,55.6 25.7,-25.7 27.2,-65.9 32,-101.9 4.4,-32.1 13.3,-63.6 26.1,-93.5 41.1,-96.1 122.8,-175.1 224.2,-198.5 96.1,-22.1 203.6,15.2 267.5,87.8 -40.8,-143.9 31.5,-322.2 173.4,-381.7 176.7,-74.2 403.4,47.2 448.6,233.4 43.4,179.1 -44.7,409.5 97.1,527.1 48.6,40.2 113,54 170.7,79.5 118.6,52.3 208.1,161.7 243.9,285.7 14.4,50.1 20.1,102.6 15.3,154.7 -6.5,71.1 -30.3,140.7 -27.6,212 2.3,61.7 24.4,120.8 37.5,181.1"
         style="fill:#f36118;fill-opacity:1;fill-rule:nonzero;stroke:none"
         id="path32" />
      <path
         d="m 8991.25,11765.3 c -136.29,34.6 -281.94,-28.4 -384.84,-124.3 -211.4,77.8 -396.13,226.2 -517.59,415.9 -35.76,55.9 -66.76,115.9 -113.83,162.6 -105.93,105.1 -268.75,121.7 -417.84,127.5 -19.05,253.2 -106.64,516.9 -307.14,672.7 -200.48,155.8 -530.89,155.6 -681.21,-49 9.79,149 -192.9,243.1 -324.97,173.4 -132.08,-69.7 -184.33,-237.7 -170.25,-386.3 19.57,-206.9 194.36,-420.8 398.91,-384.6 -169.51,-121.8 -249.59,-355.2 -190.52,-555.4 59.06,-200.1 252.99,-352.7 461.77,-363 139.52,-6.7 288.33,-26.4 394.56,-14.8 -4.22,-150.5 -49.47,-373.9 14.85,-521.2 75.2,-172.3 364.85,-236.2 441.18,-64.4 -8.73,-114.8 -14.66,-240.3 52.4,-333.8 67.05,-93.6 237.59,-112.9 285.21,-8.1 -20.76,-250.1 245.31,-479.4 489.61,-421.9 1.13,-228.2 10.41,-478.7 162.73,-648.7 152.3,-170 499.88,-157.3 552.85,64.7 22.89,95.9 -15.56,194.6 -53.28,285.7 -91.19,220.1 -182.37,440.3 -273.55,660.5 155.34,65.9 342.62,201 279.82,357.6 -39.21,97.8 -166.52,146.5 -185.83,250.1 -29.88,160.2 207.7,233.3 272.06,383.1 55.54,129.2 -48.8,287.1 -185.1,321.7"
         style="fill:#f36118;fill-opacity:1;fill-rule:nonzero;stroke:none"
         id="path34" />
      <path
         d="m 5708.28,8237.7 c -57.24,-67.9 -127.49,-129.3 -212.97,-153.3 -177.05,-49.8 -373.57,94.6 -403.7,276.1 -30.12,181.4 87.27,368.6 253.69,446.9 l 16.81,-117.6 c -15.04,134.3 138.27,247.3 270.08,217.5 131.82,-29.8 220.55,-167.2 224.69,-302.2 4.14,-135.1 -61.47,-264.1 -148.6,-367.4 z m 1185.38,63.1 c 110.2,105.9 133.19,291 52.25,420.7 -80.94,129.6 -257.28,190.3 -400.86,137.8 -145.01,133.1 -290.01,266.2 -435,399.2 -48.88,44.9 -102.15,101.4 -92.11,166.9 8.08,52.7 56.48,94.7 56.99,148 0.74,79.7 -96.97,117.1 -146.68,179.5 -44.62,55.9 -49.37,133.2 -79.59,198.1 -58.85,126.2 -225.95,188.7 -353.21,132.1 -345.41,-153.8 16.38,-475 -41,-705.9 -62.56,-251.5 -263.21,-261.7 -392.58,-450.8 -393.41,-575.1 231.8,-1386.2 622.71,-749.3 -43.12,-95.8 -87.18,-196.5 -80.35,-301.4 6.84,-104.8 83.13,-213.2 188.12,-217.6 80.57,-3.3 150.22,52.2 211.5,104.6 109.18,93.4 218.36,186.9 327.56,280.3 42.32,-118.3 85.4,-238 156.46,-341.6 113.77,-165.8 289.43,-276.8 460.13,-383.2 251,267.4 224.62,744.5 -54.34,982.6"
         style="fill:#f36118;fill-opacity:1;fill-rule:nonzero;stroke:none"
         id="path36" />
      <path
         d="m 8246.29,14402.4 c -4.46,-57.8 0.55,-114.5 13.33,-170.1 9.46,56.7 6.12,115.1 -13.33,170.1"
         style="fill:#ef3720;fill-opacity:1;fill-rule:nonzero;stroke:none"
         id="path38" />
      <path
         d="m 13798.6,9067 c 8,-6.6 17.1,-12.5 27.5,-17.7 -8.7,7.2 -17.9,13 -27.5,17.7"
         style="fill:#ef3720;fill-opacity:1;fill-rule:nonzero;stroke:none"
         id="path40" />
      <path
         d="m 9414.4,9227.3 c -27.96,20.3 -54.09,-50.7 -21.09,-40.5 11.8,7.3 23.31,14.9 34.5,23 -2.6,6.8 -6.9,12.8 -13.41,17.5"
         style="fill:#ef3720;fill-opacity:1;fill-rule:nonzero;stroke:none"
         id="path42" />
      <path
         d="m 5908.39,11485.1 c -20.81,71.4 -55.88,138.1 -105.89,194.5 33.97,-65.1 68.46,-130.8 105.89,-194.5"
         style="fill:#ef3720;fill-opacity:1;fill-rule:nonzero;stroke:none"
         id="path44" />
      <path
         d="m 9114.75,12306.8 c 11.37,-44.2 30.88,-86.1 59.41,-122.9 -9.23,45.3 -30.3,87.3 -59.41,122.9"
         style="fill:#ef3720;fill-opacity:1;fill-rule:nonzero;stroke:none"
         id="path46" />
      <path
         d="m 11573.7,16246.4 c -138.4,69.9 -276.7,139.8 -415.1,209.7 -15.6,-72.6 -31.3,-145.1 -46.9,-217.6 -72.4,93 -232.1,51.8 -302.5,-42.7 -70.4,-94.6 -82.9,-218.4 -113.7,-332.2 -30.8,-113.8 -97.2,-234.9 -212.3,-260.4 -147.8,-32.7 -282.7,123.5 -286.9,274.8 -4.1,151.3 79.9,289.3 163.2,415.7 51.2,77.7 105.6,167.3 83.4,257.7 -16.9,68.6 -76.9,129.4 -63.5,198.8 15.8,81.5 115.7,108.2 195.4,131.4 73.7,21.4 157.5,84.5 142.2,153.5 l -5.7,17 c 2.6,-5.7 4.5,-11.4 5.7,-17 l 40.4,-119 c -7.5,103.5 -14.3,211.6 26.4,307 40.7,95.5 145,172.5 245.3,145.9 117.1,-31.1 160.4,-171 239.1,-263.2 55,-64.5 130.8,-107.3 193.7,-164.1 188,-170.2 237,-474.8 111.8,-695.3 z m 501.1,231.8 c 134.2,130.8 167.4,353.4 77.3,517.7 -90.2,164.3 -295.7,255.9 -478.1,213.2 98.3,246.9 -157.8,553.4 -418.3,500.7 88.1,17.8 -107.8,468 -420.1,351.6 -443.4,-165.2 -52.3,-546.6 -315.4,-761 -80.3,-65.4 -207.4,-52.3 -280.7,-125.5 -129.7,-129.4 32.4,-367.4 -53.1,-529.5 -83.1,-157.6 -328.76,-130.5 -457.57,-253.8 -4.57,-77.8 -9.13,-155.7 -13.69,-233.5 -147.68,9.6 -298.37,-42 -409.22,-140.1 -73.92,-65.3 -132.7,-163 -110.34,-259.1 19.8,-85 129.35,-142.1 200.31,-103.6 -85.65,-89.5 21.74,-281.8 159.87,-286.1 149.67,-4.6 270.73,114.6 371.99,224.9 57.1,-129.3 118.95,-264.6 233.05,-347.9 114.1,-83.3 297.3,-89.7 380.5,24.6 -20.1,-90.2 -27.8,-202.5 47,-256.6 116.8,-84.6 265.9,81.6 267.4,225.7 1.5,144.2 -60.6,295 -4.4,427.8 57.4,135.8 245,196.5 371,120.1 40.4,65.6 80.8,131.2 121.2,196.8 -32.6,-80.7 20.1,-175.5 95,-219.8 74.8,-44.4 165.4,-50.9 252.2,-56.2 -6.7,94.9 80,175.9 172.8,197.1 86.9,19.8 177.1,0.4 264,-21.4 -86.2,31.2 -83.4,184.2 -1.4,239.3 87.2,58.6 203.5,37.8 305,10.6 101.5,-27.1 212.6,-57.7 308,-13.8 -173.2,188.8 -411.3,317 -664.3,357.8"
         style="fill:#f57615;fill-opacity:1;fill-rule:nonzero;stroke:none"
         id="path48" />
      <path
         d="m 12127.5,15884.3 c 5.5,-2 11.3,-3.5 17.6,-4.4 -5.9,1.5 -11.7,3 -17.6,4.4"
         style="fill:#f57615;fill-opacity:1;fill-rule:nonzero;stroke:none"
         id="path50" />
      <path
         d="m 12034.3,12080.6 c -172.6,105.3 -447,53 -507.1,-140.1 l 103.2,3.6 c -126.3,-18.5 -149,-222.8 -114.6,-360.5 43.9,-175.5 102,-356.7 231.5,-483 129.5,-126.4 350.7,-176 492.5,-63.6 151.1,119.8 144.4,350.3 99.3,537.8 -47.2,196.6 -132.3,400.4 -304.8,505.8"
         style="fill:#f57615;fill-opacity:1;fill-rule:nonzero;stroke:none"
         id="path52" />
    </g>
  </g>
</svg>
