<svg xmlns="http://www.w3.org/2000/svg" width="100" height="100">
  <defs>
    <path id="explosion" 
      d="M -40 -40 Q 0 0 -10 -50 Q 0 0 30 -45 Q 0 0 45 -30 Q 0 0 40 -4 Q 0 0 40 25 Q 0 0 20 30 Q 0 0 5 40 Q 0 0 -10 30 Q 0 0 -40 25 Q 0 0 -45 13 Q 0 0 -48 -2 Q 0 0 -47 -20 Q 0 0 -40 -40" 
    />
  </defs>
  <g transform="translate(50, 50)">
    <use href="#explosion" fill="#353535" />
    <use href="#explosion" transform="scale(0.5)" fill="yellow" />
    <use href="#explosion" transform="scale(0.25)" fill="red" />
  </g>
</svg>