<?xml version="1.0" encoding="UTF-8" standalone="no"?>
<svg
   xmlns="http://www.w3.org/2000/svg"
   width="700"
   height="700"
   viewBox="0 0 700 700"
>
   <g
      id="g5"
      transform="translate(-1517.141,-570.0993)"
      style="display:inline;opacity:0.5">
      <path
         d="m 15550.2,15205.4 c -7.7,6.6 -16.9,10.2 -26.4,12.1 -9.9,1.4 -20.1,1.1 -29.6,2.5 -9.9,1.9 -19,5.5 -19.4,-3.3 -0.7,-8.4 7.3,-29.6 16.1,-36.2 8.4,-6.6 17.6,0.8 25.6,-3.3 8.1,-4.4 15.4,-20.4 22.3,-32.1 7,-11.8 13.9,-18.7 19.4,-11.8 5.1,6.6 9.1,27.1 7.7,41.7 -1.5,15 -7.7,24.2 -15.7,30.4 z m -1586.1,-1993.1 c -4.8,2.2 -20.5,2.2 -37,-0.7 -16.4,-3 -33.6,-8.8 -47.5,-12.1 -13.9,-3.3 -24.5,-3.7 -35.1,-6.6 -10.6,-2.9 -20.9,-8.4 -23.4,-13.9 -2.6,-5.9 2.2,-11.7 13.5,-12.4 11.3,-0.8 28.9,3.3 44.3,4 15.3,1.1 28.1,-1.8 38.7,-0.7 10.6,0.7 18.7,5.1 20.5,9.1 1.8,4 -2.6,7.7 -0.4,11.3 2.2,3.7 10.6,7.7 18,11.7 7.3,4.1 13.1,8.4 8.4,10.3 z m -325.1,-45.7 c -8.5,9.5 -40.6,21.9 -63.7,39.5 -23.4,17.9 -37.3,40.9 -54.5,62.5 -17.2,21.6 -37.6,41.3 -55.9,51.9 -18.3,10.6 -34.4,11.4 -46.8,3.7 -12.8,-7.7 -22,-24.5 -27.1,-46.1 -5.1,-21.2 -6.2,-47.5 -18.6,-56.3 -12.1,-8.4 -35.9,0.7 -67,20.1 -31.4,19.7 -69.8,49.7 -99.8,63.3 -30,13.5 -50.8,10.2 -61.8,-3 -11,-13.1 -12.1,-36.2 -13.5,-54.4 -1.5,-18 -3,-30.8 -13.6,-36.2 -10.9,-5.5 -30.7,-3.3 -51.5,1.4 -20.5,4.4 -42.1,11.4 -61.9,15 -19.3,3.7 -37.2,3.7 -58.8,8.8 -21.2,5.1 -46.8,15 -60.7,4 -13.9,-11.3 -16.5,-44.2 -11.4,-74.2 5.5,-30.4 19,-57.8 35.9,-81.2 16.8,-23.8 37.3,-43.5 59.6,-64.8 21.9,-20.8 45.3,-42.7 72,-56.3 26.7,-13.5 56.4,-18.3 80.1,-20.1 24.2,-1.8 42.4,-0.7 64,-1.4 22,-0.4 47.2,-2.6 78.6,1.4 31.5,4 69.2,14.3 99.9,29.3 31.1,15 55.2,35.1 81.9,56.3 27.1,21.2 56.7,43.5 76.1,61.1 19.7,17.5 29.2,29.9 43.5,38 14.3,8 33.3,11.7 50.5,16.8 17.1,5.1 32.5,11.7 24.5,20.9 z m -572.4,1236.8 c -19,10.2 -26.3,30.4 -42.8,47.5 -16.4,17.6 -41.7,32.6 -63.6,44.7 -22.3,12 -41,21.2 -57.1,21.5 -15.7,0.4 -28.5,-8.4 -42,-22.3 -13.5,-13.9 -27.4,-33.3 -32.9,-59.6 -5.9,-26.3 -2.9,-59.6 2.2,-84.5 5.1,-25.2 12.4,-41.7 19.4,-53.7 6.9,-12.5 13.5,-19.8 12.8,-27.8 -0.4,-8.1 -8.1,-16.8 -17.2,-34 -9.5,-17.6 -20.9,-43.9 -17.2,-81.9 3.3,-38.1 21.6,-87.5 42.8,-120.7 21.2,-33.3 45.3,-50.5 69.8,-68.1 24.5,-17.5 49.4,-35.1 72.4,-48.2 23.1,-13.2 44.6,-22 63.7,-24.2 19,-2.5 35.8,1.1 55.6,1.1 19.3,-0.3 42,-4.7 61.8,-2.9 19.3,1.8 36.2,9.9 50.8,21.6 14.3,11.7 26.7,26.7 37.7,34.7 10.9,8.1 20.8,9.2 27.8,2.2 6.9,-6.9 11.3,-21.9 10.2,-39.1 -1.1,-16.8 -7.7,-35.8 -4.8,-57.4 2.6,-22 14.3,-46.5 53.4,-79.8 38.8,-32.9 105,-74.2 146,-97.2 40.9,-22.7 56.3,-27.1 69.4,-35.5 13.2,-8.8 24.2,-21.6 47.9,-27.8 24.2,-6.2 61.1,-5.9 90,-0.4 29.3,5.5 50.1,15.8 61.4,28.9 11.4,13.2 12.8,29.3 16.5,46.5 3.3,17.1 8.8,35.4 11.3,49.3 2.2,13.9 1.9,23.8 7.4,35.1 5.8,11.8 17.5,25.3 20.8,37 3.3,11.7 -2.2,21.9 -17.2,26.3 -14.6,4.4 -38.8,2.9 -59.6,8.8 -21.2,5.8 -38.8,19.4 -60.7,30.7 -22.3,11.7 -48.6,21.2 -69.5,29.3 -20.8,7.7 -36.6,13.5 -43.9,17.5 -7.3,4 -6.2,6.2 10.6,7.7 17.2,1.1 49.8,1.8 78.3,-0.4 28.5,-2.2 52.7,-6.9 77.2,-8.4 24.5,-1.4 49.3,0.8 74.9,13.9 25.3,12.8 51.6,36.6 64,55.6 12.5,19 11,33.7 -7.3,43.5 -18.3,9.9 -53.4,15.4 -87,18.7 -33.7,3.6 -65.9,5.1 -94.4,9.5 -28.5,4.4 -53,11.3 -80.4,27.4 -27.5,16.1 -57.5,41.3 -84.9,65.5 -27,23.8 -51.2,46.4 -78.2,68 -27.5,21.2 -57.5,41.7 -83.1,58.2 -25.9,16.4 -47.5,28.8 -68,39.1 -20.1,9.9 -39.5,18.3 -60.7,27 -21.2,8.8 -44.6,18.3 -62.2,26 -17.9,7.7 -30.3,12.8 -51.5,16.1 -21.2,3.3 -51.2,4.4 -69.9,15 z m -638.5,-393.9 c -4.4,10.6 -13.2,25.3 -24.5,37.3 -11.7,12.5 -26,22.7 -38.8,28.9 -12.8,6.2 -23.4,8.4 -35.5,11.7 -12,3.7 -25.5,8.4 -24.8,4 1.1,-4.7 16.1,-18.6 33.3,-33.2 17.2,-15 36.5,-30.4 52.6,-42.8 16.1,-12.5 28.9,-21.6 35.5,-22.7 6.2,-1.1 6.2,5.9 2.2,16.8 z m -400.5,1006.8 c -8,-10.9 -17.9,-28.5 -29.2,-44.2 -11.7,-15.8 -25.2,-28.9 -35.5,-34 -10.2,-5.2 -17.2,-1.9 -18.6,6.5 -1.9,8.8 2.2,22.7 9.5,32.2 6.9,9.9 17.9,15.4 21.9,22.3 4,7 1.1,15.4 5.9,21.2 4.3,5.5 16.4,8.1 28.8,10.3 12.9,2.2 26.4,4 29.3,2.5 3.3,-1.4 -3.6,-5.4 -12.1,-16.8 z m 2585.6,944.6 c -1.1,-8 -5.5,-17.1 -11.7,-22.6 -6.6,-5.9 -15,-8.4 -20.1,-9.9 -5.5,-1.5 -8.1,-1.8 -10.2,-2.6 19,-10.2 38,-20.4 51.9,-28.9 13.9,-8 22.3,-14.6 32.9,-21.5 10.2,-7.3 22.3,-15 34.7,-27.5 12.5,-12.4 25.6,-29.2 38.4,-46 -7.6,17.2 -14.9,34.7 -26.3,49.3 -11.3,14.7 -26.3,26.7 -36.2,35.5 -9.9,9.2 -15,15.4 -18.3,24.1 -3.6,9.2 -5.8,20.9 -11.7,33.3 -6.2,12.5 -16.1,25.3 -26,38.1 1.9,-6.6 3.7,-13.2 2.6,-21.3 z m 317.4,-154.3 c 11.4,-14.6 22.7,-29.2 30.8,-50.8 8,-22 12.8,-50.8 15,-67.3 2.1,-16.5 1.8,-20.1 7.3,-25.6 5.5,-5.1 17.5,-12.1 28.9,-17.2 11.7,-5.1 23,-8.4 33.2,-14.3 10.3,-5.4 19.4,-13.5 29.7,-24.8 10.2,-11.4 21.2,-26 29.9,-40.3 8.5,-13.9 14.7,-28.1 18,-32.9 3.6,-4.7 4.7,-0.3 5.5,11.7 0.7,12.5 1.4,33 -4.8,50.9 -6.2,18.3 -19.4,33.6 -30.3,44.2 -11,10.6 -20.2,15.7 -26.7,25.6 -7,10.3 -11,24.5 -18,40.6 -6.6,16.1 -15.7,34 -23,49.8 -7.3,15.3 -12.4,28.8 -18.3,37.2 -5.5,8.5 -11.3,11.4 -18.6,16.2 -7,4.3 -15,10.6 -24.9,10.2 -9.9,-0.4 -21.6,-7 -33.7,-13.2 z m -5.8,-569.7 c 4,-15.8 8.4,-31.1 10.6,-41.4 2.2,-9.9 2.2,-14.6 9.5,-18.3 7.3,-3.6 22.3,-6.2 34.7,-10.6 12.8,-4.7 23.5,-11.3 30.8,-17.9 7.3,-6.6 11.7,-13.2 16.8,-17.9 5.5,-4.8 12.1,-8.1 18.3,-11 0,7 -0.4,13.5 -4,21.2 -4.1,7.3 -11,15.8 -15.8,28.6 -4.4,12.4 -5.8,29.2 -5.8,43.1 0,13.5 1.4,23.8 3.3,34 -10.3,-7.3 -20.5,-14.2 -31.1,-18.3 -10.6,-4.3 -21.2,-6.2 -32.6,-4 -11.3,1.8 -23,7 -34.7,12.5 z M 14069,13883.4 c -4.7,-4.8 -21.9,-4.8 -46.1,-2.2 -24.5,2.9 -56.3,8 -84.8,2.9 -28.5,-5.5 -53.8,-21.6 -62.2,-40.6 -8.7,-18.7 -0.7,-40.2 14.3,-57.4 15,-17.2 37.3,-30 49.4,-45 12.4,-14.6 15.3,-31.5 33.3,-45 17.9,-13.9 51.2,-24.5 84.1,-33.3 32.9,-8.7 65.1,-16.1 104.9,-19.7 39.5,-3.7 87.1,-4.4 129.8,6.9 43.2,11.4 82,34.4 121.5,59.3 39.5,24.8 79.7,51.2 116.3,84.5 36.5,33.6 69.4,74.6 95.4,96.1 26,21.6 45.4,23.8 72.4,29.7 26.7,6.2 61.1,16.4 104.2,40.6 42.8,23.7 94.4,61.4 133.2,99.1 38.7,37.6 64.7,75.3 77.9,110.4 13.5,35.1 14.6,68 12.4,92.9 -2.2,25.2 -7.3,42.4 -8,53.8 -0.4,11.7 3.6,17.5 15.7,26.3 11.7,8.4 31.1,19.7 39.8,35.5 9.2,15.3 7.4,35.4 25.6,56.6 18.3,21.6 56.4,44.7 82,80.1 25.6,35.5 38.4,83.4 47.5,133.2 8.8,49.7 13.5,101.3 12.4,138.6 -1.1,37.6 -8,60.7 -15,77.5 -6.9,16.8 -13.9,27.8 -23,37.3 -9.1,9.9 -20.5,18.3 -35.1,22.7 -14.3,4.4 -32.2,4.4 -39.9,11.7 -8,7.6 -5.8,22.6 -5.8,38.4 -0.4,15.3 -3.3,31.4 -2.6,42.4 0.4,10.6 4.4,16.1 14.3,15.4 9.9,-0.4 25.9,-7 42.8,-13.2 16.4,-6.2 33.6,-12.1 51.5,-4 17.6,7.6 35.9,29.2 49,56.7 13.2,27.7 21.3,61.7 20.5,87 -1.1,25.2 -11.3,41.7 -23.4,66.5 -12.4,24.9 -26.3,57.5 -34.7,76.5 -8.1,18.6 -11,23.4 -5.9,31.8 5.1,8.4 18.3,20.1 27.1,43.5 8.8,23 13.5,57.4 19.4,89.2 5.4,31.5 12,60.8 11.3,88.9 -0.4,28.2 -8,55.6 -14.6,78.3 -6.6,23 -12.8,41.3 -23.4,55.9 -10.6,14.3 -26.4,25.3 -45.7,34.4 -19.4,9.5 -42.5,17.6 -58.9,19.4 -16.5,1.8 -26,-2.2 -34.8,0 -9.1,2.6 -17.2,11.7 -31.4,31.4 -14.3,19.4 -34.8,49.8 -49,68.8 -14.7,19.4 -23.1,28.2 -36.2,32.5 -13.2,4.8 -31.1,5.2 -46.8,2.2 -16.1,-3.3 -30,-10.2 -40.6,-13.5 -10.3,-3.3 -17.2,-2.9 -27.5,9.9 -9.8,12.8 -22.6,37.3 -39.5,66.9 -17.1,29.6 -38,64 -64.7,86.3 -26.3,22.3 -58.9,32.6 -83,37.3 -24.1,4.8 -40.2,4.4 -50.8,3.7 -10.3,-1.1 -15.4,-1.9 -20.5,5.5 -5.5,7.6 -11.4,23.7 -19.4,39.8 -8,16.1 -18.3,32.2 -35.1,49 -17.2,16.5 -40.6,33.7 -65.8,50.9 -24.9,17.1 -51.2,34.3 -76.5,53.4 -24.8,18.6 -48.6,39.1 -74.2,58.1 -26,18.6 -53.8,35.8 -83.4,48.3 -29.6,12.4 -60.7,19.7 -84.8,23.4 -24.2,3.3 -41.4,2.9 -62.6,5.1 -20.8,2.6 -45.7,8 -72,4.4 -26.4,-3.3 -54.1,-15.7 -76.8,-26.3 -22.7,-10.3 -39.9,-19.1 -61.1,-20.5 -21.2,-1.1 -46.4,4.7 -70.2,3.3 -24.1,-1.5 -46.5,-9.9 -68.8,-21.6 -22.3,-12.1 -44.6,-27.1 -61.8,-31.5 -17.5,-4.7 -30.7,1.1 -54.8,8.1 -24.5,6.6 -60.7,14.2 -93.6,19.4 -33.3,5.4 -63.3,8.7 -100.6,2.5 -37.3,-6.2 -81.9,-21.9 -116.3,-46.1 -34,-24.1 -57.8,-57 -75,-86.6 -17.2,-30 -27.8,-56.7 -36.5,-84.5 -9.2,-27.8 -16.1,-56 -18.7,-78.6 -2.6,-22.3 -1.1,-38.4 -7.3,-42.8 -6.2,-4.8 -20.1,2.5 -36.2,10.6 -16.1,8.4 -34.4,18.3 -73.5,17.2 -39.5,-1.1 -99.5,-13.2 -141.9,-25.6 -42.8,-12.8 -67.3,-26.4 -87.4,-43.5 -19.8,-17.2 -34.8,-38.1 -50.9,-72.8 -15.7,-34.8 -32.1,-83 -43.8,-117.4 -11.7,-34.4 -18,-54.9 -20.9,-73.9 -2.5,-19 -1.5,-36.9 -5.5,-59.2 -4,-22.3 -13.1,-49 -14.2,-86.3 -1.1,-37.7 5.8,-85.3 14.2,-121.1 8.4,-35.8 17.9,-59.6 26,-83 8,-23.8 14.6,-47.5 22.3,-69.9 8,-22.6 17.2,-44.2 33.3,-64.7 16.4,-20.8 40.2,-40.6 62.1,-53 22,-12.4 42.5,-17.2 52.7,-12.8 10.2,4.7 10.2,18.6 16.8,37.3 6.2,19 19.4,42.8 31.1,72.4 11.7,30 22.7,65.8 32.6,104.6 9.8,38.8 19,80.1 27.8,104.9 8.4,24.6 16.4,32.6 31.4,31.9 15.4,-0.8 37.3,-10.6 57.4,-12.1 20.1,-1.5 38.4,4.8 46.1,15 7.3,10.2 4,24.1 9.1,36.2 5.2,12.4 18.7,22.3 33.3,35.5 15,13.1 31.1,29.6 42.1,46.8 11,17.5 16.8,36.6 24.1,47.1 7,10.7 15,13.6 23.8,3 8.8,-10.6 18.6,-34 34.4,-57.1 15.7,-22.6 38,-45 53,-51.2 15,-6.6 23,2.6 31.4,22.7 8.5,19.8 16.9,50.5 26.4,84.1 9.5,34 19.4,71 38.7,93.3 19.4,22.3 48,30 94.4,46.4 46.4,16.5 111.2,41.7 149.9,61.5 38.8,19.7 51.6,34.3 72.1,36.2 20.8,1.4 49.4,-9.9 86.3,-25.6 37.3,-16.1 83,-36.2 114.1,-42.8 31.1,-6.6 47.9,1.1 61.8,15.7 13.9,15 25.2,36.9 25.2,56.7 0,20.1 -11.3,37.7 -29.2,55.6 -17.9,18.3 -42.8,36.5 -56.3,48.6 -13.2,12.1 -15.4,17.9 -5.9,23.8 9.9,5.8 31.1,12.1 53.4,9.1 21.9,-2.5 44.6,-13.9 87.8,-30 43.1,-16 107.1,-37.3 144.1,-44.2 36.9,-7.3 46.4,-1.1 58.5,-1.1 12,0 26.7,-6.2 33.6,-18.3 7,-11.7 6.6,-28.9 -1.1,-45.3 -7.3,-16.5 -21.9,-31.9 -26.7,-52 -4.4,-19.7 1.1,-43.9 18.7,-68 17.9,-23.8 47.9,-47.5 71.3,-62.9 23.4,-15 39.8,-22.3 60,-47.5 20.4,-25.3 43.8,-68.8 63.6,-103.9 19.7,-35.1 35.1,-62.2 51.2,-82.6 15.7,-20.9 31.8,-35.5 44.6,-61.9 13.2,-26.7 22.7,-65.4 29.6,-97.6 7,-32.2 11.4,-58.2 20.5,-76.1 9.2,-18.2 23.1,-28.1 35.1,-29.9 12.1,-1.5 22.3,5.4 29.3,3.6 6.6,-1.5 9.9,-11.7 15.3,-38.4 5.2,-26.3 12.8,-69.5 18,-95.4 5.1,-25.6 7.6,-34.4 10.2,-60.8 2.9,-26.3 5.5,-70.2 7.3,-107.5 1.5,-37.7 1.8,-68 6.6,-85.9 4.4,-17.6 13.2,-22.7 15.7,-33.7 2.9,-10.9 -0.3,-28.1 -8,-59.6 -8.1,-31.4 -20.5,-77.1 -27.5,-109.7 -6.9,-32.9 -8.4,-53 -12.8,-73.9 -4.3,-20.8 -11.3,-42.7 -13.1,-54.8 -1.8,-12.4 1.4,-14.3 -6.2,-21.6 -7.4,-6.9 -25.6,-18.6 -43.9,-35.8 -18.3,-17.2 -36.6,-39.9 -52.3,-56.3 -15.7,-16.1 -28.5,-26.4 -33.7,-41.7 -5.1,-15.4 -2.5,-35.9 13.6,-48.7 15.7,-12.4 45,-17.2 74.2,-20.1 29.3,-2.6 58.9,-3.3 79.4,-8 20.1,-4.8 31.4,-13.9 25.2,-27.5 -6.6,-13.9 -30.7,-32.2 -53.8,-50.4 -23.4,-18.3 -45.3,-36.6 -71.3,-49 -25.9,-12.1 -56.3,-18.7 -78.6,-20.5 -22.3,-1.8 -36.6,0.7 -38.8,9.5 -2.2,8.8 8.1,24.1 14.7,39.9 6.6,15.7 9.8,32.5 5.8,47.5 -4.4,15 -16.4,28.5 -31.8,42 -15.7,13.2 -35.1,26.8 -49.4,28.2 -14.2,1.5 -23.4,-9.5 -29.6,-26 -6.6,-16.4 -10.2,-38.4 -15.7,-54.8 -5.5,-16.8 -12.5,-28.2 -27.4,-40.2 -15,-12.1 -38.1,-24.9 -72.5,-42.5 -34.3,-17.5 -80,-39.5 -121.7,-57.4 -41.4,-17.9 -78.3,-32.2 -107.6,-40.2 -28.9,-8.4 -49.7,-11.3 -67.3,-17.6 -17.5,-5.8 -31.4,-15.7 -44.6,-26.3 -13.1,-10.2 -25.6,-21.6 -31.1,-34 -5.8,-12.4 -4.7,-25.6 0,-34 4.4,-8.4 12.5,-11.7 20.5,-17.9 8.1,-6.6 16.1,-16.5 11.7,-21.2 z m -909.1,2355.9 c 28.5,19.7 76.4,53.3 121.8,76 44.9,23.1 87.4,35.1 121,47.2 33.7,12.1 58.2,24.1 84.9,42.8 26.6,18.3 55.2,43.5 74.9,68.4 20.1,24.8 31.5,49 51.2,65.8 19.8,16.8 48.3,26.7 76.8,39.1 28.5,12.1 57.1,27.5 71.3,35.5 14.3,8.4 14.3,10.3 -11.7,14.3 -26.3,4 -78.2,10.2 -115.2,19 -36.9,9.1 -58.1,20.5 -94.7,47.9 -36.6,27.4 -88.5,70.9 -144.1,102.8 -55.6,32.1 -115.2,52.3 -160.2,61.4 -45.3,8.8 -76,6.2 -110,-2.6 -34,-8.7 -71.7,-23 -120.4,-54.8 -48.2,-31.8 -107.5,-80.5 -147,-115.9 -39.5,-35.2 -59.2,-56.7 -84.4,-67.7 -25.3,-11 -56,-11.7 -76.8,-27.8 -20.5,-16.5 -31.5,-48.6 -35.9,-81.2 -4.7,-32.2 -2.9,-64.3 -1.8,-87 1.1,-23.1 1.5,-36.6 -1.8,-54.1 -3.7,-18 -11,-39.9 -9.2,-66.6 1.8,-27.1 13.2,-58.9 25.2,-87.4 12.1,-28.2 24.9,-53.8 34.1,-76.8 9.1,-23.4 14.6,-45 32.1,-54.1 18,-9.2 47.9,-5.9 71.4,1.1 23.4,7.3 40.2,18.6 36.2,34.3 -3.7,15.4 -27.8,35.5 -39.9,57.8 -12.1,22.3 -12.1,46.8 2.2,72.4 14.6,25.6 43.5,52 68,71 24.2,19 43.5,31.1 50.5,28.5 6.9,-2.2 1.4,-19 1.1,-32.9 0,-13.9 4.7,-25.3 17.9,-32.9 13.2,-7.3 34.7,-11.4 42.1,-19 7.6,-7.7 1.1,-19.8 1.4,-31.1 0.4,-11 7.3,-22 19.8,-28.5 12.4,-7 30,-9.6 47.9,-8.5 17.5,1.1 35.5,5.9 49,11.7 13.9,5.5 23.4,12.1 52.3,31.9 z M 12126,15256.6 c 10.6,20.8 22.3,54.8 27.1,80.5 4.7,25.6 2.9,42.7 -7,54.1 -9.5,10.9 -26.7,16.4 -42.4,26.7 -15.7,10.2 -29.6,25.2 -41.3,45.3 -12.1,19.8 -21.6,44.6 -22.7,71 -1.1,26.7 6.6,55.2 15.7,79.7 9.5,24.5 20.9,45 36.2,63.3 15.4,18.2 34.8,34.3 47.2,47.9 12.1,13.9 17.6,24.8 29.6,32.5 12.1,7.7 31.1,11.3 45,10.6 13.9,-1.1 23.1,-6.2 29.6,-16.4 7,-10.3 11.4,-25.3 19.1,-32.2 7.6,-7 19,-6.2 29.6,-2.9 11,2.9 21.2,7.6 33.6,11.7 12.1,4 26.7,7.3 37.7,2.5 10.6,-4.4 17.6,-16.8 18.3,-33.3 0.7,-16.4 -4.4,-36.9 -9.2,-55.9 -4.3,-19.4 -8.4,-37.7 -9.5,-56.3 -1.4,-18.7 -0.3,-37.3 -0.7,-53.1 0,-15.3 -1.8,-27.7 -14.3,-39.8 -12,-11.7 -35.4,-23.1 -50.1,-36.6 -15,-13.9 -21.2,-30 -25.9,-47.9 -5.1,-17.9 -8.1,-38 -19.8,-57.4 -11.7,-19.4 -31.4,-38 -47.2,-53.8 -15.3,-15.3 -26.7,-27.8 -43.8,-40.2 -17.2,-12.4 -40.3,-24.9 -47.6,-26.7 -6.9,-2.2 2.2,5.9 12.8,26.7 z m 365.7,704.3 c 7,6.6 13.9,13.6 24.2,16.1 10.2,2.2 23.4,0 33.6,10.3 10.2,10.2 17.2,32.9 18.7,54.8 1.4,22.3 -3,43.6 -5.5,62.9 -3,19.1 -4,35.5 -6.2,54.5 -2.6,18.7 -6.3,39.9 -12.1,57.1 -5.5,17.5 -13.2,31.4 -22.3,42 -9.5,10.6 -20.9,17.6 -37.3,11 -16.5,-6.6 -37.7,-26.3 -52.7,-42.8 -14.6,-16.4 -22.7,-29.2 -30,-51.2 -7.3,-21.9 -13.9,-53.4 -12.4,-83.7 1.5,-30.7 10.6,-61.1 19.7,-83.4 9.6,-22.7 19.4,-37.7 29.3,-47.6 10.2,-10.2 21.2,-14.9 30,-14.2 8.8,1.1 15.7,7.3 23,14.2 z m 1963.9,624.7 c -6.2,25.9 -11,57.8 -22.3,83 -11.4,25.2 -29.3,43.9 -53.4,61.1 -24.5,16.8 -56,31.8 -81.6,40.9 -25.9,9.2 -46.4,12.5 -37.3,14.3 9.2,1.8 47.9,2.5 81.2,6.2 32.9,3.7 60.4,10.6 82.3,19.8 21.6,9.1 37.7,20.4 51.6,34.3 13.5,13.6 24.8,29.7 39.5,46.1 15,16.5 33.2,32.9 61,47.6 27.5,14.6 64.8,27 99.5,31 35.1,4.4 67.7,0.8 101.3,-12.8 33.3,-13.5 66.9,-36.5 92.2,-56.7 24.8,-20.1 40.9,-37.2 60.7,-64.3 19.4,-26.7 42.8,-63.3 56.7,-102.4 13.9,-38.8 18.6,-80.1 16.4,-120.3 -2.5,-39.9 -12.1,-78.6 -18.3,-112.7 -5.8,-33.6 -8,-62.9 -5.5,-95.4 2.6,-32.6 9.6,-68.4 16.1,-94.4 6.6,-25.6 13.2,-41.3 4.4,-39.5 -8.8,1.5 -33.3,20.1 -58.1,35.1 -24.9,14.7 -50.8,25.6 -72.1,25.6 -21.2,0 -38,-10.9 -57,-15.3 -19,-4 -40.6,-1.8 -58.2,9.1 -17.9,11.4 -31.8,31.8 -40.5,47.9 -8.8,15.8 -12.9,27.1 -19.8,35.9 -6.9,8.7 -17.2,15.3 -27.4,23 -10.3,8.1 -20.5,17.2 -29.7,13.2 -9.5,-3.7 -18.2,-20.5 -30.3,-30 -12.4,-9.9 -28.5,-12.5 -45.7,-2.9 -16.8,9.5 -34.4,30.7 -48.7,50.8 -14.2,19.7 -25.2,38 -34.3,57.1 -9.2,19 -16.5,39.1 -22.7,64.7 z m -2208.5,-2403.5 c -13.9,23.8 -34.8,63.7 -46.5,87.1 -11.7,23.7 -13.9,31.1 -11.7,43.5 2.2,12.4 8.8,29.6 18.3,53.8 9.9,24.1 22.7,55.5 24.9,89.9 2.2,34.8 -6.6,73.2 -19.8,103.2 -13.1,29.9 -30.7,52.3 -48.2,67.2 -17.6,15 -34.8,23.1 -56.4,24.5 -21.9,1.1 -48.2,-4 -66.5,-4.7 -18.3,-0.4 -28.6,3.7 -40.6,9.1 -12.1,5.5 -26,11.7 -37,21.2 -10.6,9.5 -18.2,22 -26.3,38.1 -8,16.1 -16.4,35.8 -24.1,49.4 -7.3,13.5 -13.9,20.4 -22.3,18.6 -8.8,-1.8 -19.4,-12.8 -29.3,-27.4 -9.5,-14.3 -18.3,-32.6 -19.4,-50.5 -1.4,-18.3 4.4,-35.8 0.8,-49.4 -3.3,-13.5 -16.1,-22.6 -31.5,-30 -15,-7.6 -32.2,-13.5 -51.6,-32.5 -19.7,-19 -41.6,-51.6 -54.1,-84.8 -12.4,-33.7 -15,-68.8 -5.8,-108.7 9.5,-40.2 31.1,-85.2 57.4,-126.1 26.3,-41 57.4,-77.6 84.5,-96.6 26.7,-19 49.3,-20.5 71.3,-16.4 22.3,4 43.5,13.5 64.3,20.1 20.9,6.9 40.6,10.6 58.2,11.3 17.2,0.7 32.5,-1.1 44.6,0.7 12.1,1.9 21.2,7.7 35.5,5.9 14.6,-1.8 34.7,-11.7 55.6,-17.9 20.8,-5.9 42.8,-8.8 60.3,-14.3 17.6,-5.8 30.4,-14.2 33.3,-15 2.9,-0.3 -4,7 -17.9,30.7 z m -184,910.7 c 4.4,7.3 9.9,17.1 15.4,27.4 5.5,10.2 10.6,20.8 13.9,30 3.3,8.7 4.7,16.1 2.5,16.1 -2.2,-0.4 -8.4,-7.7 -16.4,-15.4 -7.7,-8 -17.6,-16.1 -22.3,-25.6 -4.8,-9.1 -4.8,-20.1 -4.8,-28.5 0,-8.8 0.4,-15 2.2,-15.7 1.8,-0.8 5.1,4.3 9.5,11.7 z m 662.7,-234.1 c 0.3,16.1 -1.1,36.2 5.1,56.7 6.6,20.5 21.2,41.3 29.3,64 8,23 9.5,47.5 5.4,73.9 -4,26.3 -13.5,54.5 -28.9,72.4 -15.3,17.9 -36.2,25.9 -58.8,23 -22.7,-3.3 -46.8,-17.9 -65.5,-36.6 -19,-18.2 -32.5,-40.9 -43.5,-60.3 -11,-19.4 -19.4,-35.5 -26.7,-47.2 -7,-12 -12.1,-19.4 -16.8,-15 -4.4,4.8 -8.4,21.2 -15.4,38.1 -7.3,16.4 -18.3,33.2 -28.9,41.3 -10.9,8 -21.5,7.7 -32.5,8.8 -11,1.1 -22.3,3.6 -32.6,8 -10.2,4.8 -19.4,11.3 -29.6,11.7 -10.2,0.4 -21.6,-4.7 -31.8,-22.3 -10.6,-17.6 -20.1,-47.2 -30.4,-80.5 -9.8,-33.2 -20.1,-70.2 -24.5,-104.2 -4.7,-34 -3.6,-64.3 -0.3,-96.5 3.3,-31.8 8.7,-65.1 17.5,-96.6 8.8,-31.4 21.2,-61 43.2,-88.1 21.9,-26.7 53.7,-50.9 74.6,-60.7 20.5,-9.5 30.3,-4.8 42.8,-12.1 12.8,-7.3 28.1,-26.7 40.2,-45 11.7,-18.3 19.7,-35.4 15.3,-41.7 -4,-6.5 -20.8,-2.2 -28.5,-6.2 -8,-4 -6.9,-16.4 -6.6,-36.5 0.4,-20.2 -0.3,-48.3 9.9,-78.3 9.9,-30 30.4,-62.5 48.3,-85.9 17.9,-23.8 33.6,-38.8 51.2,-51.6 17.9,-12.5 37.7,-22.7 55.6,-26 17.5,-3.3 33.3,0.7 40.6,15 7.7,14.3 7.3,38.8 2.2,60.4 -4.8,21.5 -13.9,39.8 -25.3,56.3 -11.3,16.8 -24.5,31.8 -34.3,43.5 -9.6,11.3 -15.4,19.4 -12.8,22.3 2.5,2.9 13.8,1.1 26.7,0 13.1,-1.1 27.4,-1.1 35.1,6.2 7.3,7 8,21.6 2.5,32.9 -5.1,11.4 -16.4,19.4 -15.7,22 0.7,2.9 13.5,0 26.7,-4.4 12.8,-4.8 25.6,-11 38.4,-12.1 12.4,-0.7 24.9,4 31.4,14.3 6.3,9.9 7,24.9 4.1,38.7 -2.6,13.9 -8.4,27.1 -12.8,35.9 -4.4,8.8 -7,13.5 -1.9,18.6 5.2,5.2 18,10.6 27.1,21.6 9.1,11 14.6,27.8 11.7,46.4 -2.9,18.3 -14.3,38.8 -18.3,52.4 -4,13.5 -0.7,19.7 4.4,24.5 5.1,4.3 12.1,7.3 14.3,18.6 2.2,11.7 -0.8,32.2 -6.6,44.6 -5.9,12.8 -15,17.6 -27.8,25.3 -12.4,7.3 -28.5,17.5 -38,29.6 -9.6,12 -12.1,26 -12.1,39.1 0,13.2 2.5,25.6 3.3,41.7 z m 251.6,-1407.6 c -14.3,16.1 -35.8,44.6 -54.1,75 -18.7,30.3 -34.4,62.5 -52,103.5 -17.1,40.9 -36.5,90.3 -56.7,137.1 -19.7,46.8 -40.2,90.7 -59.6,112.6 -19.3,21.6 -37.6,21.2 -54.8,13.2 -17.2,-8.1 -33.3,-23.8 -47.2,-28.5 -13.9,-4.8 -26,1.1 -38,3.3 -12.1,2.5 -24.5,1.4 -35.1,4 -10.6,2.2 -19.8,8.4 -19.8,-2.2 0,-10.6 9.2,-37.3 12.1,-58.5 2.9,-21.2 -0.4,-37 -10.3,-53.4 -9.8,-16.5 -26.7,-33.7 -40.6,-53.1 -13.8,-19.7 -25.2,-41.6 -32.1,-62.8 -6.6,-20.9 -8.8,-40.6 -12.5,-67 -3.3,-25.9 -8,-58.1 -12,-80.1 -4.1,-21.5 -7.3,-32.9 -1.1,-49.7 6.6,-16.4 22.6,-38.4 34,-49.4 11.3,-10.6 17.9,-10.2 27,-26.7 9.2,-16.8 20.9,-50.8 31.1,-79 10.3,-28.5 18.7,-51.9 32.6,-70.9 13.5,-19 32.5,-34 45,-51.6 12,-17.5 17.9,-37.3 30.3,-54.1 12.1,-16.4 30.4,-30 52.7,-37.3 22.3,-7.7 48.6,-9.1 69.8,-4 21.2,5.5 37.3,17.9 42.8,39.8 5.9,22 0.7,53.8 4,78.7 3.3,25.2 14.7,43.5 27.5,54.8 13.1,11.7 27.4,16.5 46.4,30 18.7,13.5 41.7,35.5 61.8,53.4 19.8,17.9 36.6,32.2 42.1,47.9 5.8,15.7 0.3,33.7 -5.9,44.3 -6.2,10.9 -13.1,14.6 -27.4,30.7 z m 1423.3,-223.5 c -9.8,-2.9 -24.5,-2.2 -41.7,-2.5 -17.1,-0.4 -36.9,-1.5 -51.9,-1.5 -15,0 -25.2,1.1 -26,7 -0.3,5.4 8.8,15.7 24.9,22.6 16.1,7 39.1,11 57.4,11 18.3,0 31.8,-4 40.3,-8.4 8.7,-4 12.4,-9.2 12,-14.3 -0.7,-5.5 -5.5,-11.3 -15,-13.9 z m 252.4,158 c -7.7,-5.8 -24.9,-12 -39.2,-22.7 -14.2,-10.6 -25.6,-24.8 -34.7,-39.1 -9.5,-13.9 -17.2,-27.4 -27.4,-36.9 -10.3,-9.5 -23.1,-15.7 -34,-22.3 -11,-6.6 -20.2,-14.3 -14.3,-20.9 5.8,-6.9 27.1,-12.8 52.3,-18.3 25.2,-5.8 54.8,-10.9 73.9,-17.5 19.4,-6.6 28.5,-13.9 32.1,-22.3 3.3,-8.4 1.5,-17.6 12.1,-24.2 10.6,-6.9 34.4,-10.9 53.8,-16 19.4,-4.8 34.4,-10.3 49,-15 14.2,-4.8 28.5,-9.2 46.8,-9.2 18.3,0 40.6,4.4 70.6,18.3 30,13.9 66.9,37.7 106.4,57.4 39.5,19.4 81.6,35.1 106.4,56.7 24.9,21.6 32.9,49 37,73.1 4,24.2 4,45 5.1,68.1 1.1,23.4 3.3,48.6 9.1,75.7 5.5,27 14.6,56.3 27.1,83.7 12.4,27.8 27.8,54.1 39.8,77.9 11.7,23.4 19.8,44.6 15.4,49 -4,4.8 -20.8,-7.3 -48.6,-25.2 -28.2,-17.9 -67.3,-42.1 -97.3,-54.5 -29.6,-12.4 -50.1,-12.8 -73.2,-9.9 -22.6,3.3 -47.9,10.3 -74.2,7 -26,-3.7 -52.7,-17.6 -77.5,-28.2 -24.9,-11 -47.2,-18.3 -67.3,-21.6 -20.5,-3.3 -38.1,-2.2 -54.5,-1.4 -16.5,0.7 -31.5,1.4 -48.6,-11 -17.2,-12.4 -36.6,-37.7 -51.3,-56 -14.9,-18.2 -25.2,-29.6 -23,-41.3 2.2,-11.7 16.8,-24.1 25.2,-32.9 8.1,-9.1 10.3,-14.3 3,-20.5 z m 657.1,403.8 c -4,5.1 3.7,22.3 12.1,39.5 8.1,17.2 17.2,34.3 25.2,39.1 7.7,4.4 14.3,-3.7 13.6,-17.6 -1.1,-13.9 -9.2,-33.6 -20.5,-46.8 -11.7,-13.1 -26.7,-19.7 -30.4,-14.2 z m 241.1,191.6 c -19.8,-9.9 -44.7,-15.4 -78.7,-13.2 -34.3,2.2 -77.9,12.1 -104.6,27.8 -27,15.8 -37.3,38.1 -45,63.7 -7.6,25.9 -13.1,55.5 -9.8,83 3.6,27.4 16.1,52.6 29.6,74.9 13.2,22.4 27.8,41.7 41.3,57.8 13.6,16.5 25.6,30 35.9,45.7 10.2,16.1 18.3,34.4 31.4,50.9 13.2,16.8 31.5,31.8 55.6,45 24.5,13.1 54.5,24.5 77.9,30.7 23.8,6.2 41,7.3 57,2.2 15.8,-5.1 30.4,-16.5 48,-45 17.9,-28.5 38.7,-74.2 49,-115.2 10.2,-41.3 9.5,-77.9 -1.1,-115.6 -10.6,-38 -31.9,-77.1 -56.4,-103.5 -24.5,-25.9 -52.2,-38.7 -73.8,-52.3 -21.6,-13.5 -36.6,-27.4 -56.3,-36.9 z m -335.8,2063 c -12,16.1 -31.8,41.3 -51.2,58.8 -19.3,18 -38,28.2 -49.3,24.2 -11,-4.1 -14.3,-22.3 -0.8,-38.8 13.6,-16.4 43.6,-30.7 66.6,-43.1 22.7,-12.1 38.4,-21.6 44.2,-23.1 5.9,-1.1 2.2,5.9 -9.5,22 z m -588,198.2 c -8.1,13.2 -19.4,21.9 -32.9,34 -13.9,12.4 -30,28.5 -42.5,35.8 -12,7 -20.8,4.8 -24.1,-4.7 -3.3,-9.5 -1.1,-26 10.2,-41 11.4,-14.6 31.9,-27.4 51.2,-39.5 19.4,-11.7 37.7,-22.3 44.3,-19 6.6,3.7 1.8,21.2 -6.2,34.4 z m 710.5,-371.6 c -14.2,14.3 -31.4,35.1 -46.4,51.2 -15,16.1 -27.8,27.5 -27.8,34 0,7 12.8,9.2 25.2,2.2 12.5,-7.3 24.2,-23.4 38.1,-44.2 13.9,-20.9 30.3,-46.8 32.9,-56 2.5,-9.1 -8.1,-1.4 -22,12.8 z m 708.4,-465.2 c -15.3,16.9 -34,32.2 -53,49 -18.7,16.9 -37.7,34.4 -58.9,48.3 -21.2,13.6 -44.6,23.4 -69.5,28.9 -24.8,5.5 -50.4,7.3 -68.7,5.9 -18.3,-1.5 -29.3,-5.5 -29.3,-16.1 0,-10.6 11,-27.1 8.4,-38.4 -2.2,-11.4 -17.9,-17.2 -35.8,-23.1 -18.3,-5.5 -38.4,-10.9 -57.4,-31.4 -18.7,-20.1 -35.9,-55.6 -44.3,-85.6 -8.4,-30 -7.7,-54.1 -5.1,-76.1 2.6,-21.9 7.3,-42 20.1,-60.3 12.8,-18.7 32.9,-35.8 48.7,-58.9 15.7,-22.7 26.3,-51.2 33.2,-83 7,-31.5 10.3,-66.6 14.7,-96.5 4.4,-30.4 9.5,-55.6 24.8,-56 15.4,-0.7 40.6,23.8 59.6,49 18.7,25.2 31.1,51.6 48.7,68 17.9,16.8 40.9,23.8 55.9,35.9 15,12 22.3,29.2 36.6,43.5 14.6,14.2 36.6,25.6 56,44.2 19.3,19.1 36.2,45.4 46.8,72.1 10.6,26.3 15.7,53.4 15.7,75 0.4,21.2 -4,37.6 -12.1,54.4 -8,16.9 -19.7,34.8 -35.1,51.2"
         style="fill:#962934;fill-opacity:1;fill-rule:evenodd;stroke:none"
         id="path6280"
         transform="matrix(0.13333333,0,0,-0.13333333,0,2933.3333)" />
      <g
         id="g6282"
         transform="matrix(0.13333333,0,0,-0.13333333,0,2933.3333)">
        <g
           id="g6284"
           clip-path="url(#clipPath6288)">
          <path
             d="m 15100,14809.7 c -12.1,41.3 -32.6,74.2 -59.3,105.3 -27,31.1 -60.3,60.7 -87,78.3 -26.7,17.2 -46.5,22.6 -59.6,18.3 -13.2,-4.1 -19.8,-18.3 -20.1,-46.5 -0.8,-28.1 4.7,-70.6 3.6,-117.4 -1.1,-46.8 -8.4,-97.6 -23,-163.4 -14.6,-65.5 -35.9,-145.6 -56.3,-199 -20.2,-53 -38.8,-79.4 -47.6,-101.3 -8.4,-22.3 -6.9,-39.8 13.2,-46.8 20.1,-6.6 58.9,-2.2 105.3,21.6 46.1,24.1 99.8,67.6 139,109.3 38.7,42.1 62.9,82.3 79,115.6 16.4,32.9 24.5,58.9 26.7,96.5 1.8,38.1 -1.9,88.2 -13.9,129.5 z m 507.6,-576.7 c 0.7,31.4 2.2,64.7 -1.9,91 -4,26 -13.5,44.7 -24.5,56 -10.6,11.3 -22.3,15 -36.5,11 -14.3,-4.4 -31.1,-16.9 -43.2,-38.4 -12.1,-21.2 -19.7,-52 -31.4,-77.9 -11.7,-25.6 -27.8,-46.8 -43.6,-69.9 -15.7,-23 -30.7,-48.3 -38.7,-70.9 -8.1,-22.7 -9.2,-42.5 0.3,-54.2 9.6,-12 29.3,-15.7 46.1,-21.2 17.2,-5.8 31.1,-13.1 49,-13.5 18,-0.4 40.3,6.6 61.5,23.8 21.6,17.2 42.8,44.6 52.6,73.5 10.3,28.5 9.9,58.9 10.3,90.7 z m -626.9,-869.3 c 23.1,33.6 40.3,66.2 42.8,91 3,24.5 -9.1,41.4 -23.7,47.2 -15,5.9 -32.6,1.1 -48.7,3.3 -16.1,2.2 -30.7,11.4 -51.5,5.5 -21.3,-5.5 -48.7,-26 -77.9,-51.6 -29.7,-25.9 -61.5,-57 -86,-80.1 -24.5,-22.6 -41.7,-37.3 -49,-52.6 -7.7,-15.4 -5.5,-31.5 -6.2,-45.7 -0.7,-14.7 -4.8,-27.5 -4,-39.2 1.1,-11.7 6.2,-21.9 23,-25.9 16.8,-4.4 44.6,-3 80.1,5.8 35.5,8.4 78.6,24.2 114.1,49 35.9,25.3 64.4,59.6 87,93.3 z m -462.6,731.8 c -2.9,10.2 -6.9,25.9 -11.7,35.1 -5.1,9.5 -11.7,12.8 -25.6,4 -14.2,-8.4 -35.5,-28.9 -89.2,-56 -53.8,-26.7 -139.7,-59.9 -197.5,-81.9 -57.4,-21.6 -86.3,-31.8 -102.8,-41.7 -16,-10.2 -19,-19.7 -19,-33.6 0.4,-14.3 4,-32.2 13.2,-46.5 9.1,-13.9 23.8,-23.4 26.3,-31.4 2.2,-8.1 -7.3,-14.6 -20.5,-21.9 -12.8,-7.4 -28.8,-15.4 -27.8,-27.8 1.1,-12.8 19.4,-30 42.8,-45 23.4,-15 52,-28.2 84.5,-32.2 32.9,-4.4 70.2,0 113.8,16.8 43.5,16.8 93.2,46.5 132,81.6 38.7,35.4 66.2,76 84.4,107.1 18.3,30.7 27.5,52 30,69.9 2.2,17.9 -2.2,32.9 -7.3,46.4 -5.5,13.5 -12,25.3 -16.1,33.7 -4.4,8.4 -6.6,13.1 -9.5,23.4 z m -1344.7,-907.4 c -25.2,0.4 -57.4,3.7 -81.9,4.1 -24.5,0.3 -41.3,-2.6 -44.6,-15 -3,-12.1 7.3,-34.4 28.5,-54.5 21.2,-20.1 53.4,-38.4 84.5,-50.9 31.1,-12.8 61.4,-19.7 95.1,-19 34,0.8 71.6,9.5 99.4,26.4 27.5,16.8 45.4,42 49.4,63.6 4,21.6 -5.9,39.5 -18.6,49.4 -12.8,9.8 -28.9,12 -54.5,10.9 -25.6,-1.1 -60.7,-5.4 -87.1,-8.7 -26.7,-3.7 -45,-6.3 -70.2,-6.3 z m -362,396.8 c -26,28.9 -45.4,54.2 -73.9,82 -28.5,27.4 -66.2,57.7 -87.1,60.7 -20.4,2.9 -24.1,-21.2 -21.5,-49.4 2.5,-28.5 11.7,-60.7 10.2,-88.5 -1.8,-28.2 -13.9,-51.6 -25.6,-83.4 -11.7,-31.8 -22.3,-71.7 -20.8,-107.2 1.1,-35.8 14.6,-67.6 34,-93.2 19.4,-25.2 44.6,-44.6 74.9,-53.8 30.4,-9.1 65.9,-8 90.4,11.4 24.5,19.7 38,57.8 55.2,80.1 17.5,22.3 39.1,28.9 53,39.8 13.9,11 20.5,26.7 19.8,45.4 -0.8,18.3 -8.8,39.8 -29.3,66.9 -20.5,27.1 -53.4,60 -79.3,89.2 z m 371.5,726.7 c -32.5,22.3 -51.9,39.5 -78.2,51.2 -26.4,12.1 -59.7,18.3 -77.6,13.9 -17.9,-4 -20.8,-19 -28.9,-33.3 -8.4,-14.2 -22.3,-27.8 -29.2,-49 -7.3,-21.2 -7.3,-50.5 11.3,-81.9 18.7,-31.5 55.6,-65.1 90,-92.2 34.4,-26.7 66.2,-46.8 91.4,-55.6 25.2,-8.7 44.3,-6.5 60.7,3 16.8,9.1 31.5,25.9 49.7,36.2 18.7,10.6 41.4,15 58.2,24.5 16.8,9.9 28.2,24.9 23,43.5 -5.1,18.3 -26.3,40.6 -59.9,65.1 -33.3,24.9 -78.3,52.3 -110.5,74.6 z m -1113.2,231.5 c -22.3,28.5 -41.7,46.1 -72.4,60.7 -30.4,15 -72.4,26.7 -99.5,20.8 -27,-5.8 -39.5,-29.6 -42.4,-61.4 -2.9,-32.2 3.3,-72.4 12.1,-112.3 9.1,-40.2 20.4,-80.1 39.5,-110.8 19,-31.1 45.7,-53 66.9,-61.4 20.8,-8.4 35.8,-2.9 50.8,6.9 14.6,9.5 29.3,23.4 43.5,38.1 14.3,14.6 28.2,29.6 40.6,48.6 12.5,19 23.1,42.1 15.8,73.1 -7.4,30.8 -32.6,69.5 -54.9,97.7 z m 622.8,267.7 c -13.2,32.5 -22.3,62.9 -31.1,87.8 -8.8,24.8 -17.5,43.5 -32.2,54.1 -15,10.2 -35.8,12.4 -57,1.5 -21.2,-11 -42.8,-35.2 -63.7,-64.8 -21.2,-29.6 -41.6,-64.3 -41.6,-117 0,-52.7 20.4,-123.2 43.8,-174.8 23.5,-51.6 49.8,-84.5 69.5,-104.6 19.4,-20.1 32.6,-27.8 53.1,-32.6 20.8,-4.7 49.3,-6.9 68.3,-5.1 19.1,1.9 28.9,7.7 35.1,22.3 5.9,14.7 8.8,37.7 11,56.7 2.6,19 4.8,34 2.2,53.4 -2.2,19.4 -9.1,43.2 -11.7,64.4 -2.5,21.2 -0.4,40.2 -7.7,66.5 -7.6,26.4 -24.8,60 -38,92.2 z m 1909.7,815.5 c -16.8,16.8 -37.3,41 -48.6,70.2 -11.7,29.3 -14.3,63.7 -6.6,84.9 8.1,21.2 26.3,29.2 55.6,25.2 29.3,-4 69.5,-20.1 96.6,-35.8 27,-15.7 41.3,-31.5 58.8,-40.6 17.9,-9.2 39.2,-11.7 56.3,-13.5 16.9,-1.5 29.3,-2.2 48.7,-12.5 19.4,-10.2 45.7,-30 72.4,-51.9 27.1,-21.9 54.5,-46.5 73.9,-75 19.7,-28.9 31.4,-62.1 39.1,-98 7.7,-36.2 10.6,-75 4.8,-110.1 -5.9,-35.1 -20.9,-66.9 -37.4,-88.8 -16.4,-22.3 -34,-34.4 -54.8,-38.1 -20.9,-3.6 -44.3,1.9 -62.2,4.8 -18.3,2.9 -30.3,3.6 -42.4,2.9 -11.7,-0.4 -23,-2.2 -38,2.9 -15,5.2 -34,17.2 -55.6,56.7 -21.2,39.5 -45.7,106.8 -65.8,158 -20.2,51.2 -36.2,86.7 -50.9,109.3 -14.2,22.7 -27.4,32.2 -43.9,49.4 z m 117.1,953.8 c -18.7,21.6 -41.7,44.6 -62.2,68.4 -20.5,23.4 -38.4,47.5 -51.6,66.9 -13.1,19.4 -21.5,34 -15,48.6 6.2,15 27.8,30 55.6,38.1 27.5,8 61.5,9.1 89.3,4 27.4,-5.1 49,-16.4 69.4,-35.5 20.5,-19 39.9,-46 54.9,-79 15,-33.2 26,-72.4 29.3,-108.6 3.6,-36.2 -0.4,-69.5 -3.3,-91.8 -3,-22.3 -5.2,-33.6 -14.3,-39.5 -9.5,-5.4 -26.3,-5.4 -44.6,6.6 -18.7,12.1 -39.2,36.2 -56.7,58.2 -17.6,22.3 -31.8,42 -50.8,63.6 z m -1138.9,-705.8 c -23,-8.4 -48.2,-20.1 -76,-48.3 -28.2,-27.8 -58.9,-72 -86,-96.2 -27,-24.1 -50.8,-28.5 -70.2,-22.3 -19.4,6.2 -34.4,23.1 -40.2,51.2 -5.9,28.2 -2.6,68 6.2,100.2 8.8,32.2 23.4,57.1 45.4,80.8 21.9,24.2 51.5,47.2 84.8,64.4 32.9,17.2 69.5,28.5 108.3,37.7 38.7,9.1 79.3,16.1 113.3,21.5 34,5.2 60.7,9.2 86.7,11.8 26.3,2.5 51.6,4.3 74.2,4.3 23.1,0.4 43.5,-0.7 55.6,-8.4 12.1,-7.7 15.7,-22.3 12.8,-38.4 -2.9,-16.1 -12.8,-34 -26.7,-48.6 -13.9,-15 -32.2,-26.7 -54.8,-36.2 -22.3,-9.2 -49.4,-16.5 -78.3,-25.2 -29.2,-8.8 -60.3,-19.4 -86.3,-27.5 -25.6,-7.7 -46.1,-12.4 -68.8,-20.8 z m -1261.3,-292.6 c 7,22.3 11,45.4 11,62.6 0,17.5 -4,28.5 -15,33.6 -10.6,5.1 -27.8,4 -44.6,2.5 -16.5,-1.4 -32.6,-3.6 -52.3,-9.8 -19.8,-6.2 -42.8,-16.5 -58.9,-37 -16.1,-20.4 -25.2,-51.2 -28.5,-78.6 -3.3,-27.8 -0.4,-52.6 8.8,-73.9 9.5,-21.2 25.5,-38.7 36.2,-52.6 10.9,-13.6 16.4,-23.4 27.7,-22.3 11.7,0.7 29.3,12 45.4,32.2 16.1,20.1 30.7,49 42.8,74.2 11.7,25.2 20.8,46.8 27.4,69.1 z m 954.1,237.7 c -8,27.5 -24.5,76.5 -45.7,101.3 -21.2,24.9 -47.1,26 -76,18.3 -29.3,-7.7 -61.5,-24.5 -84.1,-32.9 -23.1,-8.8 -36.6,-9.2 -54.9,-20.5 -18.3,-11.3 -41.3,-33.3 -60,-75 -18.3,-41.3 -32.2,-102 -40.2,-144 -7.7,-41.7 -9.2,-64.8 -13.5,-90.4 -4.4,-25.6 -11.4,-53.4 -10.3,-76 1.1,-22.7 10.3,-39.9 26,-46.5 15.7,-6.9 38.4,-2.9 61.1,10.6 22.6,13.9 44.9,37.3 68,66.2 22.7,28.9 46.1,62.6 76.4,98.4 30.7,35.8 69.1,73.5 96.9,98.7 27.8,25.6 45.7,39.2 54.9,48.7 9.1,9.8 9.5,15.7 1.4,43.1 z m -118.4,562.1 c -46.9,-24.1 -84.5,-44.6 -113.1,-58.9 -28.8,-14.2 -48.6,-22.3 -62.5,-18.2 -14.2,4 -22.3,20.1 -25.6,35 -3.6,15 -2.5,29 -11,38.5 -8,9.5 -25.9,14.2 -32.5,25.5 -7,11.4 -2.6,28.9 4,48.3 6.2,19.1 15,39.5 26.3,68.1 11.4,28.1 25.3,64.7 54.9,95.4 30,30.7 75.7,55.6 117.8,71 42.4,15.7 80.8,21.9 113.3,17.9 32.6,-4.4 58.9,-19.4 71.4,-35.5 12.4,-15.7 10.9,-32.6 4.7,-47.9 -5.8,-15.7 -16.1,-30 -6.2,-38.8 10.2,-8.4 40.2,-11.3 59.6,-17.5 19.4,-6.6 27.8,-16.9 19,-34.4 -8.8,-17.6 -35.1,-42.1 -76.4,-68.8 -41,-26.7 -96.9,-55.2 -143.7,-79.7 z m 2683.9,-1099.3 c -5.1,29.6 -7.3,60 -11,86.7 -4,26.7 -9.1,49.3 -0.3,62.9 8.7,13.9 31.8,18.6 54.1,15 21.9,-3.3 42.8,-15.4 59.6,-36.2 17.2,-20.9 30,-51.2 38.8,-84.9 8.4,-34 12.8,-71.7 12.4,-104.6 -0.4,-32.9 -5.1,-61.4 -17.6,-81.5 -12.8,-20.5 -33.2,-32.2 -47.5,-28.6 -14.3,4.1 -22.3,23.4 -32.6,39.9 -10.2,16.8 -22.3,30.7 -32.5,51.9 -10.2,21.3 -18.3,49.8 -23.4,79.4"
             style="fill:#ff532b;fill-opacity:1;fill-rule:evenodd;stroke:none"
             id="path6290" />
          <path
             d="m 12064.9,14569.8 c -12,4 -31.4,8.8 -49.7,12.4 -18.3,4.1 -35.5,6.6 -42.8,-0.3 -7.3,-7 -4.4,-23.8 -5.5,-35.9 -0.7,-12.4 -5.1,-20.5 -7.3,-30.7 -2.5,-9.9 -2.9,-21.6 4,-41.7 7,-20.1 21.6,-48.6 37.7,-70.9 16.1,-22.3 33.7,-38.4 58.5,-42.1 24.9,-3.3 56.3,5.9 74.6,16.1 18.3,10.6 23.4,22.3 24.2,42.4 1.1,19.8 -1.5,47.6 -13.9,72.4 -12.8,24.9 -35.5,46.1 -49,58.5 -13.9,12.5 -18.7,15.8 -30.8,19.8"
             style="fill:#ff9e2b;fill-opacity:1;fill-rule:evenodd;stroke:none"
             id="path6292" />
          <path
             d="m 12704.9,14851.8 c -19.7,27.4 -44.2,42.4 -61.4,47.1 -17.6,4.8 -28.5,-0.3 -36.6,-16.4 -8,-16.1 -13.1,-43.2 -16.8,-68.4 -3.3,-25.2 -5.1,-49 -3.3,-76.1 1.8,-27 7.3,-57.8 16.1,-78.2 9.2,-20.5 21.2,-30.8 42.4,-41.7 20.9,-11.4 50.5,-23.8 70.2,-28.6 19.4,-5.1 29.3,-2.2 37,10.3 7.7,12.1 13.5,34.4 13.9,60 0.3,25.9 -5.1,55.5 -15.4,89.9 -10.6,34.8 -26.3,74.6 -46.1,102.1"
             style="fill:#ff9e2b;fill-opacity:1;fill-rule:evenodd;stroke:none"
             id="path6294" />
          <path
             d="m 13135,14413.6 c -18.6,1.9 -34.7,2.6 -37.3,-11.7 -2.2,-14.2 9.2,-43.5 13.9,-61.4 4.8,-17.9 3.3,-24.9 -8.8,-27.8 -11.7,-2.6 -33.6,-1.1 -42,-7.3 -8.4,-6.6 -3,-21.2 8.8,-37.3 11.3,-16.5 29.2,-34.8 45.3,-51.6 16.5,-16.4 31.4,-31.8 46.8,-43.1 15.4,-11.7 31.1,-19.8 47.2,-25.6 16.1,-5.9 32.9,-9.5 49,-12.5 16.1,-2.5 31.4,-4 44.6,-0.7 12.8,3.7 23,12.1 24.1,21.6 1.1,9.5 -6.9,19.7 -7.6,25.9 -1.1,6.6 5.4,9.2 16.4,11.7 11,2.2 26.7,4.4 38,15 11.4,10.6 18.3,29.3 10.3,51.2 -8.1,22.3 -31.5,47.6 -65.1,72.1 -34,24.8 -78.6,49 -111.2,62.5 -32.9,13.9 -53.7,17.2 -72.4,19"
             style="fill:#ff9e2b;fill-opacity:1;fill-rule:evenodd;stroke:none"
             id="path6296" />
          <path
             d="m 12838.8,13601.8 c -9.9,8 -35.1,26.3 -53.8,36.5 -19,9.9 -31.1,11.4 -35.1,1.5 -4,-9.9 0,-31.5 5.5,-52.3 5.5,-20.5 11.7,-40.6 24.9,-58.1 13.1,-18 33.3,-33.3 55.9,-47.2 23.1,-14.3 48.7,-26.4 65.9,-28.9 17.1,-2.6 25.9,5.1 25.2,18.3 -0.4,13.1 -9.9,31.8 -26.7,53.7 -16.8,21.6 -40.2,46.5 -49.4,58.2 -8.8,11.3 -2.9,9.8 -12.4,18.3"
             style="fill:#ff9e2b;fill-opacity:1;fill-rule:evenodd;stroke:none"
             id="path6298" />
          <path
             d="m 13205.6,13203.5 c -16.1,-0.7 -39.9,0 -57.8,-0.7 -17.5,-1.1 -29.2,-3.3 -35.5,-7.7 -5.8,-4.4 -6.9,-11 -2.2,-20.1 4.4,-8.8 14.7,-20.5 27.1,-30 12.8,-9.2 28.5,-16.5 44.3,-22 16,-5.4 32.1,-8.7 53.7,-10.2 22,-1.1 49.4,0 69.1,5.5 19.8,5.5 31.9,15.4 42.8,28.9 11.4,13.2 21.6,30 25.6,45.7 3.7,15.7 1.5,30.4 -4.7,40.2 -5.9,10.3 -15.8,15.4 -28.9,13.5 -12.8,-1.4 -29.3,-9.8 -46.8,-17.1 -17.6,-7.3 -35.9,-13.9 -49.4,-18.3 -13.2,-4.4 -21.2,-7 -37.3,-7.7"
             style="fill:#ff9e2b;fill-opacity:1;fill-rule:evenodd;stroke:none"
             id="path6300" />
          <path
             d="m 14820.6,13413.1 c -15,-13.6 -35.1,-32.2 -46.8,-47.6 -11.7,-15.3 -15.4,-27.4 -8.8,-31.4 6.9,-4.1 23.8,0 39.8,3.3 15.8,3.6 31.1,6.9 47.9,14.9 17.2,8.1 36.3,20.9 46.9,38.8 10.6,17.9 12.8,41.3 13.5,57.4 0.4,16.5 -0.7,25.6 -5.9,29.3 -5.1,3.6 -14.2,1.4 -23.7,-5.5 -9.2,-6.6 -19,-18.3 -28.6,-28.2 -9.8,-9.8 -19.3,-17.9 -34.3,-31"
             style="fill:#ff9e2b;fill-opacity:1;fill-rule:evenodd;stroke:none"
             id="path6302" />
          <path
             d="m 14176.9,14046.8 c -27.4,-10.6 -72.8,-25.6 -100.9,-42.8 -28.2,-17.1 -39.5,-36.5 -41.7,-53.7 -2.2,-17.2 4.7,-32.2 34.7,-41.4 29.7,-9.1 82.3,-12.4 121.8,-10.6 39.5,1.9 66.2,8.8 92.5,19.4 26.7,10.6 53.8,24.5 62.9,26.4 9.6,1.8 1.5,-8.4 -16.4,-22.3 -17.6,-13.9 -45,-31.9 -62.9,-45.4 -17.6,-13.2 -25.6,-22.3 -14.7,-23 11,-0.4 41,7.6 69.5,23 28.6,15.4 55.6,37.7 72.5,55.2 16.8,17.6 23.7,30 26.3,38.8 2.5,8.8 0.3,14.3 2.5,21.2 2.2,7 8.4,15.7 19.1,28.9 10.6,13.2 24.8,30.7 36.5,54.5 11.4,23.8 20.1,53 19.8,71.3 -0.8,17.9 -10.3,24.5 -26.7,25.6 -16.1,1.5 -38.4,-2.2 -66.2,-13.5 -27.8,-11.4 -60.4,-30.4 -91.8,-46.1 -31.1,-15.7 -60.7,-28.9 -80.1,-38.4 -19.8,-9.9 -29.6,-16.1 -56.7,-27.1"
             style="fill:#ff9e2b;fill-opacity:1;fill-rule:evenodd;stroke:none"
             id="path6304" />
          <path
             d="m 15492,14199 c 4,19.3 11.7,46.8 17.2,66.9 5.1,20.5 8.4,34 14.3,40.6 6.2,6.2 14.6,5.8 21.2,-3.3 6.2,-9.1 10.6,-27.1 3.6,-52.3 -6.9,-25.6 -25.2,-58.9 -42,-83.4 -17.2,-24.5 -32.6,-40.2 -35.5,-40.6 -3.3,0 6.6,15 11.7,28.2 5.1,13.1 5.5,24.5 9.5,43.9"
             style="fill:#ff9e2b;fill-opacity:1;fill-rule:evenodd;stroke:none"
             id="path6306" />
          <path
             d="m 14904.3,14686.8 c 7.3,24.5 19.8,60.7 27.1,92.9 6.9,32.2 9.1,60.7 12,76.8 2.6,16.1 5.9,20.1 12.5,12.8 6.9,-6.9 16.8,-24.5 25.2,-53.7 8.4,-29.3 15,-70.3 15,-103.5 0,-33 -6.6,-58.2 -13.2,-82 -6.9,-23.4 -13.9,-45.7 -22.6,-67.6 -8.8,-22 -19.8,-43.9 -35.5,-66.2 -15.7,-22 -36.9,-43.9 -51.6,-57.8 -15,-14.3 -23.4,-20.1 -24.8,-11.3 -1.5,8.4 4.7,31.4 9.8,55.6 5.5,23.7 10.3,48.6 16.1,74.2 5.5,25.2 12.1,51.9 16.5,71.7 4,19.7 6.2,33.2 13.5,58.1"
             style="fill:#ff9e2b;fill-opacity:1;fill-rule:evenodd;stroke:none"
             id="path6308" />
          <path
             d="m 14642.1,15456.3 c -7.7,30 -16.8,66.2 -30.4,99.1 -13.8,32.9 -32.1,63.2 -45.7,85.2 -13.1,21.9 -21.9,35.8 -25.9,45 -4.1,8.8 -3.3,12.4 7.3,13.1 10.6,0.4 31.8,-2.2 63.6,-13.1 32.2,-10.6 75,-29.3 108.3,-50.5 32.9,-20.8 55.9,-43.9 74.9,-70.9 19.4,-27.5 34.4,-58.6 43.6,-91.5 9.5,-32.5 13.5,-66.9 13.1,-98.3 -0.3,-31.1 -4.7,-58.9 -15,-81.6 -10.6,-22.7 -27.4,-39.9 -45,-50.8 -17.9,-11 -36.5,-15.8 -57.4,-9.5 -21.2,6.5 -44.2,24.1 -56.3,50.4 -12.1,26 -13.2,60.4 -16.8,89.6 -4,29.3 -10.3,53.4 -18.3,83.8"
             style="fill:#ff9e2b;fill-opacity:1;fill-rule:evenodd;stroke:none"
             id="path6310" />
          <path
             d="m 14916,15344 c -3.6,19.8 -10.6,49.4 -19.4,77.5 -8.4,28.2 -18.6,55.3 -17.9,65.9 0.7,10.6 12.8,5.4 24.2,-8.5 10.9,-14.2 21.9,-36.5 31.4,-46 9.1,-9.5 17.2,-5.9 20.5,12.8 3.3,18.6 1.8,51.9 0.3,75.3 -1.4,23.4 -2.5,36.9 4.4,36.9 7.3,0.4 22.3,-12.4 31.1,-35.1 8.8,-22.6 11.7,-54.8 8.4,-83.4 -2.9,-28.8 -11.3,-54.1 -19.4,-72.4 -8,-18.2 -15.7,-29.6 -23,-40.2 -7.7,-11 -15.3,-21.2 -21.2,-24.9 -5.8,-3.6 -10.2,-1.1 -12.4,5.5 -2.6,6.2 -3,16.5 -7,36.6"
             style="fill:#ff9e2b;fill-opacity:1;fill-rule:evenodd;stroke:none"
             id="path6312" />
          <path
             d="m 15799.2,15232.8 c -4,20.9 -7.7,41.4 -13.2,64.4 -5.8,22.7 -13.1,47.9 -19.3,66.9 -5.9,19.4 -9.9,32.2 -0.4,32.9 9.5,0.8 33.3,-10.6 53,-22.6 19.8,-12.1 35.5,-25.3 46.5,-42.1 10.9,-17.2 17.1,-38 21.2,-69.9 4.4,-32.1 6.9,-75.3 -1.9,-109.3 -8.4,-34.4 -28.1,-60 -44.6,-80.1 -16.4,-19.7 -29.6,-34.4 -38,-42.1 -8.8,-7.3 -13.2,-8 -11,16.1 1.8,24.2 10.3,73.2 12.8,108.3 2.2,35.1 -1.4,56.7 -5.1,77.5"
             style="fill:#ff9e2b;fill-opacity:1;fill-rule:evenodd;stroke:none"
             id="path6314" />
          <path
             d="m 14357.2,15972.7 c -15.3,19 -35.1,43.1 -52.3,63.2 -16.8,20.5 -30.7,36.6 -43.1,49 -12.5,12.1 -23.1,20.9 -22.7,26.4 0,5.8 11.3,8.4 26.3,6.2 14.6,-2.2 32.9,-9.2 43.5,-6.6 11,2.2 14.3,14.3 29.3,20.5 15,6.2 42.1,6.5 65.8,-1.1 23.8,-8.1 45,-24.2 62.6,-46.5 17.9,-22.3 32.1,-50.8 39.5,-76 7.3,-25.6 7.3,-48.3 2.9,-61.8 -4.8,-13.9 -13.9,-18.7 -20.9,-24.6 -6.9,-5.4 -11.7,-12 -13.5,-22.6 -1.5,-10.6 0,-26 -5.8,-35.5 -5.9,-9.9 -19.4,-13.9 -33,-2.6 -13.9,11 -27.8,38.1 -40.2,58.6 -12.4,20.4 -23,34.3 -38.4,53.4"
             style="fill:#ff9e2b;fill-opacity:1;fill-rule:evenodd;stroke:none"
             id="path6316" />
          <path
             d="m 13584.1,15864.8 c -24.5,-9.9 -40.6,-20.1 -58.9,-26 -17.9,-5.9 -37.6,-7.7 -58.1,-10.6 -20.5,-3.3 -41.3,-8 -52.7,-2.2 -11.3,6.2 -12.8,23.4 3.3,46.1 16.1,22.7 49.7,50.5 81.6,72.8 31.8,21.9 61.4,38 88.1,50.4 27.1,12.8 51.2,22 73.5,27.5 22.3,5.1 42.8,6.9 58.1,5.4 15,-1.4 25.3,-5.4 41.4,-6.9 16.4,-1.5 38.4,0.4 58.9,0.7 20.8,0.8 40.2,0 54.1,-5.1 13.9,-5.1 22.7,-14.6 21.6,-25.6 -1.1,-10.6 -11.7,-22.3 -30,-34.4 -18.3,-12 -44.3,-24.5 -77.2,-35.5 -32.5,-10.6 -72.4,-19.7 -109,-28.8 -36.6,-9.2 -69.8,-18.3 -94.7,-27.8"
             style="fill:#ff9e2b;fill-opacity:1;fill-rule:evenodd;stroke:none"
             id="path6318" />
          <path
             d="m 13193.5,15693.6 c 18.7,32.2 32.6,54.5 42.4,72.1 9.6,17.9 15,31 12.5,40.6 -2.9,9.5 -13.5,15 -30.7,12.8 -17.2,-1.9 -41,-11 -70.6,-27.5 -30,-16.8 -66.2,-40.9 -91.5,-61.8 -25.2,-21.2 -39.4,-38.7 -55.2,-60 -15.7,-20.8 -32.2,-44.9 -44.2,-67.6 -11.7,-23 -18.7,-44.6 -25.6,-62.9 -7,-18.7 -13.9,-34.4 -15.4,-42.4 -1.4,-8.1 2.9,-8.5 12.8,-4.4 9.5,4 24.5,12.4 32.2,12.1 8,0 8.4,-9.2 22.3,-10.7 13.5,-1.4 40.6,5.2 66.9,20.2 26.7,14.9 53.1,38.7 77.9,71.6 24.9,33.3 47.9,75.7 66.2,107.9"
             style="fill:#ff9e2b;fill-opacity:1;fill-rule:evenodd;stroke:none"
             id="path6320" />
          <path
             d="m 13181.5,16349.3 c -17.2,-14.6 -34.4,-32.9 -50.5,-45.7 -15.7,-13.2 -30.4,-20.5 -43.9,-25.2 -13.9,-4.4 -26.7,-6.2 -31.5,-1.5 -4.3,4.4 -0.7,15.4 -4.7,20.9 -4,5.8 -15.7,6.2 -19.4,15 -4,8.4 0.4,25.2 -3.6,34 -4.1,8.8 -16.5,9.9 -23.8,14.6 -7.7,4.4 -10.3,12.4 -3.3,29.3 6.9,16.4 23.4,42 31.8,60.3 8.4,17.9 8.4,29.3 12.4,42.4 4.1,12.8 12.1,27.5 32.6,42.8 20.5,15.7 53,32.2 82.3,40.2 28.9,7.7 54.1,6.6 81.5,4.1 27.5,-3 57.1,-7 83.4,-9.9 26.3,-2.6 49.4,-3.7 69.9,-7.7 20.4,-4 38.4,-11 44.6,-19.7 6.6,-8.4 1.8,-18.7 4.7,-27.8 3,-9.2 13.6,-17.2 16.1,-25.6 2.9,-8.4 -2.5,-16.9 -23,-26.7 -20.9,-10.3 -57.1,-21.2 -93.3,-34.4 -36.5,-13.5 -73.8,-28.5 -100.9,-41.3 -27.1,-12.8 -44.3,-23.8 -61.4,-38.1"
             style="fill:#ff9e2b;fill-opacity:1;fill-rule:evenodd;stroke:none"
             id="path6322" />
          <path
             d="m 14688.5,16583.4 c -11.3,18.6 -22.6,42.8 -31.8,62.5 -9.1,19.8 -16.1,34.8 -15,43.9 1.5,9.1 11,12.4 27.5,9.5 16.1,-2.5 38.4,-11.3 55.2,-21.9 16.8,-10.6 27.4,-23.8 38.4,-37.3 11,-13.9 22.3,-28.2 31.1,-44.7 9.1,-16.4 15.3,-34.7 16.8,-50.8 1.4,-16.1 -2.6,-30 -8.8,-37.7 -6.6,-7.3 -15.7,-8.4 -29.2,-2.1 -13.9,5.8 -32.2,19.3 -46.9,32.9 -15,13.5 -26.3,26.7 -37.3,45.7"
             style="fill:#ff9e2b;fill-opacity:1;fill-rule:evenodd;stroke:none"
             id="path6324" />
        </g>
      </g>
      <path
         d="m 13249.8,16384.8 c 14.3,5.1 33.3,12.4 56.7,20.5 23.4,8 51.2,16.4 67.7,22.3 16.1,5.8 21.2,9.1 21.6,19 0.3,9.9 -4.4,26.3 -13.2,39.1 -9.2,12.8 -22.7,22.4 -41.3,24.5 -19,2.2 -43.2,-2.5 -61.8,-3.6 -18.7,-1.1 -31.9,1.1 -44.3,0.3 -12.8,-1 -24.9,-5.4 -39.5,-14.6 -14.6,-9.1 -31.8,-23.4 -45.7,-34 -14.3,-10.6 -24.9,-17.5 -35.1,-30 -10.6,-12 -20.5,-29.2 -26.3,-45.3 -6.3,-16.5 -8.4,-31.8 -10.6,-43.2 -2.2,-11.3 -4.8,-19 0.3,-22.6 5.1,-4.1 18,-4.4 30.7,-4.4 12.5,0 25.6,0 32.2,-1.5 6.6,-1.5 7.3,-4.8 18.7,5.5 11.3,9.9 33.6,32.5 49.7,45.7 16.1,13.2 25.6,16.8 40.2,22.3"
         style="fill:#feda3b;fill-opacity:1;fill-rule:evenodd;stroke:none"
         id="path6326"
         transform="matrix(0.13333333,0,0,-0.13333333,0,2933.3333)" />
      <path
         d="m 13599.5,15867.7 c -20.5,-4 -43.6,-10.6 -63.3,-12.8 -19.4,-2.2 -35.5,0 -46.1,4.7 -10.6,4.4 -15.3,11.4 1.1,26.4 16.5,15 54.1,38.4 84.9,54.5 30.3,16.4 54.1,26.3 81.5,31.4 27.4,5.1 58.5,5.5 83.8,4.8 24.8,-0.8 43.5,-2.9 58.5,-2.2 14.6,0.7 25.6,4.7 34.7,4.7 9.2,0.4 16.5,-2.9 16.8,-9.5 0.4,-6.9 -6.9,-16.8 -18.6,-27.4 -11.7,-10.6 -28.5,-21.2 -47.9,-30 -19.4,-8.4 -41.3,-15 -63.3,-20.5 -21.9,-5.8 -44.2,-10.6 -64,-13.9 -19.7,-3.6 -37.7,-5.8 -58.1,-10.2"
         style="fill:#feda3b;fill-opacity:1;fill-rule:evenodd;stroke:none"
         id="path6328"
         transform="matrix(0.13333333,0,0,-0.13333333,0,2933.3333)" />
      <path
         d="m 13210.7,15698 c 7,14.3 13.2,31.4 14.3,42.8 0.7,11.3 -4.1,16.5 -11.4,17.9 -7.3,1.5 -17.2,-1.4 -29.9,-8.8 -12.9,-7.6 -28.9,-20.1 -45.4,-29.6 -16.5,-9.9 -32.9,-16.8 -50.5,-28.9 -17.5,-12 -35.8,-29.2 -50.4,-48.3 -14.3,-19 -25.3,-40.2 -31.9,-58.8 -6.5,-18.7 -9.5,-35.5 -9.1,-45.4 0.4,-9.9 3.7,-13.1 12.1,-12.8 8.8,0.8 22.7,4.8 37.6,14.7 15,9.5 31.1,24.8 49,39.4 17.6,14.7 37,29.3 52.7,42.8 16.1,13.6 28.5,25.6 38.4,37.7 9.9,11.7 17.6,23 24.5,37.3"
         style="fill:#feda3b;fill-opacity:1;fill-rule:evenodd;stroke:none"
         id="path6330"
         transform="matrix(0.13333333,0,0,-0.13333333,0,2933.3333)" />
      <path
         d="m 12729.8,14801.7 c -5.5,15.7 -8.4,29.2 -15,39.4 -6.6,10.3 -16.8,18 -25.6,22 -8.8,4 -15.7,4.4 -21.9,4.7 -5.9,0 -11,-0.3 -14.7,-11.3 -3.6,-11.3 -5.8,-33.3 -5.1,-55.6 1.1,-22.7 4.8,-45.3 11,-62.9 6.2,-17.9 14.6,-30 22.3,-37.3 7.7,-7.3 14.3,-9.5 24.5,-9.5 10.2,-0.4 24.1,1.5 34.4,0 10.6,-1.5 17.9,-6.6 25.2,-5.8 7.3,0.3 15,6.9 12.8,18.6 -2.5,11.3 -14.6,28.2 -24.5,45.7 -10.2,17.6 -18.3,36.2 -23.4,52"
         style="fill:#feda3b;fill-opacity:1;fill-rule:evenodd;stroke:none"
         id="path6332"
         transform="matrix(0.13333333,0,0,-0.13333333,0,2933.3333)" />
      <path
         d="m 12108.5,14533.2 c -9.2,7.3 -23.8,19 -36.6,26.4 -12.8,7.3 -23.8,10.6 -30,7.6 -5.8,-2.5 -6.9,-11.7 -2.9,-31.1 4.4,-19.7 13.9,-50.1 26.7,-73.1 13.1,-22.7 29.6,-38 41.7,-46.4 11.7,-8.1 18.6,-9.5 23.7,-3.3 4.8,6.2 7.7,19.7 9.5,31.4 1.9,11.4 2.2,20.9 -0.3,32.9 -2.9,12.1 -9.2,27.1 -13.9,35.9 -5.1,9.1 -8.8,12.4 -17.9,19.7"
         style="fill:#feda3b;fill-opacity:1;fill-rule:evenodd;stroke:none"
         id="path6334"
         transform="matrix(0.13333333,0,0,-0.13333333,0,2933.3333)" />
      <path
         d="m 13313.8,14306.5 c -23,15.7 -61.4,40.9 -91.7,57.4 -30.4,16.1 -52.7,23.8 -67.7,26 -14.6,2.2 -21.6,-1.1 -22.7,-13.9 -0.7,-12.5 4.8,-34.4 12.1,-52 7.3,-17.5 16.4,-30.3 20.5,-40.2 4,-9.5 2.9,-16.1 17.2,-27.4 14.6,-11.7 44.6,-28.5 64.3,-37.7 19.8,-9.5 28.9,-11.7 36.2,-8 7.7,3.3 13.6,12.4 26.3,19.3 13.2,6.6 33,11 41.4,18.7 8.8,7.7 6.2,19 0.7,27.8 -5.5,8.4 -13.5,14.3 -36.6,30"
         style="fill:#feda3b;fill-opacity:1;fill-rule:evenodd;stroke:none"
         id="path6336"
         transform="matrix(0.13333333,0,0,-0.13333333,0,2933.3333)" />
      <path
         d="m 12872.8,13601 c -10.2,6.6 -20.1,7.7 -26.3,5.9 -6.3,-2.2 -9.5,-8.1 -9.5,-16.1 0,-8.4 2.5,-19 8.4,-32.6 5.4,-13.5 13.9,-29.9 22.3,-39.5 8,-9.5 16.1,-11.7 22.7,-9.5 6.5,2.2 11.7,9.2 14.2,20.5 2.2,11 1.5,26.3 -4.7,39.9 -5.9,13.5 -16.9,24.8 -27.1,31.4"
         style="fill:#feda3b;fill-opacity:1;fill-rule:evenodd;stroke:none"
         id="path6338"
         transform="matrix(0.13333333,0,0,-0.13333333,0,2933.3333)" />
      <path
         d="m 13267,13244.1 c -17.2,-4.8 -36.5,-13.9 -51.5,-20.8 -14.7,-7 -25.3,-11.7 -27.5,-18.3 -2.2,-6.6 4.1,-15 18,-22.7 13.9,-7.7 35.1,-14.6 51.9,-16.8 16.8,-2.2 28.5,0.7 40.6,5.1 12.1,4.4 24.5,10.6 32.2,22.3 8,11.7 10.9,29.3 7.3,39.5 -3.3,10.6 -13.9,13.9 -26.7,15.4 -12.5,1.4 -27.4,1.1 -44.3,-3.7"
         style="fill:#feda3b;fill-opacity:1;fill-rule:evenodd;stroke:none"
         id="path6340"
         transform="matrix(0.13333333,0,0,-0.13333333,0,2933.3333)" />
      <path
         d="m 14347.7,14001.5 c -16.8,-8.4 -44.6,-19.4 -69.8,-25.6 -25.3,-6.2 -48,-7.7 -65.1,-5.5 -17.6,2.5 -29.7,8.4 -30.8,17.9 -1.1,9.2 8.4,21.6 28.2,35.9 19.4,13.9 49,29.6 72.4,40.9 23.4,11 40.6,17.2 55.6,20.5 15,3.7 28.2,4.4 38.8,4.4 10.6,-0.4 18.6,-1.5 22.6,-7.3 3.7,-5.9 3,-16.5 -1.8,-27.5 -5.1,-10.9 -13.9,-21.9 -20.8,-30.7 -7.4,-8.4 -12.8,-14.6 -29.3,-23"
         style="fill:#feda3b;fill-opacity:1;fill-rule:evenodd;stroke:none"
         id="path6342"
         transform="matrix(0.13333333,0,0,-0.13333333,0,2933.3333)" />
      <path
         d="m 14874,13421.8 c -8.5,-6.2 -20.2,-12 -31.9,-15.7 -11.7,-3.3 -23.4,-4.4 -30,-4.4 -6.5,0 -8,1.1 0,10.6 7.7,9.9 25.3,28.2 37.4,39.5 12.4,11.7 19.3,16.5 24.5,19 5.4,2.6 8.7,3 11.3,-2.5 2.6,-5.1 4.4,-15.8 2.9,-24.5 -1.4,-8.8 -6.2,-15.4 -14.2,-22"
         style="fill:#feda3b;fill-opacity:1;fill-rule:evenodd;stroke:none"
         id="path6344"
         transform="matrix(0.13333333,0,0,-0.13333333,0,2933.3333)" />
      <path
         d="m 14869.9,14563.2 c -3.3,7 -4.4,17.6 -4.7,31.1 0,13.5 1.1,30 5.1,50.5 4,20.1 11,43.5 17.2,61.8 6.6,18.3 12.1,30.7 17.9,36.9 5.5,5.9 11,5.5 16.8,-1.8 5.5,-7.3 11.4,-21.2 19.1,-34.8 8,-13.1 18.2,-25.9 25.9,-36.2 7.3,-10.2 12.1,-18.3 12.8,-31.8 0.4,-13.5 -3.6,-32.9 -11,-52.6 -6.9,-19.8 -17.1,-39.9 -31,-53.1 -13.9,-13.1 -31.5,-18.6 -41.4,-18.3 -9.5,0.4 -11.7,7 -13.1,13.6 -1.1,6.9 -1.5,14.2 -3.7,19.4 -2.6,5.4 -6.9,8.4 -9.9,15.3"
         style="fill:#feda3b;fill-opacity:1;fill-rule:evenodd;stroke:none"
         id="path6346"
         transform="matrix(0.13333333,0,0,-0.13333333,0,2933.3333)" />
      <path
         d="m 15778,15186.4 c -2.9,12 -3.3,31.8 -5.1,50.1 -1.9,18.3 -4.8,35.1 -1.5,46.8 3.7,11.7 13.2,19 24.9,20.5 11.3,1.8 24.8,-1.5 34.4,-13.6 9.1,-12 14.6,-32.5 16.4,-54.4 1.5,-22 -0.7,-45.8 -4.4,-66.6 -4,-21.2 -9.1,-39.1 -17.5,-54.5 -8.1,-15 -19,-26.7 -26.4,-30.7 -7.3,-4 -10.6,-0.4 -11.3,14.6 -0.7,15 1.5,41 0,56 -1.5,15.3 -6.6,19.7 -9.5,31.8"
         style="fill:#feda3b;fill-opacity:1;fill-rule:evenodd;stroke:none"
         id="path6348"
         transform="matrix(0.13333333,0,0,-0.13333333,0,2933.3333)" />
      <path
         d="m 14667.7,15426.7 c -6.6,14.9 -12.8,34 -19,52.6 -6.2,18.3 -12.8,36.6 -17.2,49 -4.4,12.8 -7,20.5 -4.4,25.2 2.6,4.8 10.2,7 26.7,5.2 16.5,-2.2 42.1,-8.4 60.4,-20.5 18.6,-12.4 29.9,-30.7 39.8,-48.3 9.9,-17.9 18.7,-35.5 23.8,-51.9 5.5,-16.5 7.7,-31.8 6.2,-51.2 -1.5,-19.4 -6.2,-43.2 -13.2,-60 -6.9,-16.8 -16.1,-27 -26.3,-32.2 -10.6,-5.1 -22,-4.7 -28.5,3.7 -6.6,8.4 -8.4,25.2 -12.1,42 -4,16.9 -10.2,33.7 -16.4,47.6 -6.6,13.5 -13.2,24.1 -19.8,38.8"
         style="fill:#feda3b;fill-opacity:1;fill-rule:evenodd;stroke:none"
         id="path6350"
         transform="matrix(0.13333333,0,0,-0.13333333,0,2933.3333)" />
      <path
         d="m 14372.9,15946.3 c -9.1,9.9 -19.7,21.2 -30,31.5 -10.6,10.2 -21.2,20.1 -27.4,28.9 -5.8,8.7 -8,16.8 -5.1,23.4 2.9,6.6 10.2,11.7 23,13.1 12.8,1.5 30.4,-1.1 46.5,-4.4 15.7,-3.2 30,-7.3 42,-16.4 11.7,-9.1 21.3,-23.8 27.5,-38.8 6.6,-14.6 10.2,-29.6 10.9,-42.8 0.4,-13.1 -1.8,-24.5 -8,-31 -6.2,-6.3 -16.8,-8.1 -26.7,-5.9 -9.9,2.2 -19.4,8 -27.8,15.7 -8.4,7.3 -16.1,16.5 -24.9,26.7"
         style="fill:#feda3b;fill-opacity:1;fill-rule:evenodd;stroke:none"
         id="path6352"
         transform="matrix(0.13333333,0,0,-0.13333333,0,2933.3333)" />
      <path
         d="m 14709,16527.1 c -6.6,8 -16.4,20.1 -23.4,30 -6.9,10.2 -11,17.9 -15.3,27.8 -4.4,9.8 -8.8,21.5 -11,29.6 -2.2,8.4 -1.8,12.8 3.3,16.4 4.7,3.7 14.6,6.2 25.2,6.2 10.6,0 22.7,-2.9 35.9,-8.7 13.1,-5.9 27.4,-14.3 38,-22.7 10.2,-8 16.4,-15.4 20.8,-27.8 4.8,-12.8 7.7,-30 7.3,-43.5 0,-13.9 -3.6,-23.4 -8.7,-31.5 -4.8,-8.4 -11.4,-15 -16.5,-18.3 -5.1,-3.6 -9.5,-3.6 -16.1,1.5 -6.9,5.1 -16.4,15.4 -23,22.3 -6.6,7.3 -9.9,11 -16.5,18.7"
         style="fill:#feda3b;fill-opacity:1;fill-rule:evenodd;stroke:none"
         id="path6354"
         transform="matrix(0.13333333,0,0,-0.13333333,0,2933.3333)" />
   </g>
</svg>
