<?xml version="1.0" encoding="UTF-8" standalone="no"?>
<svg
   xmlns="http://www.w3.org/2000/svg"
   width="700"
   height="700"
   viewBox="0 0 700 700"
>
   <g
      id="g0"
      transform="translate(-176.66068,79.336739)"
      style="display:inline;opacity:1">
      <path
         d="m 4042.27,20590.3 865.48,421.4 -570.98,-898.4 z"
         style="fill:#ff532b;fill-opacity:1;fill-rule:evenodd;stroke:none"
         id="path6648"
         transform="matrix(0.13333333,0,0,-0.13333333,0,2933.3333)" />
      <path
         d="m 2701.31,19123.6 528.53,93.4 -229.24,271.2 z"
         style="fill:#ff532b;fill-opacity:1;fill-rule:evenodd;stroke:none"
         id="path6650"
         transform="matrix(0.13333333,0,0,-0.13333333,0,2933.3333)" />
      <path
         d="m 4023.69,19000 c 296.64,-178.8 593.27,-357.7 889.9,-536.5 -142.21,300.9 -284.96,601.2 -427.71,902.1 -135.31,0 -270.62,0 -405.94,0 -18.57,-122 -37.14,-243.6 -56.25,-365.6"
         style="fill:#ff532b;fill-opacity:1;fill-rule:evenodd;stroke:none"
         id="path6652"
         transform="matrix(0.13333333,0,0,-0.13333333,0,2933.3333)" />
      <path
         d="m 2854.67,20013.5 -566.2,749.3 942.97,-386.3 z"
         style="fill:#ff532b;fill-opacity:1;fill-rule:evenodd;stroke:none"
         id="path6654"
         transform="matrix(0.13333333,0,0,-0.13333333,0,2933.3333)" />
      <path
         d="m 3190.04,20472.5 c -61.02,-20.1 -121.52,-40.8 -188.91,-74.8 -66.86,-34.5 -140.09,-82.8 -191.03,-148 -50.41,-65.8 -78.54,-148.6 -87.56,-231.9 -8.49,-83.4 2.65,-167.7 31.31,-247.3 29.18,-79.6 75.88,-154.4 111.43,-229.2 36.09,-74.9 61.03,-149.7 70.58,-226.1 9.02,-76.4 3.19,-154.4 7.43,-238.8 4.78,-84.4 20.7,-174.6 64.74,-235.1 44.57,-59.9 117.8,-89.7 195.81,-132.6 78.01,-42.5 160.78,-98.7 246.75,-134.8 85.97,-35.6 174.59,-51.5 272.75,-43.5 98.71,7.9 205.89,38.7 288.68,85.9 82.78,46.7 140.62,108.8 184.13,189.5 43.52,80.1 73.23,178.3 114.09,237.2 40.33,58.3 91.81,76.9 159.73,83.8 67.93,7.4 152.29,2.7 234.55,27.6 82.78,25 163.97,79.6 218.09,152.8 53.6,73.3 80.13,165.1 64.74,282.3 -15.92,116.8 -73.76,259 -140.09,360.4 -65.8,101.3 -141.15,162.3 -216.5,198.9 -75.89,36.6 -152.3,48.9 -178.83,66.4 -26.53,17 -3.18,38.7 -0.53,101.3 2.12,62.6 -16.45,165.6 -45.64,257.9 -28.66,92.9 -67.4,175.7 -143.27,237.2 -75.89,61.6 -187.86,102.4 -285.49,123.7 -97.64,20.7 -180.42,22.3 -257.37,13.8 -77.48,-8.5 -149.11,-27.1 -214.38,-59.5 -65.8,-31.8 -124.7,-76.9 -172.46,-127.9 -47.76,-50.4 -83.31,-106.6 -105.6,-156 -21.76,-48.8 -29.19,-91.2 -37.15,-133.2"
         style="fill:#962934;fill-opacity:1;fill-rule:evenodd;stroke:none"
         id="path6656"
         transform="matrix(0.13333333,0,0,-0.13333333,0,2933.3333)" />
      <path
         d="m 3555.66,19180.9 c -31.84,16.5 -69.51,35.1 -99.23,48.3 -30.25,13.3 -53.07,21.2 -74.82,20.2 -21.76,-1.1 -42.99,-11.1 -47.23,-39.3 -4.25,-27.6 8.49,-72.7 27.06,-100.8 18.57,-28.1 43.52,-38.7 80.13,-54.7 36.08,-15.3 83.84,-35.5 126.83,-44 42.44,-8 80.65,-4.2 113.56,5.8 32.89,10.1 59.96,26.6 71.1,43.5 10.62,16.5 5.3,34 -15.92,46.8 -21.75,12.7 -58.9,21.2 -90.74,32.8 -32.37,11.2 -58.9,25 -90.74,41.4 z m -494.57,196.9 c -11.67,20.2 -24.94,47.2 -42.45,83.9 -17.51,37.1 -39.26,82.7 -56.25,90.7 -16.45,8 -28.65,-22.8 -31.84,-54.1 -3.71,-31.9 1.07,-64.2 16.46,-94.5 14.86,-30.2 40.86,-57.3 67.92,-77.5 26.53,-19.6 54.65,-32.3 67.92,-30.2 13.27,2.1 11.68,18.6 5.84,33.4 -5.84,14.3 -15.92,27.6 -27.6,48.3 z m 243.57,417.6 c -10.08,37.2 -19.63,58.9 -39.8,67.4 -19.63,8.5 -49.88,3.7 -65.8,-39.2 -16.45,-42.5 -18.04,-123.7 -10.08,-175.7 7.96,-52 24.94,-74.3 55.72,-95 30.25,-20.7 73.76,-39.8 101.35,-44.6 28.12,-5.3 39.8,3.8 35.56,18.6 -3.71,15.4 -23.35,37.2 -33.43,59.5 -10.09,22.2 -11.15,44.5 -16.98,82.2 -5.84,37.7 -16.45,89.7 -26.54,126.8 z m 487.14,252.6 c -28.66,-7.9 -74.82,-17.5 -119.93,-18.6 -45.11,-1 -89.68,5.9 -126.29,-9.5 -36.62,-14.9 -65.8,-52.5 -81.72,-94.5 -15.93,-41.4 -19.1,-87.5 -6.37,-129.4 12.2,-41.4 40.33,-79.1 64.21,-125.3 23.88,-46.7 43.51,-101.9 58.37,-147 15.39,-44.5 26.53,-79 42.98,-109.8 16.98,-30.8 39.27,-57.8 67.39,-72.7 27.6,-14.9 59.97,-17.5 101.36,-10.6 41.39,6.3 91.27,22.3 137.43,36.1 46.18,14.3 88.09,26.5 128.95,44 40.33,17.5 79.6,40.3 105.08,71.6 25.99,30.8 38.2,70.6 49.34,121.6 10.62,50.9 20.17,112.5 18.05,168.2 -1.6,55.7 -14.86,105.6 -32.91,147.5 -17.51,42.5 -39.26,76.4 -62.61,101.3 -23.35,24.5 -48.29,39.3 -71.11,52.1 -23.35,12.7 -44.04,23.8 -68.45,26 -24.41,1.6 -51.47,-5.3 -77.48,-11.7 -26,-5.9 -50.94,-11.7 -68.98,-17.5 -18.04,-6.4 -29.18,-13.3 -57.31,-21.8 z m 685.6,-280.2 c -9.03,45.7 -35.55,86.5 -62.62,105.6 -27.06,19.1 -54.13,16.5 -82.78,-9 -29.18,-26 -59.43,-74.8 -78.01,-127.3 -18.04,-52 -24.41,-107.8 -29.71,-149.7 -5.84,-41.9 -10.09,-71.1 -1.59,-94.4 8.49,-23.9 30.24,-43 54.65,-56.8 24.94,-14.3 52.01,-23.4 79.6,-11.2 27.06,11.7 54.66,45.7 73.76,81.8 19.1,36 29.72,75.3 39.27,119.9 9.02,45.1 16.98,95.5 7.43,141.1 z m -496.69,491.4 c -13.26,22.3 -53.6,53.6 -91.8,75.4 -38.21,21.7 -74.3,34.5 -111.97,39.8 -38.2,4.7 -78,2.6 -113.03,-6.4 -35.56,-8.5 -66.86,-23.3 -93.92,-45.6 -27.07,-21.8 -49.36,-51.5 -65.8,-75.9 -16.46,-23.9 -26.54,-43 -18.58,-54.7 8.5,-11.6 35.02,-16.4 64.75,-20.1 30.24,-3.8 63.67,-6.9 99.22,-3.8 35.56,3.8 73.24,13.8 117.28,21.8 44.04,8 94.45,13.3 128.95,16.5 34.49,3.1 52,3.7 68.45,10.6 15.92,7.4 29.71,20.7 16.45,42.4"
         style="fill:#ff532b;fill-opacity:1;fill-rule:evenodd;stroke:none"
         id="path6658"
         transform="matrix(0.13333333,0,0,-0.13333333,0,2933.3333)" />
      <path
         d="m 2840.87,20258.2 c 20.7,-4.8 32.38,11.1 47.76,23.8 15.39,12.8 33.96,22.9 44.58,40.4 10.61,18 12.73,43 -6.9,63.1 -20.16,20.7 -62.09,37.2 -141.69,83.9 -79.59,47.2 -196.87,124.1 -282.83,179.8 -85.96,55.2 -141.68,88.7 -184.67,113.6 -43.51,24.9 -74.82,41.4 -62.08,21.2 13.27,-20.1 70.04,-77.4 106.66,-117.8 36.62,-40.8 53.06,-64.7 115.68,-121 63.15,-56.2 171.93,-144.3 241.98,-200.5 70.04,-56.8 100.29,-81.8 121.51,-86.5"
         style="fill:#feda3b;fill-opacity:1;fill-rule:evenodd;stroke:none"
         id="path6660"
         transform="matrix(0.13333333,0,0,-0.13333333,0,2933.3333)" />
      <path
         d="m 2985.21,19350.2 c -11.67,1.1 -24.4,-4.2 -39.8,-18 -14.86,-13.8 -32.9,-36.1 -55.19,-57.9 -21.75,-21.7 -47.75,-43.5 -81.71,-65.8 -33.44,-21.7 -74.3,-45.1 -100.3,-64.7 -25.47,-19.1 -36.08,-35 -30.77,-36.6 5.3,-1.6 26.53,11.1 72.7,31.3 46.16,20.2 117.27,48.3 165.55,67.4 48.3,19.6 73.24,30.8 92.87,40.8 19.64,9.6 33.96,18.1 41.39,26 7.43,8.5 7.96,17 2.13,27.1 -6.37,10.1 -18.58,21.2 -30.79,30.8 -12.2,10.1 -23.87,18 -36.08,19.6"
         style="fill:#feda3b;fill-opacity:1;fill-rule:evenodd;stroke:none"
         id="path6662"
         transform="matrix(0.13333333,0,0,-0.13333333,0,2933.3333)" />
      <path
         d="m 3581.66,19457.9 c -11.67,14.4 -25.47,25 -40.33,27.1 -14.32,2.7 -29.71,-3.2 -51.47,-27.1 -22.29,-23.3 -50.94,-64.2 -108.78,-128.4 -57.85,-64.7 -144.34,-152.8 -189.44,-200.6 -45.11,-47.2 -48.3,-53.6 -20.17,-36.6 28.12,17.5 88.09,58.9 156.01,103 67.39,44 142.74,90.7 188.38,123.1 45.64,31.8 61.56,48.8 72.7,61.5 10.61,12.8 16.98,20.7 15.39,34 -1.59,12.7 -10.62,30.2 -22.29,44"
         style="fill:#feda3b;fill-opacity:1;fill-rule:evenodd;stroke:none"
         id="path6664"
         transform="matrix(0.13333333,0,0,-0.13333333,0,2933.3333)" />
      <path
         d="m 4855.75,18495.3 c -52.53,43 -145.39,125.3 -258.96,228.2 -113.03,103 -246.22,226.6 -318.91,298.2 -72.17,71.2 -83.85,90.2 -89.68,109.9 -5.31,20.2 -4.79,40.8 6.89,60 12.21,19.1 34.49,36.6 54.13,41.9 19.63,5.3 36.08,-0.6 78.53,-49.4 42.99,-48.3 112.5,-138.5 203.77,-247.3 91.28,-108.7 204.31,-236.1 281.25,-326.3 76.94,-90.7 117.27,-144.3 131.6,-166.1 13.8,-22.3 1.59,-12.2 -11.14,-4.8 -12.21,7.5 -24.94,12.2 -77.48,55.7"
         style="fill:#feda3b;fill-opacity:1;fill-rule:evenodd;stroke:none"
         id="path6666"
         transform="matrix(0.13333333,0,0,-0.13333333,0,2933.3333)" />
      <path
         d="m 4207.3,19780 c 38.74,13.8 110.9,42 179.36,66.4 68.45,24.4 133.19,45.1 159.72,56.8 26.01,11.1 13.8,13.7 -30.78,13.7 -45.1,0.6 -123.1,-1 -193.15,-3.1 -70.05,-2.2 -132.13,-4.8 -166.62,-10.1 -35.02,-4.8 -42.46,-12.2 -39.27,-27.6 3.71,-14.9 17.51,-38.2 26,-57.3 8.49,-19.7 11.67,-35.6 15.92,-44.1 4.24,-7.9 10.08,-8.5 48.82,5.3"
         style="fill:#feda3b;fill-opacity:1;fill-rule:evenodd;stroke:none"
         id="path6668"
         transform="matrix(0.13333333,0,0,-0.13333333,0,2933.3333)" />
      <path
         d="m 3816.21,20071.4 c 6.36,31.8 5.84,94.4 4.24,140.1 -1.59,45.1 -4.24,73.2 -6.89,102.4 -2.66,28.6 -5.84,58.4 -15.39,65.2 -9.56,6.4 -25.47,-9.5 -50.42,-63.6 -25.47,-54.2 -59.42,-146.5 -72.7,-194.8 -12.73,-48.3 -4.24,-52.5 7.44,-57.8 11.67,-5.3 26.53,-11.7 44.04,-15.9 17.51,-4.3 37.15,-5.9 54.13,-6.9 16.44,-0.6 29.71,0 35.55,31.3"
         style="fill:#feda3b;fill-opacity:1;fill-rule:evenodd;stroke:none"
         id="path6670"
         transform="matrix(0.13333333,0,0,-0.13333333,0,2933.3333)" />
      <path
         d="m 4465.19,20528.8 c -111.44,-108.3 -142.74,-122.6 -159.19,-119.4 -16.98,3.2 -19.11,23.3 -31.84,37.1 -12.21,13.8 -35.02,20.7 -53.07,25.5 -17.51,4.8 -30.77,6.9 -33.43,15.4 -2.12,8.5 6.37,23.3 122.58,110.4 116.22,87 340.15,246.2 462.73,333.2 123.11,87 144.87,101.9 158.67,108.3 14.32,6.9 20.69,5.3 -72.17,-97.1 -92.34,-101.9 -283.37,-304.6 -394.28,-413.4"
         style="fill:#feda3b;fill-opacity:1;fill-rule:evenodd;stroke:none"
         id="path6672"
         transform="matrix(0.13333333,0,0,-0.13333333,0,2933.3333)" />
      <path
         d="m 3696.81,19713.7 c -8.48,22.3 -18.57,41.9 -30.24,63.7 -11.68,21.7 -24.94,46.2 -33.97,57.3 -9.02,11.7 -13.79,10.1 -17.51,-6.4 -3.71,-16.4 -6.9,-47.7 -9.02,-73.2 -2.12,-26 -2.65,-46.2 1.06,-68.5 4.25,-22.2 12.74,-46.7 28.66,-68.9 15.91,-22.9 39.26,-43.5 67.92,-56.8 28.12,-13.3 62.09,-19.1 72.7,-17 11.14,2.1 -0.53,11.1 -15.92,20.2 -15.39,9 -33.96,17.5 -41.92,30.2 -7.43,13.3 -4.25,30.3 -5.84,51.5 -1.59,20.7 -7.96,45.6 -15.92,67.9"
         style="fill:#ffb72f;fill-opacity:1;fill-rule:evenodd;stroke:none"
         id="path6674"
         transform="matrix(0.13333333,0,0,-0.13333333,0,2933.3333)" />
      <path
         d="m 3804.54,19661.7 c -10.09,12.7 -21.76,40.9 -33.97,63.2 -12.21,22.2 -24.4,38.7 -23.88,50.4 1.06,11.6 14.86,18.5 38.21,22.3 22.82,4.2 54.66,4.7 81.19,10 26,4.8 46.17,14.4 50.94,30.3 4.78,15.9 -6.37,38.7 -15.92,61 -10.08,22.3 -18.57,44 -13.26,54.7 4.77,10 23.87,9.5 56.77,-16.5 32.9,-25.5 80.67,-76.4 111.44,-116.7 30.78,-40.4 45.11,-71.1 49.88,-100.8 4.25,-29.2 0,-58.4 -20.69,-84.4 -20.17,-26 -55.72,-49.4 -88.09,-65.8 -32.37,-16.5 -61.55,-26 -79.07,-28.7 -17.51,-2.6 -23.88,1.1 -21.22,11.2 3.18,10 14.85,26.5 22.29,45.1 7.95,18 11.67,38.7 6.89,56.2 -4.24,17.5 -17.51,32.4 -29.72,35.6 -12.2,3.7 -22.81,-4.3 -33.42,-11.7 -10.62,-8 -20.7,-15.9 -30.25,-20.7 -9.55,-5.3 -18.05,-7.4 -28.12,5.3"
         style="fill:#ffb72f;fill-opacity:1;fill-rule:evenodd;stroke:none"
         id="path6676"
         transform="matrix(0.13333333,0,0,-0.13333333,0,2933.3333)" />
      <path
         d="m 5012.29,18279.9 c -12.2,8.5 -24.4,21.2 -29.72,39.8 -5.3,18.6 -3.18,43 2.13,54.1 5.83,10.6 15.39,7.5 35.02,3.7 19.64,-3.7 49.35,-8.5 67.39,-18 18.58,-9.6 25.47,-23.9 25.47,-38.2 -0.52,-14.9 -7.43,-29.7 -19.63,-39.8 -11.68,-10.1 -28.12,-14.9 -42.45,-14.9 -13.8,0 -26,4.3 -38.21,13.3"
         style="fill:#feda3b;fill-opacity:1;fill-rule:evenodd;stroke:none"
         id="path6678"
         transform="matrix(0.13333333,0,0,-0.13333333,0,2933.3333)" />
      <path
         d="m 5100.38,18321.3 c -3.71,14.3 -10.61,26.5 -20.7,34.5 -10.08,7.9 -23.35,11.1 -37.14,10.6 -13.79,-0.5 -28.66,-4.8 -39.8,-13.3 -10.62,-8.5 -17.51,-21.2 -18.04,-33.9 -0.53,-12.8 5.3,-25 10.08,-34 5.31,-8.5 9.55,-13.3 16.98,-17.5 7.43,-4.8 18.04,-9 29.72,-10.1 11.67,-1.6 24.4,0 35.02,3.7 11.14,3.7 20.17,9.6 24.41,20.2 4.24,10.6 3.18,26 -0.53,39.8"
         style="fill:#962934;fill-opacity:1;fill-rule:evenodd;stroke:none"
         id="path6680"
         transform="matrix(0.13333333,0,0,-0.13333333,0,2933.3333)" />
      <path
         d="m 5060.05,18324.5 c -1.59,-7.5 -5.84,-17 -12.2,-23.4 -5.84,-6.3 -13.8,-9.5 -22.29,-8.5 -8.49,1.1 -18.05,6.4 -23.35,15.4 -5.84,8.5 -7.43,20.2 -5.31,30.8 2.66,10.1 9.56,18.6 15.92,22.3 6.9,3.7 13.27,2.6 20.7,-1.1 7.43,-4.2 15.92,-10.6 21.22,-17 4.78,-5.8 6.37,-11.1 5.31,-18.5"
         style="fill:#fbf5df;fill-opacity:1;fill-rule:evenodd;stroke:none"
         id="path6682"
         transform="matrix(0.13333333,0,0,-0.13333333,0,2933.3333)" />
      <path
         d="m 5126.38,21195.3 c -13.8,-10.6 -35.02,-25.5 -57.84,-32.9 -22.82,-6.9 -47.23,-6.4 -56.25,4.8 -9.55,10.6 -4.25,31.8 8.49,54.6 12.21,22.3 31.84,46.7 53.07,55.7 21.22,9.6 44.05,3.7 57.84,-8.5 13.27,-12.2 17.51,-31.8 16.45,-44.5 -1.06,-12.8 -7.43,-18.6 -21.76,-29.2"
         style="fill:#feda3b;fill-opacity:1;fill-rule:evenodd;stroke:none"
         id="path6684"
         transform="matrix(0.13333333,0,0,-0.13333333,0,2933.3333)" />
      <path
         d="m 5089.77,21291.3 c -6.37,-1.6 -17.51,-4.2 -29.19,-11.1 -11.14,-6.9 -22.28,-17.5 -29.72,-29.2 -7.43,-12.2 -11.14,-24.9 -12.73,-35 -1.59,-10.1 -1.59,-16.5 3.71,-21.2 5.84,-4.3 16.46,-6.9 26.01,-9.1 10.07,-2.1 19.1,-3.7 29.71,-4.2 10.61,-0.5 22.29,0.5 32.9,3.2 10.08,3.2 19.11,7.4 26,13.8 6.9,6.3 12.21,14.3 14.33,23.3 2.65,9 2.65,19.1 1.06,27.1 -1.06,8.5 -3.71,14.8 -7.96,20.7 -4.24,6.3 -10.61,11.6 -16.98,15.9 -6.9,3.7 -13.26,5.8 -18.04,6.9 -4.78,1.1 -7.43,0.5 -9.55,0.5 -2.12,0 -3.18,0 -9.55,-1.6"
         style="fill:#962934;fill-opacity:1;fill-rule:evenodd;stroke:none"
         id="path6686"
         transform="matrix(0.13333333,0,0,-0.13333333,0,2933.3333)" />
      <path
         d="m 5065.36,21247.8 c -6.37,-6.4 -10.09,-14.8 -10.09,-23.3 0.54,-8.5 4.25,-16.5 9.56,-21.8 5.3,-5.8 11.67,-8.5 21.22,-9 9.56,0 22.28,2.1 31.31,7.9 9.55,6.4 15.39,16 18.05,24.5 2.65,7.9 2.65,14.8 -0.54,19.6 -3.18,4.8 -9.55,7.4 -17.51,9.5 -7.96,2.2 -17.51,3.2 -27.06,2.7 -9.03,-1.1 -18.58,-4.2 -24.94,-10.1"
         style="fill:#fbf5df;fill-opacity:1;fill-rule:evenodd;stroke:none"
         id="path6688"
         transform="matrix(0.13333333,0,0,-0.13333333,0,2933.3333)" />
      <path
         d="m 2098.5,20919.3 c -14.33,-5.8 -33.96,-8.4 -52.01,-5.3 -18.57,3.2 -35.02,12.2 -42.98,28.7 -8.49,15.9 -7.96,38.7 -2.66,56.8 5.84,17.5 16.99,29.7 35.03,36.6 18.04,6.4 42.98,6.9 60.49,-1.1 16.98,-7.9 27.07,-23.9 31.84,-40.3 4.25,-17 3.72,-34.5 -1.06,-47.2 -5.3,-13.3 -14.32,-22.3 -28.65,-28.2"
         style="fill:#962934;fill-opacity:1;fill-rule:evenodd;stroke:none"
         id="path6690"
         transform="matrix(0.13333333,0,0,-0.13333333,0,2933.3333)" />
      <path
         d="m 2124.5,20893.3 c -10.62,-6.3 -26,-8.4 -40.33,-5.8 -14.33,2.7 -27.59,10.1 -36.62,22.3 -9.02,12.7 -13.8,30.2 -12.2,44 1.06,14.4 8.49,24.4 19.64,29.2 10.61,4.8 24.94,3.7 40.32,-2.1 15.39,-5.3 31.31,-15.9 39.8,-26.5 7.96,-11.2 9.02,-22.8 6.9,-33.5 -2.12,-11.1 -7.43,-21.2 -17.51,-27.6"
         style="fill:#feda3b;fill-opacity:1;fill-rule:evenodd;stroke:none"
         id="path6692"
         transform="matrix(0.13333333,0,0,-0.13333333,0,2933.3333)" />
      <path
         d="m 2067.72,20927.8 c 18.57,0 33.43,15.4 33.43,33.5 0,18.5 -14.86,33.4 -33.43,33.4 -18.04,0 -32.9,-14.9 -32.9,-33.4 0,-18.1 14.86,-33.5 32.9,-33.5"
         style="fill:#fbf5df;fill-opacity:1;fill-rule:evenodd;stroke:none"
         id="path6694"
         transform="matrix(0.13333333,0,0,-0.13333333,0,2933.3333)" />
      <path
         d="m 2540,19015.9 c -6.9,5.3 -14.33,14.3 -16.45,26 -2.13,11.7 2.12,25 13.79,32.9 12.21,8.5 31.84,10.6 44.58,7.4 12.21,-2.6 17.51,-11.1 18.04,-21.2 1.06,-10.1 -2.65,-22.8 -10.61,-31.8 -7.43,-9 -19.64,-14.4 -28.66,-16.5 -8.49,-2.6 -14.33,-1.6 -20.69,3.2"
         style="fill:#feda3b;fill-opacity:1;fill-rule:evenodd;stroke:none"
         id="path6696"
         transform="matrix(0.13333333,0,0,-0.13333333,0,2933.3333)" />
      <path
         d="m 2514.53,18997.3 c -6.9,5.9 -15.39,16 -17.51,28.1 -2.13,12.3 2.12,27.1 14.85,35.6 12.74,8.5 33.96,11.2 47.76,8 13.27,-3.2 18.57,-11.7 19.63,-22.8 1.07,-11.2 -3.18,-25 -11.14,-34.5 -8.49,-9.6 -21.76,-15.4 -31.31,-18.1 -9.02,-2.6 -14.85,-1.6 -22.28,3.7"
         style="fill:#8b2322;fill-opacity:1;fill-rule:evenodd;stroke:none"
         id="path6698"
         transform="matrix(0.13333333,0,0,-0.13333333,0,2933.3333)" />
      <path
         d="m 2549.55,19015.4 c -3.72,2.1 -9.02,5.8 -12.21,12.2 -3.18,6.3 -3.18,15.4 -1.59,22.3 1.59,7.4 5.31,12.7 10.08,15.9 4.78,3.7 10.08,5.3 15.39,5.3 5.31,-0.5 10.62,-3.2 14.33,-6.4 4.24,-3.7 7.43,-8.5 8.49,-13.8 1.06,-5.8 0.53,-12.2 -1.59,-18.5 -2.12,-5.9 -5.31,-11.7 -10.08,-14.9 -4.78,-3.2 -10.62,-3.2 -14.33,-3.7 -3.71,0 -5.31,0 -8.49,1.6"
         style="fill:#fbf5df;fill-opacity:1;fill-rule:evenodd;stroke:none"
         id="path6700"
         transform="matrix(0.13333333,0,0,-0.13333333,0,2933.3333)" />
   </g>
</svg>
