<?xml version="1.0" encoding="UTF-8" standalone="no"?>
<svg
   xmlns="http://www.w3.org/2000/svg"
   width="700"
   height="700"
   viewBox="0 0 700 700"
>
   <g
      id="g1"
      transform="translate(-1089.4996,83.642124)"
      style="display:inline;opacity:1">
      <path
         d="m 10892,20532.5 1318.3,541.3 -1069.6,-988 z m -1182.44,-318.6 -594.77,723.9 848.09,-479.9 z m -436.36,-1284.5 915.5,459.2 -154.1,182.7 z m 1375.1,2558.2 106.7,-890.5 -220.2,-12.5 z m 300.4,-2541.4 c 279,-172 558,-343.6 837,-515.6 -175.5,253.7 -351.1,507.8 -526.2,761.4 -91,0 -182,0 -273,0 -12.8,-82 -25.3,-163.7 -37.8,-245.8"
         style="fill:#ff532b;fill-opacity:1;fill-rule:evenodd;stroke:none"
         id="path6586"
         transform="matrix(0.13333333,0,0,-0.13333333,0,2933.3333)" />
      <path
         d="m 9454.1,19909.9 c -44.25,-23.2 -88.13,-46.4 -120.6,-76.3 -32.47,-29.7 -53.52,-66.4 -63.87,-108.5 -10.7,-41.8 -10.7,-89.2 9.64,-147.7 20.69,-58.9 61.36,-129.2 95.26,-184.8 33.54,-55.7 59.59,-96.4 94.91,-129.6 34.96,-32.8 79.21,-58.1 132.37,-74.9 53.52,-16.8 116.67,-25.3 179.46,-33.5 19.98,-50.3 39.97,-100.6 55.31,-163.1 14.98,-62.4 25.69,-137 60.3,-206.6 34.6,-69.9 93.12,-134.8 152.32,-184.1 59.3,-49.2 119.2,-83.1 177.4,-102.7 58.1,-20 114.8,-26.4 166.9,-26.4 51.8,0 98.9,6.4 142.4,33.2 43.5,26.7 83.5,73.8 123.4,120.9 36.8,-13.5 73.5,-27.1 109.6,-35.7 36,-8.2 71.7,-11.4 108.1,-3.2 36,8.6 72.8,28.5 94.2,40.7 21.7,11.8 27.8,16 34.2,20.3 32.5,-6.4 65,-12.5 102.4,-21 37.1,-8.2 79.2,-18.9 128.5,-14.6 49.2,4.2 105.9,23.1 154.5,52.4 48.8,29.2 89.9,69.2 117,108.5 27.5,39.6 41,78.1 45.3,131.3 3.9,52.8 -1.1,119.8 -12.8,169.8 -11.5,49.9 -29.3,82.4 -47.1,114.9 54.6,11.4 109.2,23.2 157.7,51.7 48.9,28.9 92,75.3 123.8,126 32.1,51 53.1,106.6 72.4,175.9 19.6,69.2 37.5,152 37.8,224.7 0.4,73.2 -16.4,136 -43.9,194.9 -27.8,58.5 -66.7,113 -113.1,165.1 -46,51.8 -99.5,101 -153,150.3 29.6,17.8 58.8,35.6 77.7,94.9 19,59.6 27.2,160.2 18.3,240.8 -9,81 -35,141.6 -65,189.4 -30,47.9 -63.5,82.5 -94.5,109.6 -30.7,27.1 -59.3,47.1 -87.5,67.1 4.3,54.6 8.3,109.1 -10.3,155.2 -18.9,46.4 -61,83.8 -113.8,110.2 -53.2,26.1 -117,41.1 -179.1,35.7 -61.8,-5.3 -121.7,-30.3 -157.4,-54.6 -35.6,-24.2 -47.1,-47.1 -56.3,-73.5 -9.7,-26 -16.8,-55.6 -24.3,-84.9 -37.8,-8.2 -75.6,-16.8 -117,-36 -41.4,-19.7 -86.4,-50 -116.3,-79.3 -30,-29.6 -44.6,-57.7 -65,-65.2 -20.7,-7.2 -46.7,6.4 -85.3,13.9 -38.1,7.1 -88.4,8.2 -135.2,8.9 -46.7,0.4 -89.5,0.4 -134.1,-11.8 -44.6,-11.8 -90.7,-36 -124.9,-60.6 -33.9,-24.7 -56,-50 -72.8,-77.1 -16.8,-27.5 -28.5,-56.7 -39.96,-86 -52.45,12.5 -104.9,25 -163.05,23.6 -58.16,-1.8 -122.39,-17.5 -174.83,-35.7 -52.45,-18.6 -93.12,-39.3 -132.02,-87.8 -38.89,-48.2 -75.64,-123.4 -101.33,-191.9 -25.68,-68.2 -40.31,-128.8 -43.88,-189.1 -3.57,-60.3 3.57,-120.3 18.2,-167.4 14.62,-47.1 36.75,-81.7 58.87,-116.3"
         style="fill:#962934;fill-opacity:1;fill-rule:evenodd;stroke:none"
         id="path6588"
         transform="matrix(0.13333333,0,0,-0.13333333,0,2933.3333)" />
      <path
         d="m 10420.3,18689 c -31.8,7.8 -73.5,18.9 -116.3,33.1 -42.5,14.7 -85.3,32.5 -115.3,46.4 -29.9,13.9 -46.7,23.9 -54.9,19.3 -7.9,-4.3 -7.5,-23.2 4.6,-43.9 12.2,-20.3 35.7,-42.5 64.6,-60.3 29.3,-18.2 63.9,-32.5 97.4,-42.8 33.6,-10.4 66,-17.5 91,-16.8 25,0.4 42.5,8.2 58.1,17.5 16.1,9.3 30.7,19.6 27.5,27.5 -3.5,7.5 -25,12.1 -56.7,20 z m -730.36,834.5 c -23.91,27.8 -51.02,63.5 -69.22,85.3 -18.2,21.4 -27.12,28.5 -38.54,23.9 -11.41,-4.7 -25.69,-21.4 -28.89,-48.5 -3.22,-27.5 4.63,-65.3 20.69,-98.2 15.7,-32.4 39.25,-60.3 68.14,-83.1 28.91,-22.8 62.8,-40.7 89.2,-41.4 26.76,-1.1 45.32,15.4 48.17,33.6 2.5,18.5 -11.06,38.8 -28.19,59.2 -17.13,20.7 -37.46,41 -61.36,69.2 z m 34.61,788.9 c -17.13,-1.1 -46.74,-10.7 -69.58,-25.4 -23.19,-14.6 -39.96,-34.6 -52.09,-57.4 -12.13,-22.8 -19.27,-48.5 -21.05,-77.8 -2.15,-29.6 1.78,-62.4 7.13,-85.6 5.71,-23.2 12.85,-36.1 24.62,-35 11.78,1.4 28.19,17.1 38.53,39.6 10.71,22.1 15.35,51 15.71,74.9 0,24 -3.93,42.9 -5.72,52.9 -1.42,10.3 -0.35,11.7 5,17.1 5.71,5.3 15.7,14.2 27.48,24.2 12.12,10.4 26.4,21.8 36.39,32.2 9.99,10.3 15.7,19.2 16.05,27.1 0,7.8 -4.99,14.6 -22.47,13.2 z m 264.02,-362.2 c -21.05,-21 -58.15,-40.6 -85.27,-81 -27.47,-40.3 -44.6,-101.7 -52.81,-164.8 -8.2,-63.2 -7.14,-128.1 1.79,-180.2 8.92,-52.1 25.68,-90.6 54.94,-112.4 28.9,-21.7 70.29,-26.7 95.58,-34.2 25.4,-7.5 34.3,-18.2 42.1,-31.1 7.9,-13.2 14.7,-28.9 25.7,-46 10.7,-17.1 26.1,-35.3 56.1,-37.8 29.9,-2.2 74.5,11.4 97.4,8.9 22.4,-2.1 23.5,-20.7 17.8,-46 -6.1,-25.4 -19.3,-58.2 -23.6,-95.3 -4.2,-37.1 0.8,-79.2 10,-117.7 9.3,-38.6 23.6,-73.5 43.2,-98.9 19.6,-25.3 45,-40.3 68.9,-52 23.9,-11.5 46.4,-19.3 69.5,-19.7 23.6,0 47.5,7.2 69.3,24.6 21.4,17.9 40.3,45.7 58.5,66.1 18.5,20.3 36.4,33.5 48.9,40.6 12.4,7.2 19.9,8.2 31,2.2 11.1,-6.1 25.7,-19.3 45,-26.8 19.6,-7.8 43.5,-9.6 64.9,-7.5 21.8,2.5 40.7,9.3 65.3,23.2 24.6,13.9 54.9,35 77,52.8 21.8,17.8 35.7,32.5 58.6,41.4 23.2,9.3 55.6,12.8 91.3,30.7 35.7,17.8 74.6,49.9 102.8,70.3 28.5,20.7 46.3,29.6 68.8,40.3 22.5,10.7 49.6,23.2 73.5,20 23.9,-3.6 44.6,-22.9 55.3,-15.7 11.1,6.7 12.9,40.6 19.6,58.5 6.8,18.2 19,20.7 29.7,27.1 10.7,6.4 19.9,16.1 16,32.5 -3.9,16.4 -21,38.9 -32.1,54.9 -11.1,16.4 -15.7,26.4 -10.3,33.6 5.7,7.1 21.4,11 40.6,16.4 19.7,5.3 42.5,11.4 66.8,41 24.2,29.2 49.2,81.7 65.6,128.4 16.8,46.8 24.6,87.5 14.3,133.5 -10.4,46 -38.6,96.7 -68.5,138.8 -30,41.7 -61.4,74.9 -90.3,97 -28.5,21.8 -54.9,32.9 -83.1,35 -28.6,2.1 -58.9,-4.6 -78.5,-9.3 -19.7,-5 -28.6,-7.5 -33.2,9.6 -5,17.2 -5.4,53.9 -2.5,94.6 2.9,41 9.3,86 12.1,126.3 2.9,40 2.2,75.3 -7.5,117 -9.6,42.1 -28.5,91 -54.6,126 -26.4,34.9 -59.9,56.7 -96.3,76.7 -36.4,19.6 -75.6,38.2 -111.7,48.5 -36,10.7 -68.5,13.2 -113.8,9.6 -45.3,-3.2 -103.4,-12.8 -141.6,-36 -38.2,-23.2 -56,-60.6 -63.9,-84.5 -7.8,-24.3 -5.7,-35.4 -12.8,-43.2 -6.8,-7.9 -23.2,-12.5 -43.2,-21.1 -20,-8.2 -43.5,-20.3 -57.5,-28.5 -13.9,-8.2 -18.2,-12.2 -33.9,-7.5 -16,4.6 -43.8,18.2 -71.7,23.5 -27.8,5.4 -55.6,2.2 -84.5,-11.7 -29.3,-14 -59.6,-38.6 -77.5,-58.9 -17.4,-20.7 -22.1,-36.8 -33.1,-48.5 -11.1,-11.8 -28.2,-19.3 -48.9,-34.6 -20.7,-15.7 -45,-39.3 -64.2,-67.8 -18.9,-28.6 -33.2,-62.1 -41.1,-90.7 -7.8,-28.1 -9.2,-51.3 -12.5,-74.2 -2.8,-22.4 -6.7,-45.3 -27.43,-66 z m 1583.13,-25 c -11.1,29 -27.9,69.6 -46.8,102.1 -18.9,32.5 -39.6,56.7 -51.4,75.3 -11.4,18.2 -13.5,30.7 -3.9,39.6 9.3,8.9 30.3,14.2 60.7,-0.4 30.3,-14.6 70.3,-49.2 93.5,-97 22.8,-47.8 29.2,-108.5 26,-146 -3.2,-37.1 -15.7,-50.6 -26.8,-52.8 -11,-2.1 -20.3,7.2 -27.8,20.4 -7.1,13.2 -12.5,29.9 -23.5,58.8 z m -197,729.3 c -25.3,26.8 -59.9,73.2 -87.8,103.9 -27.8,31 -48.8,46.7 -72.4,58.8 -23.5,12.2 -49.6,20.4 -67.1,30 -17.1,9.3 -25.7,20 -17.1,28.2 8.2,8.5 33.5,14.6 66.4,11 33.2,-3.5 73.8,-17.1 107.7,-35.6 33.6,-18.2 59.6,-41.4 81,-71.7 21.8,-30.7 38.5,-68.2 45.3,-97.1 6.8,-28.9 3.6,-48.9 -5.7,-55.3 -9.6,-6.1 -25.3,1.1 -50.3,27.8 z m -387.1,247.3 c -16.1,-3.6 -40.7,-3.9 -64.2,-7.5 -23.2,-3.2 -45.3,-9.6 -67.1,-13.6 -21.8,-3.9 -43.2,-5.7 -64.2,-3.9 -21.1,1.4 -41.4,6.4 -45.7,17.1 -3.9,11.1 7.9,28.6 37.1,42.9 29.3,14.6 75.3,26 109.2,28.1 34.2,2.2 56.4,-5.3 75.3,-14.6 19.2,-9.6 35.6,-21 39.6,-30 4.3,-8.9 -3.6,-15.3 -20,-18.5 z m -371.8,-208.7 c -11.8,11 -34.6,28.9 -56.4,36.7 -21.7,7.5 -42.4,5 -54.6,-2.1 -12.1,-7.2 -15.3,-18.6 -5.7,-33.6 9.3,-14.9 31.4,-33.5 50.7,-44.2 19.3,-10.7 36.4,-13.9 49.2,-8.9 13.2,5 22.5,18.2 26.8,27.1 3.9,8.9 2.1,13.6 -10,25 z m -201.2,69.2 c -24.3,7.8 -72.8,13.2 -108.8,12.1 -36.1,-1.1 -58.9,-8.2 -80,-19.6 -20.7,-11.1 -38.9,-26.4 -46.3,-41.7 -7.2,-15 -3.6,-30.4 6,-41.4 9.7,-11.1 25.7,-17.9 46,-17.5 20.4,0.3 45.7,7.5 71,19.2 25.4,11.5 51.1,27.2 73.9,37.5 22.5,10.7 41.7,15.7 51.7,23.9 10,8.2 10.4,19.3 -13.5,27.5 z m 865.6,-1796.1 c -8.6,17.1 -18.2,40.7 -32.1,43.5 -13.6,2.9 -30.7,-15 -46.8,-42.1 -15.7,-27.5 -29.6,-64.2 -43.5,-91.3 -13.6,-27.5 -26.4,-45.3 -31.4,-58.2 -4.7,-13.2 -1.1,-21.7 18.9,-18.9 20,2.5 56,16.1 84.9,39.6 28.9,23.2 50.3,56.4 57.8,78.1 7.5,21.8 0.4,32.2 -7.8,49.3"
         style="fill:#ff532b;fill-opacity:1;fill-rule:evenodd;stroke:none"
         id="path6590"
         transform="matrix(0.13333333,0,0,-0.13333333,0,2933.3333)" />
      <path
         d="m 9876.54,20391.2 c -18.91,17.5 -54.94,43.9 -170.91,126.3 -115.6,82.1 -310.76,220.5 -413.52,291.9 -103.11,71 -114.17,74.5 -107.04,64.6 7.14,-10 32.11,-33.6 47.1,-51.8 14.98,-17.8 19.62,-30.7 22.48,-39.6 2.49,-9.3 2.85,-15 26.76,-36.4 23.55,-21 69.93,-57.8 138.43,-112 68.5,-54.6 158.78,-126.3 227.64,-184.1 69.21,-58.2 116.67,-102.1 151.27,-132.4 34.26,-30 55.31,-46.4 64.23,-49.6 8.92,-3.5 5.71,6.1 9.99,11.8 3.93,5.7 15.7,7.8 25.34,10 9.62,2.1 17.48,3.9 20.69,8.9 3.21,4.6 1.42,11.8 -2.5,21.8 -4.28,10 -11.06,22.8 -15.34,33.5 -4.28,10.7 -5.71,19.6 -24.62,37.1"
         style="fill:#feda3b;fill-opacity:1;fill-rule:evenodd;stroke:none"
         id="path6592"
         transform="matrix(0.13333333,0,0,-0.13333333,0,2933.3333)" />
      <path
         d="m 9953.25,19412.2 c -4.99,-0.7 -9.99,0 -15.34,1.1 -5.71,1 -11.78,2.4 -39.97,-16.8 -28.18,-18.9 -77.77,-58.9 -142.71,-113.1 -65.29,-54.3 -145.57,-123.1 -190.17,-163.1 -44.96,-39.6 -54.23,-50.6 -49.24,-51 5,-0.4 24.26,10.3 64.22,33.2 39.61,23.2 99.91,58.9 164.84,96.7 64.58,37.8 133.8,77.7 176.61,102.4 42.46,24.9 58.16,34.9 67.8,43.5 9.63,8.2 13.21,15 13.21,21.4 -0.4,6.4 -4.65,12.1 -7.15,19.3 -2.85,7.5 -3.57,16.4 -7.85,21.7 -3.92,5.8 -10.7,7.9 -16.77,7.9 -6.42,0 -12.13,-2.1 -17.48,-3.2"
         style="fill:#feda3b;fill-opacity:1;fill-rule:evenodd;stroke:none"
         id="path6594"
         transform="matrix(0.13333333,0,0,-0.13333333,0,2933.3333)" />
      <path
         d="m 9440.54,19018.6 c -2.15,7.5 -13.2,14.3 -29.62,9 -16.76,-5 -38.53,-22.5 -59.58,-41.4 -20.7,-18.9 -39.96,-39.3 -40.32,-44.6 0,-5 18.56,4.6 41.39,16 22.83,11.4 49.6,23.9 66.36,34.3 16.77,10.7 23.91,18.9 21.77,26.7"
         style="fill:#feda3b;fill-opacity:1;fill-rule:evenodd;stroke:none"
         id="path6596"
         transform="matrix(0.13333333,0,0,-0.13333333,0,2933.3333)" />
      <path
         d="m 10434.6,19483.2 c -7.2,8.5 -14.7,15.3 -22.5,26.4 -7.9,10.7 -16.1,26 -40.3,14.6 -24.3,-11.4 -64.6,-49.2 -138.5,-120.6 -73.5,-71 -180.5,-175.2 -242.59,-237.6 -61.72,-62.1 -78.49,-82.1 -79.2,-88.1 -1.08,-6.5 14.27,1 36.75,15.3 22.47,14.3 52.44,36 92.74,65.7 40,29.6 90.3,67.4 136,95.9 45.6,28.6 86.7,47.8 114.1,63.2 27.5,15.3 41.8,26 66,41.4 24.7,15.3 59.3,34.9 77.5,51.4 18.5,16.7 20.3,30.6 17.4,42.4 -2.5,11.8 -9.9,21.8 -17.4,30"
         style="fill:#feda3b;fill-opacity:1;fill-rule:evenodd;stroke:none"
         id="path6598"
         transform="matrix(0.13333333,0,0,-0.13333333,0,2933.3333)" />
      <path
         d="m 10944.4,19202 c -16.4,-3.5 -34.6,-2.8 -48.5,-4.6 -13.9,-1.8 -23.9,-6.8 -23.9,-14.3 0,-7.5 10,-18.2 39.6,-46.4 30,-28.2 79.2,-74.5 200.2,-175.5 121.3,-101.3 314.3,-257.6 419.2,-338.3 105.2,-80.9 122.7,-86.3 139.5,-95.9 17.1,-10 33.9,-25 47.8,-35 13.9,-10.3 25,-16.1 28.6,-13.6 3.9,2.9 0,14 -124.9,136 -124.5,122 -370.7,355.7 -496,475.2 -125.6,119.9 -130.2,126.3 -140.2,125.3 -10,-1.1 -25,-9.3 -41.4,-12.9"
         style="fill:#feda3b;fill-opacity:1;fill-rule:evenodd;stroke:none"
         id="path6600"
         transform="matrix(0.13333333,0,0,-0.13333333,0,2933.3333)" />
      <path
         d="m 11014.4,19713.3 c 11,-0.4 27.4,1.8 157.3,33.6 129.9,32.1 373.2,93.8 493.1,125.9 120.2,32.1 117,34.3 -11.8,20 -128.8,-14.3 -383.2,-44.6 -520.2,-61.7 -137,-17.2 -157,-20.7 -164.8,-25 -7.5,-4.7 -2.9,-10 5,-15 7.5,-5.4 17.8,-10.7 25.3,-14.6 7.5,-4 11.4,-6.5 5,-10 -6.4,-3.2 -23.9,-7.5 -27.5,-11.4 -3.5,-4 6.1,-7.5 11.1,-13.2 4.6,-6.1 3.9,-14 7.1,-19.3 2.9,-5.7 8.9,-8.6 20.4,-9.3"
         style="fill:#feda3b;fill-opacity:1;fill-rule:evenodd;stroke:none"
         id="path6602"
         transform="matrix(0.13333333,0,0,-0.13333333,0,2933.3333)" />
      <path
         d="m 11139.6,20320.6 c 55.6,39.2 176.2,132 236.9,180.2 60.6,48.1 61,52 54.2,51.7 -6.8,-0.4 -21,-4.3 -24.6,-2.9 -3.6,1.5 3.2,9 8.2,16.8 5.4,7.9 8.9,16.4 3.6,19.3 -5.7,2.8 -20.4,0 -62.8,-24.6 -42.5,-24.7 -112.8,-71.4 -173,-110.3 -60.4,-39.2 -110.7,-70.6 -134.9,-87.8 -23.9,-17.4 -21.8,-20.7 -7.2,-17.8 14.7,3.2 41.8,12.1 48.9,10.7 6.8,-1.4 -7.1,-12.8 -14.6,-22.5 -7.5,-10 -9.3,-17.8 -3.2,-21.4 5.7,-3.6 18.5,-3.2 20.7,-10 1.8,-6.8 -7.9,-21 47.8,18.6"
         style="fill:#feda3b;fill-opacity:1;fill-rule:evenodd;stroke:none"
         id="path6604"
         transform="matrix(0.13333333,0,0,-0.13333333,0,2933.3333)" />
      <path
         d="m 11519.9,20587.1 c -11.7,-5.7 -19.6,-6.8 -17.5,-1.4 1.8,5.7 14,17.8 31.4,35.7 17.9,17.8 40.7,41.3 43.2,49.2 2.5,7.8 -16,0 -22.5,0.3 -6.7,0.8 -1.4,9.7 -3.2,12.9 -1.8,2.8 -10.7,0.4 -19.2,0 -8.2,-0.7 -16.1,0.7 95.2,66 111.3,64.9 342.2,193.4 461.4,258.3 119.1,64.6 126.3,65.7 126.3,61 0,-4.6 -7.2,-15.3 -117.1,-92 -109.9,-76.7 -322.5,-220.2 -436.3,-296.9 -114.2,-76.7 -129.9,-87.4 -141.7,-93.1"
         style="fill:#feda3b;fill-opacity:1;fill-rule:evenodd;stroke:none"
         id="path6606"
         transform="matrix(0.13333333,0,0,-0.13333333,0,2933.3333)" />
      <path
         d="m 10654.7,20140.4 c -2.1,21 -3.2,40 -5.3,263.7 -2.2,224 -5.4,652.9 -5.8,882.7 -0.7,229.7 1.5,260.1 4.7,251.1 3.2,-8.9 7.5,-57 21,-285.7 13.6,-228.7 36.8,-637.6 46.8,-852.8 10,-215.1 6.8,-235.8 0,-251.2 -6.8,-15.3 -17.5,-24.6 -23.2,-36 -5.7,-11.8 -6.8,-25.3 -11.1,-32.1 -4.3,-6.8 -11.4,-6.8 -16.7,4.6 -5.4,11.5 -8.3,34.6 -10.4,55.7"
         style="fill:#feda3b;fill-opacity:1;fill-rule:evenodd;stroke:none"
         id="path6608"
         transform="matrix(0.13333333,0,0,-0.13333333,0,2933.3333)" />
      <path
         d="m 10377.8,20202.1 c -12.1,10 -18.9,29.6 -41,84.9 -22.5,55.7 -59.9,146.3 -76,189.5 -16,43.2 -10.3,39.2 21.1,-3.6 31.4,-42.8 88.8,-124.1 122.3,-173.7 33.6,-50 43.6,-68.5 45.7,-77.8 2.5,-9.3 -2.8,-10 -8.2,-9.6 -5.7,0.3 -11.4,1 -14.6,-1.8 -2.9,-3.2 -3.6,-10.7 -12.2,-14.3 -8.5,-3.6 -25.3,-3.6 -37.1,6.4"
         style="fill:#feda3b;fill-opacity:1;fill-rule:evenodd;stroke:none"
         id="path6610"
         transform="matrix(0.13333333,0,0,-0.13333333,0,2933.3333)" />
      <path
         d="m 10113.5,19670.9 c 0.7,19.9 1.7,53.5 7.1,87.4 5.7,33.9 15.7,67.8 28.5,94.9 12.9,26.7 28.6,46.7 36.4,46.7 8.2,0 8.9,-20 18.2,-65.6 9.7,-46.1 27.8,-117.8 46,-169.5 18.2,-51.7 35.7,-83.1 50,-106 14.3,-22.8 24.6,-36.7 36.4,-54.2 11.4,-17.5 23.9,-37.8 36.7,-56.4 12.5,-18.5 25,-35.3 40,-48.9 15,-13.2 32.1,-23.2 50.3,-39.2 18.2,-16.1 37.1,-38.2 61,-54.2 24.3,-16.5 53.5,-26.8 79.6,-33.2 26,-6.1 48.5,-8.2 65.6,1.7 17.2,10 28.6,31.8 39.6,53.6 11.5,21.7 22.5,43.5 27.9,57.8 5.7,14.2 5.7,21.7 21.7,18.5 16.4,-3.2 48.9,-16.7 78.2,-17.8 29.6,-1.4 55.6,9.6 79.5,27.5 23.9,17.8 45.3,42.4 57.1,61 11.4,18.5 12.9,31 25,47.1 12.1,15.7 34.6,34.6 53.9,64.2 18.9,30 34.9,71 36.7,113.1 1.8,42.1 -10.3,85.6 -29.6,114.9 -19.6,29.2 -46.4,43.9 -62.4,58.9 -15.7,14.9 -21.1,29.9 -23.2,42.4 -2.2,12.1 -1.1,21.8 -1.4,32.8 0,10.7 -1.8,23.6 2.1,37.5 3.9,13.9 13.5,28.9 26.8,52.5 13.5,23.9 30.6,55.6 41,90.2 10.3,34.6 13.2,72.1 6,105.6 -6.7,33.9 -24.2,64.2 -51.7,90.7 -27.5,26 -65.3,48.1 -91.3,58.5 -26.1,10 -40,8.5 -47.5,2.5 -7.1,-6.1 -7.8,-16.5 1.4,-31.1 9.3,-14.2 27.9,-32.4 38.9,-49.6 11.1,-17.1 14.3,-32.8 10,-43.9 -3.9,-11 -15.7,-17.1 -38.5,-20.3 -22.8,-2.8 -56.7,-2.1 -83.1,-2.1 -26.8,0 -45.7,-0.7 -60.7,-6.8 -14.6,-6.4 -25.7,-18.6 -33.5,-34.3 -7.9,-15.7 -12.9,-34.9 -20.4,-52.4 -7.5,-17.1 -18.2,-32.5 -31,-41 -13.2,-8.6 -28.9,-10.7 -47.8,-20.7 -18.9,-10 -41.1,-27.9 -54.6,-43.6 -13.6,-15.7 -18.9,-29.6 -31.1,-36.7 -12.1,-7.5 -30.6,-8.6 -53.1,-14.6 -22.1,-5.7 -47.8,-16.8 -64.6,-24.7 -16.4,-7.5 -23.9,-11.7 -30.7,-7.5 -6.8,4.3 -12.8,16.8 -13.9,37.2 -0.7,20.6 3.9,48.8 21.8,79.5 17.8,30.7 48.9,63.9 69.5,86.4 20.7,22.4 31.4,34.6 37.2,42.8 6,8.5 7.8,13.2 -0.4,15.7 -8.2,2.1 -26,2.1 -46.7,-3.2 -20.7,-5.4 -44.3,-16.4 -70.7,-30.4 -26,-13.9 -54.9,-30.7 -77.1,-51.3 -22.4,-20.4 -38.1,-44.6 -49.6,-65.7 -11,-21.4 -17.8,-39.6 -31.3,-45.3 -14,-5.7 -34.3,1.1 -56.8,0.4 -22.5,-1.1 -47.1,-9.3 -70.3,-21.5 -23.2,-12.1 -44.6,-27.8 -60.6,-48.5 -16.08,-20.7 -26.42,-46.4 -32.13,-76.7 -6.07,-30.7 -6.78,-65.6 -3.22,-97.4 3.58,-31.7 12.14,-59.9 24.27,-84.9 12.48,-25 28.58,-46.4 47.78,-64.9 19.3,-18.2 41.1,-33.6 53.5,-40 12.2,-6.4 15,-4.6 15.4,5.3 0,9.7 -2.1,26.8 -2.9,38.6 -0.7,11.7 -0.3,18.2 0.8,38.2"
         style="fill:#ffb72f;fill-opacity:1;fill-rule:evenodd;stroke:none"
         id="path6612"
         transform="matrix(0.13333333,0,0,-0.13333333,0,2933.3333)" />
      <path
         d="m 10279.7,19393.6 c -14.3,14.3 -35.7,34.6 -53.5,52.5 -17.5,17.8 -31,33.2 -39.6,29.9 -8.2,-3.2 -11.4,-24.6 -7.9,-51 4,-26 14.3,-57.1 28.2,-82.7 13.9,-25.7 31.1,-46.1 51,-61.8 20,-15.3 42.5,-25.7 65,-31.7 22.1,-5.7 44.2,-6.8 65.6,-1.8 21.1,5 41.4,16 55,27.1 13.2,11.1 19.6,22.1 18.5,32.1 -1,10.4 -9.2,19.6 -26,25 -16.4,5.3 -41,6.4 -63.5,11.1 -22.5,4.6 -43.2,13.1 -57.1,21.4 -13.9,7.8 -21.1,15.7 -35.7,29.9"
         style="fill:#ffb72f;fill-opacity:1;fill-rule:evenodd;stroke:none"
         id="path6614"
         transform="matrix(0.13333333,0,0,-0.13333333,0,2933.3333)" />
      <path
         d="m 10838.1,19206.3 c -26.4,-0.7 -47.1,1.1 -61.7,0.7 -14.7,-0.3 -23.6,-2.5 -28.9,-8.9 -5,-6.8 -6.8,-17.5 -13.9,-23.2 -7.5,-5.3 -20.7,-5.3 -33.9,-5.7 -13.2,-0.4 -27.2,-0.7 -30.4,-6.4 -2.8,-5.4 4.3,-15.7 16.1,-28.6 11.8,-12.4 28.2,-27.1 49.6,-37.8 21.4,-10.3 48.1,-16.8 68.8,-20.3 20.4,-3.6 34.7,-4.7 48.6,-5 13.9,-0.4 27.4,0.3 48.5,3.2 21.4,2.9 50.3,8.2 84.9,23.2 34.6,15 74.9,39.6 99.6,64.9 24.6,25.4 33.5,51.8 38.1,75.7 5,23.5 5.4,45.3 1.8,63.1 -3.6,18.2 -11.8,32.8 -22.5,48.5 -10.7,15.7 -24.2,32.9 -34.2,35.7 -10,3.2 -16.1,-7.1 -23.9,-23.5 -7.5,-16.1 -16.4,-38.2 -26.8,-58.5 -10,-20 -21.7,-38.6 -36.7,-53.2 -15,-14.6 -33.2,-25.7 -58.5,-32.8 -25.7,-7.2 -58.2,-10 -84.6,-11.1"
         style="fill:#ffb72f;fill-opacity:1;fill-rule:evenodd;stroke:none"
         id="path6616"
         transform="matrix(0.13333333,0,0,-0.13333333,0,2933.3333)" />
      <path
         d="m 11242.3,19802.9 c 2.9,-17.5 6.1,-42.5 10,-77.5 4,-34.9 8.6,-79.5 7.5,-114.1 -1,-34.6 -7.8,-59.3 -14.6,-78.5 -6.8,-18.9 -13.9,-32.5 -9.3,-35 4.3,-2.5 20.4,6.4 39.3,18.2 19.2,11.8 41.7,26.8 60.3,44.6 18.2,18.2 32.4,39.6 42.1,60.7 9.6,21 15,41.3 12.5,61 -2.2,19.2 -12.2,37.4 -19.3,54.2 -7.1,16.8 -11.4,32.1 -17.1,46.7 -5.8,14.7 -13.2,28.9 -23.6,39.3 -10.7,10 -24.2,16.4 -40.7,18.5 -16.4,2.2 -36,0 -44.2,-5.7 -8.6,-5.7 -5.7,-15.3 -2.9,-32.4"
         style="fill:#ffb72f;fill-opacity:1;fill-rule:evenodd;stroke:none"
         id="path6618"
         transform="matrix(0.13333333,0,0,-0.13333333,0,2933.3333)" />
      <path
         d="m 10732.5,19853.9 c 10,1.1 16.8,10.7 19.6,17.8 2.9,6.8 2.2,11.8 1.1,17.9 -0.7,5.7 -1.1,13.2 1.1,17.5 2.4,4.2 7.8,4.9 24.2,-14 16.4,-19.2 44.3,-58.5 58.9,-85.6 14.6,-26.8 16.4,-41.7 11,-61.4 -5.3,-19.6 -17.1,-44.2 -27.4,-49.6 -10.4,-4.9 -18.6,9 -26.4,14.7 -7.9,6 -15.4,3.2 -22.5,-1.5 -7.1,-4.6 -13.9,-11.4 -18.2,-11.7 -4.6,-0.4 -6.8,6 -11.8,5.3 -5.3,-0.3 -13.9,-7.8 -25.3,-12.8 -11.4,-5.4 -26.1,-8.6 -35.3,-5.7 -9.3,2.8 -12.9,11.7 -12.5,21 0,9.3 4.3,18.6 3.9,27.1 -0.7,8.2 -6.1,15.7 -9.3,24.7 -3.5,8.9 -5,19.2 -6.8,34.9 -1.7,15.4 -3.9,35.7 -1.7,49.3 2.1,13.2 8.2,19.6 15.7,22.4 7.1,2.9 15.7,2.5 26.7,-1.4 11.1,-3.6 24.6,-10.3 35,-8.9"
         style="fill:#feda3b;fill-opacity:1;fill-rule:evenodd;stroke:none"
         id="path6620"
         transform="matrix(0.13333333,0,0,-0.13333333,0,2933.3333)" />
      <path
         d="m 10573,19829.6 c 2.9,11.4 3.2,23.9 -1.1,23.9 -3.9,0 -12.8,-12.5 -22.5,-23.5 -9.2,-11.1 -19.2,-20.7 -24.6,-17.9 -5.3,2.5 -5.7,17.2 -8.5,24.3 -2.9,7.1 -8.2,6.4 -17.2,-3.2 -8.9,-9.6 -21.4,-28.5 -29.9,-45.7 -9,-17.5 -13.6,-33.2 -15.7,-50.3 -2.2,-17.5 -1.5,-36.4 7.8,-55.3 9.7,-18.9 27.9,-37.8 35.7,-40.7 7.8,-3.2 5.4,9.3 3.9,24.7 -1.8,14.9 -2.1,32.8 1.1,47.8 3.6,15 10.7,27.1 16.8,38.1 5.7,11.1 9.6,20.7 12.8,22.5 3.2,1.5 5.4,-5.3 10.7,-16.7 5.7,-11.8 14.6,-27.9 21.8,-36.4 7.5,-8.3 13.2,-9 13.5,0 0.4,8.5 -5,26.4 -8.5,40.6 -3.9,14.7 -6.1,25.7 -4.7,36.1 1.5,10.3 6.1,20.3 8.6,31.7"
         style="fill:#feda3b;fill-opacity:1;fill-rule:evenodd;stroke:none"
         id="path6622"
         transform="matrix(0.13333333,0,0,-0.13333333,0,2933.3333)" />
      <path
         d="m 12409.1,21138 c -9.3,-7.1 -23.6,-17.1 -38.9,-22.1 -15.4,-4.7 -31.8,-4.3 -37.8,3.2 -6.5,7.1 -2.9,21.4 5.7,36.7 8.2,15.4 21.4,31.4 35.6,37.8 14.3,6.1 29.6,2.2 38.9,-6 8.9,-8.2 11.8,-21.1 11.1,-29.6 -0.7,-8.6 -5,-12.9 -14.6,-20"
         style="fill:#feda3b;fill-opacity:1;fill-rule:evenodd;stroke:none"
         id="path6624"
         transform="matrix(0.13333333,0,0,-0.13333333,0,2933.3333)" />
      <path
         d="m 12384.4,21202.6 c -4.2,-0.7 -11.7,-2.9 -19.6,-7.5 -7.5,-4.7 -15,-11.8 -20,-19.7 -5,-7.8 -7.5,-16.7 -8.5,-23.5 -1.1,-6.8 -1.1,-11.1 2.5,-13.9 3.9,-3.2 11,-5 17.5,-6.4 6.7,-1.5 12.8,-2.5 19.9,-2.9 7.2,-0.3 15,0.4 22.2,2.5 6.7,1.8 12.8,4.6 17.4,8.9 4.7,4.3 7.9,9.7 9.7,15.7 1.8,6.1 1.4,12.9 0.7,18.2 -0.7,5.7 -2.5,10 -5.4,13.9 -3.2,4.3 -7.1,7.9 -11.7,10.7 -4.3,2.5 -8.6,4 -11.8,4.7 -3.2,0.7 -5,0.3 -6.4,0.3 -1.5,0 -2.2,0 -6.5,-1"
         style="fill:#962934;fill-opacity:1;fill-rule:evenodd;stroke:none"
         id="path6626"
         transform="matrix(0.13333333,0,0,-0.13333333,0,2933.3333)" />
      <path
         d="m 12368,21173.3 c -4.3,-4.3 -6.8,-10 -6.8,-15.7 0.4,-5.7 2.9,-11 6.5,-14.6 3.5,-3.9 7.8,-5.7 14.2,-6.1 6.5,0 15,1.4 21.1,5.7 6.4,4 10.3,10.4 12.1,16.1 1.8,5.3 1.8,10 -0.3,13.2 -2.2,3.2 -6.5,5.3 -11.8,6.4 -5.4,1.4 -11.8,2.5 -18.2,1.8 -6.1,-0.7 -12.5,-2.9 -16.8,-6.8"
         style="fill:#fbf5df;fill-opacity:1;fill-rule:evenodd;stroke:none"
         id="path6628"
         transform="matrix(0.13333333,0,0,-0.13333333,0,2933.3333)" />
      <path
         d="m 8858.96,21032 c -9.63,-3.9 -22.83,-6 -34.96,-3.9 -12.49,2.1 -23.55,8.6 -28.9,19.3 -5.71,10.7 -5.35,26.4 -1.78,38.1 3.92,11.8 11.41,20.4 23.54,24.7 12.13,4.2 28.91,4.6 40.67,-0.8 11.43,-5 18.21,-15.7 21.42,-27.1 2.85,-11 2.5,-22.8 -0.72,-31.7 -3.57,-8.9 -9.63,-14.7 -19.27,-18.6"
         style="fill:#962934;fill-opacity:1;fill-rule:evenodd;stroke:none"
         id="path6630"
         transform="matrix(0.13333333,0,0,-0.13333333,0,2933.3333)" />
      <path
         d="m 8876.45,21014.5 c -7.14,-4.2 -17.49,-6 -27.12,-4.2 -9.63,1.7 -18.55,6.7 -24.62,14.9 -6.06,8.6 -9.28,20.4 -8.2,30 0.71,9.3 5.7,16.4 13.2,19.6 7.13,2.9 16.77,2.2 27.11,-1.4 10.35,-3.9 21.06,-10.7 26.76,-18.2 5.36,-7.1 6.07,-15 4.64,-22.5 -1.43,-7.5 -4.99,-14.2 -11.77,-18.2"
         style="fill:#feda3b;fill-opacity:1;fill-rule:evenodd;stroke:none"
         id="path6632"
         transform="matrix(0.13333333,0,0,-0.13333333,0,2933.3333)" />
      <path
         d="m 8838.27,21037.7 c 12.49,0 22.48,10 22.48,22.5 0,12.1 -9.99,22.5 -22.48,22.5 -12.13,0 -22.12,-10.4 -22.12,-22.5 0,-12.5 9.99,-22.5 22.12,-22.5"
         style="fill:#fbf5df;fill-opacity:1;fill-rule:evenodd;stroke:none"
         id="path6634"
         transform="matrix(0.13333333,0,0,-0.13333333,0,2933.3333)" />
      <path
         d="m 9076.61,18622.9 c -4.64,3.6 -9.63,9.7 -11.06,17.5 -1.43,7.9 1.43,16.8 9.27,22.2 7.85,5.7 21.41,7.1 29.62,5 8.56,-1.8 11.78,-7.5 12.49,-14.3 0.35,-6.8 -1.79,-15.4 -7.14,-21.4 -5.35,-6.1 -13.2,-9.7 -19.27,-11.1 -5.71,-1.8 -9.63,-1.1 -13.91,2.1"
         style="fill:#feda3b;fill-opacity:1;fill-rule:evenodd;stroke:none"
         id="path6636"
         transform="matrix(0.13333333,0,0,-0.13333333,0,2933.3333)" />
      <path
         d="m 9059.48,18610.5 c -4.99,3.9 -10.34,10.7 -11.77,18.9 -1.43,8.2 1.43,18.2 9.99,23.9 8.56,5.7 22.83,7.5 32.11,5.3 8.92,-2.1 12.49,-7.8 13.2,-15.3 0.35,-7.5 -2.14,-16.8 -7.85,-23.2 -5.35,-6.4 -14.27,-10.3 -20.69,-12.1 -6.43,-1.8 -10.35,-1.1 -14.99,2.5"
         style="fill:#962934;fill-opacity:1;fill-rule:evenodd;stroke:none"
         id="path6638"
         transform="matrix(0.13333333,0,0,-0.13333333,0,2933.3333)" />
      <path
         d="m 9082.67,18622.6 c -2.14,1.4 -6.06,3.9 -7.85,8.2 -2.14,4.3 -2.49,10.4 -1.07,15 1.07,5 3.57,8.6 6.78,10.7 3.22,2.5 6.78,3.6 10.35,3.6 3.57,-0.4 6.78,-2.2 9.63,-4.3 2.85,-2.5 5,-5.7 5.72,-9.3 0.71,-3.9 0,-8.2 -1.08,-12.5 -1.42,-3.9 -3.56,-7.8 -6.78,-10 -3.21,-2.1 -7.49,-2.1 -9.99,-2.5 -2.5,0 -3.21,0 -5.71,1.1"
         style="fill:#fbf5df;fill-opacity:1;fill-rule:evenodd;stroke:none"
         id="path6640"
         transform="matrix(0.13333333,0,0,-0.13333333,0,2933.3333)" />
      <path
         d="m 11896.3,18300.8 c -8.2,5.7 -16.7,14.2 -20.3,26.7 -3.6,12.5 -2.1,28.9 1.8,36.4 3.9,7.2 10.3,5.4 23.5,2.5 13.2,-2.5 32.9,-5.7 45.4,-12.1 12.4,-6.4 17.1,-15.7 16.7,-25.7 0,-9.6 -5,-20 -12.8,-26.8 -8.2,-6.7 -19.3,-9.6 -28.6,-9.9 -9.6,0 -17.4,3.2 -25.7,8.9"
         style="fill:#feda3b;fill-opacity:1;fill-rule:evenodd;stroke:none"
         id="path6642"
         transform="matrix(0.13333333,0,0,-0.13333333,0,2933.3333)" />
      <path
         d="m 11955.6,18328.9 c -2.9,9.3 -7.5,17.9 -14.3,22.9 -6.8,5.3 -15.3,7.5 -25,7.1 -9.2,-0.3 -19.2,-3.2 -26.4,-8.9 -7.1,-5.7 -11.8,-14.3 -12.1,-22.8 -0.4,-8.2 3.2,-16.8 6.8,-22.9 3.2,-5.7 6.4,-8.9 11.4,-11.7 5,-2.9 12.1,-5.7 20,-6.8 7.5,-1.1 16,0 23.5,2.5 7.2,2.5 13.2,6.8 16.1,13.9 2.8,7.1 2.5,17.1 0,26.7"
         style="fill:#962934;fill-opacity:1;fill-rule:evenodd;stroke:none"
         id="path6644"
         transform="matrix(0.13333333,0,0,-0.13333333,0,2933.3333)" />
      <path
         d="m 11928.1,18330.7 c -0.7,-5 -3.9,-11.4 -7.9,-15.7 -4.2,-3.9 -9.2,-6.4 -14.9,-5.7 -6.1,0.7 -12.2,4.3 -16.1,10.4 -3.6,5.7 -5,13.9 -3.2,20.7 1.4,6.8 6.1,12.5 10.7,15 4.3,2.5 8.9,1.7 13.9,-0.8 5,-2.5 10.7,-7.1 13.9,-11.4 3.6,-3.9 4.7,-7.5 3.6,-12.5"
         style="fill:#fbf5df;fill-opacity:1;fill-rule:evenodd;stroke:none"
         id="path6646"
         transform="matrix(0.13333333,0,0,-0.13333333,0,2933.3333)" />
   </g>
</svg>
