<?xml version="1.0" encoding="UTF-8" standalone="no"?>
<svg
   xmlns="http://www.w3.org/2000/svg"
   width="700"
   height="700"
   viewBox="0 0 700 700"
>
   <g
      id="g2"
      transform="translate(-2135.7788,56.362863)"
      style="display:inline;opacity:1">
      <path
         d="m 18612.8,20146.3 1603.9,772.7 -1383,-1170.1 z m -985,-154.5 -780.9,823 1045.6,-538.9 z m -629.2,-1394.8 988.5,531.7 -137.4,162.5 z m 1509.1,2952.1 95.2,-1337.7 -196.2,-18.7 z m 239.3,-2702 985.3,-621.2 -708.8,839.9 h -242.8 l -33.7,-218.7"
         style="fill:#ff532b;fill-opacity:1;fill-rule:evenodd;stroke:none"
         id="path6524"
         transform="matrix(0.13333333,0,0,-0.13333333,0,2933.3333)" />
      <path
         d="m 17417.3,19755.9 c -40.9,-24.4 -82.2,-48.6 -117.4,-83.5 -35.6,-35.2 -65.4,-80.9 -87.9,-137.4 -22.3,-56.2 -37.2,-123.5 -42.9,-186 -5.7,-62.6 -1.9,-120.3 21.6,-166.7 23.2,-46 66,-80.6 114.6,-106.3 48.5,-25.7 102.8,-42.6 165.4,-46.4 62.5,-3.5 133.3,5.8 187.9,16.9 54.6,11.4 93,24.4 117.1,21.2 24.1,-3.5 34.6,-22.8 47.9,-41.6 13.7,-18.7 30.5,-36.5 22.6,-65 -8,-28.3 -40.7,-67.6 -71.8,-99.7 -31.4,-32.4 -61.2,-57.5 -73.9,-110.8 -12.4,-53 -8,-134.3 11.7,-197.7 19.7,-63.5 54.3,-109.2 86,-147 31.8,-37.8 60.7,-67.6 102.9,-89.2 42.5,-21.3 98.7,-34.3 158.4,-41.3 59.7,-7 123.1,-7.9 170.1,7 47.3,14.9 78.1,45.7 107.3,82.5 29.5,36.9 57.5,79.7 85.4,122.6 27.9,-16.5 56.2,-33.4 84.4,-46.1 28.6,-12.7 57.5,-20.9 96.2,-20.9 38.8,0 87.3,8.2 128.3,24.1 41.2,15.9 74.9,39.4 108.2,62.6 30.8,-19.7 61.6,-39.1 104.1,-49.6 42.6,-10.1 96.5,-11.1 158.7,1.9 61.9,13.1 132.1,40.4 181.6,90.2 49.5,49.8 78.4,122.8 86.7,184.4 8.5,61.6 -3.8,111.7 -27,158.4 -23.5,46.7 -57.8,89.8 -92.4,132.7 42.9,30.8 85.7,61.6 108.6,91.4 22.8,29.8 25.7,58.7 28.5,87.6 39.1,-27.9 78.4,-55.8 140.3,-67.9 62.3,-12.4 147,-8.6 210.5,15.2 63.5,23.8 105.7,67.6 144.7,125.1 39.4,57.4 75.6,128.2 99.4,205.4 23.8,76.8 34.9,159.9 32.7,231.4 -2.2,71.4 -18.1,131.1 -51.4,176.1 -33,45.4 -83.5,76.2 -132.1,96.9 -48.5,20.3 -95.2,30.8 -143.5,36.1 -48.5,5.8 -99,6.7 -155.8,-22.8 -57.2,-29.2 -120.6,-88.9 -183.8,-148.6 -1.9,41 -3.8,81.9 -15.9,112.7 -12.4,30.8 -34.6,51.4 -59,69.2 -24.1,17.8 -50.2,32.7 -76.5,47.6 35.5,28.9 71.1,57.8 96.8,83.8 25.4,26.4 41.3,49.6 36.8,84.2 -4.7,34.6 -29.8,80.3 -55.2,126 24.4,19.3 48.6,39 70.5,88.5 21.9,49.6 41.5,128.9 37.4,207.6 -4.1,79.1 -32.4,157.2 -74.3,218.1 -41.9,60.6 -98.1,103.5 -147.9,129.5 -49.8,26.4 -93.6,35.6 -140,38.4 -46,2.9 -94.6,-0.9 -162.8,-22.5 -67.9,-21.3 -155.9,-60.6 -215.5,-94.3 -59.7,-33.6 -91.5,-61.6 -116.5,-103.5 -25.4,-41.9 -44.2,-98.1 -62.6,-153.9 -27.3,11.1 -54.3,22.2 -90.8,29.8 -36.2,7.3 -81.9,11.1 -124.4,8.3 -42.5,-2.6 -81.6,-12.1 -125.4,-28.9 -44.1,-16.8 -92.3,-41 -130.4,-69.8 -37.8,-28.9 -64.8,-62.6 -91.8,-96.2 -45.7,31.7 -91.4,63.5 -137.1,84.4 -45.7,21 -91.4,31.4 -135.9,31.4 -44.4,0 -87.3,-10.4 -133.3,-29.2 -46.3,-18.4 -95.8,-45.7 -140.6,-86.9 -44.8,-41.6 -84.8,-97.8 -113.3,-157.5 -28.6,-59.7 -45.4,-123.1 -51.5,-183.5 -6,-60 -1.2,-116.8 11.5,-167.2 12.4,-50.5 33,-94.3 70.4,-136.9 37.2,-42.5 91.5,-83.4 145.4,-124.4"
         style="fill:#962934;fill-opacity:1;fill-rule:evenodd;stroke:none"
         id="path6526"
         transform="matrix(0.13333333,0,0,-0.13333333,0,2933.3333)" />
      <path
         d="m 19507.9,19528 c 0.3,36.8 2.9,79 1.9,107.3 -0.6,28.6 -4.4,43.5 10.5,49.2 14.6,6 47.6,2.5 78.4,-7.9 30.8,-10.5 59.3,-28.3 79,-52.4 19.7,-24.5 30.2,-55.3 35.3,-85.4 4.7,-30.5 3.8,-60.3 -2.9,-87.6 -6.7,-27.6 -19.4,-53 -45.1,-73.7 -25.7,-20.6 -64.4,-37.1 -95.5,-43.5 -31.4,-6.6 -55.2,-3.4 -78.4,0.7 -23.5,3.8 -46.4,8.6 -42.9,24.1 3.2,15.6 32.7,42.2 46.7,71.4 14,29.2 12.4,61 13,97.8 z m -1472.9,646.6 c 20.7,10.2 44.8,20.3 67,28.6 22.2,8.2 42.2,14.2 42.9,19.6 0.6,5.4 -17.8,9.9 -45.1,16.2 -27,6.1 -62.5,13.4 -87.3,16.5 -25.1,3.5 -39.4,2.6 -42.5,8.3 -3.2,6 5.4,18.4 27.9,34.9 22.5,16.2 59.7,36.2 87.6,48.9 27.9,12.7 47,17.8 71.4,20.6 24.2,2.6 53.7,3.2 68.6,3.5 15.2,0 16.2,0 5.1,8.9 -11.1,8.9 -34.6,26.7 -86.4,32.4 -51.7,5.4 -132,-1 -184.7,-10.5 -52.7,-9.2 -78.1,-21.3 -93.6,-27.9 -15.6,-7 -21.6,-8.3 -18.1,-0.3 3.5,7.9 16.5,25 23.5,36.8 6.9,11.7 7.9,17.8 -6.7,25.7 -14.9,8.2 -45.1,18.7 -75.6,23.8 -30.1,5.4 -60.6,6 -94.2,1 -33.4,-4.8 -70.2,-15 -106.4,-30.5 -36.2,-15.3 -71.7,-35.9 -100.6,-79.7 -28.9,-43.8 -51.4,-111.1 -57.8,-159 -6.6,-48.3 2.6,-77.2 9.9,-94 7.3,-16.8 12.3,-21.6 28.9,-4.1 16.1,17.1 43.8,56.5 75.5,87.3 32.1,31.1 68.6,53.9 97.8,67.3 29.2,13.3 51.1,17.1 61.6,11.7 10.4,-5.4 9.5,-20 1.9,-42.2 -8,-22.5 -22.3,-52.7 -38.1,-87 -15.6,-34.3 -32.4,-72.7 -42.9,-117.1 -10.5,-44.1 -14.6,-94.6 -5.7,-135.5 8.9,-41.3 30.8,-73.1 45.7,-78.1 14.9,-5.4 22.9,15.5 29.5,39.3 6.4,23.8 11.5,50.2 21.3,70.5 9.8,20 24.4,33.6 44.7,44.4 20,11.1 46.4,19.4 68.6,-17.1 22.6,-36.8 41.3,-118.4 46,-168.9 5.1,-50.8 -3.8,-70.5 -19.6,-72 -15.6,-1.6 -37.8,14.6 -60,24.4 -22.2,9.9 -44.2,13.3 -66.7,3.5 -22.8,-9.5 -46,-31.7 -62.2,-54.6 -16.2,-22.8 -25.1,-46.3 -36.5,-78.7 -11.4,-32.4 -25.4,-74 -32.4,-100 -7.3,-25.7 -7.9,-35.9 -12.1,-37.8 -4.1,-1.6 -12,5.4 -20.6,19.1 -8.2,13.6 -17.1,33.6 -24.4,36.5 -7.3,3.1 -12.7,-10.8 -14.6,-36.2 -1.9,-25.4 0,-62.5 14.6,-98.1 14.6,-35.6 42.2,-70.2 68.5,-92.4 26.1,-22.2 50.8,-32 65.4,-37.7 14.6,-6.1 19.4,-7.7 19.4,1.2 0,8.6 -4.8,28.3 -7.9,39.7 -3.2,11.4 -5.1,14.9 4.4,12.1 9.5,-2.9 30.5,-11.8 52.4,-18.5 21.6,-6.9 44.1,-11.4 65,-17.7 21.3,-6.4 41.6,-14.3 54.7,-15.3 13,-0.9 19,5.1 31.1,2.3 12,-3.2 30.4,-15.3 46.6,-24.2 16.5,-8.9 30.8,-14.6 48.3,-16.5 17.1,-1.6 37.1,0 49.5,-10.4 12.4,-10.8 17.1,-34.3 8.6,-52.1 -8.3,-18.1 -29.9,-30.8 -48.6,-44.8 -19.1,-14.3 -35.2,-30.1 -36.8,-53.6 -1.3,-23.8 12.3,-54.9 28.8,-80.6 16.6,-25.7 36.2,-45.7 54.6,-54.6 18.8,-8.9 36.6,-6.7 45.4,9.8 8.9,16.2 8.9,46.7 23.5,69.2 14.3,22.9 43.2,37.8 66.4,45.1 23.1,7.6 40.3,7.6 43.8,-2.2 3.5,-9.6 -6.7,-28.6 -15.3,-49.2 -8.8,-21 -15.8,-43.2 -19.6,-66.7 -4.2,-23.2 -5.1,-47.6 6,-79.7 11.1,-32.4 34,-72.3 44.4,-95.5 10.8,-23.2 9.6,-29.2 -3.8,-27 -13.3,2.2 -38.4,12.4 -69.2,36.8 -30.8,24.5 -67.3,63.2 -92.7,86.7 -25.4,23.2 -40,31.1 -52,35.2 -12.1,4.5 -21.9,4.8 -28.9,-2.8 -7,-7.7 -11.1,-23.5 -15.2,-48.3 -3.9,-24.8 -7.7,-58.4 -4.5,-94.6 3.2,-36.2 13.7,-74.9 32.1,-103.1 18.7,-28.6 46,-46.7 77.1,-58.8 31.4,-11.7 66.7,-17.4 98.1,-17.4 31.7,0 59,5.7 83.8,14.6 24.7,9.2 46.7,21.9 53.6,35.2 7,13.7 -0.9,27.9 -9.2,42.5 -8.5,14.6 -17.1,28.9 -20.6,37.8 -3.2,8.9 -1,12.1 5.7,11.4 6.4,-0.6 17.2,-5.4 41,-14.6 23.4,-9.5 59.6,-23.4 83.8,-30.7 24.1,-7.7 35.8,-8.6 52.3,-3.5 16.5,5.3 38.1,16.5 58.1,23.4 20.3,7 39.7,9.9 61.3,23.9 21.6,13.9 46,39 62.5,60.6 16.5,21.6 25.4,39 28,60.9 2.5,21.6 -1,47.3 -4.5,62.6 -3.2,15.2 -6,19.6 0,22.2 6,2.5 21,3.2 49.5,2.5 28.6,-0.6 70.5,-2.5 126.1,12.7 55.5,15.6 124.4,48.3 166.9,79.4 42.6,31.4 58.4,61.2 68.3,91.1 10.1,29.8 14.2,59.7 16.8,79.3 2.5,20 3.5,29.9 4.7,59.4 1.3,29.5 2.6,79 -3.4,117.4 -6.1,38.8 -19.7,66.1 -28.6,89.9 -9.2,23.8 -14,43.8 -21.3,43.5 -7.6,-0.4 -17.8,-21.6 -25.4,-51.5 -7.3,-29.8 -12,-68.5 -26,-100.3 -14,-32 -37.1,-57.1 -69.8,-65.7 -32.7,-8.2 -75,0 -96.8,46.7 -22,46.6 -23.9,131.7 -7.4,189.8 16.2,58.1 50.8,89.2 93.1,112 42.2,22.9 92,37.5 132.6,56.9 40.7,19.7 72.1,44.4 88,67.9 15.8,23.2 16.2,45.1 20.6,87 4.4,42.2 12.7,104.1 0.6,160 -12,55.8 -44.7,105 -66.9,137.1 -22.6,32.1 -34.6,46.3 -37.2,65.7 -2.5,19.1 4.5,42.9 18.7,69.5 14.6,27 36.5,56.8 54.3,86.7 17.8,29.8 31.1,59.7 36.8,92 5.4,32.4 3.2,67.6 -3.8,104.8 -6.9,37.4 -18.7,77.1 -41.5,113.3 -22.9,36.2 -56.9,68.9 -86.7,92.4 -29.8,23.5 -55.6,38.1 -85.1,46.6 -29.2,8.6 -62.5,11.5 -93.9,11.8 -31.5,0.6 -61.3,-1.3 -83.8,-4.5 -22.9,-2.8 -38.1,-7.3 -37.2,-10.8 1,-3.8 18.1,-6.9 41,-17.7 22.8,-10.8 51.4,-28.9 75.5,-45.7 24.5,-16.9 44.5,-32.4 65.7,-54 21.3,-21.6 43.5,-49.8 56.5,-78.4 13.1,-28.6 16.9,-58.1 19.4,-82.5 2.2,-24.5 3.2,-44.2 -6.7,-42.3 -9.8,1.9 -30.4,25.1 -62.8,42.9 -32.4,17.8 -76.8,29.8 -121.6,36.5 -45.1,6.3 -90.8,7.3 -133,4.8 -42.2,-2.6 -80.9,-8.6 -108.9,-15.9 -28.2,-7.3 -45.4,-15.6 -42.5,-22.9 3.2,-7.3 26.7,-13.3 59,-22.5 32.4,-9.2 74,-21.9 108.9,-37.5 34.9,-15.2 63.5,-33.6 85.7,-55.5 21.9,-21.9 37.8,-47.6 49.2,-71.4 11.4,-24.2 18.7,-46.4 6.4,-60.3 -12.1,-13.7 -43.2,-18.8 -89.9,-25.8 -46.3,-6.9 -107.9,-15.8 -159.6,-27.2 -51.8,-11.5 -94,-25.8 -134.3,-43.9 -40.6,-18.1 -80,-40.6 -128.6,-58.7 -48.5,-18.1 -106.3,-32 -158.4,-31.7 -52,0.3 -98,15.2 -126.9,30.5 -28.6,15.2 -39.7,30.7 -36.9,43.1 2.6,12.7 19.4,22.6 40,32.4"
         style="fill:#ff532b;fill-opacity:1;fill-rule:evenodd;stroke:none"
         id="path6528"
         transform="matrix(0.13333333,0,0,-0.13333333,0,2933.3333)" />
      <path
         d="m 17524.6,20300.3 c -25.1,14.9 -45.7,29.8 -87.6,60.6 -41.9,30.8 -105.4,77.5 -164.1,119.7 -59,42.5 -113,80.9 -161.2,116.2 -48,35.5 -89.9,68.2 -105.4,85.1 -15.3,16.8 -4.2,17.7 15.5,12.6 19.4,-5.3 47.6,-16.5 80.3,-37.7 32.4,-21.6 69.9,-53.4 126.7,-99.7 57.1,-46 133.6,-106.7 197.1,-155.2 63.5,-48.6 113.6,-85.1 154,-117.5 40,-32.7 69.8,-61.6 73,-66 3.4,-4.1 -20,16.5 -46.7,34.3 -26.3,17.4 -56.2,32.7 -81.6,47.6"
         style="fill:#feda3b;fill-opacity:1;fill-rule:evenodd;stroke:none"
         id="path6530"
         transform="matrix(0.13333333,0,0,-0.13333333,0,2933.3333)" />
      <path
         d="m 16926.6,20744.7 c -17.5,10.5 -42.9,24.1 -64.5,34.9 -21.5,10.8 -40,18.7 -51.4,29.2 -11.7,10.8 -16.8,24.5 -17.1,33.3 -0.3,8.9 4.4,13.1 15.5,12.1 11.1,-0.9 28.9,-7 42.9,-15.2 13.6,-8.6 23.5,-19.4 38.7,-35.3 14.9,-15.8 35.6,-36.8 48.6,-51.7 13,-14.9 18.7,-23.8 16.5,-24.4 -1.9,-0.7 -11.8,6.6 -29.2,17.1"
         style="fill:#feda3b;fill-opacity:1;fill-rule:evenodd;stroke:none"
         id="path6532"
         transform="matrix(0.13333333,0,0,-0.13333333,0,2933.3333)" />
      <path
         d="m 18522.6,20506.3 c -7.9,101.6 -24.7,279.7 -34.6,407.3 -9.8,127.3 -12.7,203.8 -13.6,261.2 -1,57.5 0,95.6 5,116.2 5.4,20.6 14.6,23.2 22.9,-21.6 8.6,-44.8 15.9,-137.1 20.3,-219.3 4.1,-81.9 5.1,-154 6,-232.7 1,-78.7 1.9,-164.8 1.9,-243.2 0,-78.4 -0.9,-149.2 -0.9,-172 0,-22.9 0.9,2.2 -7,104.1"
         style="fill:#feda3b;fill-opacity:1;fill-rule:evenodd;stroke:none"
         id="path6534"
         transform="matrix(0.13333333,0,0,-0.13333333,0,2933.3333)" />
      <path
         d="m 19383.8,20412 c 58.7,47 159.7,122.6 267.9,197.2 108.2,74.9 223.8,148.5 296.2,183.1 72.3,34.3 101.2,29.9 107.9,19.1 6.3,-10.8 -9.5,-27.7 -66.7,-65.4 -57.4,-37.8 -156.5,-96.5 -251.1,-152.1 -94.9,-55.5 -185.3,-107.9 -259,-151.7 -73.6,-43.8 -130.8,-79.4 -150.8,-87.6 -20,-8.6 -3.1,10.1 55.6,57.4"
         style="fill:#feda3b;fill-opacity:1;fill-rule:evenodd;stroke:none"
         id="path6536"
         transform="matrix(0.13333333,0,0,-0.13333333,0,2933.3333)" />
      <path
         d="m 17987.7,19084.2 c -37.1,-27.6 -90.4,-68.2 -149.8,-119.3 -59,-50.8 -124.4,-111.8 -178.4,-165.7 -53.9,-54 -96.2,-100.6 -121.9,-128.6 -25.4,-27.9 -33.6,-37.4 -16.5,-26.3 17.5,10.8 60.3,42.2 109.9,83.1 49.2,40.7 105.3,91.1 163.4,143.8 58.1,52.7 118.1,108 160.6,148.3 42.3,40.6 66.4,66.9 82.3,84.7 15.8,18.1 23.1,28 16.2,25.4 -7,-2.8 -28.3,-17.7 -65.8,-45.4"
         style="fill:#feda3b;fill-opacity:1;fill-rule:evenodd;stroke:none"
         id="path6538"
         transform="matrix(0.13333333,0,0,-0.13333333,0,2933.3333)" />
      <path
         d="m 17585.2,19050.3 c -54.9,-41.3 -89.1,-74.9 -109.5,-95.6 -20.3,-20.6 -26.9,-27.9 -18.7,-27.3 8.3,0.7 31.1,9.5 70.2,33.4 39.3,23.8 94.9,62.5 141.9,96.1 47.2,33.7 86,61.9 119.6,90.5 34,28.6 62.9,56.8 79.1,73.6 16.5,16.6 20.3,21.3 5.4,14 -15.3,-7.3 -48.6,-26.3 -103.2,-60.3 -54.6,-34.3 -130.2,-82.8 -184.8,-124.4"
         style="fill:#feda3b;fill-opacity:1;fill-rule:evenodd;stroke:none"
         id="path6540"
         transform="matrix(0.13333333,0,0,-0.13333333,0,2933.3333)" />
      <path
         d="m 17283.4,18800.8 c -8.6,0 -18.4,-1 -32.7,-10.5 -14,-9.2 -32.4,-27.3 -42.2,-38.7 -9.9,-11.2 -11.5,-15.9 -7.7,-16.5 4.2,-0.4 14,3.5 31.8,10.4 17.8,7 43.5,17.2 56.8,26.7 13.3,9.2 14.6,17.5 11.8,22.5 -2.9,4.8 -9.6,5.7 -17.8,6.1"
         style="fill:#feda3b;fill-opacity:1;fill-rule:evenodd;stroke:none"
         id="path6542"
         transform="matrix(0.13333333,0,0,-0.13333333,0,2933.3333)" />
      <path
         d="m 19585,18312.6 c -28.8,17.4 -71.4,48.2 -132.6,100 -61.3,51.7 -141.6,124.7 -203.5,184.7 -62.2,60.3 -106,107.9 -146,151.1 -39.7,43.5 -75.9,82.8 -90.8,101.3 -15.3,18.4 -9.9,15.8 38.7,-24.5 48.6,-40.3 140,-118.7 217.5,-187 77.1,-67.9 139.9,-125.7 186.6,-167.2 46.7,-41.6 77.1,-66.7 103.8,-91.1 26.3,-24.2 49.2,-47.6 62.8,-62.9 13.7,-15.5 17.8,-22.8 12.4,-24.4 -5.4,-1.9 -20.3,2.5 -48.9,20"
         style="fill:#feda3b;fill-opacity:1;fill-rule:evenodd;stroke:none"
         id="path6544"
         transform="matrix(0.13333333,0,0,-0.13333333,0,2933.3333)" />
      <path
         d="m 19276.5,19658.8 c 114.3,25.4 321.9,67 451.1,92.4 129.2,25 180.3,33.9 210.1,38.7 29.8,4.4 38.7,5 43.2,3.5 4.7,-1.3 5.4,-4.5 -16.2,-15 -21.6,-10.4 -64.8,-28.2 -134,-46 -68.9,-17.8 -163.8,-35.5 -257.4,-52.7 -93.3,-17.4 -185.7,-34.3 -263.5,-46.6 -77.7,-12.7 -140.6,-21 -169.8,-23.5 -29.2,-2.2 -24.4,1.6 -11.7,7.9 13,6.7 33.9,15.9 148.2,41.3"
         style="fill:#feda3b;fill-opacity:1;fill-rule:evenodd;stroke:none"
         id="path6546"
         transform="matrix(0.13333333,0,0,-0.13333333,0,2933.3333)" />
      <path
         d="m 17669.4,20083.2 c 17.1,25.7 44.1,76.8 67.9,117.1 24.1,40.6 45.1,69.8 62.2,94.9 17.2,25.4 30.2,46.4 29.5,58.4 -0.3,12.1 -14.3,15.6 -32,13.4 -17.8,-1.9 -39.4,-9.6 -56.9,-18.8 -17.7,-8.9 -31.7,-19.7 -45,-36.5 -13,-16.8 -25.1,-39.7 -35.3,-63.8 -9.8,-23.8 -17.7,-49.2 -22.2,-72 -4.4,-22.9 -5.4,-43.5 -4.7,-62.9 0.6,-19.3 3.1,-37.4 7.6,-46.3 4.7,-9.2 11.7,-9.2 28.9,16.5"
         style="fill:#ffb72f;fill-opacity:1;fill-rule:evenodd;stroke:none"
         id="path6548"
         transform="matrix(0.13333333,0,0,-0.13333333,0,2933.3333)" />
      <path
         d="m 17682.7,19460.1 c -6,26 -13,46 -16.2,71.4 -3.2,25.4 -2.8,56.2 -5.7,71.4 -2.5,15.2 -8.9,14.6 -16.8,7 -8,-7.6 -17.5,-22.5 -25.7,-39.1 -8.3,-16.1 -14.6,-33.9 -18.1,-53.3 -3.2,-19.3 -3.2,-40.3 0.3,-60.6 3.5,-20.3 10.5,-40 21.9,-59.4 11.4,-19.6 27.3,-39.3 44.4,-54.6 16.9,-14.9 35.3,-25.7 54,-32.3 18.4,-6.4 37.8,-8.9 39.3,-3.8 2,4.7 -13.3,16.8 -26.6,28.5 -13.3,11.8 -24.5,22.9 -32.4,44.8 -7.9,21.6 -12.7,53.6 -18.4,80"
         style="fill:#ffb72f;fill-opacity:1;fill-rule:evenodd;stroke:none"
         id="path6550"
         transform="matrix(0.13333333,0,0,-0.13333333,0,2933.3333)" />
      <path
         d="m 17827.8,20111.4 c -12.1,-15.8 -29.6,-34.9 -47.3,-59.3 -18.1,-24.5 -36.9,-54.3 -44.8,-81.9 -7.9,-27.6 -5.1,-52.7 -0.3,-74.9 4.7,-22.3 11.1,-41.3 22.8,-58.4 11.8,-17.5 28.6,-32.7 41.6,-47.7 13,-14.6 22.3,-28.5 28,-40.6 5.7,-11.7 7.3,-21.6 5.4,-36.5 -2.3,-14.9 -8.3,-34.9 -15.3,-54.6 -7,-19.7 -14.9,-38.7 -13.6,-64.1 1.6,-25.4 12.4,-57.1 28.9,-100 16.5,-43.2 39,-97.1 56.8,-132.1 18.1,-34.6 31.4,-50.1 48.2,-65.4 16.8,-15.5 36.8,-30.7 47.3,-50.7 10.8,-19.7 11.5,-43.8 9.9,-65.4 -1.9,-21.6 -6.7,-40 0,-62.9 6.3,-23.1 24.1,-50.1 41.5,-70.4 17.5,-20.7 35,-34.6 56.2,-48.6 21.6,-13.7 47.3,-27.3 70.2,-33.7 22.8,-6.6 42.8,-6 59.7,-3.8 16.8,2.3 30.1,6.7 40.9,2.9 10.8,-3.8 18.7,-15.6 43.2,-33 24.4,-17.5 65.7,-40.6 93.3,-53.7 27.9,-13.3 42.2,-15.8 68.6,-15.2 26,0.6 63.8,4.8 93,15.9 29.2,11.4 49.5,29.5 60.3,48.5 10.8,19.4 11.7,39.4 8.2,61 -3.5,21.6 -11.4,45.1 -11.1,54.6 0,9.5 8.6,5.4 25.4,-0.7 17.2,-6 42.9,-13.9 75.9,-11.1 33.3,2.6 73.9,16.2 111.1,37.8 37.4,21.9 71.4,51.8 93.9,96.8 22.9,45.1 34,105.1 37.8,150.2 3.5,45 0,74.9 -12.4,106 -12.3,30.8 -33.3,63.2 -40,79 -6.6,15.9 1.3,15.3 15.6,14.3 14.3,-1.3 34.9,-3.2 58.7,-1.6 24.2,1.6 51.8,7 77.5,24.5 25.7,17.7 49.5,48.2 63.5,86 13.9,37.8 18.1,83.2 10.4,118.7 -7.3,35.6 -26.3,61.9 -40.9,77.1 -14.3,15.6 -24.1,20 -28.9,23.9 -4.8,3.8 -4.1,6.6 -5.4,31.7 -1.3,25.4 -3.8,72.7 -15.9,110.8 -11.7,37.7 -33,65.7 -54.6,83.8 -21.5,18.1 -44.1,26.6 -60.3,31.4 -16.5,5.1 -26.6,6.4 -32,8.9 -5.4,2.5 -5.8,6.3 -3.8,26 2.2,19.7 6.9,54.9 -2,87.3 -8.5,32.1 -30.4,61 -54.6,80.3 -24.4,19.4 -51.1,29.2 -82.2,36.8 -31.1,8 -67.3,13.4 -94.6,12.7 -27.6,-0.6 -46.6,-7.6 -64.1,-16.2 -17.8,-8.2 -33.6,-18 -43.1,-23.1 -9.9,-5.1 -13.7,-5.7 -28.3,-3.2 -14.9,2.2 -40.6,7.3 -71.4,6.4 -31.1,-1 -67.6,-8 -98.7,-20.7 -31.5,-12.4 -57.5,-30.8 -80,-54.3 -22.9,-23.5 -41.9,-52.3 -53.7,-71.7 -12,-19.4 -16.5,-29.2 -25.1,-30.8 -8.2,-1.6 -20.6,4.8 -44.1,18.1 -23.5,13.3 -58.4,33.3 -93,42.9 -34.6,9.2 -68.5,7.9 -102.8,-2 -34.3,-9.8 -68.9,-27.9 -89.5,-43.1 -21,-15.3 -28,-27.3 -40,-42.9"
         style="fill:#ffb72f;fill-opacity:1;fill-rule:evenodd;stroke:none"
         id="path6552"
         transform="matrix(0.13333333,0,0,-0.13333333,0,2933.3333)" />
      <path
         d="m 18715,20572 c -11.1,2.2 -20,4.5 -18.4,10.5 1.5,6 13.6,15.9 40,26 26,9.9 66,20.3 96.5,26.7 30.1,6 50.7,8.6 70.4,5.4 19.7,-2.9 38.1,-11.4 58.1,-30.2 19.7,-18.4 40.6,-47.6 54.6,-74.6 14.3,-27 21.3,-52 24.8,-80 3.5,-27.6 3.5,-58.1 -1,-77.7 -4.1,-20 -12.4,-29.2 -18.7,-27.3 -6.4,2.2 -10.5,15.8 -25.1,41.6 -14.3,25.3 -39,63.1 -67.6,92 -28.6,28.6 -60.6,48.3 -90.5,60.3 -29.8,12.1 -57.4,16.8 -77.7,20 -20.7,3.5 -34.3,5.4 -45.4,7.3"
         style="fill:#ffb72f;fill-opacity:1;fill-rule:evenodd;stroke:none"
         id="path6554"
         transform="matrix(0.13333333,0,0,-0.13333333,0,2933.3333)" />
      <path
         d="m 19275.2,19268.7 c 12.4,11.7 35.3,31.4 49.2,51.1 13.7,19.6 18.4,39 23.8,65.4 5.8,26.3 12.4,59.6 19.4,98.7 7.3,39.3 15.2,84.4 19.7,119 4.4,34.6 5.4,58.4 10.1,72.1 5.1,13.3 14,16.5 28.3,12 14,-4.1 33.6,-16.5 52.7,-29.8 18.7,-13.7 37.1,-28.6 50.8,-47 13.6,-18.4 23.1,-40.3 25.7,-67.3 2.5,-26.6 -1.6,-58.4 -10.2,-88.9 -8.2,-30.1 -20.9,-59 -34.9,-84.7 -14,-25.4 -29.5,-47.3 -48.9,-62.2 -19.3,-15 -42.5,-22.9 -63.1,-27.3 -20.7,-4.8 -38.1,-6.4 -56.5,-9.6 -18.8,-3.1 -37.8,-8.2 -51.8,-12.3 -13.9,-3.8 -22.8,-6.7 -26,-6.1 -3.2,0.7 -1,4.8 11.7,16.9"
         style="fill:#ffb72f;fill-opacity:1;fill-rule:evenodd;stroke:none"
         id="path6556"
         transform="matrix(0.13333333,0,0,-0.13333333,0,2933.3333)" />
      <path
         d="m 18804.8,18746.2 c -20.9,-6.1 -48.9,-9.9 -59.4,-16.8 -10.4,-6.7 -3.4,-16.6 3.9,-26.7 7.3,-10.2 14.6,-21 27.9,-31.4 13.3,-10.2 32.4,-20 58.7,-21 26.4,-1.3 60,6 91.4,17.5 31.8,11.4 61,27 83.2,46.6 22.2,20 37.1,44.2 47.6,73.7 10.5,29.5 16.5,63.8 19.1,96.5 2.2,32.3 0.9,62.5 -3.5,78.4 -4.5,15.8 -12.1,17.4 -22.9,11.1 -10.8,-6.4 -24.7,-20.3 -38.7,-37.8 -14.3,-17.1 -28.9,-37.8 -44.8,-58.7 -15.8,-21 -33,-42.5 -52.3,-60.3 -19.4,-18.1 -41,-32.4 -58.5,-44.1 -17.4,-11.8 -31.1,-20.7 -51.7,-27"
         style="fill:#ffb72f;fill-opacity:1;fill-rule:evenodd;stroke:none"
         id="path6558"
         transform="matrix(0.13333333,0,0,-0.13333333,0,2933.3333)" />
      <path
         d="m 18194.7,19829.6 c -0.9,-19.7 -7,-47.7 -9.8,-68.9 -2.6,-21.3 -2.3,-35.6 -5.1,-50.8 -3.2,-15.3 -9.8,-31.1 -14.9,-37.5 -5.4,-6.6 -9.9,-3.8 -15.9,1.6 -6.4,5.4 -14.9,13.3 -21,24.1 -6,10.5 -9.8,24.2 -13.6,30.5 -4.1,6.4 -8.3,5.4 -12.1,-1.6 -4.1,-6.6 -7.9,-19.3 -9.8,-34.3 -2.2,-14.9 -2.5,-32 -1.3,-51.4 1.3,-19.4 4.8,-40.9 16.9,-67.3 12,-26.3 33,-57.4 61.5,-88.9 28.6,-31.7 64.5,-63.4 85.7,-80.9 21.3,-17.5 27.6,-20.6 29.2,-17.1 1.6,3.5 -1.6,13.6 -3.4,32 -2.3,18.4 -3.2,45.1 -0.7,73 2.5,27.6 8.6,56.5 11.8,77.8 2.8,21.3 2.8,34.9 1.9,49.5 -1,14.6 -2.6,30.5 -3.5,41.9 -1,11.4 -1,18.4 2.2,16.5 3.2,-2.2 9.8,-13.3 18.1,-19.3 8.6,-6.1 18.7,-7 28.2,-10.5 9.2,-3.5 17.5,-9.9 22.9,-20 5.4,-10.2 7.9,-24.8 11.7,-36.5 4.2,-12.1 9.6,-21.3 20,-33.7 10.2,-12.4 25.1,-27.9 29.2,-35.8 4.2,-8.3 -2.2,-9.2 -11.1,-6.7 -8.9,2.5 -20,8.6 -29.2,16.5 -9.2,7.9 -16.2,17.8 -23.8,30.5 -7.6,12.7 -16.2,27.9 -18.7,21.6 -2.6,-6.4 0.6,-34.3 5.7,-56.5 4.8,-22 11.4,-38.5 23.2,-50.8 11.4,-12.4 28.2,-20.7 38.4,-30.2 9.8,-9.8 13.3,-20.3 13.6,-28.2 0.7,-7.6 -1.9,-12.4 -7.9,-13.7 -6.4,-1.3 -16.8,0.7 -19,-1.6 -2.3,-2.2 3.1,-8.2 8.5,-15.5 5.4,-7 10.5,-15.6 12.1,-21.9 1.3,-6.7 -1,-11.5 -6.7,-13.7 -5.7,-2.2 -14.3,-2.2 -17.4,-5.4 -3.2,-3.1 -0.4,-9.2 1.5,-16.2 2,-6.9 2.9,-14.9 -11.1,-20.6 -13.9,-5.7 -42.8,-9.5 -51.7,-14.3 -8.6,-4.7 3.2,-10.1 22.5,-14.9 19.4,-4.8 46.4,-8.2 69.9,-11.1 23.1,-2.9 42.8,-4.8 62.8,-5.1 20,-0.6 40.6,0.3 66.4,10.8 25.7,10.5 56.5,30.5 74.9,59.7 18.4,28.9 24.4,66.6 24.7,86.6 0.7,20 -4.4,22.6 -12.7,18.5 -8.2,-3.9 -19.3,-14.3 -35.2,-22.6 -15.9,-7.9 -36.5,-14 -51.4,-15.9 -15.3,-1.9 -25.1,0.4 -22.9,5.1 2.6,4.8 16.8,11.8 27,21.3 9.8,9.5 15.6,21.6 15.9,30.5 0.3,8.9 -5.1,14.6 -5.1,20 -0.3,5 4.4,10.4 4.1,15.8 -0.3,5.1 -5.4,10.8 -7.9,16.9 -2.5,6 -2.5,12.7 3.8,21.9 6.7,8.9 19.7,20.6 29.5,35.5 9.9,14.9 16.2,33 21.6,49.8 5.1,16.9 8.9,32.4 11.4,40.4 2.6,7.9 3.8,8.2 7.7,-4.5 3.8,-12.4 9.8,-38.1 10.7,-59 1.3,-21 -2.5,-37.5 -9.5,-51.8 -7,-13.9 -17.1,-26.3 -24.4,-34.6 -7.3,-8.5 -11.4,-13 -3.8,-13 7.3,0 26.3,4.5 47,12.1 20.6,7.3 42.5,17.7 66,38.4 23.5,20.9 48.9,52 62.2,86 13.6,34.3 15.5,71.1 12.7,95.9 -2.9,24.7 -10.2,37.1 -17.2,50.4 -6.6,13.4 -12.6,27.3 -20.6,40.7 -7.9,13.3 -17.8,26 -27.6,37.4 -9.8,11.5 -19.7,21.6 -38.4,29.6 -19.1,7.9 -47,13.6 -67,18.4 -20,4.7 -32,9.2 -33.6,5.7 -1.3,-3.2 7.9,-14 14.6,-25.1 6.9,-11.1 11.1,-22.8 9.2,-28.6 -1.9,-6 -9.9,-6 -22.2,-2.5 -12.4,3.2 -29.3,9.5 -46.4,13 -17.1,3.2 -34.9,3.2 -54.3,0 -19.3,-2.8 -40.3,-8.9 -57.1,-12.4 -16.5,-3.5 -28.6,-4.4 -34.3,-0.6 -5.4,3.5 -4.4,12.1 1.9,21.9 6.7,9.8 18.7,21 35.2,29.5 16.2,8.6 36.9,14.6 55,19.1 18.1,4.1 33.9,6.3 29.8,7.6 -4.1,0.9 -28.6,0.9 -48.3,0.3 -20,-1 -35.2,-2.9 -48.8,-4.8 -14,-1.9 -26.1,-3.8 -35,-5 -8.8,-1 -14.2,-1.6 -16.1,3.1 -1.6,4.8 0.9,14.3 10.1,24.2 9.2,9.8 25.7,19.6 43.2,27.3 17.4,7.2 36.2,12.3 49.8,14.9 14,2.5 22.9,2.5 14.9,6 -7.6,3.8 -31.7,10.8 -46.6,14.6 -14.9,4.1 -20.7,4.8 -31.8,6.7 -11.4,1.9 -28.2,4.7 -49.2,8.2 -20.9,3.5 -46,7.6 -63.8,4.2 -17.7,-3.9 -27.9,-15.6 -40.9,-25.8 -13.3,-9.8 -29.2,-18.4 -41,-27.9 -12,-9.8 -20,-21.3 -28.5,-32.4 -8.6,-11.1 -17.8,-22.2 -18.8,-34.6 -0.9,-12.3 6.4,-26 12.4,-38.4 5.7,-12.4 9.9,-23.5 8.9,-43.1"
         style="fill:#feda3b;fill-opacity:1;fill-rule:evenodd;stroke:none"
         id="path6560"
         transform="matrix(0.13333333,0,0,-0.13333333,0,2933.3333)" />
      <path
         d="m 16616.8,20980.2 c -8.6,-3.5 -20.3,-5 -31.1,-3.1 -10.8,1.9 -21,7.3 -25.7,17.1 -5.1,9.5 -4.8,23.2 -1.3,34 3.2,10.4 9.8,18.1 20.6,21.9 10.8,3.8 25.7,4.1 36.2,-0.7 10.5,-4.4 16.2,-13.9 19.1,-24.1 2.8,-10.2 2.2,-20.6 -0.7,-28.2 -2.8,-8 -8.2,-13.4 -17.1,-16.9"
         style="fill:#962934;fill-opacity:1;fill-rule:evenodd;stroke:none"
         id="path6562"
         transform="matrix(0.13333333,0,0,-0.13333333,0,2933.3333)" />
      <path
         d="m 16632.3,20964.7 c -6,-3.5 -15.5,-5.1 -24.1,-3.5 -8.6,1.6 -16.5,6 -21.9,13.3 -5.4,7.6 -8.3,18.1 -7.3,26.4 0.6,8.5 5.1,14.6 11.7,17.4 6.7,2.9 15.3,2.2 24.2,-1.3 9.2,-3.1 18.7,-9.5 23.8,-15.8 5.1,-6.7 5.4,-13.7 4.1,-20 -1.3,-6.7 -4.1,-12.7 -10.5,-16.5"
         style="fill:#feda3b;fill-opacity:1;fill-rule:evenodd;stroke:none"
         id="path6564"
         transform="matrix(0.13333333,0,0,-0.13333333,0,2933.3333)" />
      <path
         d="m 16598.7,20985.6 c 10.8,0 19.7,8.9 19.7,19.7 0,11.1 -8.9,20 -19.7,20 -10.8,0 -19.7,-8.9 -19.7,-20 0,-10.8 8.9,-19.7 19.7,-19.7"
         style="fill:#fbf5df;fill-opacity:1;fill-rule:evenodd;stroke:none"
         id="path6566"
         transform="matrix(0.13333333,0,0,-0.13333333,0,2933.3333)" />
      <path
         d="m 20312.9,20948.8 c -8.3,-6.4 -20.9,-15.2 -34.6,-19.7 -13.7,-4.1 -28.2,-3.8 -34,2.9 -5.4,6.3 -2.2,19 5.1,32.7 7.6,13.3 19.4,27.9 32.1,33.3 12.7,5.7 26.3,2.2 34.3,-5.1 8.2,-7.6 10.8,-19 10.1,-26.6 -0.6,-7.7 -4.7,-11.1 -13,-17.5"
         style="fill:#feda3b;fill-opacity:1;fill-rule:evenodd;stroke:none"
         id="path6568"
         transform="matrix(0.13333333,0,0,-0.13333333,0,2933.3333)" />
      <path
         d="m 20291,21006.3 c -3.8,-1 -10.8,-2.6 -17.5,-6.7 -6.6,-4.1 -13.6,-10.5 -18.1,-17.5 -4.4,-7.3 -6.3,-15.2 -7.3,-20.9 -1.2,-6 -0.9,-9.9 2.3,-12.7 3.1,-2.6 9.8,-4.1 15.5,-5.4 6.1,-1.3 11.5,-2.2 17.8,-2.5 6.3,-0.4 13.3,0.3 19.7,1.8 6,2 11.4,4.5 15.5,8.3 4.2,3.8 7,8.6 8.6,14 1.3,5.4 1.3,11.4 0.6,16.2 -0.9,5 -2.2,8.9 -5,12.3 -2.6,3.9 -6.4,7 -10.2,9.2 -3.8,2.6 -7.6,3.9 -10.5,4.5 -2.8,0.3 -4.7,0.3 -6,0.3 -1,0 -1.9,0 -5.4,-0.9"
         style="fill:#962934;fill-opacity:1;fill-rule:evenodd;stroke:none"
         id="path6570"
         transform="matrix(0.13333333,0,0,-0.13333333,0,2933.3333)" />
      <path
         d="m 20276.1,20980.2 c -3.8,-3.8 -5.7,-9.2 -5.7,-13.9 0.3,-5.1 2.5,-9.9 5.7,-13.4 2.8,-3.1 7,-4.7 12.7,-5 5.7,0 13.3,1.2 18.7,4.7 5.7,3.8 9.2,9.5 10.8,14.6 1.6,4.8 1.6,8.9 -0.3,11.8 -2.2,2.8 -6,4.4 -10.8,5.7 -4.5,1.2 -10.2,1.9 -15.9,1.6 -5.7,-0.7 -11.1,-2.6 -15.2,-6.1"
         style="fill:#fbf5df;fill-opacity:1;fill-rule:evenodd;stroke:none"
         id="path6572"
         transform="matrix(0.13333333,0,0,-0.13333333,0,2933.3333)" />
      <path
         d="m 19848.2,18059.9 c -7.3,5.4 -14.6,12.7 -17.8,23.8 -3.2,11.4 -2.2,26 1.3,32.4 3.5,6.6 9.2,4.7 20.9,2.5 11.8,-2.5 29.5,-5.4 40.3,-11.1 11.2,-5.4 15.3,-14 15.3,-22.5 -0.3,-8.9 -4.8,-18.1 -11.8,-23.8 -6.9,-6.1 -16.8,-8.9 -25.4,-8.9 -8.5,0 -15.5,2.5 -22.8,7.6"
         style="fill:#feda3b;fill-opacity:1;fill-rule:evenodd;stroke:none"
         id="path6574"
         transform="matrix(0.13333333,0,0,-0.13333333,0,2933.3333)" />
      <path
         d="m 19900.9,18085 c -2.2,8.2 -6.7,15.8 -12.4,20.6 -6,4.8 -14,6.3 -22.2,6 -8.6,-0.3 -17.2,-2.8 -23.8,-7.9 -6.4,-4.8 -10.5,-12.4 -10.8,-20 -0.3,-7.6 3.2,-15.2 6,-20.3 3.2,-5.1 5.7,-8 10.2,-10.8 4.4,-2.5 10.8,-5.1 17.7,-6 7,-0.7 14.3,0 21,2.5 6.7,2.2 12.1,5.7 14.6,12.1 2.5,6.3 1.9,15.5 -0.3,23.8"
         style="fill:#962934;fill-opacity:1;fill-rule:evenodd;stroke:none"
         id="path6576"
         transform="matrix(0.13333333,0,0,-0.13333333,0,2933.3333)" />
      <path
         d="m 19876.4,18086.6 c -0.6,-4.5 -3.5,-9.9 -6.9,-13.7 -3.5,-3.8 -8.3,-5.7 -13.4,-5.1 -5.1,0.7 -10.8,3.8 -13.9,8.9 -3.5,5.4 -4.8,12.4 -3.2,18.4 1.6,6.1 5.4,11.1 9.5,13.4 4.1,2.2 7.9,1.9 12.4,-0.7 4.4,-2.2 9.5,-6.3 12.7,-9.8 2.8,-3.8 3.8,-7 2.8,-11.4"
         style="fill:#fbf5df;fill-opacity:1;fill-rule:evenodd;stroke:none"
         id="path6578"
         transform="matrix(0.13333333,0,0,-0.13333333,0,2933.3333)" />
      <path
         d="m 16892.6,18405.6 c -3.8,2.8 -8.5,8.5 -9.5,15.5 -1.3,6.7 1,14.9 8.2,19.7 7,4.8 19.1,6.4 26.4,4.5 7.6,-1.6 10.5,-6.7 11.1,-12.7 0.3,-6.4 -1.9,-13.7 -6.3,-19.1 -4.8,-5.4 -12.1,-8.6 -17.2,-10.1 -5.4,-1.3 -8.6,-1 -12.7,2.2"
         style="fill:#feda3b;fill-opacity:1;fill-rule:evenodd;stroke:none"
         id="path6580"
         transform="matrix(0.13333333,0,0,-0.13333333,0,2933.3333)" />
      <path
         d="m 16877.7,18394.5 c -4.4,3.1 -9.5,9.2 -10.8,16.8 -1.3,7.3 1.3,16.2 8.9,21.3 7.9,5 20.6,6.6 28.6,4.7 8.2,-1.9 11.4,-7.3 11.7,-14 0.6,-6.6 -1.6,-14.5 -6.7,-20.3 -5,-5.7 -12.7,-9.2 -18.4,-10.8 -5.7,-1.5 -9.2,-0.9 -13.3,2.3"
         style="fill:#962934;fill-opacity:1;fill-rule:evenodd;stroke:none"
         id="path6582"
         transform="matrix(0.13333333,0,0,-0.13333333,0,2933.3333)" />
      <path
         d="m 16898.3,18405.3 c -1.9,0.9 -5.4,3.1 -7,6.9 -1.9,3.8 -2.2,9.2 -1.2,13.7 1.2,4.1 3.5,7.3 6,9.5 2.9,2.2 6.4,3.2 9.5,2.9 3.2,0 6.1,-1.6 8.6,-3.8 2.2,-1.9 4.1,-4.8 4.8,-8 0.9,-3.5 0.3,-7.3 -1,-11.1 -1.3,-3.8 -3.2,-7 -6,-8.9 -2.6,-1.9 -6.4,-2.2 -8.6,-2.2 -2.2,0 -2.8,0 -5.1,1"
         style="fill:#fbf5df;fill-opacity:1;fill-rule:evenodd;stroke:none"
         id="path6584"
         transform="matrix(0.13333333,0,0,-0.13333333,0,2933.3333)" />
   </g>
</svg>
