<?xml version="1.0" encoding="UTF-8" standalone="no"?>
<svg
   xmlns="http://www.w3.org/2000/svg"
   width="700"
   height="700"
   viewBox="0 0 700 700"
>
   <g
      id="g4"
      transform="translate(-773.32271,-576.59761)"
      style="display:inline;opacity:1">
      <path
         d="m 9294.29,15812.2 958.51,583.1 -814.45,-761.4 -491.75,-245.6 z m -1677.34,-552.2 -593.55,376.3 -766.94,785.5 969.62,-643.9 z m -1340.74,-1856.3 1258.68,728.4 286.92,305.4 -389.95,-175.8 z m 1983.67,4017.3 76.19,-655.6 -59.54,-319.6 -106.43,394.3 z m 918.72,-3776.7 840,-557.7 -718.45,718.2 -644.46,424.5 522.91,-585"
         style="fill:#ff532b;fill-opacity:1;fill-rule:evenodd;stroke:none"
         id="path6356"
         transform="matrix(0.13333333,0,0,-0.13333333,0,2933.3333)" />
      <path
         d="m 7542.6,15022.7 c -8.94,9.6 -15.11,15.8 -27.14,16.4 -12.03,0.3 -29.93,-5.3 -49.36,-20.7 -19.44,-15.4 -40.72,-40.7 -53.99,-75.3 -12.95,-34.2 -18.2,-77.7 -16.04,-116 2.16,-37.9 11.1,-70.6 28.69,-95.6 17.89,-25 44.11,-42.3 68.79,-52.8 24.68,-10.1 47.82,-13.8 64.79,-12 16.97,1.9 28.08,9 37.32,20.7 9.26,12 16.98,28.4 18.83,56.1 1.85,27.8 -2.47,67.3 -6.17,100.6 -4.01,33 -7.41,59.8 -12.96,83 -5.55,22.8 -12.64,42.6 -22.21,58.3 -9.57,16 -21.28,28.1 -30.55,37.3 z m -521.98,-172.1 c -44.12,23.1 -123.71,59.2 -197.44,78.3 -73.43,19.2 -140.37,21 -208.55,-7 -67.87,-28.1 -136.98,-86.4 -182.33,-161.7 -45.35,-75.3 -66.94,-167.8 -66.94,-252.1 0,-84.2 21.59,-160.4 59.23,-224.9 37.64,-64.4 91.32,-116.9 139.75,-151.4 48.44,-34.6 92.25,-50.9 134.2,-59 42.27,-8 82.98,-8 125.25,-6.7 42.27,1.2 85.77,4 127.41,16.3 41.65,12.4 81.76,33.9 114.77,50.3 33.01,16.3 59.24,27.1 87.61,29.9 28.08,2.8 58.01,-2.8 87.93,-16.6 29.93,-14.2 59.85,-36.8 76.2,-58.3 16.35,-21.3 18.82,-41.1 17.89,-67.6 -0.61,-26.2 -5.24,-58.9 -23.45,-103.7 -18.2,-45 -49.97,-102.1 -75.58,-178.6 -25.91,-76.8 -45.97,-172.7 -43.81,-262.2 2.47,-89.2 26.84,-171.8 60.78,-226.8 34.24,-54.9 77.74,-82 132.04,-107 54.61,-25 119.69,-47.5 194.97,-57.4 75.28,-10.2 160.73,-7.4 236.01,14.8 75.28,22.2 140.37,63.9 190.34,116.9 49.98,53.1 84.22,117.6 102.43,184.8 18.2,67 20.05,136.7 24.68,179.9 4.32,43.2 11.72,59.5 28.07,78.3 16.35,19.2 41.65,41.1 67.87,55.6 26.22,14.5 53.68,21.6 80.83,29 -39.18,-1.9 -78.05,-3.7 -111.06,-3.1 -33.32,0.3 -60.47,3.1 -78.67,11.7 -17.89,8.6 -27.14,23.1 -25.3,41.4 1.86,17.8 14.5,39.7 31.16,53.6 16.97,14.2 37.64,20.7 58.62,26.9 -44.43,19.1 -88.85,38.2 -133.27,54.6 -44.43,16 -88.85,29.9 -130.2,50.6 -41.34,21 -79.28,49 -126.17,62.6 -46.59,13.6 -101.81,12.6 -139.14,11.4 -37.02,-1.5 -56.14,-3.4 -84.22,2.8 -28.07,5.9 -65.4,19.4 -102.42,33 8.95,-16.4 17.89,-32.7 17.89,-45 0,-12.1 -8.94,-20.4 -26.22,-17.6 -17.28,2.8 -42.58,16.3 -64.48,33 -21.59,16.9 -39.8,36.7 -57.38,60.8 -17.89,24 -34.86,52.1 -48.12,83.6 -13.27,31.1 -22.22,65.7 -31.47,100.2 22.82,-27.4 45.35,-54.6 74.96,-79.6 29.62,-24.7 65.72,-47.5 102.12,-70 -35.48,46 -70.95,92.2 -98.42,140.4 -27.76,48.1 -47.81,98.1 -61.7,143.4 -14.18,45.4 -22.21,86.1 -25.91,118.2 -3.7,32.4 -2.78,55.8 6.79,68.2 9.56,12.3 27.76,12.9 55.83,-4.7 28.08,-17.6 66.34,-54 100.58,-82 34.55,-28.1 65.4,-48.2 102.11,-61.7 36.71,-13.6 79.29,-20.7 107.97,-24.1 28.39,-3.1 42.89,-2.2 57.39,-1.2 21.91,-50.9 43.81,-101.5 71.88,-137 28.07,-35.5 62.63,-55.2 94.09,-70.7 31.78,-15.4 60.78,-26.5 84.54,-27.7 23.44,-1.3 41.64,6.8 59.84,14.8 11.73,-31.5 23.45,-63.2 46.28,-92.9 22.53,-29.3 56.14,-56.7 80.52,-81.1 24.68,-24.4 40.11,-46.3 55.84,-64.5 16.04,-17.9 32.39,-32.7 53.68,-38.6 21.28,-5.8 47.51,-3 73.42,15.5 25.92,18.8 51.21,53 66.02,75.9 15.12,22.5 19.74,33.6 24.07,44.4 24.67,2.8 49.05,5.6 66.63,12.6 17.89,7.4 28.69,19.2 35.17,26 6.17,6.8 8.02,8.6 9.87,10.4 20.98,-22.8 41.65,-45.3 72.5,-63.2 30.85,-17.6 71.57,-30.2 103.04,-23.4 31.16,6.7 53.06,33 74.66,59.2 20.97,-17.9 41.95,-36.1 68.48,-46.9 26.85,-11.1 59.55,-14.5 76.82,-24.1 17.28,-9.5 18.82,-25 17.28,-45.3 -1.85,-20.4 -7.41,-46 -20.98,-68.5 -13.57,-22.8 -35.48,-42.6 -61.09,-63.2 -25.91,-20.4 -55.83,-41.1 -92.54,-59.3 -36.72,-18.2 -80.53,-33.6 -118.47,-43.2 -37.94,-9.5 -70.65,-12.9 -103.35,-16.6 46.27,-2.8 92.55,-5.6 130.5,-14.5 38.26,-9.3 68.18,-24.7 87.92,-44.4 20.06,-20.1 29.92,-44.5 49.05,-94.1 19.13,-49.4 47.2,-123.8 82.99,-172.2 35.79,-48.4 79.29,-71.3 122.48,-89.8 43.19,-18.5 85.76,-33 132.35,-39.5 46.89,-6.4 97.48,-4.6 154.25,12.7 56.76,17.3 119.38,50 161.96,94.7 42.58,45 65.09,102.1 74.66,169.7 9.56,67.6 5.86,145.6 -13.58,213.2 -19.44,67.5 -54.91,124.6 -102.11,163.8 -46.9,38.8 -106.13,59.8 -156.41,70.6 -50.29,10.8 -91.94,11.7 -115.69,19.2 -23.44,7 -29,20.6 -32.08,34.8 -3.09,13.9 -4.01,28.4 -4.94,42.9 -20.98,-26.2 -41.65,-52.5 -58.62,-65.7 -16.66,-13 -29.31,-13 -42.57,-7.1 -12.95,5.8 -26.84,17.6 -31.78,33.6 -4.94,15.7 -1.23,35.8 0.93,54.3 2.46,18.5 3.39,35.8 2.77,49.4 -0.31,13.5 -2.15,23.7 -4,33.6 23.44,18.2 47.2,36.4 69.71,68.5 22.84,32.1 44.44,78.3 53.68,126.2 8.95,47.5 5.25,96.5 0.93,128.6 -4.62,32.1 -10.17,47.5 -15.42,62.9 31.46,31.8 63.24,63.6 82.98,98.1 19.44,34.6 26.54,71.6 30.24,97.8 3.7,26.6 3.7,42 3.7,57.4 33.63,32.4 66.94,65.1 87.92,95 20.98,30 29,57.1 37.33,84.6 21.6,-45.4 43.51,-90.7 70.96,-128.4 27.76,-37.6 61.39,-67.5 88.84,-84.8 27.77,-17.3 49.68,-21.9 71.27,-26.5 -41.65,-17.9 -83.3,-36.1 -113.83,-54.3 -30.24,-18.2 -49.36,-36.1 -71.27,-43.5 -21.6,-7.4 -45.97,-3.7 -71.88,-7.7 -25.91,-4.1 -53.07,-15.8 -74.96,-30.9 -21.6,-14.8 -37.95,-33 -39.5,-44.7 -1.23,-12.1 12.34,-17.3 31.78,-17.9 19.43,-0.3 45.04,4 70.34,8.6 -9.88,-35.5 -20.06,-70.6 -22.21,-107 -2.17,-36.1 3.08,-73.5 -0.93,-105.2 -4.01,-31.8 -17.59,-58 -31.77,-81.5 -13.89,-23.7 -28.38,-44.4 -42.89,-65.4 34.25,20.1 68.8,39.8 96.57,52.1 27.45,12.4 48.42,16.7 70.03,10.9 21.9,-5.9 44.73,-22.3 65.4,-46.3 20.97,-24.1 39.79,-55.6 67.56,-81.2 27.76,-25.3 63.86,-44.4 111.06,-53.3 47.2,-9.3 105.2,-8.4 157.34,3.1 52.13,11.4 98.41,33 137.59,59.8 38.87,26.8 70.64,58.6 88.85,90.4 18.2,31.8 22.51,63.2 14.8,97.5 -7.71,33.9 -27.45,70 -47.51,106.4 -3.7,62.6 -7.4,125.3 -23.14,174.9 -15.73,50 -44.11,87.3 -72.18,124.4 52.75,24.6 105.2,49 148.39,86 43.19,37.4 76.49,87.3 96.59,154 20,66.6 26.2,149.9 12.3,218.1 -14.2,67.9 -48.7,120.6 -86.4,158.6 -37.61,38.2 -78.33,61.7 -122.14,74.9 -44.11,13 -91.32,15.8 -140.37,11.8 -48.74,-4.1 -99.65,-14.9 -144.99,-27.2 -45.36,-12.3 -85.15,-25.9 -120.94,-25 -36.1,0.9 -67.56,16.4 -98.1,37.7 -30.24,21.2 -59.23,48.4 -88.54,75.5 25.61,-48.7 50.9,-97.8 68.18,-136.3 17.28,-38.6 26.22,-66.7 22.21,-85.8 -4.01,-19.1 -21.29,-29 -45.35,-36.7 -24.07,-7.7 -54.91,-13 -70.64,-15.7 -16.05,-2.8 -16.98,-2.8 -17.9,-2.8 -17.28,21 -34.24,41.6 -60.15,56.8 -25.92,14.8 -60.48,24 -92.25,26.5 -31.47,2.8 -60.77,-0.9 -89.77,-4.3 6.47,29.9 12.95,59.8 14.49,95 1.86,35.5 -0.92,76.2 -6.78,112.9 -5.86,36.7 -14.81,69.4 -21.6,90.7 -6.78,21.3 -11.41,31.5 -16.04,41.3 30.85,6.5 61.7,12.7 81.14,21.9 19.75,9 27.76,20.7 36.09,32.4 46.27,-39.8 92.24,-79.6 123.09,-106.4 30.85,-26.8 46.28,-40.4 61.71,-54 -17.9,45.4 -36.1,90.7 -50.6,125.6 -14.49,34.8 -25.61,59.5 -26.83,82.7 -1.24,23.1 6.78,44.7 24.05,64.7 17.28,20.1 43.5,38 60.78,60.8 17.28,22.5 25.29,50 38.87,83.3 13.57,33.6 32.7,73.7 45.96,122.5 12.96,49 20.37,107 18.82,173.7 -1.23,66.6 -11.1,141.9 -31.46,196.8 -20.67,54.9 -51.52,89.5 -100.27,128.9 -49.04,39.5 -116.3,84 -178.62,104.6 -62.63,21 -120.63,18.2 -168.44,11.4 -47.51,-6.7 -84.84,-17.5 -125.87,-29 -41.34,-11.4 -86.69,-23.1 -138.83,-37.6 -52.13,-14.5 -111.06,-31.8 -156.4,-54.9 -45.36,-23.1 -77.13,-52.1 -101.82,-79 -24.37,-26.5 -41.64,-51.2 -67.55,-70.9 -25.61,-20.1 -60.16,-35.5 -86.39,-48.8 -26.52,-12.9 -44.42,-24 -62.62,-34.8 24.37,-16.4 49.05,-32.7 60.16,-55 11.41,-22.2 9.56,-50.2 1.85,-79.9 -7.71,-29.3 -21.29,-60.1 -25.3,-89.7 -4.01,-29.3 1.24,-57.4 9.57,-88.3 8.02,-30.8 18.81,-64.4 29.92,-98.1 -14.5,-15.4 -29,-30.8 -45.96,-48.7 -16.66,-18.2 -35.8,-39.2 -54.92,-59.9 3.7,45.4 7.4,90.7 0.62,141 -6.79,50.3 -24.06,105.5 -48.43,146.3 -24.69,41 -56.47,67.2 -78.68,89.1 -22.21,21.6 -34.86,38.9 -37.63,53.1 -2.47,13.9 4.63,24.6 28.07,38.8 23.75,14.2 63.55,31.2 103.66,48.5 -30.85,5.5 -61.7,10.8 -98.41,15.1 -36.72,4 -79.6,6.8 -123.1,2.2 -43.5,-4.7 -87.92,-16.4 -128.64,-30.9 -40.72,-14.5 -78.05,-31.8 -106.75,-47.5 -28.38,-16 -48.44,-30.6 -68.48,-45 -22.52,28 -45.36,56.4 -74.66,74.3 -29.62,18.2 -65.72,26.5 -116,30.5 -50.59,4.1 -114.76,4.1 -170.29,-14.4 -55.22,-18.6 -101.5,-55.9 -128.64,-89.8 -27.16,-34.3 -35.48,-64.8 -43.51,-95.7 -49.05,-12.9 -98.1,-25.6 -145.61,-54 -47.51,-28.6 -93.78,-73.1 -112.6,-136.6 -18.51,-63.6 -9.26,-145.9 12.34,-194.1 21.9,-48.1 56.14,-61.7 90.7,-75.2 2.77,-24.4 5.55,-49.1 -8.95,-64.8 -14.49,-16.1 -46.28,-23.2 -81.13,-32.7 -35.18,-9.6 -73.12,-21.3 -111.37,-38.9 -37.95,-17.9 -75.9,-41.3 -97.8,-75.9 -21.9,-34.5 -27.15,-79.9 -23.14,-124.6 4.01,-45.1 17.59,-89.5 41.65,-130.2 24.06,-40.7 58.62,-78.1 94.09,-102.1 35.17,-24.1 71.58,-34.9 106.74,-39.5 35.48,-4.3 70.03,-2.5 110.76,7.4 40.73,9.9 87.92,28.1 122.47,54.9 34.55,26.8 56.15,62 78.06,97.5 29.92,8 59.84,16.3 82.36,29.9 22.84,13.6 38.26,32.7 36.72,57.1 -1.24,24.4 -19.44,54.6 -39.49,76.2 -19.75,21.9 -41.65,35.5 -52.75,51.2 -11.42,16 -12.35,33.9 -13.27,52.1 27.15,-11.7 54.3,-23.4 79.28,-25.9 24.99,-2.1 47.51,5.3 72.19,21.3 24.37,16.4 50.6,42 67.88,65.1 17.27,23.1 25.6,43.8 33.62,64.8 42.57,-29.9 85.15,-59.9 123.4,-75.9 37.95,-15.7 71.57,-17.6 90.7,-9.3 19.13,8.1 23.45,26.3 34.55,42.6 10.8,16.4 28.07,30.9 41.03,36.1 13.27,5.6 22.22,1.9 24.99,-7.7 2.78,-9.6 -0.92,-25 11.73,-29 12.95,-4 41.95,3.4 64.16,16 22.21,12.7 37.64,30.9 45.66,33.1 8.33,2.1 9.25,-11.5 2.16,-30.3 -6.78,-19.1 -21.29,-43.8 -42.88,-66.9 -21.9,-23.2 -50.9,-44.8 -73.43,-63 -22.82,-18.2 -39.17,-32.7 -54.9,-37.9 -16.05,-5.6 -31.48,-1.9 -41.65,5.9 -10.5,7.7 -16.05,19.4 -21.29,31.1 -40.11,-14.5 -79.91,-29 -110.75,-52.1 -30.85,-23.2 -52.76,-54.9 -55.22,-90.7 -2.78,-35.8 13.57,-75.6 29.92,-115.7 -40.11,-28.1 -79.9,-56.2 -115.38,-117.3 -35.17,-61.3 -66.02,-155.7 -86.07,-228.5 -20.06,-73.2 -29,-124.7 -49.06,-146.9 -19.74,-22.2 -50.59,-15.1 -75.58,-0.6 -24.99,14.5 -44.11,36.4 -57.69,52.1 -13.57,16.1 -21.9,25.9 -65.71,49.1"
         style="fill:#962934;fill-opacity:1;fill-rule:evenodd;stroke:none"
         id="path6358"
         transform="matrix(0.13333333,0,0,-0.13333333,0,2933.3333)" />
      <path
         d="m 6814.54,14662.7 c -18.82,27.8 -36.1,54 -30.85,88.9 4.94,34.8 32.08,78.3 40.72,103.9 8.64,25.3 -1.23,32.7 -31.77,32.1 -30.24,-0.3 -81.14,-8.6 -125.56,-38.6 -44.43,-29.9 -82.68,-81.4 -103.05,-144 -20.36,-62.7 -23.13,-136.1 -4.01,-205.5 19.13,-69.4 59.86,-134.8 103.04,-179.2 42.89,-44.5 88.24,-67.9 130.2,-71 41.65,-3.4 79.59,13.9 105.5,28.4 25.92,14.5 39.5,26.2 44.43,55.2 4.93,29.3 1.23,75.3 -11.73,119.1 -13.26,43.5 -35.78,84.2 -57.07,119.1 -21.29,34.8 -41.34,63.8 -59.85,91.6 z m 739.17,-817.5 c -16.35,4.6 -39.18,8.9 -66.33,7.4 -27.15,-1.6 -58.92,-9.3 -82.67,-38 -23.45,-29 -38.88,-78.6 -34.87,-151.4 3.7,-72.5 26.85,-167.6 49.36,-229 22.84,-61 45.04,-88.5 68.5,-107.9 23.13,-19.5 47.81,-31.2 70.64,-37.1 22.83,-5.5 44.12,-4.9 64.48,-4.3 20.05,0.6 39.18,1.6 65.09,1 26.22,-0.4 59.24,-2.2 82.99,-3.1 24.06,-1 38.56,-1 38.56,9.8 0,10.5 -14.5,31.8 -21.9,47.2 -7.1,15.2 -7.1,24.1 7.4,31.8 14.5,7.4 43.5,13.3 67.57,23.5 23.75,10.1 42.88,24.6 55.52,45.6 12.96,21.3 19.14,48.8 -8.63,96.9 -27.46,48.1 -89.16,116.6 -139.76,164.7 -50.59,48.2 -90.08,75.6 -117.84,93.8 -28.08,18.2 -44.43,26.8 -57.69,33.3 -13.27,6.5 -23.76,11.1 -40.42,15.8 z m 1504.57,-163.5 c -16.97,-13.6 -43.8,-26.9 -64.17,-40.1 -20.36,-13.6 -34.55,-27.2 -33.62,-39.2 0.92,-12 16.66,-22.2 33.01,-30.6 16.04,-8 32.39,-13.9 42.26,-24.6 9.87,-10.5 13.57,-26 28.08,-36.1 14.49,-9.9 39.79,-14.5 69.1,-13.6 29,0.9 61.39,7.4 88.85,18.5 27.46,11.1 49.67,26.8 70.33,60.8 20.68,33.6 39.8,85.4 41.65,128 1.86,42.6 -13.56,76.2 -28.69,100.6 -14.81,24.7 -29.31,40.1 -46.58,50 -17.27,9.8 -37.33,14.5 -53.68,15.7 -16.35,0.9 -28.99,-1.2 -43.5,-11.1 -14.5,-9.6 -30.85,-26.9 -42.88,-50.9 -12.04,-24.1 -19.75,-54.9 -27.46,-77.5 -7.71,-22.2 -15.42,-36.4 -32.7,-49.9 z m 488.67,791.9 c -9.87,-16 -33.32,-47.2 -52.14,-71.6 -18.81,-24.1 -33.01,-41.3 -25.29,-50.6 7.4,-9.5 36.4,-10.8 60.15,-14.2 23.76,-3.4 42.26,-8.9 66.33,-12.3 24.06,-3.4 53.68,-4.6 81.75,11.1 28.08,15.4 54.92,48.1 72.81,85.1 17.89,37.1 26.84,78.4 26.84,116.7 0,38.5 -8.95,74.6 -22.52,100.2 -13.57,25.6 -31.77,41.1 -51.21,50.6 -19.13,9.9 -39.5,13.9 -62.01,15.4 -22.52,1.6 -46.89,0.7 -66.03,0.7 -18.81,0 -32.69,0.9 -36.08,-6.5 -3.4,-7.4 3.39,-23.5 10.18,-41.4 6.48,-18.2 12.96,-38.5 12.64,-66.6 -0.3,-28.4 -7.09,-64.2 -8.33,-82.4 -1.54,-17.9 2.78,-18.5 -7.09,-34.2 z m 136.05,754.6 c -16.35,17 -32.09,40.4 -28.69,65.1 3.7,24.4 26.84,49.6 53.99,63.8 27.14,13.9 58.61,16.7 83.59,14.2 25.3,-2.4 44.43,-10.1 67.26,-35.1 22.83,-25.3 49.67,-67.9 66.95,-108.9 17.58,-40.8 25.91,-79.6 26.22,-115.4 0.31,-35.8 -6.79,-68.5 -15.43,-87.3 -8.63,-18.5 -18.51,-23.2 -28.99,-17.6 -10.49,5.5 -21.29,21 -36.72,43.5 -15.42,22.8 -35.47,52.7 -53.68,75.9 -17.89,23.4 -34.24,40.4 -48.12,50 -13.89,9.8 -25.3,12.6 -39.18,18.8 -14.19,6.5 -30.85,16.3 -47.2,33 z m -2546.38,490.5 c -18.2,-12.3 -39.8,-25 -65.4,-22.8 -25.3,2.4 -54.3,19.4 -76.51,53 -22.21,33.7 -37.64,83.6 -37.33,131.2 0.62,47.5 16.97,92.8 36.71,124.6 20.05,31.8 43.8,50 59.54,50.9 15.74,0.9 24.07,-15.4 36.72,-23.2 12.64,-7.7 29.92,-6.7 59.84,21.3 29.93,28.1 72.5,83.3 121.55,121.9 49.06,38.6 104.28,60.5 145.61,68.5 41.35,8.3 68.49,2.8 85.15,-11.7 16.97,-14.5 23.14,-38 37.33,-44.8 13.88,-6.8 35.79,3.1 53.06,7.1 17.28,4 29.93,2.5 40.72,-6.1 10.8,-8.7 20.06,-24.1 34.86,-36.4 15.12,-12.4 35.79,-21.3 67.57,-27.8 31.78,-6.2 74.35,-9.9 111.98,-23.1 37.64,-13 70.34,-35.8 88.85,-66.1 18.82,-30.5 23.14,-68.5 11.42,-94.1 -11.72,-25.3 -39.79,-37.9 -76.51,-41 -36.71,-3.4 -82.07,3.1 -138.52,-5.5 -56.15,-8.7 -123.09,-32.1 -174.92,-59 -51.83,-26.8 -87.92,-56.7 -115.69,-74.9 -27.76,-17.9 -46.58,-24.4 -63.86,-19.5 -17.28,5 -32.7,21.3 -48.43,25 -16.04,3.7 -32.4,-5.5 -49.98,-13.3 -17.59,-7.7 -36.71,-13.8 -53.06,-13.5 -16.35,0.6 -29.93,7.7 -44.12,5.5 -13.88,-2.1 -28.38,-14.2 -46.58,-26.2 z m 1541.58,441.5 c -32.39,10.8 -83.91,19.1 -126.17,22.8 -42.26,3.4 -74.97,2.5 -83.91,10.2 -8.95,7.7 5.55,24.1 25.91,36.1 20.36,11.7 46.59,18.8 58.92,33.3 12.34,14.5 10.49,36.4 18.2,59.8 7.72,23.8 24.99,49.1 49.36,68.2 24.37,19.2 56.15,31.8 88.55,43.5 32.08,11.7 64.78,22.5 106.74,17.6 42.26,-4.9 94.09,-25.9 148.08,-75.6 53.99,-50 110.13,-128.9 137.29,-194.9 27.14,-66.4 25.29,-119.8 22.2,-147.2 -3.08,-27.1 -7.71,-28.1 -16.65,-26.2 -9.26,1.8 -22.83,6.5 -31.78,-8 -9.26,-14.5 -13.58,-48.2 -21.91,-77.8 -8.02,-29.3 -19.74,-54.6 -35.16,-75.9 -15.12,-21.3 -33.94,-38.5 -59.24,-42.2 -11.72,-1.9 -24.68,-1 -37.33,4 -2.46,-13.6 -5.55,-26.6 -11.41,-40.5 -12.34,-28.3 -36.71,-59.2 -46.28,-76.5 -9.56,-17.2 -4.01,-20.9 4.32,-37.3 8.64,-16.3 20.67,-45.3 32.7,-81.1 12.34,-35.8 24.99,-78.4 26.54,-121 1.23,-42.8 -8.64,-85.4 -19.13,-112.6 -10.49,-27.1 -21.29,-38.8 -46.27,-55.2 -24.99,-16.3 -63.87,-37.3 -78.37,-50.9 -14.5,-13.6 -4.62,-20 25.61,-14.8 30.54,4.9 81.14,21.3 115.38,33.3 33.94,12.4 51.21,20.7 67.87,25.9 16.97,5.6 33.32,8.4 52.14,6.8 19.13,-1.2 41.03,-6.8 62.62,-17.6 21.91,-10.8 43.51,-27.1 59.86,-54.9 16.35,-27.7 27.14,-66.6 23.75,-109.8 -3.7,-42.9 -21.91,-90.1 -38.26,-117.8 -16.35,-27.8 -30.85,-35.8 -33.62,-51.3 -2.78,-15.4 6.48,-37.9 10.49,-66.6 4.01,-28.7 3.08,-62.9 -15.43,-100.3 -18.51,-37 -54.91,-77.1 -80.83,-101.5 -25.61,-24.6 -41.03,-33.6 -46.89,-43.5 -5.86,-10.1 -2.47,-20.9 -3.39,-45 -0.93,-24.1 -6.17,-61.1 -16.35,-99.6 -9.87,-38.6 -24.38,-78.4 -39.8,-107.1 -15.42,-28.7 -31.77,-46 -38.56,-62.6 -6.79,-16.7 -4.02,-33 -10.8,-54.3 -6.78,-21.3 -23.14,-47.8 -50.29,-56.8 -27.14,-8.9 -65.4,-0.9 -87.92,12.7 -22.83,13.5 -29.92,32.7 -49.67,52.1 -19.44,19.4 -51.21,39.5 -97.8,56.8 -46.89,17.2 -108.28,31.7 -116.61,52.4 -8.02,21 37.33,48.1 86.99,175.2 49.99,126.8 104.28,353.6 107.68,514.6 3.08,161.1 -45.04,256.4 -105.2,307 -60.47,50.9 -132.96,57.1 -221.51,63.5 -88.23,6.5 -192.5,12.7 -250.81,26.9 -58,13.9 -69.72,35.8 -62.01,56.1 7.71,20.4 34.87,39.5 43.5,51.2 8.64,11.8 -1.23,16.4 -9.56,28.7 -8.02,12.1 -14.5,32.1 0.93,52.5 15.42,20.3 52.75,41.3 72.18,57.1 19.44,16 21.29,26.8 20.98,41.3 -0.62,14.5 -3.39,32.7 8.02,48.1 11.41,15.4 36.71,28.1 68.18,36.7 31.16,8.7 68.18,13.3 85.46,20.4 17.27,7.4 14.49,17.3 19.74,30.8 4.93,13.6 17.59,30.9 37.63,46.9 19.75,15.8 46.9,30.3 49.67,38 2.78,7.7 -18.81,8.6 -39.79,12.6 -20.98,4 -40.72,11.4 -41.65,21 -0.93,9.6 17.28,21.3 33.32,33.6 16.35,12.1 30.85,24.7 52.14,41.1 21.59,16.3 49.66,36.4 65.4,39.1 16.04,2.8 19.44,-11.7 11.41,-25.6 -8.33,-13.5 -28.07,-26.2 -24.06,-34.8 4.01,-8.7 32.09,-13 68.8,-23.2 36.71,-9.8 82.06,-25.3 130.8,-41 48.43,-16 100.26,-32.4 140.99,-26.8 3.7,0.3 7.09,1.2 10.48,1.8 -3.39,10.2 -7.4,20.1 -11.41,29.6 -22.21,50.6 -54.91,90.4 -77.43,117.3 -22.84,26.8 -35.49,40.4 -67.57,51.2 z m -1731,-675.3 c -6.17,24.6 -16.05,51.8 -29.62,66.6 -13.57,14.8 -30.85,17 -52.76,7.7 -22.2,-9.3 -48.74,-30.2 -71.56,-37.9 -22.53,-8.1 -41.34,-3.1 -58,-3.4 -16.66,-0.6 -31.78,-6.5 -48.44,-23.8 -16.96,-17.3 -35.48,-45.6 -33.31,-90.1 1.84,-44.1 24.68,-103.9 52.13,-145.3 27.46,-41 59.54,-63.8 88.54,-75.6 29,-11.7 54.91,-12.6 80.83,-5.2 25.92,7.4 51.52,23.4 66.33,41.3 14.8,18.2 18.5,38.6 19.43,58.3 0.93,19.5 -0.93,38 -2.16,60.8 -1.23,22.9 -1.54,50.3 -2.78,75 -0.92,24.7 -2.77,46.9 -8.63,71.6"
         style="fill:#ff532b;fill-opacity:1;fill-rule:evenodd;stroke:none"
         id="path6360"
         transform="matrix(0.13333333,0,0,-0.13333333,0,2933.3333)" />
      <path
         d="m 6585.94,16157.4 c -26.22,15.4 -68.8,40.7 -101.19,60.2 -32.08,19.1 -53.68,32.3 -67.56,44.1 -13.88,11.4 -19.74,21.2 -21.29,30.5 -1.85,9 0.93,17.3 5.25,21.9 4.32,4.7 10.17,6.2 20.67,0.3 10.48,-5.8 25.29,-19.1 47.81,-37.3 22.22,-18.2 51.52,-41.3 79.6,-66.3 28.07,-25.3 54.91,-52.5 63.55,-63.3 8.64,-10.8 -0.93,-5.5 -26.84,9.9"
         style="fill:#ffb72f;fill-opacity:1;fill-rule:evenodd;stroke:none"
         id="path6362"
         transform="matrix(0.13333333,0,0,-0.13333333,0,2933.3333)" />
      <path
         d="m 8253.4,16835.2 c -4.94,28.4 -12.65,74.3 -18.82,113.8 -6.48,39.8 -11.42,73.4 -9.25,95 1.84,21.3 11.1,30.9 21.9,34.9 10.8,4.3 23.44,2.8 31.15,-5.6 7.41,-8.3 9.57,-23.7 9.26,-53.3 0,-29.3 -2.78,-72.8 -7.71,-114.8 -4.63,-41.6 -11.41,-81.4 -15.74,-95.6 -4.31,-14.5 -6.16,-3.1 -10.79,25.6"
         style="fill:#ffb72f;fill-opacity:1;fill-rule:evenodd;stroke:none"
         id="path6364"
         transform="matrix(0.13333333,0,0,-0.13333333,0,2933.3333)" />
      <path
         d="m 9888.77,16175 c 24.37,19.4 66.94,54 102.11,79.9 35.22,25.9 62.62,42.9 80.82,45.6 18.2,2.5 26.8,-9.8 29.6,-19.4 2.5,-9.6 -0.6,-16.3 -8.3,-23.1 -7.7,-6.8 -20.1,-13.6 -44.7,-25.6 -24.7,-12.1 -61.74,-29.3 -96.59,-44.5 -34.56,-15.1 -66.95,-28.3 -79.91,-32.7 -13.26,-4.3 -7.4,0.3 16.97,19.8"
         style="fill:#ffb72f;fill-opacity:1;fill-rule:evenodd;stroke:none"
         id="path6366"
         transform="matrix(0.13333333,0,0,-0.13333333,0,2933.3333)" />
      <path
         d="m 6987,13638.8 c -26.54,-21 -73.43,-60.5 -109.52,-89.8 -36.1,-29.3 -61.09,-48.1 -79.29,-62.9 -18.2,-14.8 -29.31,-25.3 -34.24,-35.8 -4.63,-10.8 -2.78,-21.6 3.08,-28.4 5.86,-6.8 15.73,-9.6 28.69,-4.9 12.96,4.6 28.69,16.3 46.59,38.2 17.59,21.9 37.02,54.3 63.24,84.9 25.91,30.5 58.62,59.5 79.9,79.9 20.98,20.3 30.55,32.4 32.39,37 1.86,4.9 -4.31,2.4 -30.84,-18.2"
         style="fill:#ffb72f;fill-opacity:1;fill-rule:evenodd;stroke:none"
         id="path6368"
         transform="matrix(0.13333333,0,0,-0.13333333,0,2933.3333)" />
      <path
         d="m 9854.83,13200.7 c -26.22,23.1 -71.89,68.8 -101.8,100 -29.92,31.1 -44.12,47.5 -45.35,54.6 -1.55,6.8 9.87,4.6 35.17,-12.7 25.6,-17.3 65.09,-49.3 94.7,-73.4 29.62,-24.1 49.67,-39.8 62.02,-52.4 12.64,-12.4 17.58,-21.6 15.42,-27.5 -1.85,-6.2 -11.11,-9.6 -19.13,-10.8 -7.71,-1.2 -14.5,-0.9 -41.03,22.2"
         style="fill:#ffb72f;fill-opacity:1;fill-rule:evenodd;stroke:none"
         id="path6370"
         transform="matrix(0.13333333,0,0,-0.13333333,0,2933.3333)" />
      <path
         d="m 9649.68,13403.4 c -18.82,14.5 -48.74,43.5 -65.4,61.1 -16.66,17.3 -20.36,23.1 -3.09,11.1 16.96,-12.4 55.23,-42.6 75.89,-60.2 20.67,-17.6 23.75,-21.9 21.6,-24.3 -2.47,-2.2 -10.18,-2.2 -29,12.3"
         style="fill:#ffb72f;fill-opacity:1;fill-rule:evenodd;stroke:none"
         id="path6372"
         transform="matrix(0.13333333,0,0,-0.13333333,0,2933.3333)" />
      <path
         d="m 10030.4,13072.4 c -3.7,3.4 -6.2,11.1 -6.5,17.6 -0.3,6.4 1.5,11.4 5.9,13.8 4.3,2.8 11.1,2.8 16,1.3 4.6,-1.9 7.7,-5.3 8.9,-9.6 1.3,-4 1,-8.6 -1.2,-12.9 -2.2,-4.1 -5.5,-8.4 -9.9,-10.5 -4.3,-2.5 -9.5,-3.1 -13.2,0.3"
         style="fill:#962934;fill-opacity:1;fill-rule:evenodd;stroke:none"
         id="path6374"
         transform="matrix(0.13333333,0,0,-0.13333333,0,2933.3333)" />
      <path
         d="m 9522.27,15092.1 c 6.48,35.5 3.7,70.1 0,95.7 -3.39,25.9 -8.02,43.2 -10.19,57.7 -2.46,14.5 -2.46,26.2 14.51,36.4 16.66,9.8 50.29,17.9 74.35,24 24.06,5.9 38.56,9.3 54.9,6.2 16.05,-3.1 34.25,-13.3 54.61,-40.7 20.67,-27.8 43.19,-73.1 55.53,-120.6 12.04,-47.9 13.88,-97.5 6.79,-137.9 -7.4,-40.5 -23.75,-71.3 -45.97,-97.5 -22.21,-26.3 -50.29,-48.2 -82.37,-45.1 -32.39,3.4 -68.48,31.5 -93.47,47.2 -24.99,16.1 -38.56,19.8 -47.51,28.7 -9.26,9 -13.57,23.5 -8.33,49.1 5.55,25.3 20.98,61.7 27.15,96.8"
         style="fill:#ffb72f;fill-opacity:1;fill-rule:evenodd;stroke:none"
         id="path6376"
         transform="matrix(0.13333333,0,0,-0.13333333,0,2933.3333)" />
      <path
         d="m 9456.25,14573.5 c 4.32,27.8 8.64,61.7 12.03,84 3.7,22.2 5.86,32.7 11.1,37.9 5.56,5.2 14.2,5.2 23.14,-2.2 8.64,-7 17.9,-21.5 31.78,-31.1 14.19,-9.6 33.32,-14.2 45.97,-16.1 12.65,-2.1 19.12,-1.5 23.44,-15.1 4.63,-13.9 7.41,-41.3 4.63,-74.3 -2.77,-33.3 -10.8,-71.9 -23.45,-98.7 -12.96,-27.2 -30.23,-42.6 -44.73,-45.4 -14.5,-3.1 -26.22,6.5 -42.57,7.7 -16.66,0.9 -37.95,-6.1 -50.29,-4 -12.33,2.5 -15.42,14.2 -14.5,29.9 0.93,16.1 5.87,35.8 10.49,56.8 4.63,21 8.64,42.6 12.96,70.6"
         style="fill:#ffb72f;fill-opacity:1;fill-rule:evenodd;stroke:none"
         id="path6378"
         transform="matrix(0.13333333,0,0,-0.13333333,0,2933.3333)" />
      <path
         d="m 9033.91,13743.1 c -15.73,-19.5 -25.61,-38 -42.57,-55.9 -16.66,-17.6 -40.42,-34.2 -60.16,-48.4 -19.74,-13.9 -35.48,-25.3 -42.89,-32.4 -7.71,-7.1 -6.78,-9.9 12.65,-5.3 19.13,4.7 56.77,16.4 87.93,23.8 31.15,7.1 55.53,9.9 76.5,12.3 21.29,2.5 38.88,4.7 58,14.2 19.13,9.6 39.5,26.6 55.54,47.2 16.04,21 27.76,46 38.87,72.2 11.11,26.3 21.59,54 27.45,82.4 5.56,28.4 6.48,57.4 2.47,74.3 -4.32,17 -13.26,21.9 -21.9,18.2 -8.64,-4 -16.66,-16.6 -23.45,-19.1 -6.78,-2.4 -12.34,5.3 -20.36,10.8 -7.71,5.6 -18.2,9.3 -28.38,4.9 -10.19,-4.6 -20.36,-17.2 -30.24,-41.9 -9.86,-25 -20.05,-61.7 -35.78,-89.8 -16.04,-28.4 -37.64,-48.4 -53.68,-67.5"
         style="fill:#ffb72f;fill-opacity:1;fill-rule:evenodd;stroke:none"
         id="path6380"
         transform="matrix(0.13333333,0,0,-0.13333333,0,2933.3333)" />
      <path
         d="m 7847.4,13758.5 c -19.74,19.4 -40.41,40.4 -62.31,50.9 -21.6,10.5 -44.43,10.5 -66.33,16 -21.9,5.6 -43.5,17 -52.75,14.8 -9.26,-2.4 -6.48,-18.2 -13.58,-17.9 -7.09,0 -23.75,16.4 -41.03,30 -17.27,13.2 -34.86,23.7 -50.59,29.3 -16.04,5.2 -29.93,5.8 -37.64,-10.8 -7.71,-16.7 -9.25,-50 -7.09,-90.7 1.84,-40.7 7.4,-88.2 16.96,-128.7 9.56,-40.4 23.14,-73.4 44.12,-109.5 21.29,-36.4 49.67,-75.9 76.81,-99.3 26.85,-23.2 52.14,-30.6 77.13,-32.4 24.68,-1.9 48.75,1.8 64.17,7.1 15.42,5.2 22.21,12 33.32,13.9 11.41,1.8 27.14,-1.3 46.28,-3.1 19.12,-1.6 41.34,-1.6 63.24,8 22.21,9.6 43.81,28.7 44.73,50.3 0.93,21.9 -19.13,46.3 -36.1,66.6 -16.96,20.1 -30.84,35.8 -33.93,50.9 -3.09,14.8 5.24,29 5.55,45.4 0,16.3 -7.71,34.8 -20.67,53.3 -12.65,18.2 -30.85,36.5 -50.29,55.9"
         style="fill:#ffb72f;fill-opacity:1;fill-rule:evenodd;stroke:none"
         id="path6382"
         transform="matrix(0.13333333,0,0,-0.13333333,0,2933.3333)" />
      <path
         d="m 6922.82,14571.7 c -3.08,15.1 -4.93,30.5 -6.47,54 -1.55,23.7 -3.09,55.5 -7.4,78 -4.63,22.9 -12.34,36.4 -21.91,44.2 -9.56,7.7 -20.98,9.5 -38.87,3.7 -18.2,-5.6 -43.19,-18.9 -64.48,-26.9 -21.29,-8.3 -39.17,-11.4 -42.58,-49.7 -3.39,-38.2 7.72,-111.6 9.26,-145.3 1.55,-33.6 -6.17,-27.1 -15.11,-17.9 -8.64,9.6 -18.82,22.3 -25.3,20.7 -6.48,-1.8 -9.88,-18.2 -4.01,-50.9 5.55,-32.7 20.05,-81.7 38.25,-120.9 18.2,-39.2 39.8,-68.5 52.76,-77.5 12.95,-8.9 16.97,2.8 14.19,23.5 -3.09,20.4 -12.96,49.4 -15.12,61.7 -2.47,12.6 3.08,8.3 11.1,2.2 8.33,-6.5 19.14,-15.2 27.78,-13.9 8.63,1.2 15.11,12 20.97,14.2 5.86,2.4 11.11,-4 20.66,-16.1 9.26,-12 22.22,-29.6 34.87,-42.6 12.96,-12.9 24.99,-20.9 38.26,-27.1 13.26,-6.2 27.14,-10.2 32.7,-1.2 5.86,8.9 3.08,31.4 5.24,44.1 2.47,12.9 9.56,16.6 16.97,18.8 7.09,2.5 14.5,3.4 14.81,11.1 0,7.7 -6.79,22.2 -17.9,42.9 -11.1,20.3 -26.52,47.2 -38.25,69.1 -11.73,22.2 -20.05,39.5 -26.22,55.5 -6.49,16.1 -11.11,31.2 -14.2,46.3"
         style="fill:#ffb72f;fill-opacity:1;fill-rule:evenodd;stroke:none"
         id="path6384"
         transform="matrix(0.13333333,0,0,-0.13333333,0,2933.3333)" />
      <path
         d="m 6999.03,15385.5 c -4.63,18.8 -8.95,30.6 -8.33,53.7 0.31,23.5 5.55,58.3 6.78,83.9 1.24,25.3 -0.92,41 -12.34,45.4 -11.72,4.3 -32.7,-2.8 -54.61,-17.9 -21.89,-14.8 -45.04,-37.7 -60.15,-63.6 -15.42,-26.2 -22.53,-55.5 -22.21,-92.2 0,-36.4 7.71,-79.9 18.51,-115.1 10.49,-35.2 24.37,-62 37.64,-76.8 13.26,-15.1 26.53,-18.2 36.09,-13.6 9.57,5 15.42,17.6 22.22,22.5 6.78,5 14.49,2.5 21.59,0.6 6.79,-1.5 13.26,-1.8 16.04,4.1 2.78,5.8 1.85,18.2 3.7,35.8 1.54,17.5 6.17,40.7 5.86,65 -0.62,24.4 -5.86,49.7 -10.79,68.2"
         style="fill:#ffb72f;fill-opacity:1;fill-rule:evenodd;stroke:none"
         id="path6386"
         transform="matrix(0.13333333,0,0,-0.13333333,0,2933.3333)" />
      <path
         d="m 7249.53,15762.5 c -17.28,-16.6 -37.33,-32.4 -55.22,-53.4 -17.89,-20.9 -33.93,-46.5 -43.81,-65 -9.87,-18.2 -14.19,-29.4 -21.9,-43.2 -8.02,-13.6 -19.75,-30.6 -27.46,-34.9 -7.71,-4.3 -11.41,4 -14.19,21.3 -3.09,17.6 -5.25,44.4 -1.54,77.1 4.01,33 13.88,71.9 31.77,108.9 17.9,37 43.81,71.9 72.81,104.9 29,32.7 61.08,63.6 89.16,83.9 27.76,20.4 51.51,30.6 75.58,37.3 23.76,6.8 48.43,10.5 67.25,8.1 18.82,-2.2 31.78,-10.5 45.66,-17.9 13.88,-7.4 28.38,-14.2 43.5,-17.9 15.42,-3.7 31.15,-4 64.17,-3.1 32.7,0.9 82.67,3.1 124.94,4.6 41.96,1.2 76.51,1.6 103.35,-1.2 27.15,-3.1 46.59,-9.3 53.06,-15.7 6.18,-6.2 -0.62,-12.7 -6.78,-18.9 -5.87,-6.1 -11.42,-12 -6.18,-16.3 5.25,-4.3 20.98,-7.1 34.56,-14.2 13.58,-7.4 24.99,-19.1 32.39,-31.8 7.71,-12.6 11.1,-26.2 8.33,-37.9 -3.08,-11.4 -12.65,-21 -28.07,-23.8 -15.73,-2.8 -37.64,1.6 -61.39,5.6 -23.76,4 -49.67,8 -75.28,10.5 -25.91,2.4 -51.83,3.4 -88.85,0.9 -37.03,-2.5 -84.84,-8.3 -126.18,-14.5 -41.33,-6.2 -75.89,-12.4 -100.88,-22.5 -25.29,-10.2 -41.03,-24.4 -49.36,-26 -8.02,-1.5 -8.63,9.3 1.24,30.9 9.87,21.6 29.61,53.7 34.55,69.4 4.62,15.4 -5.86,14.8 -20.98,9.6 -15.12,-5.3 -35.17,-14.8 -53.68,-26.2 -18.51,-11.5 -35.78,-24.4 -51.83,-39.8 -16.35,-15.2 -31.16,-32.4 -48.74,-48.8"
         style="fill:#ffb72f;fill-opacity:1;fill-rule:evenodd;stroke:none"
         id="path6388"
         transform="matrix(0.13333333,0,0,-0.13333333,0,2933.3333)" />
      <path
         d="m 8739.59,16059.6 c -21.59,15.4 -54.29,32.4 -81.13,43.5 -27.15,11.1 -48.43,16.3 -62,27.1 -13.58,10.8 -19.44,27.5 -10.8,39.5 8.94,11.8 32.39,18.5 54.59,21.9 22.22,3.4 43.2,3.4 69.43,-1.5 25.91,-4.9 57.38,-15.1 84.21,-28.7 26.84,-13.9 49.67,-31.8 68.8,-50.6 18.82,-19.1 34.24,-39.5 47.2,-67.9 12.65,-28.3 22.52,-64.7 21.29,-85.1 -1.55,-20.4 -14.2,-25 -30.86,-21.6 -16.35,3.1 -36.71,13.9 -57.07,28.7 -20.05,14.8 -40.1,33.3 -55.53,49.4 -15.43,16 -26.22,29.9 -48.13,45.3"
         style="fill:#ffb72f;fill-opacity:1;fill-rule:evenodd;stroke:none"
         id="path6390"
         transform="matrix(0.13333333,0,0,-0.13333333,0,2933.3333)" />
      <path
         d="m 8112.41,15504 c -12.95,-3.7 -60.15,11.7 -108.59,5.5 -48.74,-6.4 -98.41,-34.5 -136.06,-60.4 -37.63,-25.9 -63.23,-49.4 -87.91,-75.3 -24.99,-25.9 -49.67,-54 -75.28,-79.3 -25.92,-25.6 -53.06,-48.1 -61.7,-53.1 -8.64,-4.9 1.24,7.8 11.1,23.5 10.19,16 20.05,34.9 10.5,40.1 -9.57,4.9 -38.57,-4.3 -62.94,-24.7 -24.37,-20.3 -44.42,-52.1 -56.76,-100.2 -12.34,-47.9 -16.66,-112.3 -10.81,-179 5.87,-66.6 22.22,-135.7 37.95,-178.3 16.04,-42.6 31.47,-58.9 33.32,-66.3 1.86,-7.1 -10.18,-5.3 -14.19,-11.1 -4.01,-5.9 -0.31,-19.5 12.65,-34.9 13.26,-15.4 35.79,-32.7 47.2,-42.2 11.41,-9.6 11.41,-11.5 8.64,-27.8 -2.78,-16.4 -8.02,-47.2 -5.86,-76.2 2.16,-29 12.34,-56.2 35.79,-87.3 23.44,-31.5 60.77,-67 103.03,-95 41.96,-28.1 89.16,-48.8 128.34,-59 38.87,-9.8 69.73,-8.9 73.43,0.7 3.7,9.5 -20.06,27.4 -38.57,40.4 -18.5,12.6 -32.08,19.7 -22.21,29.9 9.87,9.9 43.5,22.5 71.26,32.1 27.47,9.5 49.36,15.7 68.8,8.6 19.44,-7.4 36.71,-28.1 27.77,-37.3 -9.26,-9 -44.43,-6.2 -58.93,-12.7 -14.49,-6.1 -8.33,-21.6 -2.78,-39.8 5.25,-18.2 9.88,-39.1 10.8,-55.8 0.93,-16.7 -1.85,-29.6 10.49,-46.6 12.35,-17.3 39.49,-39.2 63.86,-51.8 24.68,-12.7 46.28,-16.4 49.98,-22.2 3.7,-5.9 -10.8,-14.2 -20.05,-23.2 -8.95,-8.9 -12.65,-19.1 -3.08,-33.6 9.55,-14.5 32.08,-33.3 60.77,-43.5 28.38,-9.9 62.93,-10.8 89.77,-7.1 26.84,3.4 45.66,11.7 51.21,21.6 5.56,10.2 -2.77,21.9 -11.72,31.5 -9.26,9.2 -19.13,16.6 -14.5,22.2 4.32,5.2 23.45,8.9 54.92,17.3 31.15,8 74.65,20.6 101.49,28 26.84,7.1 36.71,9 52.45,7.1 16.04,-1.8 37.63,-7.1 67.55,-4.6 29.93,2.8 68.19,13.9 107.06,31.8 39.18,18.2 78.98,43.5 104.89,74.9 25.91,31.2 37.64,68.5 33.63,82.4 -4.32,14.2 -24.07,5.3 -49.67,-10.2 -25.3,-15.4 -56.15,-37.3 -87,-53.9 -30.85,-17 -61.7,-28.7 -91.01,-36.8 -29.62,-8.3 -57.69,-12.9 -69.41,-9.2 -11.73,3.7 -7.41,15.4 8.94,25.9 16.35,10.5 44.43,19.4 88.54,38 43.81,18.8 103.66,46.8 144.07,76.2 40.42,29.6 61.4,60.4 66.64,86.6 5.56,26.3 -4.32,48.2 -11.1,75 -6.79,26.5 -10.5,58.3 -7.41,74.4 3.09,15.7 13.27,15.7 30.85,25.3 17.59,9.5 43.19,28.6 60.47,54.9 16.97,26.2 26.22,59.8 28.38,90.1 2.16,30.5 -2.16,57.6 -6.17,74 -4.32,16.3 -7.71,21.9 -0.62,31.8 7.4,9.8 25.3,24.3 41.65,50.9 16.35,26.2 30.85,64.1 34.25,105.2 3.08,40.7 -5.25,84.2 -23.15,120 -18.19,35.8 -46.27,63.8 -70.02,78.3 -23.45,14.5 -42.57,15.5 -58.31,15.1 -16.04,-0.6 -28.69,-2.1 -38.25,-3 -9.57,-1 -15.74,-1 -13.89,12.9 1.55,14.2 11.72,42.3 11.1,74.4 -0.3,32.4 -11.1,68.5 -24.37,107.6 -13.26,38.9 -28.68,80.6 -50.9,113 -22.21,32 -51.21,54.9 -85.45,75.5 -34.56,21 -74.66,40.1 -112.29,54.6 -37.65,14.5 -72.81,24.4 -105.2,31.5 -32.08,7.4 -61.09,12 -94.1,7.4 -33.32,-4.6 -70.33,-18.2 -104.27,-33.6 -34.25,-15.4 -65.09,-32.7 -89.77,-50.6 -24.99,-18.2 -44.12,-37.3 -57.69,-57.7 -13.58,-20.4 -21.91,-42.3 -15.42,-64.5 6.16,-22.2 27.14,-44.7 13.87,-48.4"
         style="fill:#ffb72f;fill-opacity:1;fill-rule:evenodd;stroke:none"
         id="path6392"
         transform="matrix(0.13333333,0,0,-0.13333333,0,2933.3333)" />
      <path
         d="m 7061.66,15450 c 1.53,-6.2 -0.93,-18.8 -6.18,-38.3 -5.55,-19.4 -14.19,-45.6 -17.89,-66 -4.01,-20 -3.09,-34.2 -0.92,-47.2 2.46,-13.2 6.16,-25.6 5.24,-32.1 -0.62,-6.4 -5.55,-7.4 -17.28,0.4 -11.41,7.7 -29.62,24 -41.64,37 -12.35,13.2 -18.82,23.1 -22.84,40.1 -4.01,16.9 -5.85,41 -3.39,63.2 2.47,22.2 9.26,42.9 14.2,50.6 4.63,7.7 7.4,2.5 11.41,-3.7 4.01,-6.5 9.56,-14.2 16.66,-17 7.4,-3 16.35,-1.2 24.98,2.5 8.65,3.7 16.98,9 23.76,12 6.78,3.4 12.03,4.4 13.89,-1.5"
         style="fill:#feda3b;fill-opacity:1;fill-rule:evenodd;stroke:none"
         id="path6394"
         transform="matrix(0.13333333,0,0,-0.13333333,0,2933.3333)" />
      <path
         d="m 7508.97,15797.7 c -10.17,0.3 -34.85,-6.2 -52.12,-10.8 -17.59,-5 -28.08,-8 -33.63,-5.9 -5.87,1.9 -6.79,9.3 -4.32,20.7 2.15,11.7 7.71,27.5 18.2,42.6 10.8,14.8 26.53,29 42.88,41.3 16.35,12.7 33.32,23.5 48.75,30.6 15.42,7.4 29.3,11.1 49.97,12.3 20.67,1.2 47.82,0.6 70.65,-0.9 23.14,-1.3 41.65,-3.1 56.46,-7.1 15.11,-4.3 26.52,-10.5 39.18,-18.8 12.95,-8.7 27.45,-18.9 35.16,-29.4 7.72,-10.4 8.64,-20.9 1.85,-25.6 -6.78,-4.3 -21.29,-3 -38.56,-3 -17.58,0 -37.94,-1.3 -49.97,-5 -12.03,-3.7 -15.73,-9.5 -25.3,-16.3 -9.57,-6.8 -24.99,-14.5 -42.89,-21.6 -18.19,-7.4 -39.17,-14.2 -58.92,-22.5 -20.06,-8.4 -39.18,-18.6 -52.14,-26.3 -12.96,-7.7 -19.74,-12.9 -23.44,-12 -4.01,1.2 -4.94,8.9 -0.62,17.3 4.01,8.3 12.96,17.6 19.43,25.3 6.18,8 9.88,14.8 -0.62,15.1"
         style="fill:#feda3b;fill-opacity:1;fill-rule:evenodd;stroke:none"
         id="path6396"
         transform="matrix(0.13333333,0,0,-0.13333333,0,2933.3333)" />
      <path
         d="m 6922.21,14612.1 c -6.17,21 -17.89,45.1 -29.31,65.4 -11.11,20.1 -22.21,36.4 -31.16,40.7 -8.95,4.4 -16.35,-3.4 -21.29,-20.3 -4.93,-17 -7.71,-43.5 -8.33,-67.3 -0.61,-23.7 0.62,-45 4.32,-64.5 4.01,-19.4 10.5,-37.3 23.14,-60.7 12.65,-23.2 31.78,-52.2 51.52,-72.5 20.05,-20.7 41.03,-32.4 59.54,-38.6 18.51,-5.9 34.86,-6.5 41.03,-2.8 6.17,3.7 1.86,11.4 -4.31,25 -6.48,13.6 -15.12,33 -28.69,57.1 -13.58,24.1 -32.08,52.4 -41.34,75.9 -9.26,23.4 -9.26,41.6 -15.12,62.6"
         style="fill:#feda3b;fill-opacity:1;fill-rule:evenodd;stroke:none"
         id="path6398"
         transform="matrix(0.13333333,0,0,-0.13333333,0,2933.3333)" />
      <path
         d="m 7848.02,13796.4 c -11.72,13.6 -24.37,22.9 -34.85,28.1 -10.5,5.3 -18.52,6.5 -22.22,0.3 -3.7,-6.2 -2.77,-19.7 -1.85,-33.6 0.92,-13.6 1.85,-27.8 3.7,-36.7 1.85,-8.7 4.32,-12.4 2.78,-13 -1.55,-0.3 -7.4,2.5 -16.97,7.7 -9.57,5.3 -22.51,13 -32.08,14.8 -9.57,2.2 -15.43,-1.5 -20.36,-10.1 -4.63,-8.7 -8.33,-22.3 -8.95,-42 -0.62,-19.7 1.54,-45.7 8.33,-71 6.78,-25.3 18.2,-50.2 31.46,-70 12.96,-19.7 28.08,-34.2 44.12,-46.9 16.05,-12.6 33.32,-23.7 50.9,-32.4 17.9,-8.9 35.79,-15.7 54.61,-17.2 18.82,-1.6 38.56,2.1 52.75,8.9 14.2,7.1 23.45,17.6 23.45,26.2 0.31,8.7 -8.32,15.4 -20.98,27.2 -12.64,11.7 -29.3,28.7 -45.35,42.9 -15.73,14.1 -30.85,25.9 -42.26,37.9 -11.11,12 -18.82,24.4 -27.15,38.6 -8.02,13.8 -16.66,29.9 -20.98,40.1 -4.31,10.4 -4.31,15.4 -4.01,17.2 0.62,1.9 1.54,0.7 12.65,-4.6 11.42,-5.2 33.32,-14.2 51.21,-19.4 17.9,-5.3 31.78,-6.8 41.03,-5.6 8.95,1.3 13.27,4.6 10.49,12.1 -2.47,7 -11.41,18.2 -21.9,27.1 -10.5,9.3 -22.22,16.4 -33.63,29 -11.1,12.7 -22.21,30.9 -33.94,44.4"
         style="fill:#feda3b;fill-opacity:1;fill-rule:evenodd;stroke:none"
         id="path6400"
         transform="matrix(0.13333333,0,0,-0.13333333,0,2933.3333)" />
      <path
         d="m 9150.83,13773 c -10.49,-10.2 -25.91,-19.5 -43.81,-25.6 -17.89,-6.5 -38.56,-10.2 -58.31,-13.3 -20.05,-3.1 -39.48,-5.8 -54.6,-6.2 -15.43,0 -26.22,2.2 -33.93,3.7 -7.71,1.6 -12.34,2.5 -8.02,8.1 4.01,5.2 16.66,15.4 30.23,24.3 13.57,9.3 28.07,17.3 44.12,28.4 15.73,11.1 33.01,25.3 44.73,37.7 11.72,12.3 18.2,23.4 25.61,37.3 7.09,14.2 15.11,31.5 21.28,44.7 6.17,13.3 10.18,22.8 15.12,27.5 4.63,4.6 10.17,4 13.88,-2.2 3.4,-6.5 5.24,-18.8 8.32,-30.2 2.79,-11.8 7.11,-22.5 11.43,-33 4.32,-10.2 8.63,-20.4 9.87,-31.8 1.23,-11.1 -1.24,-23.8 -5.25,-35.8 -4,-12 -9.87,-23.4 -20.67,-33.6"
         style="fill:#feda3b;fill-opacity:1;fill-rule:evenodd;stroke:none"
         id="path6402"
         transform="matrix(0.13333333,0,0,-0.13333333,0,2933.3333)" />
      <path
         d="m 9426.64,14496.1 c 5.55,18.8 10.48,41.3 14.19,62.6 4,21.3 6.47,41.4 9.25,55.6 2.47,13.9 4.63,22.2 10.49,22.5 5.86,0.3 15.43,-6.8 21.59,-17.3 6.17,-10.5 8.95,-24.1 12.03,-37 3.09,-13.3 6.79,-25.9 5.86,-40.4 -0.92,-14.5 -6.47,-30.9 -15.72,-44.1 -9.26,-13 -22.22,-23.2 -35.49,-30.9 -13.26,-8 -26.22,-13.9 -29.92,-9.5 -3.7,4.6 2.16,19.7 7.72,38.5"
         style="fill:#feda3b;fill-opacity:1;fill-rule:evenodd;stroke:none"
         id="path6404"
         transform="matrix(0.13333333,0,0,-0.13333333,0,2933.3333)" />
      <path
         d="m 9559.29,15000.8 c -14.19,-7.7 -28.69,-8.3 -41.34,-7.7 -12.65,0.3 -23.45,1.9 -29.31,4.9 -6.17,3.1 -7.09,8.1 -2.78,22.3 4.02,13.8 12.96,37 19.75,55.8 6.47,18.5 10.49,32.4 12.03,45.3 1.24,12.7 0,24.1 -4.31,38.6 -4.02,14.8 -10.81,33 -14.51,46.3 -3.4,13.6 -4.01,22.2 2.47,25.9 6.17,4 19.44,3.1 33.32,-0.9 13.88,-3.7 28.38,-10.5 40.41,-16.7 12.34,-5.8 22.22,-10.8 28.08,-27.1 6.17,-16.4 7.71,-43.8 6.78,-70.4 -1.23,-26.5 -5.24,-52.1 -14.19,-72.5 -8.95,-20.3 -22.52,-35.8 -36.4,-43.8"
         style="fill:#feda3b;fill-opacity:1;fill-rule:evenodd;stroke:none"
         id="path6406"
         transform="matrix(0.13333333,0,0,-0.13333333,0,2933.3333)" />
      <path
         d="m 8728.8,16007.8 c -6.79,10.1 -14.5,30.5 -27.45,48.7 -12.66,18.5 -30.86,34.9 -41.66,44.8 -10.49,9.8 -13.88,13.5 -10.79,17.2 3.08,3.7 12.03,7.1 28.38,9 16.35,1.8 39.8,1.8 61.09,-1.9 20.97,-4 39.48,-11.7 53.67,-21.6 13.88,-9.8 23.45,-22.2 33.63,-34.5 9.87,-12.1 20.36,-24.4 27.77,-38.3 7.4,-13.9 12.03,-29.3 15.11,-48.4 3.09,-19.5 4.94,-42.6 2.47,-60.8 -2.47,-17.9 -9.25,-31.1 -19.44,-35.8 -10.18,-4.3 -23.75,-0.3 -34.24,9.3 -10.49,9.9 -17.58,25.3 -29,43.5 -11.42,18.2 -26.84,38.9 -37.33,49 -10.18,10.2 -15.74,9.9 -22.21,19.8"
         style="fill:#feda3b;fill-opacity:1;fill-rule:evenodd;stroke:none"
         id="path6408"
         transform="matrix(0.13333333,0,0,-0.13333333,0,2933.3333)" />
      <path
         d="m 8069.84,15391.7 c -9.87,-7.1 -23.76,-16.7 -38.87,-19.4 -15.12,-2.8 -31.78,1.5 -49.67,3.4 -18.2,2.1 -37.02,2.1 -56.46,-1 -19.13,-3.4 -38.56,-9.5 -54.91,-19.1 -16.04,-9.6 -28.69,-22.2 -39.49,-36.7 -10.8,-14.5 -20.05,-30.9 -27.77,-49.7 -7.71,-18.8 -13.88,-40.1 -20.67,-53.7 -6.47,-13.2 -13.26,-18.8 -20.36,-24.3 -7.09,-5.6 -14.18,-11.4 -17.89,-22.9 -3.71,-11.1 -3.71,-27.1 -2.47,-44.4 1.24,-17 3.39,-34.5 2.16,-50.3 -1.54,-16 -6.48,-29.9 -10.49,-39.5 -4.01,-9.2 -7.4,-13.5 -12.03,-10.8 -4.94,3.1 -11.1,13.3 -19.13,18.2 -8.02,4.7 -17.58,3.7 -21.28,11.4 -4.01,7.5 -2.16,23.2 -3.7,37.7 -1.55,14.5 -6.49,27.8 -11.42,26.5 -4.63,-1.5 -9.25,-17.2 -10.18,-70.9 -1.24,-53.4 0.93,-144.7 7.09,-201.8 6.17,-57.4 16.05,-81.1 30.24,-113.8 14.19,-33 32.08,-75.3 49.05,-108 16.66,-32.4 32.08,-55.5 42.58,-71.9 10.48,-16 15.73,-25 27.76,-28.7 11.72,-3.7 29.92,-1.8 39.18,0.6 9.56,2.5 10.49,5.9 7.71,12.1 -2.47,6.5 -8.94,16 -11.1,25.3 -1.85,9.2 0.3,18.2 2.47,21.3 1.84,3 3.7,-0.4 10.17,-9.9 6.18,-9.9 17.28,-26.2 38.26,-44.7 20.98,-18.6 52.44,-39.5 70.03,-52.8 17.59,-13 21.91,-18.5 17.59,-17.3 -4.01,1.6 -16.05,9.6 -31.47,18.2 -15.12,8.7 -33.32,17.9 -46.27,24.7 -13.27,6.8 -21.29,11.1 -24.99,7.7 -3.71,-3.7 -2.79,-15.4 1.53,-30.8 4.32,-15.1 12.04,-33.7 20.05,-47.9 7.72,-13.8 16.05,-23.4 27.78,-29.3 11.72,-5.8 27.14,-8.3 41.03,-9.8 13.87,-1.6 26.21,-2.5 35.16,0.3 8.95,2.7 14.82,8.9 18.21,15.1 3.08,6.2 3.39,12 5.86,17 2.16,4.9 6.17,9.2 15.12,9.2 8.94,0.3 22.51,-3.4 33.93,-7.1 11.11,-4 20.36,-8 24.07,-11.7 4,-3.4 2.46,-6.8 4.93,-13.9 2.15,-7.4 8.02,-18.5 15.43,-26.2 7.71,-7.7 16.66,-12 18.19,-15.7 1.55,-4 -4.32,-7.5 -7.09,-13.6 -2.47,-6.2 -2.16,-14.8 3.39,-28.7 5.87,-13.9 16.66,-32.7 28.38,-44.7 12.04,-11.8 24.69,-16.4 45.66,-18.2 20.98,-2.2 50.6,-1.6 78.67,4.6 28.07,6.5 54.92,18.8 76.82,34.2 21.9,15.8 39.17,34.9 54.91,55.9 15.74,21 29.62,44.1 37.64,56.4 8.02,12.4 9.87,13.6 15.74,11.4 6.16,-2.4 16.65,-8.3 43.49,-10.1 26.84,-2.2 69.72,-0.3 107.98,12.6 37.94,13 70.96,37 94.4,62.9 23.44,26.3 37.02,54.3 47.81,84.6 10.5,29.9 18.21,62.3 20.06,84.2 1.85,21.9 -2.16,33.9 -0.62,40.7 1.85,7.1 9.57,9.3 20.99,16.4 11.41,6.8 26.21,17.9 38.86,32.4 12.96,14.5 23.14,32.4 29.31,53 5.86,20.4 7.09,44.1 7.71,64.2 0.31,19.7 0,36.1 -4.63,50.9 -4.62,14.8 -13.26,27.8 -19.43,37 -5.86,9 -9.57,13.9 -10.49,19.8 -0.92,5.5 0.92,12 2.78,19.7 1.85,7.7 3.39,16.7 6.47,21.6 3.09,4.9 7.1,5.9 15.74,10.5 8.64,4.6 21.59,12.6 29.92,29 8.02,16.3 11.11,40.7 9.57,63.8 -1.86,22.9 -8.64,44.2 -18.82,63.3 -10.49,18.8 -24.07,35.8 -40.42,52.1 -16.04,16.4 -35.16,32.1 -52.75,41.7 -17.27,9.5 -33.32,12.6 -46.28,13.9 -12.95,1.5 -22.83,0.9 -27.45,-1 -4.32,-2.1 -3.39,-5.8 -3.7,-10.8 -0.31,-5.2 -1.55,-12 -4.01,-12 -2.48,0.3 -6.18,7.7 -9.26,13.6 -3.39,6.1 -6.17,11.1 -8.02,14.8 -2.16,3.7 -3.39,5.8 3.09,9.9 6.48,3.7 20.97,9.2 31.15,24.6 9.87,15.5 15.43,40.8 19.44,62.7 4.01,21.6 6.78,39.7 4.63,57.3 -1.86,17.3 -8.64,34.3 -19.74,49.7 -10.81,15.4 -25.61,29.3 -42.27,39.5 -16.66,10.2 -34.56,16.7 -50.29,20.4 -15.73,4 -28.69,5.2 -36.4,3.3 -7.41,-1.5 -9.26,-6.7 -8.33,-19.4 0.92,-12.6 4.63,-33 6.47,-47.2 1.86,-14.5 1.86,-22.5 -27.75,-12 -29.62,10.2 -88.55,39.5 -135.75,54.9 -47.51,15.7 -83.29,17.9 -113.53,17.9 -29.92,0 -54.6,-2.2 -75.58,-4.3 -21.29,-2.5 -38.87,-4.6 -55.22,-7.7 -16.36,-2.8 -31.16,-6.5 -39.49,-11.2 -8.02,-4.3 -9.57,-9.8 -9.57,-13.2 0,-3.4 1.55,-4.6 -7.71,-5.6 -8.94,-0.9 -28.38,-1.5 -42.57,-4.3 -13.89,-3.1 -22.52,-8.6 -29.92,-16 -7.72,-7.4 -13.88,-17 -20.06,-25.6 -6.17,-8.7 -12.03,-16.4 -11.72,-22.5 0.62,-6.5 7.4,-11.5 16.04,-15.5 8.64,-3.7 19.13,-6.5 20.98,-10.2 2.16,-4 -4.32,-8.9 -14.19,-16.3"
         style="fill:#feda3b;fill-opacity:1;fill-rule:evenodd;stroke:none"
         id="path6410"
         transform="matrix(0.13333333,0,0,-0.13333333,0,2933.3333)" />
      <path
         d="m 7848.95,14996.8 c 6.17,10.8 15.11,28.7 24.37,42.6 8.95,14.2 18.21,24.7 22.52,24.7 4.63,0.3 4.63,-9.6 1.85,-25.6 -2.77,-15.8 -8.02,-37.7 -9.56,-59.6 -1.23,-21.9 1.54,-44.1 6.79,-67.2 5.25,-23.2 12.96,-47.2 22.83,-72.8 9.87,-25.6 22.21,-53.1 35.47,-77.5 13.58,-24.3 28.08,-46.2 35.79,-58.3 7.71,-12 8.64,-14.2 -1.54,-8.3 -10.49,5.8 -31.78,20 -49.98,34.5 -18.51,14.5 -33.93,29.4 -46.89,47.2 -13.27,17.6 -24.06,38 -34.25,47.6 -10.17,9.5 -19.74,8 -26.53,10.4 -6.48,2.8 -10.18,9 -10.18,5 -0.31,-4 2.78,-18.5 8.64,-34.3 5.56,-15.7 13.57,-32.4 19.44,-44.1 5.55,-11.4 8.63,-17.9 1.23,-16.9 -7.4,0.6 -25.61,8.3 -41.34,26.8 -16.04,18.5 -29.62,48.1 -40.72,73.4 -11.11,25.3 -19.74,46.6 -25.92,67.3 -5.86,20.6 -9.56,40.7 -8.02,64.4 1.55,23.8 8.33,51.6 15.12,80.9 6.79,29.6 13.57,60.7 20.05,79.3 6.17,18.5 12.34,23.7 16.05,22.5 4.01,-1.6 5.54,-9.6 8.32,-7.4 2.78,2.4 6.48,15.1 6.79,23.7 0.62,9 -2.16,13.9 -4.01,23.2 -1.85,8.9 -2.78,22.2 2.16,44.1 4.63,21.9 15.12,52.7 26.84,74.9 11.72,22.3 24.99,35.8 44.12,46.9 18.82,11.1 43.81,19.8 64.78,24.7 20.98,4.6 37.64,5.6 54.91,3.1 17.28,-2.5 34.87,-8.3 47.21,-12.3 12.64,-4.4 19.74,-6.5 18.2,-13.3 -1.54,-6.8 -12.04,-18.2 -20.67,-28.1 -8.64,-10.2 -15.43,-18.5 -21.59,-29 -6.49,-10.5 -12.34,-22.8 -15.13,-38.2 -2.77,-15.8 -2.15,-34.9 0.93,-51.5 3.08,-17 9.26,-31.5 16.97,-34.3 7.71,-3.1 16.97,5.6 22.83,14.8 6.17,9.3 8.33,19.5 11.42,23.2 2.77,4 6.47,1.5 10.18,-4.1 3.39,-5.5 7.09,-14.8 15.42,-14.2 8.33,0.4 21.59,10.2 30.85,16.4 9.26,6.2 14.81,8.6 24.06,14.5 9.26,6.2 22.52,16.4 33.01,27.2 10.8,10.7 18.83,22.5 28.69,35.1 9.88,12.4 20.98,25.6 30.55,32.7 9.56,7.4 17.28,8.7 17.58,11.1 0.31,2.2 -7.1,5.3 -16.66,7.4 -9.56,1.9 -21.29,2.8 -18.82,5.9 2.47,2.8 19.43,8 34.56,11.4 15.11,3.4 28.69,5.2 46.27,1.5 17.28,-3.7 38.87,-12.6 52.45,-23.4 13.57,-10.5 19.43,-22.8 10.18,-25.9 -9.26,-2.8 -33.94,3.4 -47.82,5.2 -13.58,1.9 -16.97,-0.9 -10.49,-5.8 6.17,-5 22.21,-12.4 22.52,-16.1 0,-4 -15.42,-4.3 -29.93,-5.2 -14.49,-0.9 -28.07,-2.2 -29.92,-5.6 -2.16,-3.1 7.4,-8 18.2,-12 10.8,-4.3 23.14,-7.4 32.09,-13.3 9.25,-5.8 15.11,-14.5 10.48,-21.6 -4.93,-7.1 -20.36,-12.3 -21.59,-14.8 -1.54,-2.4 11.11,-2.1 23.75,-2.4 12.35,0 24.68,-1 43.5,-5 18.82,-4.3 44.11,-11.4 58.62,-15.4 14.49,-4.3 18.19,-5.2 13.88,0.6 -4.32,6.2 -16.35,18.8 -21.59,26.6 -4.94,8 -2.47,11.1 10.79,4 13.26,-7.4 37.95,-25 56.77,-40.5 18.81,-15.4 31.77,-28.3 41.03,-42.8 8.95,-14.2 13.88,-29.6 17.28,-43.2 3.38,-13.6 5.24,-25.3 4,-27.2 -1.54,-1.8 -5.85,6.2 -13.57,15.5 -7.41,9.5 -17.9,19.7 -21.9,18.8 -4.01,-1.3 -1.85,-13.9 -0.31,-23.5 1.23,-9.5 1.85,-15.7 -3.39,-9.8 -5.25,6.1 -16.36,24.6 -33.33,39.1 -17.27,14.8 -41.02,25 -62,32.7 -20.98,7.4 -39.8,12.1 -53.68,13.3 -13.57,1.2 -22.83,-0.6 -25.6,-4.6 -2.48,-4.3 0.92,-11.1 6.16,-19.5 4.94,-8 11.11,-17.5 21.29,-27.7 9.87,-9.9 23.44,-20.4 36.09,-28.7 12.65,-8.3 24.68,-14.8 31.48,-24.1 6.78,-9.2 8.63,-21.6 10.17,-37 1.86,-15.7 3.7,-34.9 3.4,-55.8 -0.63,-21.3 -3.4,-44.5 -8.64,-61.1 -5.56,-16.7 -13.58,-27.2 -18.51,-34.3 -5.25,-7.1 -7.1,-10.5 0.3,-12.3 7.41,-1.9 23.45,-1.9 37.65,5.5 14.18,7.4 25.9,22.6 35.78,37.1 9.87,14.5 18.2,28.3 20.67,29.6 2.47,1.2 -0.62,-10.5 -4.01,-22.5 -3.4,-11.8 -7.1,-23.5 -3.08,-25.7 4,-1.8 16.04,5.9 29.92,23.8 13.57,17.9 29.61,46 38.25,81.5 8.94,35.1 10.8,77.7 7.41,112.6 -3.4,34.5 -12.03,61.3 -27.46,86 -15.42,24.7 -37.64,47.5 -52.45,63 -15.11,15.4 -22.83,23.4 -19.43,26.5 3.39,3.4 17.89,1.5 24.37,3.1 6.79,1.5 5.25,6.5 -0.93,14.2 -5.86,7.4 -16.96,17.2 -27.15,23.7 -10.18,6.2 -19.74,9 -18.81,11.1 0.62,1.9 11.41,3.4 24.37,1.3 12.96,-1.9 27.77,-7.4 41.34,-16.1 13.88,-8.6 25.91,-20.3 29.93,-21 4.31,-0.3 0,10.5 3.38,13.3 3.1,2.8 13.58,-2.8 23.14,-11.1 9.88,-8.3 18.82,-19.7 27.77,-27.1 8.95,-7.4 17.59,-11.1 24.99,-16.4 7.41,-5.2 13.88,-12 22.52,-31.5 8.64,-19.1 19.44,-50.9 25.6,-81.1 6.48,-30.5 8.33,-59.5 7.71,-89.8 -0.3,-30.5 -3.08,-62.3 -1.23,-72.5 1.85,-10.2 8.33,1.3 13.27,16.1 4.94,15.1 8.64,33.6 14.19,49.6 5.56,16.1 13.27,30 16.35,42 2.77,11.7 1.24,22.2 -2.16,37.3 -3.08,14.8 -7.72,34.3 -11.41,48.1 -4.02,13.9 -7.1,22.3 -4.94,26 1.85,4 9.25,3.4 19.44,-7.1 10.17,-10.2 23.44,-30.9 33.62,-48.8 10.18,-18.2 17.28,-34.2 22.52,-55.8 5.25,-21.9 8.33,-49.4 11.11,-73.1 2.78,-23.5 4.94,-43.2 4.63,-55.3 -0.62,-12.3 -3.71,-17.2 -11.11,-8.3 -7.4,9.3 -19.43,32.4 -26.84,46.3 -7.4,13.6 -10.49,18.2 -13.26,15.4 -2.78,-2.8 -4.94,-12.6 -8.64,-16.6 -3.7,-4 -8.64,-2.2 -11.11,-5.6 -2.47,-3.1 -2.47,-11.4 -4.01,-20.7 -1.85,-9.5 -4.93,-20.6 -5.24,-32.4 0,-11.7 2.46,-24.3 1.84,-41.3 -0.92,-16.6 -5.54,-37.6 -13.25,-59.2 -7.72,-21.9 -18.52,-44.4 -21.91,-57.7 -3.39,-13.6 0.61,-17.6 8.64,-13 8.33,4.3 20.36,17.6 29,27.8 8.63,10.2 13.57,17.6 15.73,15.1 2.16,-2.1 1.23,-13.9 0.93,-34.2 -0.31,-20.1 0.3,-48.8 -2.17,-71.3 -2.46,-22.2 -8.02,-38.6 -13.57,-45 -5.86,-6.8 -11.72,-3.7 -16.96,5.5 -5.25,9 -9.57,24.1 -15.74,32.4 -5.86,8.3 -12.96,10.2 -16.35,2.8 -3.4,-7.4 -3.09,-24.4 -9.26,-47.8 -5.86,-23.8 -18.82,-54 -37.94,-76.5 -19.44,-22.6 -45.04,-37.1 -64.79,-44.5 -19.44,-7.4 -32.39,-8 -31.15,-3.4 1.23,4.7 17.27,14.2 35.16,28.7 17.9,14.8 37.95,34.9 52.45,58 14.81,23.2 24.37,49.4 28.07,72.2 3.71,22.8 1.23,42.6 -1.24,56.8 -2.46,14.2 -5.23,23.4 -10.48,29.3 -5.56,5.9 -13.57,8.6 -23.14,6.2 -9.56,-2.2 -20.36,-9.6 -21.9,-7.8 -1.23,1.6 6.78,12.1 15.11,23.8 8.03,11.7 16.36,25 20.67,37.6 4.32,13 4.63,25.9 3.09,37.1 -1.54,11.4 -5.25,21.3 -10.18,24.6 -4.94,3.1 -11.42,-0.6 -17.28,-11.1 -5.86,-10.8 -11.41,-28.3 -19.43,-47.5 -7.72,-19.1 -18.2,-39.5 -33.32,-57 -14.81,-17.9 -34.24,-32.7 -47.51,-40.2 -13.27,-7.7 -20.05,-7.7 -20.98,-1.8 -0.92,5.6 4.32,17 1.85,18.5 -2.77,1.6 -12.64,-6.5 -23.14,-13.9 -10.18,-7.7 -21.29,-14.5 -26.84,-15.4 -5.54,-0.9 -6.16,4.3 -6.16,8.6 0,4.7 0.62,8.7 -8.03,7.8 -8.63,-1.3 -26.53,-7.8 -48.74,-13 -22.21,-5.3 -48.74,-9.3 -69.41,-10.8 -20.68,-1.5 -35.17,-0.6 -46.28,0 -11.1,0.6 -18.81,1.2 -16.34,3.7 2.46,2.5 15.11,7.1 27.76,13 12.65,6.1 25.6,13.8 40.72,24 15.12,10.2 32.7,23.2 43.81,34 11.11,10.7 15.73,20 17.89,25.9 1.85,5.8 1.55,8.6 -4.93,8.9 -6.79,0.6 -19.44,-1.2 -32.7,-2.8 -13.58,-1.2 -27.47,-2.1 -41.03,0.7 -13.28,2.7 -25.92,8.9 -35.49,14.5 -9.55,5.2 -15.73,9.8 -25.91,20 -9.87,10.2 -23.45,26.2 -32.09,42.6 -8.63,16.6 -12.34,33.9 -13.57,46.9 -0.92,13.2 0.31,22.2 3.4,21.3 2.77,-1.3 7.4,-12.7 17.27,-25.7 9.56,-12.6 24.69,-27.1 36.71,-37 12.03,-9.8 20.98,-14.8 27.46,-17.5 6.17,-3.1 9.87,-4.1 8.02,4.3 -1.85,8.6 -8.94,26.2 -22.21,47.8 -13.27,21.3 -32.09,46.9 -45.35,66 -13.26,18.8 -20.36,31.5 -26.53,32.4 -6.17,0.6 -11.11,-10.8 -15.11,-25.3 -4.02,-14.5 -7.42,-32.1 -8.03,-47.5 -0.62,-15.1 1.23,-27.8 -0.3,-30.9 -1.55,-3.4 -6.8,3.1 -12.03,14.9 -5.56,11.4 -11.43,28 -17.28,35.1 -5.87,7.1 -11.72,4.3 -16.97,0.3 -4.94,-4 -8.95,-9.5 -12.65,-7.1 -4.01,2.5 -7.71,13 -8.95,25.6 -1.54,12.7 -0.62,27.8 2.47,41.7 3.09,13.9 8.02,26.5 10.8,37 3.08,10.8 4.01,19.4 1.23,19.1 -2.78,-0.3 -8.94,-9.2 -17.27,-18.2 -8.03,-8.9 -18.21,-17.3 -24.07,-25.9 -5.86,-8.6 -7.71,-17.3 -10.49,-18.8 -3.08,-1.9 -7.09,3.7 -9.26,9.5 -1.84,5.9 -1.84,12.4 -4,10.9 -2.16,-1.6 -6.17,-11.1 -7.1,-24.7 -0.93,-13.6 1.55,-31.5 5.56,-52.2 4.01,-20.6 9.86,-44.1 18.2,-63.2 8.64,-19.4 19.43,-34.3 19.75,-37.6 0,-3.1 -10.19,5.5 -21.91,18.5 -11.41,12.9 -24.37,30.2 -33.63,49.6 -9.56,19.5 -16.04,41.4 -19.43,54 -3.4,12.7 -3.71,16.4 -4.63,28.4 -0.62,12 -1.55,32.4 -1.24,48.1 0.31,16.1 1.54,27.2 2.77,37.1 0.93,9.8 1.86,17.8 0,22.5 -2.15,4.9 -7.09,6.1 -11.41,5.8 -4.32,-0.6 -8.02,-2.7 -11.72,-5.8 -4.01,-2.8 -8.02,-6.5 -11.72,-1.6 -4.01,5 -7.71,18.9 -10.18,31.5 -2.78,12.7 -4.63,24.4 -9.25,29 -4.63,4.3 -11.73,1.8 -14.82,7.4 -2.77,5.6 -1.54,19.7 2.78,33.3 4.32,13.6 11.72,26.9 13.57,35.2 2.17,8.3 -0.92,12 -8.94,11.4 -8.03,-0.3 -20.67,-4.9 -33.01,-12 -12.65,-7.4 -24.99,-17.3 -34.55,-28.1 -9.88,-10.5 -16.97,-21.9 -22.53,-32.1 -5.55,-10.2 -8.94,-19.1 -6.16,-23.7 2.46,-4.7 11.72,-4.7 17.89,-3.7 6.48,0.9 10.18,2.7 7.71,-1.3 -2.78,-3.7 -11.11,-13.2 -18.82,-24 -7.4,-10.8 -13.88,-23.2 -17.89,-33.4 -4.32,-9.8 -6.79,-17.5 -3.7,-18.8 2.77,-1.5 11.1,3.7 15.42,4.7 4.62,1.2 5.55,-1.6 2.78,-6.8 -2.78,-5.3 -8.95,-13 -14.81,-23.8 -5.86,-10.8 -11.42,-25 -14.5,-35.5 -2.77,-10.5 -3.39,-17.2 0.93,-16.9 4.01,0.3 12.65,7.4 15.42,8.3 2.47,0.6 -0.62,-5.2 -1.85,-16.3 -1.54,-10.8 -0.92,-26.6 1.54,-41.4 2.47,-14.8 7.1,-28.4 9.57,-29.6 2.46,-0.9 2.77,10.2 4.63,17.9 1.84,7.7 4.93,12 11.1,22.8"
         style="fill:#fbf5df;fill-opacity:1;fill-rule:evenodd;stroke:none"
         id="path6412"
         transform="matrix(0.13333333,0,0,-0.13333333,0,2933.3333)" />
      <path
         d="m 7915.59,14729.3 c -8.02,7.4 -15.42,12.7 -18.82,12.1 -3.4,-0.3 -2.78,-5.9 3.7,-19.5 6.79,-13.5 19.13,-34.8 31.16,-54.6 12.03,-20 23.75,-38.5 39.48,-56.4 16.05,-17.9 36.41,-35.2 54.3,-50 17.9,-14.8 33.32,-27.5 39.5,-29.9 5.85,-2.5 2.46,4.9 -4.02,13.9 -6.48,8.9 -15.73,19.4 -15.73,22.2 0,2.7 9.25,-1.9 26.84,-9.3 17.28,-7.4 42.27,-17.3 57.38,-22.2 15.12,-4.9 20.05,-4.9 10.49,1.8 -9.87,7.1 -34.24,21.3 -55.84,35.2 -21.29,13.6 -39.8,27.2 -55.84,41.4 -16.35,14.2 -30.23,29 -44.73,43.8 -14.19,14.5 -28.69,29 -40.11,41.3 -11.41,12.3 -19.74,22.5 -27.76,30.2"
         style="fill:#fbf5df;fill-opacity:1;fill-rule:evenodd;stroke:none"
         id="path6414"
         transform="matrix(0.13333333,0,0,-0.13333333,0,2933.3333)" />
      <path
         d="m 8324.04,15499.7 c -12.95,-3.7 -30.85,-8.4 -36.71,-12.1 -5.55,-4 1.24,-7.1 22.52,-12.6 21.29,-5.3 57.07,-13 93.79,-27.5 36.4,-14.5 73.42,-35.8 99.95,-52.7 26.53,-16.7 42.58,-29 48.44,-27.5 5.86,1.3 1.85,16.1 -2.16,26.6 -4.32,10.1 -8.33,15.4 -4.32,14.8 3.7,-0.7 15.42,-7.4 27.45,-19.2 11.73,-11.4 23.46,-27.7 35.79,-41 12.04,-13 24.99,-23.1 33.32,-26.5 8.33,-3.4 12.34,0 12.96,10.2 0.31,10.4 -2.78,28 -8.64,50.5 -5.56,22.3 -13.57,48.8 -27.77,78.7 -14.19,29.9 -33.93,63.3 -58.92,87.6 -24.99,24.4 -54.92,40.4 -83.29,50.3 -28.39,9.9 -54.92,14.2 -74.05,14.8 -19.12,0.6 -30.54,-2.1 -36.09,-8.3 -5.55,-6.5 -5.55,-16.4 -5.87,-24.7 -0.3,-8 -0.61,-14.5 -12.03,-17.9 -11.41,-3.4 -33.62,-3.7 -58.92,-7.1 -25.3,-3.1 -53.99,-8.9 -76.19,-16.9 -22.22,-7.8 -38.26,-17.9 -37.65,-22.6 0.32,-4.9 17.28,-4.3 38.88,-3 21.28,1.5 47.81,3.7 67.55,4.3 20.06,0.6 33.63,0 44.13,-1.9 10.48,-1.5 17.58,-3.7 17.58,-6.5 0,-2.7 -7.1,-5.8 -19.75,-9.8"
         style="fill:#fbf5df;fill-opacity:1;fill-rule:evenodd;stroke:none"
         id="path6416"
         transform="matrix(0.13333333,0,0,-0.13333333,0,2933.3333)" />
      <path
         d="m 6212.96,16470.8 c -7.4,-2.7 -20.05,-3.4 -28.38,-0.6 -8.02,2.8 -12.04,8.7 -14.19,16.1 -2.16,7.4 -2.47,16 1.54,22.5 3.7,6.5 11.41,10.8 18.82,12 7.1,1.6 13.57,-0.3 19.13,-7.1 5.86,-6.5 10.49,-18.2 11.72,-26.5 0.92,-8.3 -1.23,-13.6 -8.64,-16.4"
         style="fill:#962934;fill-opacity:1;fill-rule:evenodd;stroke:none"
         id="path6418"
         transform="matrix(0.13333333,0,0,-0.13333333,0,2933.3333)" />
      <path
         d="m 6217.59,16465.3 c -6.17,-2.2 -16.04,-2.8 -22.83,-0.6 -6.48,2.4 -9.56,7.1 -11.42,12.9 -1.54,5.9 -1.85,13 1.24,18.2 3.08,5.3 9.25,9 15.12,9.9 5.86,0.9 11.11,-0.3 15.42,-5.9 4.63,-5.2 8.33,-14.5 9.26,-21.2 1.23,-6.8 -0.93,-10.8 -6.79,-13.3"
         style="fill:#feda3b;fill-opacity:1;fill-rule:evenodd;stroke:none"
         id="path6420"
         transform="matrix(0.13333333,0,0,-0.13333333,0,2933.3333)" />
      <path
         d="m 6198.46,16477 c -1.85,0.3 -4.63,0.9 -5.55,2.5 -0.93,1.5 0,4.6 2.16,7.7 2.16,3.4 5.55,6.8 8.02,8.9 2.47,1.9 4.01,2.5 5.55,1.6 1.24,-1 2.78,-3.7 2.78,-6.5 0.3,-3.1 -0.61,-6.5 -2.47,-8.9 -1.54,-2.8 -3.7,-5 -5.56,-5.6 -1.84,-0.6 -3.08,-0.3 -4.93,0.3"
         style="fill:#fbf5df;fill-opacity:1;fill-rule:evenodd;stroke:none"
         id="path6422"
         transform="matrix(0.13333333,0,0,-0.13333333,0,2933.3333)" />
      <path
         d="m 10034.4,13082.6 c -2.5,0.6 -5.6,1.8 -6.2,4.6 -0.6,2.8 0.9,7.1 3.4,9.5 2.2,2.2 5.3,2.5 7.7,1.6 2.2,-0.9 4,-2.8 4.6,-4.6 1,-2.2 1,-4.1 0,-6.2 -0.6,-1.9 -1.8,-3.4 -3.7,-4.3 -1.5,-1 -3.3,-1.3 -5.8,-0.6"
         style="fill:#fbf5df;fill-opacity:1;fill-rule:evenodd;stroke:none"
         id="path6424"
         transform="matrix(0.13333333,0,0,-0.13333333,0,2933.3333)" />
      <path
         d="m 10390.1,16451.4 c 0,-8 -4.6,-16 -9.9,-21.6 -4.9,-5.5 -10.8,-8.3 -16.6,-8.3 -6.2,0 -13,2.8 -17,7.7 -4,5.2 -5.6,12.3 -3.7,19.7 1.8,7.4 7.1,14.8 14.2,19.2 7.1,4.3 16,5.5 22.8,2.1 6.5,-3.4 10.5,-11.1 10.2,-18.8"
         style="fill:#feda3b;fill-opacity:1;fill-rule:evenodd;stroke:none"
         id="path6426"
         transform="matrix(0.13333333,0,0,-0.13333333,0,2933.3333)" />
      <path
         d="m 10391.6,16455.7 c 0,-6.8 -4,-13.9 -8.3,-18.5 -4.6,-4.9 -9.3,-7.1 -14.8,-7.1 -5.3,0 -10.8,2.2 -14.5,6.5 -3.4,4.3 -4.9,10.8 -3.4,17 1.5,6.4 6.2,12.9 12.3,16.6 6.2,3.7 14.2,5 19.8,1.9 5.8,-2.8 9.2,-9.6 8.9,-16.4"
         style="fill:#962934;fill-opacity:1;fill-rule:evenodd;stroke:none"
         id="path6428"
         transform="matrix(0.13333333,0,0,-0.13333333,0,2933.3333)" />
      <path
         d="m 10359.9,16440.3 c -2.5,2.8 -3.7,6.2 -3.7,9.3 0.3,3 1.8,5.5 4.9,7 3.1,1.6 7.4,1.9 10.5,0.3 2.8,-1.5 4.6,-4.6 5.8,-8 1,-3.1 1.3,-6.8 -0.3,-9.2 -1.5,-2.5 -4.6,-4 -8,-3.7 -3.4,0 -6.8,1.5 -9.2,4.3"
         style="fill:#fbf5df;fill-opacity:1;fill-rule:evenodd;stroke:none"
         id="path6430"
         transform="matrix(0.13333333,0,0,-0.13333333,0,2933.3333)" />
      <path
         d="m 10244.2,15229.1 c 33.6,13.3 95.6,37.7 133.2,52.5 37.4,14.8 50.6,20 62.4,19.1 12,-0.9 22.8,-8 26.5,-15.4 4,-7.4 0.6,-15.2 -6.2,-21.3 -6.8,-5.9 -17,-10.2 -35.2,-14.2 -17.8,-4 -43.5,-8 -77.4,-14.5 -33.9,-6.2 -75.9,-15.1 -101.8,-19.5 -26.2,-4.3 -36.1,-4.3 -38.2,-3.4 -2.5,1.3 3,3.1 36.7,16.7"
         style="fill:#ffb72f;fill-opacity:1;fill-rule:evenodd;stroke:none"
         id="path6432"
         transform="matrix(0.13333333,0,0,-0.13333333,0,2933.3333)" />
   </g>
</svg>
