<?xml version="1.0" encoding="UTF-8" standalone="no"?>
<svg
   xmlns="http://www.w3.org/2000/svg"
   width="700"
   height="700"
   viewBox="0 0 700 700"
>
   <g
      id="g6"
      transform="translate(-2273.7691,-573.02608)"
      style="display:inline">
      <path
         d="m 18504.4,13240.4 c -8.1,12.8 -18.3,36.2 -28.2,55.3 -10.2,18.6 -20.5,32.5 -33.7,38 -12.7,5.5 -28.1,2.2 -36.9,-9.1 -8.8,-11.4 -10.2,-30.8 -11.7,-48 -1.1,-17.5 -2.2,-33.2 1.1,-50.4 2.9,-17.2 10.6,-35.9 16.5,-56.3 5.8,-20.5 10.2,-42.5 9.5,-62.2 -0.8,-19.8 -6.6,-36.9 -15.7,-47.2 -9.2,-10.2 -21.6,-13.2 -32.2,-21.6 -10.6,-8.4 -19,-21.9 -19.4,-36.2 -0.4,-14.2 7.7,-29.2 20.1,-37.3 12.4,-8.4 29.3,-10.2 44.6,-15.3 15.7,-5.5 30.4,-14.7 39.5,-23.4 9.5,-9.2 13.9,-17.6 27.1,-23.1 13.1,-5.1 35.1,-7.3 48.6,-4.4 13.5,3 18.3,11 21.6,26.4 2.9,15.3 4.7,37.6 7.3,53 2.9,15.3 6.6,23.4 11.3,25.6 4.8,2.2 10.6,-1.5 16.9,-8.1 5.8,-6.5 11.7,-15.7 26.3,-22.6 14.3,-7 37.7,-11.7 68,-10.6 30.4,1.1 68,8 89.6,21.5 22,13.2 27.8,33.3 24.5,46.9 -3.3,13.1 -15.7,20.1 -31.1,25.9 -15.7,5.5 -34.3,9.9 -48.2,19.8 -13.6,9.5 -22.3,24.5 -26,43.1 -3.7,18.7 -2.6,40.6 -5.9,61.5 -3.3,20.8 -10.9,40.9 -20.1,58.5 -9.5,17.2 -20.8,32.5 -35.8,39.8 -15,7.7 -34,7.7 -47.6,1.1 -13.9,-6.6 -22.3,-19.4 -29.6,-30.3 -7.3,-11 -13.1,-20.1 -18.3,-24.2 -5.1,-4 -9.5,-2.9 -13.9,-1.8 -5.1,1.5 -10.6,3.3 -18.2,15.7 z m -454.6,662.7 c -8.4,4.4 -20.5,14.3 -31.1,28.2 -10.6,13.5 -19.8,31 -24.9,43.1 -5.1,12.5 -6.2,19.4 -2.9,19.8 2.9,0.7 11,-5.2 20.5,-15.8 9.9,-10.6 21.2,-25.6 30.3,-36.9 9.2,-11.3 16.1,-18.6 19.8,-24.9 3.6,-5.8 4.4,-10.6 2.9,-13.5 -1.8,-2.9 -6.2,-4.4 -14.6,0 z m -352.6,566.5 c 1.5,-11.3 2.6,-23.4 0.4,-30.7 -1.8,-7.7 -6.6,-10.6 -13.5,-18.3 -7,-7.7 -16.1,-19.4 -20.9,-27.4 -4.4,-8.1 -4.4,-12.5 -6.9,-7.7 -3,4.4 -8.1,17.9 -13.6,27 -5.4,9.2 -10.9,13.9 -6.9,18.7 4,5.1 17.5,9.9 25.6,18.6 8,8.8 11,22 6.9,37.7 -4,15.7 -15,34.8 -28.5,46.4 -13.9,11.8 -30.3,16.9 -46.1,16.5 -15.7,-0.4 -29.9,-5.8 -39.1,-7.7 -9.1,-2.2 -13.2,-1.1 -19.4,0.8 -6.6,1.8 -15.7,4.4 -25.2,1.1 -9.9,-3 -20.1,-12.1 -31.5,-29.3 -10.9,-16.8 -23.4,-41.7 -30.3,-71.7 -6.6,-30 -7.7,-65.4 -6.6,-95.4 1.1,-29.7 4.4,-54.1 15,-76.1 11,-21.9 29.2,-41.7 48.6,-57 19.8,-15.4 40.6,-26.4 60.4,-35.9 19.7,-9.9 38,-18.3 54.8,-23.8 16.9,-5.8 32.6,-8.4 45.8,-2.9 13.1,5.9 23.7,19.8 30.3,35.1 6.2,15.4 8.4,31.8 12.1,38.8 3.3,6.9 8.4,4.4 14.6,-2.6 5.9,-6.9 13.5,-18.3 36.6,-35.8 23,-17.6 61.8,-41 87.7,-57.1 25.6,-16.1 38.8,-24.8 43.2,-23.4 4.7,1.1 0.7,12.5 -10.2,32.9 -11,20.5 -29.3,50.2 -41,69.5 -12.1,19.4 -17.2,28.6 -17.2,35.1 0,6.6 5.1,11 9.5,15.8 4,4.4 6.6,9.1 5.5,20.8 -1.1,11.7 -5.8,30 -11.7,45 -5.5,15.3 -12.1,27.8 -20.8,38.4 -8.8,10.2 -20.2,19 -31.5,27.4 14.6,-2.5 28.9,-5.1 39.1,-0.7 9.9,4.7 15,16.4 17.2,36.9 2.2,20.5 1.1,49.4 -5.8,73.5 -7,23.8 -19.8,42.5 -34,56.7 -14.3,13.9 -30,23.1 -43.2,27.5 -13.2,4 -23.8,3.6 -34,-3.7 -10.2,-7.3 -19.7,-21.2 -23,-35.8 -3.3,-14.3 0,-29.3 2.1,-42.5 2.6,-12.8 4.1,-23.4 5.5,-34.7 z m 196.8,968 c 8.4,0 18.6,2.2 25.6,11.4 6.9,9.1 11,25.2 6.9,39.8 -3.6,14.6 -15,27.5 -27.4,43.5 -12.1,16.1 -25.6,35.5 -35.5,46.9 -9.5,11.3 -15.3,14.6 -20.1,9.1 -4.4,-5.5 -7.7,-19.4 -9.9,-37.3 -2.1,-17.9 -3.2,-40.2 -5.4,-43.9 -2.2,-3.7 -5.2,10.6 -6.3,32.6 -1.1,21.5 0,50.8 4.1,73.5 4,23 10.9,39.5 16.4,60.7 5.1,21.2 9.2,47.1 9.2,59.9 0,13.2 -4.1,13.2 -11,5.2 -7,-7.7 -17.2,-23.4 -25.6,-34 -8.1,-10.6 -14.6,-16.9 -25.2,-20.2 -10.3,-3.6 -24.9,-4.7 -39.9,-11.7 -15,-6.9 -30.7,-19.7 -42.4,-32.9 -11.4,-13.1 -19,-26.7 -26.7,-33.3 -7.7,-6.9 -16.1,-6.9 -25.3,-6.9 -9.1,0 -19,0 -30.3,-11.3 -11.3,-11 -23.8,-33.7 -36.6,-57.8 -12.4,-24.2 -25.2,-50.1 -29.6,-73.5 -4.4,-23.4 0,-44.3 4.8,-63.7 4.7,-19.3 10.2,-37.3 16.8,-51.2 6.2,-13.9 13.9,-24.1 26.7,-30.7 12.8,-6.2 31.1,-9.1 43.9,-5.1 12.8,3.7 19.7,13.9 20.8,25.6 1.5,12.1 -2.9,25.2 -5.5,41.7 -2.5,16.4 -3.6,35.8 -1.8,36.2 2.2,0 7.7,-18.7 15.3,-31.1 8.1,-12.4 18.3,-18.3 26.4,-19.7 8.4,-1.9 15,1 20.5,-2.6 5.1,-3.3 9.5,-13.2 18.6,-13.9 9.1,-0.7 23,7.3 35.8,10.6 13.2,2.9 24.9,1.5 29.7,6.2 5.1,4.8 2.9,16.1 5.5,26 2.5,9.5 10.2,17.5 17.5,27.4 7.3,10.3 14.3,22 20.5,27.1 6.6,5.1 12.4,3.6 18.6,1.4 6.3,-1.8 12.8,-4 20.9,-4 z m 292.9,-664.1 c -3.6,-7 -5.1,-12.4 -8.8,-13.2 -3.2,-1.1 -8.7,1.9 -14.9,18.3 -6.3,16.1 -13.2,45 -20.9,73.9 -7.3,28.5 -15.4,57 -19.7,88.9 -4.4,31.8 -4.8,66.5 -4.8,92.1 0,25.6 0.4,41.7 1.5,60.4 1.1,19 2.9,40.5 -2.2,54.4 -4.8,13.9 -16.1,20.5 -31.1,22.7 -15,1.8 -33.7,0 -54.1,-12.4 -20.5,-12.4 -42.5,-35.1 -58.2,-64.7 -15.7,-29.3 -24.9,-65.9 -28.5,-95.9 -3.7,-29.9 -2.2,-53 2.9,-79.7 5.1,-27 13.9,-57.8 22.7,-87.4 8.8,-30 17.9,-58.9 29.6,-93.6 12.1,-34.8 26.3,-75 36.6,-107.9 9.9,-32.5 15.3,-57.8 25.2,-79.7 9.9,-21.6 24.5,-39.9 32.6,-53 8,-12.8 9.5,-20.5 6.2,-26.4 -3.3,-5.8 -11.4,-10.2 -15.4,-19 -4,-8.8 -4,-22.3 2.2,-37.3 5.9,-15 17.6,-31.8 33.3,-46.4 15.4,-15 34.7,-27.8 55.2,-38.1 20.5,-10.2 42.1,-17.5 62.6,-24.5 20.1,-7.3 39.4,-13.5 61.8,-11.7 21.9,1.8 46.8,12.1 59.6,24.9 12.8,13.2 13.9,28.5 15,53.7 1.1,24.9 2.2,59.3 5.1,85.6 2.9,26.4 7.7,44.6 14.6,54.1 7,9.2 16.1,9.9 26.3,10.7 10.3,0.7 21.6,1.8 34.4,-0.4 12.5,-2.6 26.4,-8.4 40.2,-17.6 13.6,-9.1 27.1,-21.5 42.8,-25.9 15.4,-4.8 33.3,-1.5 52,-10.6 19,-9.2 38.7,-30.8 57.4,-43.2 18.6,-12.1 35.8,-15.4 50.8,-9.1 15,6.2 27.8,21.5 30.7,39.5 2.6,18.2 -5.1,38.4 -20.4,63.2 -15.8,24.9 -39.5,53.8 -59.7,86.7 -20.1,32.5 -36.5,69.1 -44.6,101.3 -8,31.8 -7.7,59.2 -7.3,80.5 0.7,21.2 1.1,36.5 -0.7,48.6 -1.9,12.4 -6.2,22.3 -16.5,28.9 -10.6,6.6 -27.4,10.6 -43.5,3.6 -16.5,-6.5 -32.5,-23.7 -44.6,-44.9 -11.7,-21.2 -19.4,-46.5 -24.5,-61.5 -5.5,-14.6 -8.8,-19 -17.6,-12.4 -8.7,6.2 -23.4,23.4 -36.2,43.5 -12.8,19.8 -24.1,42.4 -30.7,66.2 -6.6,23.4 -8,48.3 -10.2,73.2 -2.2,25.2 -4.8,50.4 -12.5,63.6 -7.3,13.1 -19.7,14.2 -27,15 -7.3,0.7 -9.5,1.1 -9.2,16.8 0.4,15.7 3,46.4 2.6,75.3 0,28.9 -3.3,56.3 -9.9,81.6 -6.2,24.9 -16.1,47.5 -24.1,59.2 -8.1,11.7 -14.7,12.8 -23.4,6.2 -8.8,-6.5 -20.1,-21.2 -31.5,-33.2 -11.3,-12.1 -22.7,-22 -35.5,-32.6 -12.8,-11 -27.4,-22.7 -31.8,-43.1 -4,-20.9 1.9,-50.5 10.3,-71 8.7,-20.5 20.1,-31.8 27,-40.6 7,-9.1 9.5,-16.4 7,-26.7 -2.6,-10.6 -10.6,-24.5 -16.8,-38.7 -5.9,-14.3 -9.5,-28.9 -9.5,-47.9 0,-19.1 3.6,-42.8 6.5,-63.3 3,-20.1 5.1,-37.7 3.3,-50.5 -1.8,-12.8 -7.7,-21.6 -11.7,-28.5 z m -682.4,-129.5 c 3.7,5.5 5.9,13.9 11.3,22 5.5,8 14.3,16.1 15.8,24.1 1.1,8.4 -5.5,16.8 -15,19.8 -9.9,3.3 -22.7,0.7 -29.6,-5.2 -7.4,-5.8 -8.8,-15.3 -10.7,-24.1 -2.1,-8.8 -4.7,-16.8 -2.5,-24.5 2.2,-7.7 9.1,-15.4 15.3,-17.6 6.3,-2.5 11.4,0 15.4,5.5 z m 789.6,-1166.2 c 5.5,12.8 6.6,35.5 4,55.2 -2.6,20.1 -9.1,37.3 -17.6,53.4 -8.4,16.1 -18.2,31.1 -30.7,45 -12,14.2 -25.9,27 -39.5,35.5 -13.9,8.7 -27.4,13.1 -32.2,8.4 -4.7,-4.4 -1,-17.9 1.1,-30 2.2,-12.1 2.6,-23.1 1.5,-31.1 -1.5,-8.4 -4.8,-14.3 -9.1,-19.4 -4.8,-5.1 -10.6,-9.5 -13.9,-13.9 -3.7,-4.7 -4.8,-9.5 -2.6,-16.1 2.2,-6.2 7.7,-14.2 8.1,-20.8 0.7,-6.6 -3.7,-11.4 -8.1,-16.1 -4.4,-4.8 -8.8,-9.9 -9.9,-17.2 -1.4,-7.7 0.4,-17.9 8.4,-26 8.1,-8 22.3,-13.9 35.5,-15.7 13.2,-1.8 25.2,0.4 34.4,2.6 9.1,2.5 15.4,5.1 16.8,10.6 1.5,5.5 -2.5,13.5 -1.4,15.3 1,1.9 6.9,-2.5 12.8,-9.8 5.4,-7.7 10.9,-18.3 18.6,-22.3 8,-3.7 18.3,-0.4 23.8,12.4 z m 369.3,825.8 c -15,12.8 -32.5,28.8 -46.4,35.8 -13.5,6.6 -23.4,4 -31.8,-1.8 -8.8,-5.5 -16.1,-14.3 -23.8,-16.1 -7.3,-1.9 -15,2.9 -23.4,3.6 -8,1.1 -17.2,-2.2 -30.4,-17.2 -13.1,-15.3 -30.7,-42 -33.2,-78.2 -2.6,-36.2 9.1,-81.9 22.3,-117.4 13.1,-35.1 27.8,-60 43.1,-79 15.4,-19 31.5,-32.5 41.7,-42.8 10.3,-10.2 14.3,-17.2 15.4,-26.7 0.7,-9.9 -2.2,-21.9 -1.1,-40.9 0.7,-18.7 5.1,-43.9 17.2,-71.7 12.4,-27.8 32.9,-57.8 59.6,-91.1 26.7,-33.3 59.2,-69.8 93.6,-101.7 34,-31.8 69.5,-58.5 102.4,-78.6 33.3,-20.1 64,-33.6 92.2,-40.6 28.5,-6.9 54.8,-7.7 78.6,-5.8 23.8,1.8 44.6,6.2 66.5,12.8 21.6,6.2 44.3,15 61.9,17.2 17.1,2.2 29.6,-2.2 44.9,-8.5 15.4,-6.2 33.7,-14.2 54.5,-16.8 21.2,-2.9 44.6,0 71.7,11.4 26.7,11.7 57.1,32.1 81.2,52.6 24.1,20.1 42.4,40.6 45.7,65.1 3.7,24.5 -7.7,53.1 -22.7,76.8 -15,24.2 -34,43.5 -63.6,64.4 -30,20.8 -70.9,43.5 -110.1,62.2 -39.1,18.6 -76.8,32.9 -102.4,39.5 -25.6,6.5 -38.7,4.7 -54.8,4 -15.8,-0.8 -34,-0.8 -53.4,-2.2 -19.4,-1.5 -39.9,-4 -57.8,-16.8 -17.9,-12.5 -33.7,-35.2 -59.6,-45.4 -26.4,-10.2 -62.6,-8 -95.5,-0.7 -32.9,7.3 -61.8,19.7 -83,29.6 -20.8,9.9 -33.6,17.6 -33.3,21.2 0,3.7 13.6,3.7 38.4,8.4 25.3,5.1 61.8,14.7 94.4,32.2 32.5,17.5 61.1,42.8 71.7,64.4 10.6,21.2 3.6,39.1 -11.7,55.6 -15.4,16.4 -38.8,31.4 -59.3,49.3 -20.5,17.9 -37.7,39.2 -56.3,60.4 -18.3,21.2 -38.4,42.4 -56,59.6 -17.9,16.8 -33.2,29.2 -47.1,40.2 -13.6,11 -25.6,20.9 -40.3,33.7 z m 1326.8,-516.1 c -9.1,0.4 -18.3,1.1 -30.7,4.8 -12.1,3.6 -27.8,10.6 -38.8,16.1 -10.9,5.5 -17.5,9.1 -12.4,9.1 5.1,0 22,-3.6 49.4,-2.9 27.4,0.7 65.4,6.2 93.6,12.4 28.2,6.3 46.5,13.2 63.3,22.7 16.4,9.2 31.8,21.2 41.7,27.8 9.8,6.6 14.6,8.4 12,2.6 -2.9,-6.2 -12.8,-19.4 -25.2,-32.6 -12.1,-13.1 -26,-26.3 -30.3,-35.1 -4.8,-8.8 0,-13.5 7.3,-21.6 6.9,-7.6 16.1,-18.3 25.9,-24.1 9.9,-5.5 20.5,-6.2 34.4,4 13.5,10.3 30.4,31.1 46.1,46.5 16.1,15 31.1,24.1 43.1,25.9 12.1,1.8 21.2,-3.6 29.7,-14.2 8.7,-10.6 16.8,-27.1 34.3,-24.9 17.6,2.2 44.3,22.7 64.4,64 20.1,40.9 33.6,102.8 36.2,144.4 2.2,41.7 -6.2,63.3 -16.5,68.4 -10.2,5.2 -21.9,-6.2 -40.9,-15.3 -18.7,-8.8 -44.6,-15 -60.7,-17.6 -16.1,-2.5 -22.7,-0.7 -15.7,5.5 6.5,6.2 26.3,16.8 46,33.3 19.8,16.8 39.2,39.5 57.1,58.1 17.9,19.1 34.7,34 43.5,46.9 8.8,12.7 9.9,23.7 14.6,22.3 5.2,-1.5 13.6,-14.7 19,-27.8 5.5,-13.2 7.4,-26.4 16.5,-36.6 9.2,-10.6 25.2,-18.7 33.3,-30.4 7.7,-11.3 7.3,-26.3 9.5,-36.5 2.6,-10.3 8,-15.8 17.6,-13.9 9.5,1.8 23.7,10.9 40.5,28.9 16.9,17.5 37,43.8 48.3,63.6 11,19.7 13.9,32.5 20.5,48.6 6.9,16.1 17.6,35.5 22.7,54.5 5.1,18.7 4.4,37 5.8,51.6 1.5,15 4.8,26.3 -5.5,25.6 -9.8,-0.4 -32.9,-12.8 -52.6,-20.5 -19.4,-7.3 -35.5,-10.2 -36.6,-6.2 -0.7,4.4 13.9,15 31.5,29.6 17.1,14.3 37.6,32.6 51.9,44.6 14.3,11.7 22.3,17.2 33.3,20.9 10.6,3.6 24.1,5.8 40.6,32.9 16.8,26.7 36.5,78.3 48.2,109.3 11.4,31.5 14.7,42.1 25.3,47.9 10.6,5.9 28.1,7 43.5,9.9 15.3,3.3 28.1,8.1 38.4,20.9 10.2,12.8 17.9,34 22.7,48.2 4.7,14.3 6.9,21.6 1.8,20.9 -5.1,-0.7 -17.6,-9.9 -29.3,-15.4 -11.7,-5.5 -23,-6.9 -27,-5.8 -4,1.1 -1.1,4.7 5.8,16.4 6.6,12.1 16.8,31.9 23.4,50.9 6.2,18.6 9.2,36.5 8.8,54.8 -0.4,18.7 -3.7,38 -8.4,53.4 -4.8,15.4 -11.3,26.7 -7.3,24.5 3.6,-1.8 17.5,-16.8 28.1,-31.1 10.3,-14.2 17.6,-27.8 26.7,-33.6 9.5,-5.9 21.2,-4 34,-6.2 12.5,-2.2 26,-8.1 35.5,-14.3 9.5,-5.8 14.6,-11.7 23.4,-12.1 8.4,-0.7 20.5,4.1 34.8,1.1 14.2,-2.9 30.7,-13.5 44.2,-27.8 13.5,-14.2 23.8,-32.1 32.2,-58.5 8.8,-26.7 15.7,-62.1 17.9,-95.8 2.2,-33.6 -0.7,-65.4 -8.4,-96.2 -7.7,-31.1 -20.8,-61 -32.5,-84.8 -11.7,-23.4 -22.7,-40.6 -35.9,-59.3 -13.1,-18.6 -28.5,-38.4 -51.9,-52.3 -23.4,-14.2 -54.9,-22.3 -80.1,-27.4 -25.6,-5.5 -45.7,-8 -64,-17.2 -18.6,-9.1 -35.8,-24.8 -48.3,-33.6 -12.4,-8.8 -19.7,-11 -24.5,-23.1 -4.4,-11.7 -6.2,-33.2 -15.3,-57.4 -9.5,-24.1 -26.7,-51.2 -42.8,-74.2 -15.7,-23.1 -30.4,-42.4 -48.7,-60 -18.2,-17.5 -40.2,-32.9 -64.7,-45.3 -24.5,-12.5 -51.2,-21.6 -65.8,-27.8 -14.3,-6.2 -16.5,-9.2 -19.4,-32.2 -2.6,-22.7 -5.9,-65.1 -21.2,-107.5 -15.7,-42.1 -43.9,-84.1 -68.8,-109.8 -24.8,-25.9 -46.8,-35.4 -65.1,-46 -17.9,-10.6 -31.8,-22 -53.4,-30 -21.5,-8.4 -50.4,-13.9 -80.8,-17.2 -30.3,-3.7 -62.2,-5.1 -97.6,1.8 -35.5,7.3 -74.6,23.4 -96.6,34.4 -21.5,10.6 -25.9,16.1 -37.6,13.2 -11.4,-3 -30.4,-14.3 -51.2,-24.2 -20.9,-10.2 -44.3,-18.6 -70.6,-20.5 -26.4,-1.8 -56,3 -79.7,11.4 -23.8,8.8 -42.1,21.2 -53.4,33.3 -11.4,12 -15.8,23.7 -11,32.5 5.1,8.4 19,13.9 40.2,19.8 21.2,5.8 49.8,12.4 72.4,16.8 22.3,4 39.2,6.2 52.7,8 13.2,2.2 23.4,3.7 27.1,9.2 3.2,5.1 0.3,14.2 0.3,23.8 0,9.5 2.9,19 6.2,28.8 z m 87.4,-551.5 c -15.3,-5.4 -41.7,-9.1 -65.1,-9.1 -23.4,0 -43.8,3.7 -59.2,7.3 -15.7,4 -26.3,7.7 -24.9,11 1.9,2.9 15.8,5.8 33.7,5.8 17.9,0 40.2,-2.9 61.4,-2.9 21.6,-0.3 42.8,1.8 55.6,3.7 12.8,1.8 17.6,3.6 17.9,0.3 0.4,-2.9 -4,-10.2 -19.4,-16.1 z m 463.4,144.5 c -20.1,-5.8 -44.3,-9.1 -61.8,-9.5 -17.6,-0.7 -28.2,1.5 -41.7,-4 -13.5,-5.9 -29.6,-19.4 -39.9,-35.5 -10.6,-16.1 -15.3,-34.7 -24.8,-46.1 -9.5,-11.3 -23.4,-15 -46.5,-18.6 -23,-3.3 -55.2,-6.6 -82.6,-12.5 -27.1,-6.2 -49,-14.6 -55.6,-20.1 -6.2,-5.1 2.9,-7.3 21.9,-9.1 19,-1.5 47.9,-2.6 71.7,-5.1 23.8,-2.2 42.1,-6.3 60,-11.4 17.9,-5.5 35.8,-12.4 50.8,-20.5 15.4,-8 28.5,-17.2 44.6,-21.9 16.1,-5.1 35.5,-5.5 56,-2.6 20.1,3 41.7,9.5 60.3,12.5 18.7,2.9 34,2.2 49,4 15.4,1.5 29.7,5.1 50.1,16.5 20.5,11.3 46.8,30.3 65.5,50.8 18.7,20.1 29.2,42.4 32.9,62.9 3.7,20.8 0.7,40.2 -1.1,57 -1.5,16.9 -1.5,31.5 4.8,53.1 6.2,21.5 18.3,50.1 31.4,83.4 12.8,33.6 26.4,72.4 26.4,79.7 0,7.3 -13.6,-16.9 -30.4,-39.2 -17.2,-21.9 -37.3,-41.6 -58.9,-60.7 -21.6,-18.6 -44.2,-36.5 -65.8,-49.7 -22,-13.2 -42.8,-21.6 -61.5,-30.4 -18.6,-8.4 -34.7,-17.1 -54.8,-23 z m -972.8,-182.8 c -11,-3.3 -28.5,-7.4 -41.7,-10.3 -13.5,-2.5 -23,-3.6 -30.3,-2.2 -7.4,1.8 -12.1,6.2 -8.4,10.6 3.6,4.8 16,9.5 28.1,12.1 12.1,2.9 23.8,3.3 36.2,4.7 12.5,1.1 25.2,3.3 31.8,2.2 6.6,-1.1 6.6,-5.1 3.7,-8.4 -2.6,-3.3 -8.1,-5.5 -19.4,-8.7 z m 1416,649.8 c -8.4,-5.5 -18.6,-11.3 -29.6,-26.3 -11,-14.6 -22.7,-38.4 -35.1,-59.6 -12.4,-21.2 -25.2,-39.9 -32.9,-52 -8.1,-11.7 -10.6,-16.4 1.4,-9.1 12.1,6.9 39.2,26.3 56,41.7 16.8,15 23.8,25.6 24.5,31.4 0.4,5.9 -5.5,7 -5.5,13.2 0,6.2 5.9,17.6 13.9,31.5 8.1,13.5 18.3,29.6 20.1,35.1 2.2,5.5 -4.4,0 -12.8,-5.9 z m 260,445.1 c -11.7,1.1 -28.8,2.9 -44.6,3.3 -16.1,0.7 -30.3,0 -40.2,5.8 -10.2,5.5 -15.4,17.6 -22.3,20.5 -7.3,3.3 -15.7,-2.2 -16.8,-11 -1.1,-8.7 5.5,-21.2 9.5,-35.4 4.4,-14.3 6.6,-30.4 9.1,-45.8 3,-15.3 6.2,-29.6 10.6,-41.6 4.8,-12.1 10.6,-22 13.2,-31.5 2.6,-9.9 2.2,-19.4 -3.3,-31.5 -5.1,-11.6 -15.4,-25.5 -23.4,-40.5 -8,-15.4 -14.3,-31.5 -7.3,-27.8 6.6,3.3 26,26.7 41.7,42.4 15.3,15.7 27.4,24.5 38,34.4 10.6,9.8 20.5,21.2 24.9,35.1 4,13.5 3.3,29.6 8.4,39.8 5.5,10.3 17.2,14.7 24.1,23.4 6.6,8.8 8.1,22.4 7.7,33 -0.7,10.2 -3.3,17.9 -7.7,21.9 -4,4 -10.2,4.8 -21.6,5.5 z m -86.3,1212.3 c -16.4,16.5 -40.2,33.7 -53,37 -12.8,3.2 -15,-7.7 -12.8,-26.7 2.2,-19.1 8.4,-46.5 2.9,-54.2 -5.8,-7.3 -23.4,5.1 -38.4,11.4 -14.9,6.5 -27.4,6.9 -38.4,4.4 -10.9,-2.6 -20.8,-8.8 -29.2,-10.7 -8.8,-1.8 -16.1,0.4 -17.9,-8 -1.5,-8.8 2.5,-28.2 8.7,-58.9 6.3,-31.1 14.3,-73.5 20.2,-91.8 6.2,-18.3 9.8,-12.4 13.1,1.5 3.3,13.5 5.9,35.1 12.8,36.6 7,1.1 18.3,-17.6 30.4,-38.8 12,-21.2 24.8,-45 32.9,-60.7 7.7,-15.4 10.2,-23.1 9.1,-28.5 -1.4,-5.2 -6.9,-8.4 -15.7,-8.4 -8.8,0 -21.2,3.2 -24.5,1.4 -3.3,-2.2 2.9,-9.1 9.9,-28.1 7.3,-19.1 16.1,-50.1 21.9,-77.2 5.9,-26.7 9.2,-49.4 16.1,-55.2 7,-5.9 17.9,4.7 23.4,22.6 5.5,18.3 6.2,43.6 10.3,56 4,12.8 11.7,12.8 16.4,4.7 4.8,-8 7,-24.1 9.2,-41.6 2.2,-17.6 4.3,-36.3 13.1,-47.6 9.2,-11 25.6,-14.2 38.8,-2.2 13.2,11.7 23.4,38.8 29.2,69.1 6.3,30.8 8.5,65.1 9.2,86 1.1,20.5 0.4,27.8 4.7,36.9 4.4,9.2 13.6,20.1 15.8,39.2 2.5,18.6 -1.9,44.9 -9.5,65 -7.7,20.5 -19.1,34.4 -29.3,50.9 -9.9,16.8 -18.3,36.2 -25.6,47.9 -7.3,12.1 -13.2,16.1 -20.8,26 -7.4,10.2 -16.5,25.5 -33,42 z m 324.8,-39.1 c -15,2.2 -33.3,-2.9 -51.9,-8.1 -19.1,-5.1 -38.1,-9.8 -54.2,-12 -15.7,-2.2 -28.1,-1.9 -34.7,-8.4 -6.2,-6.6 -6.9,-20.9 -7.3,-36.3 0,-15.7 0,-32.9 1.8,-52.6 1.8,-20.1 5.5,-42.4 8.4,-64.7 3.3,-22 5.1,-43.6 14.7,-62.2 9.5,-18.3 25.9,-34 41.6,-33.7 15.8,0.4 30,16.5 40.3,29.7 10.2,13.5 16.1,24.5 21.5,24.8 5.5,0.8 10.3,-9.1 20.9,-13.5 11,-4.7 27.4,-4 39.5,4 12.4,8.1 19.7,23.4 20.5,39.5 1.1,16.1 -5.2,32.9 -4.1,46.1 1.1,13.2 9.2,23 12.5,39.5 3.3,16.8 1.4,40.2 -4.4,55.6 -5.9,15.3 -16.1,22.3 -27.1,31.1 -10.9,8.4 -22.7,18.6 -38,21.2 z m -955.2,115.9 c 10.9,-6.6 25.9,-14.6 40.6,-21.9 14.2,-7.4 28.5,-13.6 38.7,-28.9 9.9,-15 16.5,-38.4 28.5,-58.2 12.1,-19.7 30,-35.1 35.1,-46 5.2,-10.7 -2.5,-16.5 -10.9,-22 -8.1,-5.5 -17.2,-10.2 -19,-23 -1.5,-12.8 4.4,-34 10.2,-61.5 5.9,-27.4 11.7,-61 12.4,-86.6 0.4,-25.7 -4.3,-42.8 -5.8,-54.5 -1.1,-12.1 1.1,-18.3 6.2,-37.3 5.1,-18.7 13.2,-49.8 19.4,-85.6 6.6,-35.5 11.3,-75 11.3,-110.5 0,-35.4 -4.7,-66.9 -0.7,-70.5 4,-3.7 16.8,20.1 24.9,40.9 7.6,20.9 10.2,39.2 17.9,50.8 8,12.1 20.8,17.6 36.2,25.7 15.3,8.4 32.9,19.7 42.4,50.4 9.5,30.7 10.6,80.5 7.7,123.6 -2.6,42.8 -9.2,79 -12.4,97.7 -3.7,19 -4.1,20.5 1.8,25.2 5.8,4.4 18.3,12.1 31.4,26.7 13.2,15 27.1,36.9 30.4,66.6 3.3,29.6 -4.4,66.5 -16.1,96.5 -11.7,29.6 -27.8,52.3 -36.9,67.3 -8.8,15 -10.3,22.7 -2.2,35.1 8.4,12.8 26.7,30.4 32.5,48.3 5.9,17.5 -0.3,35.4 -10.2,53.4 -9.5,17.9 -22.3,36.2 -30.4,57.8 -8,21.5 -11.3,46.4 -15.7,73.5 -4.4,27 -9.5,56.7 -8.4,69.1 1.4,12.1 9.5,7.3 21.2,-2.9 11.3,-10.6 26.3,-26.7 33.3,-46.5 6.9,-19.4 6.2,-42.8 5.1,-57.4 -0.7,-15 -1.1,-21.2 5.1,-32.9 5.9,-11.3 19,-28.2 27.1,-38.8 8,-10.2 11.3,-14.6 23.4,-6.9 12.4,8 34,27.8 43.9,61 9.5,33.3 7.3,80.1 -11.4,122.5 -19,42.5 -54.5,80.9 -88.1,101 -33.6,20.1 -65.1,22.3 -91.1,24.5 -25.6,2.2 -45.7,4.4 -61,10.2 -15.8,6.3 -27.1,16.5 -40.6,17.6 -13.2,1.1 -28.9,-7 -44.7,-13.2 -15.3,-6.2 -31,-10.2 -50.1,-7.3 -19,3.3 -41.6,14.3 -61.4,19.4 -20.1,4.7 -37.3,4.4 -42.4,19 -5.1,15 1.8,45 -0.7,75.3 -2.6,30.4 -15,61.1 -36.6,98.4 -21.6,37.3 -52,81.6 -77.5,111.6 -25.6,30.3 -46.1,46.4 -76.8,61 -30.8,14.7 -71.4,28.2 -118.9,30 -47.2,1.5 -100.9,-8.8 -135.3,-15.7 -34.4,-6.9 -49.4,-10.6 -64.7,-7.3 -15.4,3.6 -31.1,14.2 -55.6,25.2 -24.2,10.6 -57.8,21.2 -86.7,26.7 -28.9,5.5 -53.8,5.5 -80.5,-1.4 -26.3,-6.6 -54.8,-20.2 -74.9,-41.7 -19.8,-21.3 -31.1,-50.9 -31.5,-75.8 0,-24.4 10.6,-44.6 17.9,-58.1 7.3,-13.9 11,-21.2 -4,-30.7 -14.6,-9.5 -47.9,-20.8 -65.8,-30 -18.3,-9.5 -20.9,-17.2 -30.7,-16.4 -9.9,0.3 -27.1,9.1 -53.1,7.3 -25.6,-1.5 -60.3,-13.2 -84.4,-24.6 -24.2,-11.3 -38.1,-22.2 -48.7,-24.1 -10.9,-1.8 -18.3,5.1 -27,12.1 -8.5,6.6 -18.3,13.2 -18,20.1 0.4,7.3 10.3,15.4 19.4,30.4 8.8,14.6 16.5,36.2 16.5,59.6 0.3,23.4 -6.6,48.6 -24.5,65.1 -18.3,16.4 -47.2,23.7 -91.1,27.4 -44.2,3.3 -103.5,2.9 -144.8,-5.5 -41.3,-8.4 -65.1,-24.5 -81.2,-32.2 -16.1,-7.7 -24.5,-7.3 -37.3,-7.7 -12.8,0 -29.3,-1.1 -47.2,-5.8 -18.3,-4.4 -37.3,-12.4 -51.9,-26.7 -14.6,-13.9 -24.1,-33.7 -27.1,-49 -2.5,-15.4 1.9,-26 3,-33.3 1.4,-6.9 0,-9.9 -10.3,-12.1 -9.9,-2.1 -28.1,-3.3 -59.6,-15 -31.8,-12 -77.2,-34.7 -107.9,-55.9 -31.1,-21.2 -47.5,-41 -61,-55.6 -13.6,-15 -23.8,-24.5 -39.9,-24.5 -16.1,0.4 -38,10.6 -60.4,11.3 -22.3,0.8 -44.9,-7.6 -64.3,-23 -19.8,-15.4 -36.6,-37.3 -52,-48.6 -14.9,-11.4 -29.2,-11.7 -44.6,-18.3 -15.7,-6.6 -32.9,-18.7 -49.7,-38.4 -16.5,-19.8 -32.6,-46.5 -41,-71.3 -8.4,-24.5 -8.7,-47.2 -12.8,-65.1 -3.6,-17.6 -10.6,-30.4 -24.8,-57.4 -14.3,-26.7 -35.9,-67.7 -42.5,-109.8 -6.5,-41.7 1.5,-84.8 15.4,-113.3 13.9,-28.6 33.7,-42.4 47.9,-48.7 14.3,-6.2 23,-4.4 33.3,7.7 10.2,12.4 21.9,35.5 25.6,53.8 4,18.3 -0.4,31.8 0.7,49 1.1,17.2 7.3,38 15.4,66.9 7.7,28.9 16.8,65.5 29.6,90.7 12.4,25.6 28.5,40.2 43.5,50.5 14.7,10.2 28.2,16.1 39.5,20.8 11.7,4.8 21.2,8.8 20.5,-1.1 -0.7,-9.5 -12.1,-32.5 -23.8,-64.7 -11.7,-31.8 -24.1,-72.8 -33.2,-109.7 -8.8,-36.6 -13.9,-69.5 -13.9,-94 0.3,-24.5 6.2,-40.6 14.2,-49.8 8.1,-9.1 18.3,-11.3 30,-9.1 11.3,2.2 24.5,8.8 32.2,9.5 7.7,0.7 10.6,-4 19.7,-5.8 9.5,-1.9 25.6,-1.1 40.6,6.9 14.7,7.7 28.2,22.3 37.3,23.8 9.5,1.8 15,-9.5 21.2,-20.1 6.3,-10.6 13.2,-20.1 24.2,-23.4 10.9,-3.3 25.9,0 39.1,17.9 13.2,18.3 24.5,50.8 60.7,100.2 36.6,49 97.7,114.8 145.2,147 47.6,32.2 81.6,31.1 111.2,26.3 29.6,-4.7 54.8,-13.5 81.5,-20.8 27.1,-7.7 55.6,-14.3 98,-11.7 42.8,2.5 99.9,13.5 149.3,27.8 49.7,14.2 91.4,31.4 115.1,42.8 23.8,11.3 28.9,16.8 25.7,25.9 -3.7,9.2 -16.1,22 -19.8,38.8 -3.7,16.5 1.1,36.9 9.1,49.7 8.1,13.2 19.4,18.3 35.2,23.1 16,4.4 36.5,8.4 48.6,9.1 12.4,1.1 16.8,-0.3 28.5,8.1 12.1,8.4 31.5,26.7 81.6,34.7 50.1,8.4 131.3,7 184.7,-9.9 53,-16.4 78.6,-48.2 96.1,-69.1 18,-20.5 27.8,-30.3 39.2,-32.9 11.3,-2.6 23.7,1.4 35.8,7.3 12.1,6.2 23.8,13.5 34.8,22.7 10.6,9.1 20.4,20.1 22.6,36.2 2.6,16.1 -2.2,37.7 0,52.3 1.9,14.6 11,22.7 24.2,21.9 13.5,-1.1 30.7,-11.3 51.9,-26.7 21.6,-15.3 47.5,-35.8 63.3,-58.1 15.7,-22.3 21.9,-46.5 21.9,-61.1 0,-14.6 -6.2,-19.4 -16.8,-17.9 -10.6,1.5 -26.3,8.8 -36.6,11.3 -10.2,2.2 -15,-0.3 -9.1,-5.8 5.8,-5.1 22.6,-13.2 39.8,-31.8 17.2,-18.7 34.8,-47.6 46.8,-67.3 11.7,-19.4 17.6,-29.7 21.6,-25.6 3.7,4.4 5.1,23.4 13.9,26.7 8.4,3.6 24.1,-8.4 46.1,-29.7 21.9,-21.5 50.5,-53 78.6,-88.5 27.8,-35.8 55.2,-76 73.2,-109.7 18.2,-33.6 26.7,-60.7 35.4,-85.9 8.4,-25.6 17.2,-49.8 23.4,-62.9 6.6,-13.2 11,-15.4 13.2,-3.3 2.2,12.1 2.2,38.4 7.7,54.8 5.5,16.5 16.8,22.7 22.7,35.2 6.2,12.4 6.5,30.7 4.7,45.3 -1.8,15 -6.2,26.3 -11.3,38.4 -5.1,12.4 -11,26 -10.6,30.4 0,4 6.6,-0.8 17.2,-7 z m -1320.3,1025.5 c -9.8,4.7 -19,16.4 -33.6,26.3 -14.3,9.9 -34.4,17.9 -30,21.9 4.4,3.7 32.9,3.3 64,2.2 31.1,-0.7 65.1,-1.8 87.1,-2.9 21.9,-1.5 32.1,-3.3 34,-9.5 1.4,-6.6 -5.5,-17.9 -22,-24.9 -16.8,-6.9 -43.1,-9.5 -61.4,-12.4 -18.3,-2.6 -28.5,-5.1 -38.1,-0.7 z m -1011.9,-252 c -4.7,-9.9 -19.4,-16.5 -34.7,-19 -15,-2.2 -31.5,-0.8 -49.8,-6.3 -18.2,-5.8 -38.3,-18.6 -59.2,-29.6 -20.8,-10.9 -41.7,-20.1 -60.3,-25.6 -19.1,-5.5 -35.5,-6.9 -45.8,-20.8 -9.8,-13.5 -13.1,-39.5 -5.8,-69.1 7,-30 24.1,-63.7 43.9,-91.1 19.7,-27.4 42.4,-48.6 61.4,-56.3 19.4,-7.7 34.8,-2.6 43.2,15.7 8.4,18.3 9.5,49.7 9.5,70.6 0.4,20.8 0,31.8 10.6,33.3 10.6,1.8 32.9,-5.9 55.2,-19.1 22.3,-13.1 44.6,-32.1 63.3,-47.5 18.6,-15.7 33.3,-28.1 47.9,-38.8 14.6,-10.6 30,-19.7 46.1,-19 16.1,0.8 33.3,11.4 73.5,39.9 40.2,28.5 103.8,75 135.3,104.9 31.4,30 30.7,44.3 35.8,53.4 4.8,9.2 15,13.2 27.8,15 12.8,2.2 28.5,1.5 45,5.5 16.5,4.1 33.6,12.8 46.8,28.9 13.5,16.5 23.4,40.6 24.9,61.1 1.4,20.1 -4.8,36.2 -30,44.2 -25.2,8.1 -69.5,8.1 -100.2,4.8 -30.7,-3.3 -47.9,-9.5 -60,-10.6 -12.4,-1.1 -20.1,2.9 -29.2,13.2 -9.2,10.2 -19.8,26.3 -36.3,37.6 -16.4,11.4 -38.3,17.9 -57,21.2 -18.6,3 -33.6,3 -36.9,11.4 -3.7,8.4 4.4,25.2 16.1,49.3 11.3,24.5 26.7,57.1 38.7,71 12.5,13.9 22.3,9.5 40.6,15.7 18.3,6.2 45,23.1 72.4,33.3 27.5,9.9 55.2,13.9 64.4,11.7 9.1,-2.2 -0.4,-10.2 -15.4,-22.3 -15,-12.1 -35.4,-28.2 -41.3,-42.8 -5.8,-14.6 2.6,-27.4 11.7,-40.2 9.2,-13.2 18.7,-26 34.8,-23.8 15.7,2.2 37.6,19.4 64,35.1 25.9,16.1 55.9,30.4 97.2,45.3 41,14.7 93.3,29.7 132,37.7 39.2,8.4 65.1,9.2 83.1,13.2 18.3,4.4 29.2,11.3 22.3,15.7 -7,4.8 -31.8,6.6 -63.3,8.8 -31.4,2.2 -69.5,4.4 -101.7,10.2 -31.8,5.5 -57.7,14.7 -83.3,26.4 -26,12 -51.6,26.3 -81.2,34.3 -29.7,8.1 -62.9,9.9 -93.3,5.9 -30.3,-4 -57.8,-13.9 -79,-22.3 -20.8,-8.8 -35.4,-16.1 -50.8,-19 -15,-2.6 -31.5,-0.4 -53,-8.4 -22,-8.1 -49.4,-26.4 -78.7,-58.6 -29.2,-31.8 -60.3,-77.5 -85.2,-108.6 -25.2,-30.7 -43.9,-46.8 -58.1,-66.2 -14.3,-19.3 -24.2,-42 -16.8,-54.5 6.9,-12.8 30.3,-15.3 44.6,-23.4 14.2,-8 19,-21.5 14.2,-31.4 z m 1509.7,346.7 c -15.7,0.7 -41,0.3 -65.1,0 -24.1,-0.4 -47.2,-0.4 -54.5,-2.6 -7,-2.5 2.2,-7.3 13.2,-13.1 11.3,-5.5 24.1,-12.1 33.6,-15.4 9.9,-3.7 16.1,-4 24.1,-1.5 7.7,2.6 16.9,8.4 29.7,13.6 13.1,5.1 29.6,9.5 35.1,12.8 5.5,3.2 -0.8,5.4 -16.1,6.2 z m 439.9,92.5 c -14.2,-4.7 -36.9,-1.8 -66.5,2.9 -30,4.8 -67,11.7 -94,13.6 -26.7,1.4 -43.5,-2.2 -61.1,-7.7 -17.5,-5.5 -35.8,-12.5 -48.6,-20.1 -12.8,-7.7 -20.5,-16.5 -23.4,-24.2 -3.3,-7.3 -2.2,-13.9 -14.3,-29.2 -11.7,-15.4 -36.6,-39.5 -49.7,-57.1 -13.6,-17.9 -15.8,-29.2 1.1,-38.7 17.1,-9.9 53,-18 91,-17.6 37.7,0.4 77.6,8.8 103.2,9.5 25.6,0.4 36.9,-6.9 49,-19.7 12.4,-13.2 25.9,-31.5 38.7,-41 12.5,-9.9 24.2,-11 26.4,-17.2 1.8,-6.6 -6.3,-18.3 -3.3,-26.3 3.3,-7.7 17.9,-11.4 43.1,-20.1 25.2,-9.2 61.5,-23.1 106.1,-31.1 45,-8.1 98.7,-10.3 137.1,-17.9 38.4,-7.7 61.5,-21.2 86.3,-35.5 24.9,-14.3 51.2,-29.3 69.1,-39.5 18,-10.2 27.8,-15.7 33.3,-3.7 5.9,11.7 7.3,40.6 16.1,60.7 8.8,19.8 25.2,30.4 36.2,50.1 11,19.8 16.8,48.3 21.2,67.7 4.4,19.8 7,30.4 15.4,48.6 8,18.3 22.3,44.3 28.9,76.5 6.6,32.2 6.2,70.9 -0.8,95.8 -6.9,24.5 -20.4,35.5 -27,48.6 -7,13.2 -7,28.6 -11.3,45.7 -4.1,17.2 -12.9,36.3 -24.6,48.3 -11.7,12.1 -27,17.6 -29.2,27.5 -1.8,9.8 8.8,24.4 8.8,40.2 0,15.7 -10.6,33.3 -31.1,53 -20.5,19.8 -50.5,42.4 -76.1,51.2 -25.6,8.4 -46.4,2.9 -57,-10.2 -10.6,-13.6 -10.6,-35.1 -1.9,-54.9 8.4,-20.1 25.6,-38.4 39.2,-51.2 13.5,-12.8 23,-20.5 28.9,-28.9 6.2,-8.8 8.4,-18.3 6.5,-25.2 -1.4,-7.3 -6.9,-11.4 -20.8,-6.6 -13.9,4.7 -36.6,18.7 -54.9,27.8 -18.2,8.8 -32.1,12.4 -49.3,9.1 -16.8,-2.9 -36.6,-13.1 -56,-18.6 -19.4,-5.5 -38.4,-5.9 -56.3,-6.2 -17.9,-0.4 -35.1,-0.4 -53,2.2 -17.6,2.5 -35.9,7.3 -54.2,4 -18.2,-3.3 -36.5,-14.6 -43.1,-27.1 -6.2,-12.8 -1.1,-26.7 9.1,-39.8 9.9,-13.2 24.2,-25.6 28.6,-38.1 4.3,-12.4 -1.5,-24.5 -15.8,-29.6 z m -924.5,-3682.3 c -17.2,-5.9 -38,-14.3 -54.5,-19 -16.4,-5.2 -28.1,-6.3 -39.8,0.7 -11.4,6.6 -22.7,21.2 -34.4,28.5 -12.1,7.3 -24.5,7.3 -31.5,11.7 -7.3,4.8 -9.5,13.9 -4.7,21.6 4.7,7.7 16.8,14.3 32.9,16.5 16.1,2.5 36.6,1 56.7,-0.4 20.1,-1.5 39.8,-2.6 55.9,-3.7 16.5,-1.1 28.6,-1.8 45.4,-3.3 16.4,-1.4 37.6,-2.9 56.3,-5.8 18.3,-2.9 34.4,-7.3 37.3,-13.9 2.6,-6.2 -8,-15 -23.4,-19 -15,-4.1 -34.4,-3.7 -50.5,-4.4 -16.1,-1.1 -28.9,-4 -45.7,-9.5"
         style="fill:#962934;fill-opacity:1;fill-rule:evenodd;stroke:none"
         id="path6202"
         transform="matrix(0.13333333,0,0,-0.13333333,0,2933.3333)" />
      <g
         id="g6204"
         transform="matrix(0.13333333,0,0,-0.13333333,0,2933.3333)">
        <g
           id="g6206"
           clip-path="url(#clipPath6210)">
          <path
             d="m 20889.5,14599.8 c 20.9,0 34.4,22.3 40.2,53.4 5.9,31.1 4.4,71.3 6.3,97.2 2.2,26 8,37 24.5,39.2 16.1,1.8 42.4,-5.9 62.5,-22 20.1,-16 34,-40.9 35.8,-62.9 1.9,-21.9 -8.4,-41.3 -10.9,-57 -2.6,-15.4 2.2,-27.4 6.5,-45.7 4.4,-18.3 8.1,-42.8 -4,-84.9 -11.7,-42 -39.1,-100.9 -68.7,-141.1 -29.6,-39.9 -61.1,-61.1 -90.7,-75 -29.7,-13.9 -57.1,-20.8 -73.9,-32.9 -16.8,-12.1 -23.4,-29.3 -29.6,-57.4 -6.2,-28.6 -12.1,-67.7 -34,-102.8 -21.6,-35.5 -59.3,-66.6 -93.6,-89.6 -34.4,-23 -65.5,-38 -85.3,-51.9 -19.7,-13.6 -27.8,-26 -38.7,-46.8 -11,-21.3 -24.9,-50.9 -42.5,-75 -17.5,-24.5 -38.4,-43.9 -58.8,-63.6 -20.5,-19.8 -40.3,-39.5 -75.7,-57.8 -35.1,-18.3 -85.6,-35.1 -122.5,-43.9 -37.3,-9.1 -61.1,-11 -79.8,-8.4 -18.6,2.9 -32.9,9.9 -36.5,19.4 -3.7,9.8 2.5,22.3 21.5,47.1 18.7,24.9 50.1,62.6 77.2,101.7 27.1,38.8 50.1,79.4 53.8,120 3.2,40.9 -12.8,82.2 3.6,121.7 16.5,39.5 65.5,77.2 99.9,109 34.7,31.8 55.2,57.4 80.4,68.4 25.2,11 55.6,7.3 79,9.1 23.4,1.5 39.9,8.5 75,72.1 34.7,63.3 88.1,183.2 124.7,243.2 36.6,60 56.3,60 80.4,49 24.2,-10.6 52.7,-32.2 73.9,-31.8 z m -1411.3,-773.5 c -5.4,-37.3 -24.5,-73.9 -47.5,-98.4 -23,-24.5 -50.5,-36.5 -73.1,-49.7 -22.7,-13.2 -40.3,-27.4 -66.6,-37.7 -26.3,-10.2 -61.4,-16.4 -97.3,-2.9 -36.2,13.2 -73.1,46.4 -101.3,81.2 -28.5,34.7 -47.5,70.9 -50.8,103.1 -2.9,32.2 10.6,60.7 10.2,94.7 -0.7,34.4 -15.3,73.9 0.4,105 15.7,30.7 61.4,53 135.7,37.7 74.6,-15 177.7,-67 232.9,-112.3 55.6,-45 62.9,-83.4 57.4,-120.7 z m 733.3,2694.9 c -13.2,3.3 -27.1,2.9 -45,10.6 -17.5,8.1 -39.1,24.1 -50.1,47.2 -11,23 -11.7,53 -8.8,73.1 2.6,19.8 8.4,29.7 18.3,39.9 9.9,10.6 24.1,21.9 46.8,27.4 23.1,5.2 54.5,4.8 80.1,-1.8 25.6,-6.2 45,-18.7 60,-28.5 15,-9.5 26,-16.5 34.4,-18.3 8.7,-1.5 15,2.2 22.3,13.2 7.3,10.6 15.3,28.1 43.5,36.5 28.2,8.1 76.8,6.3 105.3,-15.7 28.2,-21.9 37,-64.4 42.4,-102.4 5.9,-38 8.5,-71.3 8.8,-102 0.4,-31.1 -1.8,-59.6 -10.6,-74.3 -9.1,-14.2 -24.5,-15 -54.8,-5.8 -30.4,9.1 -75.7,28.1 -120.7,43.5 -44.6,15.4 -89.3,27.1 -117.8,36.6 -28.5,9.8 -41,17.2 -54.1,20.8 z m -1621.9,-923.4 c -30.4,-21.2 -56,-36.6 -90,-49.4 -34,-12.8 -75.7,-23.7 -92.9,-5.8 -17.2,17.5 -9.9,64 4,109.7 14.3,45.7 34.8,90.7 69.5,138.6 35.1,47.9 84.5,98.4 129.5,134.9 45.3,36.6 86.3,59.3 110.8,61.5 24.9,1.8 33.3,-16.5 50.1,-26 16.5,-9.5 41.3,-10.6 73.1,-8.8 31.5,2.2 70.3,7.7 96.6,8.8 26.3,1.1 40.6,-2.2 54.8,-10.2 14.7,-8.1 29.7,-20.9 42.5,-22 13.1,-1.1 23.7,9.5 40.6,26.4 16.4,16.4 39.1,39.1 57.7,61.8 19.1,22.6 34.1,45 63.7,61.8 29.6,16.4 73.5,27.4 117,32.9 43.5,5.1 86.7,5.1 114.5,-1.8 28.1,-7 40.9,-20.9 54.8,-30 14.3,-9.2 29.3,-13.6 48.7,-13.9 19.3,-0.8 42.7,2.5 60.7,5.8 17.5,3.3 29.6,6.2 33.2,13.6 3.7,6.9 -0.7,17.5 -2.2,32.5 -1.4,15 -0.7,34.4 22,49.4 22.7,15.3 66.6,25.9 107.5,29.2 41,3.3 78.6,-1.1 108.3,-7.6 29.6,-6.3 50.8,-15 59.6,-12.8 8.4,2.1 4.4,14.9 9.1,28.5 4.8,13.5 18.7,27.4 41,33.3 21.9,5.8 51.9,3.6 77.1,4.3 25.3,0.4 45.8,3.7 68.4,2.6 22.7,-1.1 47.2,-6.6 83.4,-30 35.9,-23.8 83.4,-65.8 115.9,-109.7 33,-44.2 51.2,-90.3 58.2,-131.6 6.9,-41.4 2.5,-77.9 -4.4,-100.6 -7,-22.7 -16.5,-31.1 -3.6,-37.7 12.7,-6.6 48.2,-10.6 87,-25.9 38.7,-15 80.8,-40.7 117,-60.8 36.6,-19.7 68,-33.6 94.7,-46 27.1,-12.5 49.4,-23.1 69.9,-39.2 20.5,-16.1 38.7,-37.6 47.9,-61.4 9.1,-23.8 9.1,-49.4 2.2,-74.3 -7,-24.5 -20.9,-48.2 -24.2,-71.3 -3.3,-23 4.4,-45.7 9.6,-76.4 5.4,-30.7 8.7,-69.5 10.9,-111.2 2.2,-42 2.9,-87 -4,-116.3 -6.9,-28.9 -21.9,-41.7 -34.7,-38 -12.8,3.7 -23.8,24.1 -36.2,58.5 -12.1,34.4 -26.4,82.7 -28.6,127.3 -1.8,44.6 7.7,85.6 8.8,122.9 1.1,36.9 -6.6,70.2 -27.4,103.1 -20.9,32.9 -55.2,65.1 -95.1,91.4 -39.9,26.4 -84.9,46.8 -128,60 -43.2,13.5 -83.8,20.1 -113.4,31.8 -29.6,11.7 -47.9,28.9 -66.2,49.4 -18.3,20.5 -36.5,44.2 -47.9,65.1 -11.3,21.2 -15.3,39.1 -24.1,61.8 -8.4,22.7 -21.6,49.4 -45,74.9 -23.8,25.3 -58.1,48.7 -85.2,58.6 -26.7,9.5 -46.1,5.1 -64,-12.1 -17.6,-17.2 -33.6,-47.2 -65.8,-50.5 -32.6,-3.3 -80.9,20.5 -133.9,37.3 -53.4,16.5 -111.5,26.4 -170,24.2 -58.5,-2.2 -117.8,-16.1 -157.7,-29.3 -39.5,-12.8 -59.9,-24.5 -79.3,-39.5 -19.4,-15 -37.7,-33.3 -57.4,-56.7 -20.1,-23 -41.7,-50.8 -72.8,-63.2 -31.1,-12.5 -72.1,-9.2 -123.6,-3.7 -51.6,5.1 -114.1,12.8 -169.7,6.2 -56,-6.2 -105.3,-26.7 -150,-55.2 -44.6,-28.5 -84.4,-65.1 -121.7,-97.3 -37,-32.2 -71.3,-60.3 -101.3,-81.9 z m -148.1,541.6 c -28.6,-19.7 -54.9,-35.8 -77.2,-51.5 -22.3,-15.4 -40.6,-30.8 -55.6,-32.6 -14.6,-1.8 -26,9.5 -32.5,27.1 -7,17.5 -9.2,40.9 0,68 9.1,26.7 29.6,56.7 52.6,77.2 22.7,20.1 47.9,30.3 73.2,35.8 25.2,5.8 50.4,6.6 69.8,7.3 19.4,0.4 32.9,0.4 44.3,-2.6 11.3,-3.2 20.4,-9.8 22.6,-20.4 1.9,-11 -2.9,-26 -20.4,-45.4 -18,-19.4 -48.7,-42.8 -76.8,-62.9 z m 33.2,-1082.1 c -38.7,-8.4 -79,-23.1 -114.4,-42.8 -35.1,-19.4 -65.1,-44.3 -86.3,-71.7 -21.3,-27.4 -33.7,-57.4 -40.6,-87 -7,-29.6 -8.8,-58.5 -13.2,-83.4 -4.8,-25.2 -12.1,-46.1 -22.7,-59.6 -10.6,-13.5 -23.7,-19.4 -35.8,-41.7 -11.7,-22.7 -22,-62.2 -21.6,-102.8 0.7,-40.2 12.1,-82.3 20.5,-112.2 8,-30.4 13.5,-48.7 24.9,-69.2 11.3,-20.1 28.5,-42.7 53.4,-65.8 24.8,-22.7 57.7,-45.7 89.9,-41.7 32.6,4 64,35.1 95.1,59.3 30.7,24.1 61.1,41.3 92.9,44.9 30.3,3.3 62.5,-5.8 110.1,-14.2 -16.1,-1.1 -27.1,-6.2 -36.6,-15.7 -16.5,-15.8 -29.3,-43.9 -31.1,-79.4 -1.5,-35.8 8.1,-79.4 20.1,-113 11.7,-33.7 25.6,-57.4 37.3,-84.9 11.4,-27.7 20.5,-59.6 33.7,-77.5 13.1,-17.9 30.3,-22.3 56.7,-30.7 26.3,-8.8 61.8,-21.6 97.6,-29.6 35.8,-8.1 71.7,-11.4 109,15 36.9,26.3 75.3,82.3 90,132.7 14.6,50.5 6.2,95.8 -22.7,135 -28.5,39.1 -77.6,72.4 -136.8,97.6 -43.5,18.3 -92.9,32.2 -133.5,41 34,-1.5 69.1,0.3 98.8,10.2 53.4,17.6 89.9,59.6 81.1,136.1 -8.4,76.4 -62.1,187.9 -106.4,279.4 -43.9,91 -78.2,162.7 -109.7,206.6 -31.1,44.2 -58.9,61.1 -91.4,68 -32.6,7.3 -69.5,5.1 -108.3,-2.9 z m 2564.4,302.8 c -8.8,16.4 -17.6,41.3 -20.5,57 -2.9,16.1 -0.4,23.1 9.9,23.5 10.2,0 28.1,-6.3 46.1,-6.3 17.9,0.4 36.2,7.3 55.6,4.4 19.3,-3.3 39.8,-16.8 54.1,-41.7 14.6,-24.5 23.4,-60.7 28.9,-94.7 5.8,-34 8.4,-66.5 4.7,-88.9 -4,-22.6 -14.2,-35.4 -29.2,-39.5 -15.4,-4 -35.9,0.8 -52,15.8 -16.1,15 -28.1,40.2 -39.1,64.7 -11,24.5 -21.2,48.3 -30.7,64.4 -9.9,16.1 -19,24.5 -27.8,41.3"
             style="fill:#ff532b;fill-opacity:1;fill-rule:evenodd;stroke:none"
             id="path6212" />
          <path
             d="m 18548.6,16135.4 c 15,9.1 37.3,23 48.6,35.1 11,12.1 10.3,22.3 1.9,30 -8.1,7.3 -24.2,12.1 -44.6,13.2 -20.2,0.7 -44.3,-2.6 -64,-5.2 -20.2,-2.9 -35.5,-5.1 -49.4,-10.9 -14.3,-5.9 -26.7,-15.4 -38.8,-26.7 -12.4,-11 -24.8,-23.4 -36.9,-37 -12.1,-13.5 -23.8,-28.9 -33.7,-44.6 -9.5,-15.7 -17.1,-32.5 -20.8,-45 -3.7,-12.8 -3.7,-21.5 10.2,-21.9 14.3,-0.4 42.8,6.9 65.1,16.8 22.3,10.2 38.4,22.3 59.6,36.2 21.6,13.5 48,28.5 64.4,38 16.8,9.5 23.8,13.2 38.4,22"
             style="fill:#ffb72f;fill-opacity:1;fill-rule:evenodd;stroke:none"
             id="path6214" />
          <path
             d="m 18715,15822 c 1.5,5.1 8.4,21.6 6.6,36.2 -1.8,14.6 -12.8,26.7 -23.4,33.3 -11,6.6 -21.6,6.9 -32.6,3.6 -10.9,-3.6 -22.3,-10.9 -36.2,-21.6 -14.2,-10.6 -30.7,-24.1 -46.8,-41.3 -16.1,-17.5 -31.8,-39.1 -41.7,-58.9 -9.8,-19.3 -14.2,-37.3 -16.8,-56.6 -2.9,-19.8 -4,-41.4 -6.9,-57.1 -3.3,-16.1 -8.8,-26 -7.4,-28.5 1.9,-2.6 10.3,2.9 26.7,16.8 16.5,13.9 40.6,36.6 60.7,53.4 20.2,16.5 36.2,27.4 38.1,25.2 1.4,-2.2 -11.4,-17.2 -24.2,-35.1 -13.1,-18.3 -25.9,-39.1 -35.1,-64 -9.1,-25.2 -14.2,-54.1 -16.1,-78.2 -1.4,-23.8 0.8,-42.5 16.9,-49.4 16.4,-7.3 47.1,-2.2 76,16.8 29.3,19 56.7,52.3 99.9,95.5 43.1,43.5 102.4,96.5 141.5,130.2 38.8,33.6 57.8,47.5 71,54.4 13.1,6.6 20.4,6.3 25.6,0.4 5.1,-5.5 8,-16.4 6.9,-28.5 -0.7,-12.1 -5.1,-25.6 -11,-38.8 -5.8,-13.1 -13.5,-25.9 -16.4,-35.4 -3,-9.2 -1.1,-15.4 9.1,-14 10.6,1.5 30,9.9 66.9,23.1 36.6,12.8 91.1,30 150,42.4 58.9,12.8 122.1,20.9 168.2,28.5 45.7,8.1 74.2,15.4 83.4,26 8.8,10.6 -1.8,23.8 -15,36.9 -13.5,13.2 -28.9,26.4 -40.6,37.7 -12.1,11 -20.1,20.9 -31.5,18.3 -11.3,-2.2 -25.5,-16.8 -35.8,-23 -10.2,-6.3 -16.1,-4.1 -29.2,-3.7 -13.2,0.7 -33.7,-0.4 -44.7,5.5 -10.9,5.8 -12.8,19 -19.3,26.7 -6.3,7.7 -17.6,10.6 -36.3,8 -19,-2.5 -45.3,-9.9 -66.9,-17.9 -21.6,-7.7 -38,-15.7 -50.8,-19.7 -12.4,-4.1 -21.2,-4.1 -32.6,-1.5 -11.7,2.9 -26.3,8 -45.7,11 -19.7,2.5 -44.6,2.5 -65.8,0 -21.2,-3 -38.8,-8.1 -48.3,-5.9 -9.5,2.6 -10.6,12.8 -14.6,22.3 -4.4,9.2 -12.1,17.9 -24.1,20.9 -12.1,2.9 -28.6,0.3 -50.1,-15 -21.6,-15.4 -47.9,-43.5 -63.3,-60.7 -15.4,-17.2 -19.8,-23.4 -18.3,-18.3"
             style="fill:#ffb72f;fill-opacity:1;fill-rule:evenodd;stroke:none"
             id="path6216" />
          <path
             d="m 19607.7,15954.7 c -37.3,7.4 -69.1,11.7 -92.9,15 -23.4,3.3 -39.1,5.5 -48.3,14.7 -9.1,9.1 -11.7,25.2 1.9,39.8 13.9,15 43.9,28.2 80.8,35.9 36.6,7.3 80.1,9.1 110.1,10.9 30,1.9 46,4.1 64.7,3 19,-1.1 40.2,-5.5 62.5,-13.2 22.3,-7.7 45.7,-19 70.6,-32.2 24.9,-13.2 51.9,-28.2 72.4,-42.4 20.9,-14.3 35.5,-27.8 41.7,-40.2 6.2,-12.5 4,-23.4 -5.5,-29.7 -9.5,-5.8 -25.9,-6.2 -47.1,-8.7 -20.9,-2.2 -46.1,-6.6 -78.3,-4.1 -31.8,3 -70.6,12.5 -111.5,22.7 -40.6,10.2 -83.8,20.9 -121.1,28.5"
             style="fill:#ffb72f;fill-opacity:1;fill-rule:evenodd;stroke:none"
             id="path6218" />
          <path
             d="m 20240.4,16475.5 c -34.4,12.8 -57.1,27.8 -71.7,41.7 -15,13.9 -21.9,27.1 -13.2,41.7 8.4,14.6 32.6,31.4 58.9,42.8 26.7,11.3 54.9,17.2 78.3,20.5 23.4,2.9 41.7,3.6 66.2,-1.1 24.5,-4.8 55.2,-15 83,-29.3 27.4,-14.3 52.3,-32.5 71.7,-50.8 19.3,-18.3 33.2,-36.6 37.6,-54.5 4.8,-17.6 0,-34.8 -17.2,-41 -16.8,-6.2 -45.7,-1.4 -75.7,0 -29.6,1.1 -60.3,-0.7 -98.7,3.3 -38.4,4 -84.8,14.3 -119.2,26.7"
             style="fill:#ffb72f;fill-opacity:1;fill-rule:evenodd;stroke:none"
             id="path6220" />
          <path
             d="m 20065.2,15968.3 c -7.3,25.6 -14.3,55.2 -22.7,74.9 -8.4,19.4 -17.9,29.3 -26.7,39.2 -9.1,9.8 -17.2,20.1 -15.7,31.8 1.5,11.3 12.1,24.1 35.1,27.8 22.7,3.6 57.8,-2.6 83,-15.7 25.6,-13.2 41.7,-33.3 59.3,-56.7 17.5,-23.1 36.2,-48.7 48.6,-77.2 12.5,-28.5 18.3,-59.6 21.6,-88.1 3.3,-28.6 3.6,-54.5 -0.7,-74.6 -4.8,-20.1 -14.3,-34.8 -30.8,-34 -16.4,0.3 -39.5,16 -62.1,35.8 -22.7,20.1 -44.6,44.2 -59.3,66.9 -15,23 -22.3,44.3 -29.6,69.9"
             style="fill:#ffb72f;fill-opacity:1;fill-rule:evenodd;stroke:none"
             id="path6222" />
          <path
             d="m 20303.7,15635.5 c -14,26.3 -23.5,47.5 -30,63.2 -6.3,15.8 -9.5,26.7 -6.3,33.7 3,6.9 12.8,10.2 19.1,13.9 6.5,3.6 9.8,8 10.9,15 1.1,6.6 0,15.7 8.4,21.9 8.8,6.2 27.1,9.5 48,5.5 21.2,-4 44.6,-15.4 65.8,-34.7 21.2,-19.4 40.2,-46.9 54.1,-71.7 13.9,-24.5 23,-46.8 20.5,-58.9 -2.9,-12.1 -17.2,-14.3 -22.3,-23.8 -5.1,-9.8 -0.8,-27 4.4,-47.2 5.4,-20.4 12,-44.2 14.2,-56.6 2.6,-12.5 0.8,-13.6 -14.6,-9.5 -15.7,3.6 -45.4,12.4 -67.7,23 -22.6,10.6 -38.4,23.8 -55.2,46.1 -16.8,22.3 -35.1,53.7 -49.3,80.1"
             style="fill:#ffb72f;fill-opacity:1;fill-rule:evenodd;stroke:none"
             id="path6224" />
          <path
             d="m 20606.1,15464.3 c 1.8,12.5 1.1,29.6 -2.2,48.3 -3.7,18.6 -10.2,38.4 -15,56.7 -5.1,18.3 -9.1,34.7 -4,42 4.7,7.3 17.9,5.1 39.1,-7.3 20.9,-12.1 49.4,-34.7 66.2,-58.9 17.2,-23.7 22.3,-49 22.3,-72 -0.4,-23 -6.2,-44.3 -9.1,-58.9 -2.6,-15 -2.2,-23.4 4.7,-46.4 6.6,-23.4 19.4,-60.7 25.2,-94.7 5.5,-34.1 4.1,-64 1.5,-87.8 -2.2,-23.4 -5.5,-40.6 -19.7,-45.4 -14.3,-4.4 -39.5,3.7 -60.4,21.6 -20.5,17.9 -36.5,46.1 -43.5,78.6 -7.3,32.2 -5.1,69.5 -5.8,103.2 -0.8,33.6 -4.4,63.6 -4.4,82.3 0,19 3.6,26.3 5.1,38.7"
             style="fill:#ffb72f;fill-opacity:1;fill-rule:evenodd;stroke:none"
             id="path6226" />
          <path
             d="m 21035.4,15284 c -1.1,12.8 2.2,27.1 1.5,44.3 -1.1,17.2 -6.2,37.3 -9.5,52.6 -3.3,15.8 -5.1,26.4 -0.4,32.2 4.4,5.9 15.4,7 31.1,1.5 16.1,-5.9 37.3,-18.7 53.4,-35.1 15.7,-16.1 26.3,-36.6 32.9,-57.1 6.6,-20.8 9.9,-42 10.6,-60 0.8,-17.9 -0.7,-32.9 -8.4,-40.5 -8,-8.1 -22.7,-9.2 -36.6,-8.1 -13.9,1.1 -27,4.4 -37.6,10.6 -10.6,5.9 -18.7,15 -24.9,25.2 -6.6,10.3 -11.3,21.6 -12.1,34.4"
             style="fill:#ffb72f;fill-opacity:1;fill-rule:evenodd;stroke:none"
             id="path6228" />
          <path
             d="m 20831.7,14675.8 c 12.1,0 28.9,-5.8 44.3,-21.5 15.3,-16.1 29.2,-41.7 35.8,-69.9 6.2,-27.8 5.1,-57.8 -0.3,-84.1 -5.9,-26.3 -16.1,-49 -34,-71.3 -18,-22.3 -43.9,-44.3 -62.2,-62.5 -18.7,-18.3 -30,-33 -40.3,-48.3 -10.2,-15.4 -19.3,-31.5 -29.2,-44.3 -9.9,-13.1 -20.5,-22.6 -31.8,-23.4 -11.4,-0.7 -23.4,7.3 -30.4,17.2 -6.9,9.9 -9.1,21.6 -4.7,43.2 4.4,21.5 15,52.6 20.1,76.8 5.1,23.7 4.7,40.6 11.3,69.1 6.6,28.1 20.9,68.7 37.7,104.9 16.8,36.2 36.9,68.4 50.4,87.8 14,19.4 21.3,26 33.3,26.3"
             style="fill:#ffb72f;fill-opacity:1;fill-rule:evenodd;stroke:none"
             id="path6230" />
          <path
             d="m 20375.7,14046.1 c 12.1,15.7 30,30.3 43.1,37.3 13.2,7.3 21.6,7.3 30.4,1.1 9.1,-6.6 18.3,-19.4 25.6,-36.6 7.7,-17.2 13.5,-38.7 15,-61.8 1.8,-22.7 -1.1,-46.8 -9.9,-74.6 -8.8,-27.8 -23.8,-58.9 -46.8,-80.8 -22.7,-21.9 -53.4,-35.1 -74.2,-43.5 -21.2,-8.8 -32.2,-13.2 -37.3,-2.2 -5.2,10.6 -4.1,36.6 -3.7,63.2 0.7,26.4 0.7,53.8 5.9,78.7 5.4,24.8 16.1,46.8 24.8,66.2 8.4,19.7 15,36.9 27.1,53"
             style="fill:#ffb72f;fill-opacity:1;fill-rule:evenodd;stroke:none"
             id="path6232" />
          <path
             d="m 19258.8,13903.8 c -11.3,-2.5 -28.9,-8.4 -44.2,-15.3 -15,-7 -28.2,-15 -30.4,-27.5 -1.8,-12.8 7,-29.9 23.8,-49.7 16.8,-19.4 40.9,-41.7 62.5,-54.9 21.2,-13.1 40.2,-17.9 58.9,-21.2 18.3,-3.3 36.6,-5.4 47.9,-5.1 11.7,0 16.1,3 13.2,13.6 -2.6,10.9 -12.8,29.9 -20.1,50.4 -7.7,20.1 -12.1,41.3 -20.9,57.1 -9.1,15.7 -22.3,26.3 -34.4,34 -12,8 -23,13.1 -31.1,16.1 -8.4,3.3 -13.5,4.7 -25.2,2.5"
             style="fill:#ffb72f;fill-opacity:1;fill-rule:evenodd;stroke:none"
             id="path6234" />
          <path
             d="m 18679.5,14331.4 c -7.3,-5.9 -16.1,-18 -19.4,-39.2 -3.6,-21.2 -1.8,-51.2 4.4,-75.3 6.3,-23.8 16.9,-42.1 33,-65.8 16.4,-24.2 38,-54.5 57.4,-75.4 19,-20.8 35.4,-32.9 53.7,-38.8 18.3,-6.2 38.8,-6.9 53.4,0 14.3,6.6 23.1,20.5 23.4,42.5 0.8,21.5 -6.9,51.2 -20.8,77.5 -14.3,26.3 -34.8,49.4 -53.8,69.1 -18.6,19.8 -35.8,35.9 -54.1,53.4 -18.3,17.9 -38.4,37.3 -51.2,47.2 -12.8,9.9 -18.7,10.2 -26,4.8"
             style="fill:#ffb72f;fill-opacity:1;fill-rule:evenodd;stroke:none"
             id="path6236" />
          <path
             d="m 18618.1,14784.5 c -10.6,4.4 -28.5,9.8 -41.7,9.1 -13.2,-0.7 -21.6,-7.7 -29.3,-21.9 -7.6,-14.3 -14.6,-36.3 -15.3,-62.6 -0.7,-25.9 4.4,-56.7 15,-87.4 10.2,-30.7 25.6,-61.1 44.2,-87 18.7,-26 40.6,-46.8 63.7,-63.3 23,-16.8 46.8,-29.2 63.6,-21.6 16.5,7.4 25.6,34.8 22.3,62.9 -3.3,27.8 -18.6,56.4 -34.7,88.2 -15.8,31.8 -31.9,67.3 -43.9,96.5 -11.7,29.7 -19.4,53 -24.5,66.6 -5.5,13.1 -8.8,16.1 -19.4,20.5"
             style="fill:#ffb72f;fill-opacity:1;fill-rule:evenodd;stroke:none"
             id="path6238" />
          <path
             d="m 18443.3,14753 c -9.5,8.1 -23.4,19 -35.5,24.5 -12.1,5.5 -21.9,4.8 -29.2,-1.8 -7.4,-6.6 -11.8,-19 -5.9,-40.3 5.9,-20.8 21.9,-50 32.9,-69.8 11,-19.7 16.8,-30 24.9,-36.6 7.7,-6.9 17.9,-10.2 27,-9.8 9.2,0.3 18,4 21.3,17.9 3.3,13.5 1.4,37.3 -1.9,55.2 -3.3,18.3 -8,31.1 -13.1,39.5 -5.2,8.8 -10.6,13.2 -20.5,21.2"
             style="fill:#ffb72f;fill-opacity:1;fill-rule:evenodd;stroke:none"
             id="path6240" />
          <path
             d="m 18298.8,14619.5 c -10.2,19 -21.9,43.6 -32.5,57.1 -10.3,13.9 -19.4,17.5 -27.4,14.2 -8.1,-2.9 -15,-12.4 -21.3,-32.9 -5.8,-20.1 -10.6,-51.2 -8,-82.6 2.2,-31.1 12.1,-62.9 24.9,-89.6 12.8,-26.3 28.5,-47.9 44.2,-64.8 15.7,-16.4 31.5,-28.5 45,-32.1 13.9,-3.7 25.6,1.1 32.5,11.3 6.6,10.2 8.5,26 4.1,42.8 -4.8,16.8 -16.1,34.7 -23.1,56.3 -6.9,22 -9.1,47.6 -14.6,67.7 -5.5,19.7 -13.5,33.6 -23.8,52.6"
             style="fill:#ffb72f;fill-opacity:1;fill-rule:evenodd;stroke:none"
             id="path6242" />
        </g>
      </g>
      <path
         d="m 18645.2,14721.6 c -6.3,20.8 -12.8,30.3 -19.8,34.7 -7.3,4 -15,2.6 -20.5,-3.6 -5.5,-6.3 -8.7,-17.3 -10.9,-31.1 -2.2,-13.9 -3.3,-30.8 -0.4,-46.8 2.9,-16.1 9.5,-31.1 13.5,-43.6 3.7,-12 4.8,-21.5 8.4,-31.1 3.3,-9.8 9.5,-19.7 19.1,-28.5 9.5,-8.8 22.6,-16.1 35.1,-18.6 12.4,-2.2 24.1,0.3 26.7,7.3 2.5,7.3 -4.1,19 -11,32.5 -6.6,13.9 -13.9,29.6 -20.5,53.4 -6.6,23.4 -13.2,54.9 -19.7,75.4"
         style="fill:#feda3b;fill-opacity:1;fill-rule:evenodd;stroke:none"
         id="path6244"
         transform="matrix(0.13333333,0,0,-0.13333333,0,2933.3333)" />
      <path
         d="m 18468.9,14736.6 c -7,4 -17.6,9.1 -26.7,9.8 -8.8,0.4 -16.1,-4 -19.8,-11 -3.6,-6.9 -3.6,-16.4 -2.5,-25.5 1.1,-9.2 3.3,-18 10.9,-23.8 8.1,-6.2 21.6,-9.5 30.4,-9.2 8.4,0.8 12.1,5.9 14.6,14.7 2.6,9.1 4.1,22.7 3.7,30.7 -0.7,8 -3.7,10.2 -10.6,14.3"
         style="fill:#feda3b;fill-opacity:1;fill-rule:evenodd;stroke:none"
         id="path6246"
         transform="matrix(0.13333333,0,0,-0.13333333,0,2933.3333)" />
      <path
         d="m 18332.5,14623.9 c -4.8,8.8 -14.3,21.6 -22,24.9 -7.3,3.3 -13.1,-2.6 -19.3,-9.2 -6.6,-6.5 -14,-13.9 -18.3,-25.2 -4.8,-11 -6.6,-26.3 -6.3,-42.4 0.4,-15.7 3.3,-32.2 9.2,-47.2 6.2,-15.4 15.4,-29.2 24.5,-39.5 9.1,-10.6 18.3,-17.2 25.6,-20.1 7.7,-2.9 13.9,-1.8 18.3,7.3 4.4,9.2 6.9,26.3 6.9,42.8 0,16.5 -2.5,32.2 -5.1,46.8 -2.6,14.6 -5.1,28.2 -6.6,37.7 -1.4,9.5 -1.8,15 -6.9,24.1"
         style="fill:#feda3b;fill-opacity:1;fill-rule:evenodd;stroke:none"
         id="path6248"
         transform="matrix(0.13333333,0,0,-0.13333333,0,2933.3333)" />
      <path
         d="m 18802.4,14222.4 c -9.5,13.1 -23.8,31.8 -33.3,42.4 -9.5,10.2 -13.9,12.1 -18.6,12.1 -4.8,0.3 -10.3,-1.5 -13.2,-12.1 -2.9,-10.6 -3.3,-30 -4,-45.4 -0.4,-15.3 -0.4,-26.3 4,-40.2 4.8,-13.9 13.9,-30.7 27.4,-44.6 13.9,-14.3 31.5,-25.6 46.9,-30.4 15.7,-4.3 28.8,-2.1 31.8,6.2 2.9,8.5 -4.4,22.7 -9.9,37.7 -5.5,14.7 -9.5,30.4 -13.5,42.1 -4.1,11.3 -8.1,19 -17.6,32.2"
         style="fill:#feda3b;fill-opacity:1;fill-rule:evenodd;stroke:none"
         id="path6250"
         transform="matrix(0.13333333,0,0,-0.13333333,0,2933.3333)" />
      <path
         d="m 19277.8,13886.3 c -8.7,3.6 -23.4,9.5 -34.7,11.7 -11.7,2.2 -20.1,0.7 -22.3,-5.5 -1.8,-6.2 2.5,-16.5 6.6,-27.4 3.6,-11 6.5,-22.3 13.5,-32.9 7.3,-10.6 18.7,-20.9 30,-28.9 11.3,-7.7 23,-13.2 38,-15 14.6,-2.2 32.9,-0.8 44.3,2.2 10.9,3.3 15,8 14.6,14.2 -0.7,6.6 -6.2,14.3 -13.2,20.5 -7.3,6.6 -16.1,11.3 -26.7,20.1 -10.6,8.8 -23,21.2 -30.7,28.6 -7.7,6.9 -10.6,8.4 -19.4,12.4"
         style="fill:#feda3b;fill-opacity:1;fill-rule:evenodd;stroke:none"
         id="path6252"
         transform="matrix(0.13333333,0,0,-0.13333333,0,2933.3333)" />
      <path
         d="m 20364,13937.9 c -5.1,-8.5 -14.6,-21.3 -21.9,-34.4 -7.4,-13.6 -12.1,-27.1 -16.9,-37.7 -4.7,-11 -9.5,-18.7 -7.3,-23.4 2.2,-5.1 11,-7 22.3,-6.2 11,0.3 24.5,3.3 37.7,9.1 12.8,6.2 25.2,15 36.2,29.3 11.3,14.2 21.2,33.6 28.1,51.5 6.6,17.6 10.7,33 10.7,47.2 0.3,14.3 -3,27.1 -8.8,39.5 -5.5,12.1 -13.9,23.1 -21.6,26.4 -8,2.9 -15.4,-2.3 -20.5,-11.8 -5.1,-9.5 -8.4,-23.7 -13.5,-36.9 -4.8,-13.2 -11.7,-24.9 -15.4,-32.6 -3.6,-8 -4,-11.6 -9.1,-20"
         style="fill:#feda3b;fill-opacity:1;fill-rule:evenodd;stroke:none"
         id="path6254"
         transform="matrix(0.13333333,0,0,-0.13333333,0,2933.3333)" />
      <path
         d="m 20755.3,14471 c -4.8,-6.5 -11,-17.5 -16.5,-28.8 -5.8,-11.4 -11.3,-23.1 -14.2,-31.5 -2.9,-8.8 -3.7,-14.3 1.4,-17.5 5.2,-3.7 15.4,-5.2 28.9,-2.2 13.6,3.3 30,10.9 46.1,21.9 16.1,11 31.8,24.9 41.3,42.8 9.5,17.9 12.5,39.5 13.6,54.9 1.4,14.9 1.1,23.7 -1.9,35.1 -3.2,11.3 -9.1,25.6 -14.6,35.4 -5.8,9.5 -11,14.7 -18.3,14.3 -7.3,-0.4 -16.4,-6.2 -22.7,-15 -5.8,-8.4 -8.7,-19.8 -13.5,-36.6 -5.1,-16.8 -11.7,-39.1 -16.8,-51.5 -4.8,-12.5 -8.1,-14.7 -12.8,-21.3"
         style="fill:#feda3b;fill-opacity:1;fill-rule:evenodd;stroke:none"
         id="path6256"
         transform="matrix(0.13333333,0,0,-0.13333333,0,2933.3333)" />
      <path
         d="m 21076.8,15252.9 c -4.8,9.2 -11,21.3 -17.2,35.5 -5.9,14.6 -11.7,31.1 -15.8,44.3 -4,12.8 -6.5,21.9 -1.8,25.6 4.4,3.6 15.7,1.4 27.4,-0.8 11.7,-2.5 24.2,-5.8 34,-17.5 9.6,-11.7 16.5,-31.8 19.8,-51.6 3.3,-19.7 3.3,-39.1 0.7,-50.8 -2.5,-11.7 -7.3,-15.7 -13.9,-15.7 -6.6,0 -15,4.3 -20.4,9.8 -5.5,5.5 -8.5,11.7 -12.8,21.2"
         style="fill:#feda3b;fill-opacity:1;fill-rule:evenodd;stroke:none"
         id="path6258"
         transform="matrix(0.13333333,0,0,-0.13333333,0,2933.3333)" />
      <path
         d="m 20650.7,15291.3 c -2.6,11.4 -6.2,23.4 -5.1,35.9 0.7,12 6.2,24.5 18.3,24.1 12,0 31.1,-13.2 42.4,-23.8 11.3,-10.6 15.4,-19 18.3,-33.2 2.9,-14.7 4.4,-35.1 4,-55.6 -0.4,-20.1 -2.9,-40.3 -8,-54.1 -5.2,-13.9 -13.2,-22 -24.5,-19.4 -11,2.5 -24.9,15.7 -31.9,32.9 -7.3,17.2 -7.6,38.8 -8.4,54.8 -1.1,16.1 -2.5,27.1 -5.1,38.4"
         style="fill:#feda3b;fill-opacity:1;fill-rule:evenodd;stroke:none"
         id="path6260"
         transform="matrix(0.13333333,0,0,-0.13333333,0,2933.3333)" />
      <path
         d="m 20646,15451.5 c -8.1,11.4 -16.9,26 -22.4,39.5 -5.8,13.9 -8.4,26.7 -6.2,35.9 2.2,8.7 9.5,13.9 18.3,14.6 8.8,1.1 19,-2.6 28.9,-10.6 9.9,-8.4 19,-21.2 24.5,-36.2 5.5,-15 7.3,-31.8 7,-44.6 -0.4,-12.5 -3,-20.9 -7.7,-24.5 -4.8,-3.7 -12.1,-3 -19.8,1.4 -7.3,4.8 -14.6,13.2 -22.6,24.5"
         style="fill:#feda3b;fill-opacity:1;fill-rule:evenodd;stroke:none"
         id="path6262"
         transform="matrix(0.13333333,0,0,-0.13333333,0,2933.3333)" />
      <path
         d="m 20359.6,15574.8 c -7.7,8 -17.9,23 -26.3,36.5 -8.4,13.9 -15.4,26.4 -20.9,36.6 -5.8,10.2 -10.6,17.9 -13.9,25.6 -2.9,7.7 -4,15.4 3.7,17.9 7.3,2.6 23,0.8 40.6,-4 17.5,-4.4 36.9,-11.7 52.6,-22.7 15.4,-11.3 27.1,-26.3 35.5,-42.4 8.8,-15.7 14.3,-32.2 17.2,-50.8 3.3,-18.3 3.7,-39.2 2.6,-53.1 -1.5,-13.8 -4.8,-20.8 -11.4,-18.2 -6.6,2.5 -16.4,14.6 -27,27 -11,12.5 -22.3,24.9 -31.1,31.8 -8.4,7 -13.6,8.1 -21.6,15.8"
         style="fill:#feda3b;fill-opacity:1;fill-rule:evenodd;stroke:none"
         id="path6264"
         transform="matrix(0.13333333,0,0,-0.13333333,0,2933.3333)" />
      <path
         d="m 20151.9,15893.3 c -9.9,10.6 -21.2,24.5 -29.3,38.8 -8,14.6 -13.1,30 -21.6,43.8 -8.7,13.9 -20.8,26 -30.3,38.4 -9.5,12.8 -16.5,25.3 -20.5,34.8 -3.6,9.1 -4.7,15 1.5,18.3 6.2,2.9 19,3.3 34,1.1 15,-2.2 32.2,-7 45.7,-16.1 13.5,-9.2 23.8,-22.7 32.2,-38.1 8.4,-15.3 15.3,-32.1 21.2,-51.2 5.8,-18.6 11,-39.5 12.4,-54.1 1.5,-14.6 -0.7,-23 -4,-28.9 -3.7,-5.8 -8.8,-8.7 -15.7,-6.6 -7,2.2 -15.8,9.6 -25.6,19.8"
         style="fill:#feda3b;fill-opacity:1;fill-rule:evenodd;stroke:none"
         id="path6266"
         transform="matrix(0.13333333,0,0,-0.13333333,0,2933.3333)" />
      <path
         d="m 19681.9,15935.4 c -27.4,2.9 -60.3,6.2 -80,8.4 -19.8,2.5 -26.4,4 -28.6,8 -1.8,4 0.8,10.6 4.8,17.2 4.4,6.9 9.9,13.9 24.1,20.5 13.9,6.9 36.6,13.1 56.7,16.8 20.1,3.7 38,4.4 50.5,9.9 12.8,5.1 20.5,14.6 36.2,17.2 15.7,2.5 39.8,-1.9 58.5,-8.8 19,-7 32.2,-16.1 41.7,-27.4 9.5,-11.8 15.7,-25.6 21.6,-38.8 5.8,-13.2 11.3,-25.6 10.6,-35.1 -0.8,-9.5 -7.4,-16.1 -20.1,-15.7 -12.5,0.3 -31.1,7.6 -49.4,12 -17.9,4.8 -35.9,5.9 -56,8.1 -20.1,1.8 -42.8,4.7 -70.6,7.7"
         style="fill:#feda3b;fill-opacity:1;fill-rule:evenodd;stroke:none"
         id="path6268"
         transform="matrix(0.13333333,0,0,-0.13333333,0,2933.3333)" />
      <path
         d="m 19347.3,15797.5 c -11.3,1.4 -28.1,5.5 -49.7,9.1 -21.6,3.7 -47.9,7 -76.8,3.7 -28.5,-3.3 -59.6,-13.2 -86.7,-24.2 -27.4,-10.6 -50.8,-22.3 -70.9,-36.2 -19.8,-14.2 -35.9,-31 -39.2,-43.1 -3.6,-12.1 5.9,-20.1 26.7,-20.1 20.5,-0.4 52.7,7.3 87.1,17.2 34.7,9.5 71.6,21.2 108.6,28.1 37.3,7 74.2,8.8 100.9,11.7 27.1,2.9 43.2,7 56.3,11.7 12.8,5.1 22.3,10.6 27.8,15.7 5.9,5.5 8.1,10.3 6.2,14.7 -1.4,4.7 -7.3,9.1 -19.3,10.9 -12.1,1.9 -30.8,1.1 -42.5,0.8 -12,-0.8 -17.5,-1.5 -28.5,0"
         style="fill:#feda3b;fill-opacity:1;fill-rule:evenodd;stroke:none"
         id="path6270"
         transform="matrix(0.13333333,0,0,-0.13333333,0,2933.3333)" />
      <path
         d="m 18842.3,15705.3 c -16.5,-12 -36.2,-23.7 -58.5,-42 -22.7,-18.3 -48,-43.2 -66.2,-61.8 -18.3,-18.7 -29.3,-31.1 -38.4,-38.4 -8.8,-7.4 -15.4,-9.2 -17.9,-4.8 -3,4 -2.2,14.6 5.1,32.2 7.6,17.9 21.5,42.8 28.5,58.9 6.6,15.7 6.6,22.3 11,34 4.4,11.7 13.5,28.5 29.2,45 16.1,16.4 38.4,32.5 58.2,45.7 19.7,13.1 36.9,23.4 52.3,28.9 15.7,5.8 29.9,6.6 44.9,9.5 14.7,2.9 30.4,7.3 45.8,10.9 15.7,3.7 30.7,6.6 42,6.6 11.3,0.4 18.7,-1.8 22,-5.8 3.3,-4 2.2,-9.9 -3.7,-16.1 -5.8,-6.2 -16.8,-12.4 -29.3,-19 -12.4,-6.6 -26.7,-12.8 -40.2,-20.9 -13.9,-8.4 -27,-17.9 -40.6,-28.5 -13.9,-11 -27.4,-22.7 -44.2,-34.4"
         style="fill:#feda3b;fill-opacity:1;fill-rule:evenodd;stroke:none"
         id="path6272"
         transform="matrix(0.13333333,0,0,-0.13333333,0,2933.3333)" />
      <path
         d="m 18629.8,15743 c 11.3,10.2 26.3,24.5 35.8,39.1 9.9,14.3 14.3,28.5 13.9,36.2 -0.3,7.3 -5.8,8.1 -16.1,3.3 -10.2,-5.1 -25.2,-15.7 -36.5,-28.2 -11.4,-12.7 -19.4,-27 -25.6,-39.1 -6.6,-12 -11.7,-21.9 -11.4,-27 0.4,-5.2 5.9,-5.5 12.8,-2.6 7,2.6 15.4,8.4 27.1,18.3"
         style="fill:#feda3b;fill-opacity:1;fill-rule:evenodd;stroke:none"
         id="path6274"
         transform="matrix(0.13333333,0,0,-0.13333333,0,2933.3333)" />
      <path
         d="m 18509.1,16109.8 c -19.7,-13.2 -49.4,-30.4 -69.5,-41 -20.1,-10.9 -31.1,-15.7 -39.5,-17.2 -8,-1.4 -14.2,0.4 -13.9,7 0.4,6.9 7,19 16.9,32.9 10.2,13.9 23.7,29.6 37.3,40.6 13.5,11.3 26.7,18.3 39.5,22.3 12.8,3.7 24.8,4 36.5,4.4 11.4,0.4 21.6,0.4 27.1,-2.9 5.5,-3.3 5.8,-9.5 0.7,-17.2 -5.1,-7.7 -15.3,-16.1 -35.1,-28.9"
         style="fill:#feda3b;fill-opacity:1;fill-rule:evenodd;stroke:none"
         id="path6276"
         transform="matrix(0.13333333,0,0,-0.13333333,0,2933.3333)" />
      <path
         d="m 20272.9,16467.1 c -12,6.9 -28.9,16.1 -43.5,25.6 -15,9.5 -27.8,19.4 -34.4,27.8 -6.2,8 -6.2,15 4.1,18.6 10.6,3.7 31.4,4.1 50.8,1.1 19.4,-3.3 37.3,-9.8 53.4,-12.4 16.4,-2.6 31.1,-1.1 43.9,2.6 12.4,3.6 23,9.5 36.5,10.2 13.6,0.7 30.4,-3.3 50.1,-13.9 19.8,-10.2 42.5,-27.4 53.8,-41.3 11.3,-13.5 11,-24.5 -2.6,-26.7 -13.5,-2.6 -40.6,3.3 -54.8,3.6 -14.6,0.4 -16.8,-4.7 -15.7,-13.9 1.1,-9.1 5.4,-22.3 6.9,-31 1.1,-9.2 -0.4,-14 -4.4,-17.6 -4,-3.3 -10.6,-5.5 -22.7,-4 -11.7,1.8 -29.2,6.9 -46,17.2 -16.5,9.8 -32.6,24.5 -44.3,33.6 -11.7,9.5 -19,13.9 -31.1,20.5"
         style="fill:#feda3b;fill-opacity:1;fill-rule:evenodd;stroke:none"
         id="path6278"
         transform="matrix(0.13333333,0,0,-0.13333333,0,2933.3333)" />
   </g>
</svg>
