<?xml version="1.0" encoding="UTF-8" standalone="no"?>
<svg
   xmlns="http://www.w3.org/2000/svg"
   width="700"
   height="700"
   viewBox="0 0 700 700"
>
   <g
      id="g3"
      transform="translate(-44.456797,-594.28302)"
      style="display:inline;opacity:1">
      <path
         d="m 1867.7,15367.6 c 6.79,-14.5 13.57,-29 18.51,-53.7 4.94,-24.6 8.33,-59.5 11.42,-94.3 12.34,24.3 24.37,48.7 37.01,70.3 12.35,21.6 24.99,40.1 39.5,56.4 14.19,16.1 29.92,29.7 45.96,43.2 -20.98,-4 -41.65,-8.3 -60.47,-12.3 -18.81,-4 -35.78,-8 -50.59,-9.6 -15.11,-1.5 -28.07,-0.9 -41.34,0 z m 1510.12,110.5 c 11.72,-8.4 23.44,-16.4 36.71,-34.6 13.27,-18.2 27.76,-46.3 38.26,-71.9 10.79,-25.6 17.58,-48.7 24.37,-71.8 7.71,8 15.42,16.3 24.37,20.9 8.95,5 19.43,6.2 29.93,7.7 -8.64,15.5 -17.28,30.6 -25.3,51.3 -8.33,20.3 -16.04,45.6 -20.36,67.2 -4.32,21.6 -5.25,39.2 -5.87,56.8 -16.04,-7.1 -31.77,-14.5 -48.74,-18.8 -17.28,-4.4 -35.17,-5.6 -53.37,-6.8 z m -1809.98,97.2 c -37.95,-9.9 -76.2,-19.8 -115.69,-38 -39.18,-18.2 -80.21,-44.4 -110.45,-95.3 -30.54,-50.6 -50.28,-125.9 -41.65,-199.9 8.64,-74.1 45.66,-146.6 91.94,-191.3 46.28,-45 101.5,-62.3 153.64,-75 52.13,-12.6 101.18,-20.6 147.15,-11.4 45.66,9.6 88.24,37 130.8,64.2 -3.39,-33.6 -7.09,-67.3 -3.39,-104.3 3.39,-37.3 14.5,-78 25.3,-118.8 -58.92,19.8 -117.85,39.8 -188.81,56.2 -70.64,16.3 -153.01,29 -223.04,26.2 -69.72,-2.8 -126.8,-21 -182.64,-72.5 -55.84,-51.8 -110.13,-137 -130.8,-224.9 -20.36,-87.9 -6.79,-178.6 13.26,-246.2 20.06,-67.5 46.28,-112 82.99,-147.4 36.71,-35.5 83.91,-61.7 134.2,-80.9 50.29,-18.8 103.97,-30.8 157.03,-34.8 53.06,-4 105.51,-0.3 154.56,17.6 49.05,18.2 94.4,50.9 132.97,82.9 38.55,32.4 70.33,64.2 101.8,94.4 31.77,30.6 63.55,59.6 95.32,88.6 -0.92,-38.3 -1.85,-76.2 11.42,-98.1 12.95,-21.6 40.42,-27.2 61.08,-28.4 20.98,-1.5 35.48,1.2 49.98,4 22.52,-17.3 45.35,-34.5 61.08,-48.1 16.04,-13.6 24.99,-23.5 34.25,-33.7 -45.35,-12.6 -90.7,-25.2 -145.61,-70.6 -54.92,-45.3 -119.39,-123.4 -152.41,-185.1 -33,-61.7 -34.85,-107 -20.97,-174.9 14.19,-68.2 44.11,-158.9 68.48,-228 24.69,-69.4 43.5,-117.5 81.14,-157 37.64,-39.5 94.09,-70.4 155.17,-90.7 61.4,-20.4 127.42,-30.6 190.97,-28.1 63.55,2.2 124.33,16.7 175.85,40.4 51.83,23.5 94.4,56.2 131.12,97.8 36.71,41.7 67.55,92.6 86.99,142.5 19.75,49.7 27.76,98.8 35.79,147.8 41.03,-12.6 81.75,-25.3 127.09,-35.5 45.36,-9.8 95.34,-17.2 140.07,-10.5 45.04,6.8 84.84,27.8 124.63,48.8 22.83,-71 45.35,-141.6 87.62,-187.3 42.26,-45.9 103.96,-66.6 161.35,-78.6 57.69,-11.8 111.37,-14.5 166.89,-3.4 55.85,10.8 113.84,35.1 163.82,74.6 49.98,39.5 91.62,93.8 116.62,150.3 24.98,56.1 33,114.1 19.43,176.7 -13.57,62.7 -49.05,129.6 -82.68,167.9 -33.32,37.9 -65.09,47.2 -96.87,56.1 -4.63,47.2 -9.26,94.4 -22.21,131.4 -13.26,37.4 -34.86,64.5 -56.77,91.7 21.91,19.1 43.51,38.2 65.4,57 52.46,-16 105.2,-32.4 175.55,-41.9 70.03,-9.6 158.26,-12.4 236,1.8 78.05,13.9 146.23,44.8 194.36,99.4 47.82,54.3 75.89,132.3 100.56,210.7 24.37,78.3 45.36,157.3 48.44,234.7 3.09,77.8 -11.41,154 -35.48,214.1 -23.75,60.5 -57.37,104.9 -95.02,136.7 -37.63,31.8 -79.28,50.6 -120.31,65.1 -40.72,14.5 -80.52,24.7 -135.43,25.6 -54.92,0.9 -124.64,-7.4 -187.88,-28.7 -62.93,-21.3 -119.08,-55.8 -175.54,-90.1 -5.25,28.1 -10.79,56.2 -24.37,78.7 -13.58,22.8 -35.48,40.1 -57.07,57.4 34.55,6.2 68.79,12.6 104.27,20.7 35.48,8.3 71.57,18.2 100.57,52.7 29,34.3 50.91,93.2 54.61,141.3 3.39,48.1 -11.11,85.5 -40.11,114.8 -28.99,29.6 -72.5,51.2 -115.99,60.4 -43.5,9 -87,5.3 -130.5,1.9 34.24,34.2 68.8,68.8 100.57,118.8 31.77,49.6 60.78,115 69.72,179.8 9.26,64.8 -1.84,129.3 -33.32,187.9 -31.77,58.3 -84.52,111.1 -146.53,141 -62.32,29.9 -133.9,37 -200.54,36.7 -66.63,-0.6 -128.33,-8.6 -201.44,-24.1 -72.81,-15.4 -157.34,-37.9 -218.43,-64.5 -61.38,-26.2 -99.33,-56.1 -129.26,-94.7 -29.92,-38.5 -51.82,-85.7 -56.76,-160.1 -4.94,-74.3 6.79,-175.8 18.82,-277.3 -21.91,29 -43.81,58 -69.41,78.3 -25.92,20.4 -55.84,32.1 -85.77,44.2 -1.85,33.3 -3.7,66.9 -12.65,91.3 -9.25,24.6 -25.61,40.1 -46.89,47.8 -21.28,7.7 -47.51,7.7 -72.5,-7.4 -24.99,-14.8 -48.43,-44.8 -63.86,-68.8 -15.43,-24.1 -22.83,-42.3 -29.92,-60.5 -21.91,7.4 -43.5,14.5 -67.26,17 -23.44,2.2 -49.05,-0.6 -74.35,-3.4 3.71,36.4 7.41,72.8 -10.49,116.6 -17.58,44.1 -56.45,95.7 -90.7,131.1 -33.93,35.5 -62.93,54.3 -97.48,67.9 -34.25,13.9 -74.35,21.9 -122.79,21.6 -48.43,-0.6 -105.5,-9.6 -167.82,-38.3 -62.01,-28.6 -129.27,-76.5 -175.85,-122.7 -46.89,-46.3 -73.11,-90.7 -89.46,-141.6 -16.35,-50.6 -22.53,-108 -18.51,-157.4 4.01,-49.3 18.51,-91 33.01,-132.9"
         style="fill:#962934;fill-opacity:1;fill-rule:evenodd;stroke:none"
         id="path6434"
         transform="matrix(0.13333333,0,0,-0.13333333,0,2933.3333)" />
      <path
         d="m 2984.79,15210 1700.46,990.3 -1485.44,-1376.6 z M 2027.81,15059.7 898.695,16202.4 2284.8,15335.9 Z m -921.8,-1546.2 1270.72,707.4 -133.28,158 z m 1711.57,3625.6 76.2,-911.1 -59.54,-553.7 -106.44,628.1 z m 297.7,-3191.8 1336.13,-913.8 -1067.42,1126.3 h -236 l -32.71,-212.5"
         style="fill:#ff532b;fill-opacity:1;fill-rule:evenodd;stroke:none"
         id="path6436"
         transform="matrix(0.13333333,0,0,-0.13333333,0,2933.3333)" />
      <path
         d="m 3607.04,15446.9 c -11.42,13.9 -29,32.4 -47.2,46 -17.9,13.2 -36.71,21.3 -46.28,35.2 -9.87,13.5 -10.8,32.3 1.86,45.3 12.34,13 38.25,19.7 67.55,17 29.62,-3.1 62.63,-15.8 93.18,-32.7 30.23,-17 57.99,-38.3 72.49,-69.1 14.5,-30.6 15.73,-70.4 8.64,-97.5 -7.4,-27.5 -23.14,-42 -33.63,-38.9 -10.49,3.1 -15.42,23.4 -23.75,36.4 -8.33,12.7 -20.36,18.2 -32.7,21.3 -12.34,3.4 -25.61,4.3 -34.56,9.3 -9.25,4.9 -14.19,13.8 -25.6,27.7 z m -1951.28,23.5 c -12.96,-7.5 -38.56,-10.8 -65.71,-23.8 -27.15,-12.6 -56.14,-34.2 -74.66,-64.5 -18.2,-30.2 -25.91,-68.8 -21.59,-107 4.62,-38.3 21.59,-76.5 38.56,-103.1 16.97,-26.5 34.24,-41.3 55.84,-45.9 21.9,-4.3 48.13,1.5 67.56,2.4 19.44,1 32.39,-3.3 45.04,-8 12.65,-4.9 25.3,-10.2 37.64,2.2 12.65,12.6 24.99,42.9 28.69,75.9 4.01,32.7 -0.62,68.1 1.85,100.5 2.47,32.4 12.04,62.1 29,84.9 16.97,22.8 41.64,39.2 62.93,56.7 21.59,17.3 40.11,35.8 55.23,52.2 14.81,16.3 26.22,30.5 35.48,48.7 8.94,18.5 15.73,41.1 21.28,53.4 5.86,12.3 10.49,14.2 13.88,4 3.4,-10.2 5.55,-32.4 10.18,-42.3 4.32,-9.8 11.11,-7.1 32.4,21.3 21.59,28.4 57.37,82.4 89.77,116.6 32.7,34.6 62.32,49.7 76.81,58.7 14.51,9.2 13.89,12.3 7.41,15.4 -6.47,3.1 -19.13,6.5 -18.51,11.1 0.62,4.9 14.81,11.1 26.22,16 11.73,4.7 20.67,7.7 23.76,15.5 2.77,7.7 -0.31,20 -7.72,31.4 -7.71,11.7 -19.43,22.5 -34.24,32.7 -14.5,10.2 -32.39,19.8 -54.91,24.4 -22.83,4.6 -50.28,4 -70.03,3.7 -19.43,-0.6 -30.85,-0.9 -45.04,0 -14.19,1.2 -31.47,4 -65.4,-0.3 -34.25,-4.3 -84.84,-15.8 -124.64,-33 -39.49,-17.6 -68.18,-41 -92.85,-69.4 -24.69,-28.4 -45.66,-61.4 -58,-90.4 -12.04,-28.7 -15.74,-53.4 -13.27,-66.7 2.47,-13.2 11.1,-15.7 14.19,-27.7 2.77,-11.7 0,-33.7 -2.78,-54.6 -3.08,-21.3 -6.17,-41.7 -8.33,-57.4 -1.85,-15.4 -2.77,-26.6 -16.04,-33.6 z m -26.84,-711.5 c -11.72,0 -24.06,19.8 -41.03,30.3 -16.97,10.8 -38.87,12.3 -58.31,12.3 -19.44,-0.3 -36.71,-2.4 -58,-9.2 -20.97,-6.8 -45.96,-18.2 -67.25,-35.2 -21.29,-17 -38.87,-39.8 -58.31,-61.7 -19.12,-21.9 -40.1,-43.5 -52.13,-78 -12.34,-34.6 -16.04,-82.7 -4.94,-143.8 11.1,-61.1 37.02,-134.8 69.72,-182.7 32.7,-47.5 71.89,-68.7 98.41,-79.2 26.23,-10.5 39.49,-9.9 48.13,-5.9 8.95,4 13.57,11.7 31.78,17.6 18.51,5.9 50.59,10.2 73.11,15.4 22.53,5.6 35.17,12.4 40.41,20.7 4.94,8.3 2.78,18.5 5.87,33.6 3.39,15.1 12.03,35.5 21.29,46.9 9.25,11.4 19.12,13.6 39.48,14.2 20.67,0.9 51.53,0 77.43,1.2 26.23,1.6 47.51,5 61.09,17 13.57,12 19.44,32.4 20.37,47.5 0.92,14.8 -3.1,24.4 3.38,31.2 6.48,6.4 23.76,10.2 37.03,16.9 13.56,7.1 23.13,17.6 25.91,35.2 3.08,17.9 -0.62,42.6 -13.58,69.1 -12.95,26.2 -35.17,54 -58.61,79.6 -23.75,25.6 -48.74,49 -73.73,70.7 -25.3,21.5 -50.6,41 -72.81,53.3 -22.21,12 -41.34,17.3 -56.45,9.9 -15.12,-7.1 -26.54,-26.9 -38.26,-26.9 z m 669.45,-415.8 c -20.36,-13.6 -30.85,-20.4 -35.79,-41.3 -4.93,-21 -4.63,-55.9 -5.55,-88.9 -0.92,-33 -3.08,-64.5 0.92,-93.8 3.71,-29.3 13.58,-56.4 12.04,-74.9 -1.54,-18.6 -14.81,-28.7 -33.63,-57.1 -19.13,-28.7 -44.11,-75.9 -60.47,-124 -16.34,-48.5 -24.06,-97.8 -18.51,-146.3 5.55,-48.7 24.07,-96.2 49.06,-135.1 25.29,-39.2 57.07,-69.4 98.41,-87.6 41.65,-18.2 92.86,-24.1 130.19,-25.9 37.02,-1.9 60.16,0.6 67.87,9.5 7.71,9 0,25 -19.44,42 -19.44,17 -50.9,35.2 -68.8,50 -17.89,15.1 -22.52,26.8 -7.09,27.4 15.42,0.3 50.9,-10.5 87.31,-12.3 36.71,-1.9 74.35,5.6 106.43,13 32.08,7.4 58.92,15.1 74.97,28 15.73,13 20.67,31.2 11.72,45.7 -8.64,14.5 -31.46,25.3 -67.56,38.5 -35.79,13 -85.46,28.4 -126.8,60.8 -41.65,32.1 -74.96,81.1 -95.64,116.9 -20.36,35.8 -27.45,58.7 -11.72,60.5 15.43,2.2 53.99,-16.6 80.53,-21.9 26.52,-5.5 41.03,2.2 47.81,18.2 6.48,16.4 4.94,40.7 9.26,52.1 4.32,11.2 14.5,9.6 29.31,3.4 15.11,-6.1 34.85,-16.6 59.53,-23.1 24.99,-6.8 54.3,-9.2 75.28,-8.6 21.29,0.6 33.94,4.6 48.13,14.8 14.49,9.8 30.23,25.6 55.22,24 24.99,-1.5 58.92,-20.6 82.06,-37.9 23.14,-17.6 35.48,-33.3 51.83,-53.7 16.04,-20.7 36.71,-45.3 53.68,-65.4 17.28,-20 31.47,-34.9 57.99,-45 26.54,-9.9 65.4,-14.8 112.3,-4.7 46.59,10.2 100.88,35.5 137.59,65.8 36.4,30.2 54.92,65 62.63,96.2 7.71,30.9 4.63,58.3 12.03,73.4 7.09,15.1 24.68,18.2 32.08,30 7.1,11.4 4.01,31.4 -3.7,50.2 -7.71,18.9 -20.05,36.4 -16.66,47.9 3.09,11.4 21.6,16.3 53.69,24.6 32.08,8.4 77.43,20.4 110.74,36.7 33.63,16.7 55.54,38 70.65,60.2 15.12,22.2 23.75,45.4 34.25,72.2 10.48,27.1 22.51,58 29.62,83.9 7.09,26.2 8.94,47.5 24.68,65.4 15.42,17.9 45.04,32.4 70.94,43.2 25.61,11.1 47.83,18.2 55.85,3.1 8.02,-15.1 1.54,-52.8 0.62,-76.8 -1.24,-24.1 2.77,-34.6 16.04,-38.6 12.96,-4 35.16,-1.9 57.38,7.7 21.91,9.6 43.81,26.2 63.56,54.3 20.04,28.1 38.24,67.6 48.74,83 10.79,15.4 13.87,6.8 12.96,-12 -0.93,-18.9 -5.87,-47.9 0.3,-61.4 6.17,-13.6 23.45,-11.7 41.96,-5 18.51,6.8 38.56,18.5 52.75,48.5 14.19,29.9 22.83,78 26.53,132 3.7,54 2.16,113.9 -20.06,164.8 -22.2,51.2 -65.08,93.1 -95.01,121.2 -29.93,27.8 -46.89,41.3 -68.79,51.5 -21.91,9.9 -49.06,16.4 -70.96,17.9 -21.91,1.6 -37.95,-1.5 -49.05,-6.8 -10.8,-5.2 -16.35,-12.6 -30.55,-14.5 -14.19,-2.1 -37.33,0.9 -53.68,-1.2 -16.35,-2.2 -25.91,-9.9 -25.3,-24.7 0.31,-14.8 10.81,-36.7 22.84,-69.7 12.34,-33 26.53,-77.5 35.17,-110.8 8.63,-33.3 11.72,-55.5 12.03,-73.1 0.61,-17.3 -1.85,-30.2 -12.96,-45.9 -11.41,-16.1 -31.78,-34.9 -50.28,-43.9 -18.21,-8.9 -34.56,-7.4 -47.21,14.2 -12.65,21.3 -21.9,63.3 -39.18,104 -17.58,40.7 -43.5,80.8 -63.24,103 -20.05,22.3 -34.25,26.6 -42.58,30.9 -8.33,4.3 -11.1,8.6 -16.04,43.8 -4.94,35.5 -12.34,102.1 -20.05,139.4 -7.71,37.4 -15.73,45.7 -11.41,46.3 4.62,0.6 21.9,-6.1 40.1,-24 18.21,-17.9 37.02,-46.9 52.75,-76.5 15.74,-29.7 27.77,-60.2 39.5,-88.3 11.41,-28.1 22.51,-54 30.84,-66.3 8.33,-12 14.2,-10.8 20.37,23.7 6.17,34.3 12.34,101.8 4.62,161.4 -8.02,59.5 -30.23,110.7 -69.1,148.4 -39.18,37.6 -95.02,61.7 -131.42,68.8 -36.41,7.4 -53.68,-2.2 -68.8,0.3 -15.43,2.5 -28.38,17 -49.98,36.4 -21.59,19.4 -51.52,44.1 -73.11,57.7 -21.6,13.5 -34.55,16.3 -44.74,18.2 -9.86,2.1 -16.66,3.4 -19.74,20.6 -3.08,17 -2.77,49.4 -26.22,93.8 -23.14,44.1 -70.34,100 -110.45,133 -39.8,33.3 -72.5,43.5 -108.59,38.2 -36.4,-4.9 -76.2,-25.9 -91.93,-38.5 -15.74,-12.4 -7.1,-16.4 1.23,-22.2 8.02,-5.9 15.73,-13.6 10.8,-16.1 -4.93,-2.7 -22.83,0 -35.79,4 -13.26,3.7 -21.9,8.7 -34.86,25.3 -12.96,16.7 -29.92,44.8 -51.52,67 -21.29,22.2 -46.58,38.6 -77.74,50.6 -31.46,12 -68.49,19.7 -96.26,22.5 -27.76,3.1 -45.65,1.2 -60.46,-3.1 -14.8,-4.3 -26.23,-11.1 -40.1,-9.9 -14.2,1.6 -30.86,11.1 -57.38,13.3 -26.54,2.2 -62.94,-2.8 -93.18,-13.6 -29.92,-10.8 -53.99,-27.7 -70.03,-45.9 -16.34,-17.9 -24.37,-37.7 -27.14,-62.7 -2.78,-25.3 0,-56.1 -1.86,-66.9 -2.15,-10.8 -8.94,-1.9 -17.89,10.8 -8.63,12.3 -19.74,28.1 -35.17,32.4 -15.73,4.3 -36.09,-2.8 -58.62,-19.1 -22.51,-16.4 -46.89,-41.7 -67.25,-66.1 -20.36,-24.3 -36.71,-47.5 -47.51,-71.8 -10.79,-24.4 -15.73,-50.3 -17.89,-83.6 -2.16,-33.4 -1.85,-74.1 12.65,-117.9 14.5,-43.8 43.19,-90.7 62.31,-112 19.44,-21.6 29.32,-17.9 37.95,1.6 8.64,19.4 15.74,54.9 26.54,93.4 10.79,38.9 24.68,81.2 60.47,121 35.78,39.8 93.47,77.4 143.13,97.5 49.67,20 91.32,22.2 108.91,25.6 17.89,3.4 11.41,8 8.33,14.8 -3.08,6.8 -3.08,15.7 4.63,31.1 8.02,15.1 24.06,36.4 55.52,47.9 31.78,11.1 79.6,12.6 114.77,8.3 35.48,-4.3 58.61,-14.2 72.81,-23.8 14.5,-9.5 19.74,-18.8 16.96,-26.8 -3.08,-8 -14.49,-15.4 -23.44,-29.6 -8.95,-13.9 -16.05,-34.9 -24.07,-54 -8.02,-19.5 -17.58,-37 -35.78,-43.8 -18.21,-6.8 -45.04,-2.8 -69.1,-16.1 -23.76,-13.5 -45.35,-44.4 -52.45,-68.8 -7.41,-24.3 -0.62,-42.5 14.19,-54.3 14.81,-12 37.64,-17.2 59.24,-19.7 21.89,-2.5 42.56,-2.2 50.89,-10.2 8.64,-7.7 4.32,-24 -1.53,-40.1 -6.18,-15.7 -14.51,-31.2 -30.86,-33.6 -16.66,-2.5 -41.65,8 -69.41,17.6 -27.46,9.8 -58,18.8 -104.28,21.9 -46.58,3.4 -109.21,0.6 -153.32,-8.7 -44.12,-9.2 -70.03,-25.3 -94.72,-49.6 -24.37,-24.7 -47.5,-57.7 -60.15,-99.1 -12.65,-41.6 -15.12,-91.6 -14.81,-143.7 0.31,-52.2 3.08,-106.5 18.82,-150.6 16.04,-44.4 45.04,-78.3 67.56,-107.6 22.83,-29.4 39.18,-53.7 64.79,-80.6 25.6,-27.1 60.46,-56.4 78.67,-86.3 17.89,-29.7 19.43,-59.6 4.93,-84.6 -14.5,-25.3 -45.04,-45.6 -65.4,-59.2 z M 3431.5,13673 c -21.91,-0.6 -44.11,8.7 -60.77,6.5 -16.35,-1.8 -27.46,-15.1 -26.85,-34.6 0.31,-19.1 12.35,-44.4 23.76,-65.4 11.73,-20.9 22.83,-37 50.28,-49.6 27.15,-12.4 70.03,-21 112.61,-21 42.27,0 83.91,8.6 120.32,30.9 36.4,22.5 67.25,58.9 86.69,87.9 19.43,29 27.76,50.9 30.22,76.2 2.79,25.3 0,54.3 -8.01,88.2 -8.33,34.3 -21.9,73.1 -38.26,95.3 -16.66,22.2 -36.09,27.8 -55.53,12.7 -19.12,-14.8 -38.25,-50.3 -53.06,-80.2 -14.5,-30 -24.99,-54.3 -43.8,-74.7 -18.52,-20 -45.05,-36.1 -69.42,-48.7 -24.38,-13 -45.97,-23.2 -68.18,-23.5 z m -137.59,1979.4 c -8.03,19.1 -24.99,53 -61.4,85.1 -36.4,32.4 -92.54,62.7 -134.8,77.8 -42.28,15.4 -70.35,15.4 -92.87,21.3 -22.52,5.8 -39.18,17.5 -49.67,37.6 -10.79,19.7 -15.42,48.1 3.39,81.4 18.52,33.7 60.17,72.8 104.58,96.3 44.43,23.4 91.64,31.8 133.59,35.8 41.96,4 78.67,4 111.68,-7.1 33.32,-11.1 62.63,-33.3 86.38,-59.2 24.06,-26.3 41.96,-56.2 48.74,-81.5 6.79,-25.3 2.47,-46.3 0,-64.5 -2.15,-18.2 -2.15,-33.6 -1.85,-50.3 0,-16.6 0.61,-34.8 -3.39,-51.5 -3.71,-16.3 -12.04,-31.4 -23.14,-41.9 -11.41,-10.8 -25.92,-17.3 -34.25,-32.7 -8.01,-15.5 -9.86,-39.8 -11.72,-59.3 -2.16,-19.4 -4.32,-33.9 -10.49,-44.1 -6.17,-10.5 -16.04,-16.3 -26.53,-10.5 -10.49,5.6 -21.29,22.8 -26.53,33.7 -4.94,10.4 -4.01,14.5 -11.72,33.6"
         style="fill:#ff532b;fill-opacity:1;fill-rule:evenodd;stroke:none"
         id="path6438"
         transform="matrix(0.13333333,0,0,-0.13333333,0,2933.3333)" />
      <path
         d="m 1626.76,14562.1 c -2.78,19.5 -3.7,41.4 -3.39,67.9 0.61,26.8 2.46,58.6 2.46,76.8 0.31,17.9 -0.92,22.5 -6.47,18.5 -5.25,-4 -14.81,-16.6 -27.15,-28.7 -12.34,-11.7 -27.15,-22.5 -46.89,-43.5 -19.74,-21.2 -44.43,-52.4 -58.31,-83.9 -14.19,-31.1 -17.59,-62.6 -15.43,-93.5 2.16,-31.1 10.49,-62 27.77,-90.3 17.59,-28.7 44.42,-55 64.48,-69.5 20.05,-14.1 33.93,-16.3 49.05,-18.2 15.12,-1.8 31.77,-3 47.2,-5.2 15.42,-2.2 29.62,-4.6 43.19,-3.7 13.58,1.2 26.84,6.2 27.77,13.6 1.23,7.1 -9.57,16.6 -20.67,32.7 -11.11,16 -22.53,38.8 -34.56,68.8 -12.03,29.9 -24.68,66.9 -33.31,94.4 -8.64,27.1 -13.27,44.4 -15.74,63.8"
         style="fill:#ffb72f;fill-opacity:1;fill-rule:evenodd;stroke:none"
         id="path6440"
         transform="matrix(0.13333333,0,0,-0.13333333,0,2933.3333)" />
      <path
         d="m 2002.21,14676.6 c 2.16,12 6.17,40.1 -1.55,48.4 -7.71,8 -27.14,-3.7 -42.56,-21.9 -15.43,-18.2 -26.85,-42.6 -34.56,-69.7 -8.02,-27.5 -12.65,-57.4 -8.33,-82.7 4.01,-25.3 16.66,-46.3 30.54,-63.8 13.88,-17.9 28.69,-32.4 41.65,-44.5 12.96,-12.3 23.75,-22.2 37.63,-30.5 13.89,-8.6 30.55,-15.4 49.37,-20.7 18.81,-5.2 39.79,-8.6 51.51,-9.2 11.73,-0.3 14.51,2.4 9.57,7.1 -4.94,4.6 -17.58,11.7 -33.94,23.1 -16.04,11.4 -35.48,27.8 -50.59,57.1 -15.12,29.3 -26.22,71.5 -33.93,107.6 -7.71,35.8 -12.03,65.8 -14.51,78.7 -2.15,13 -2.15,9 -0.3,21"
         style="fill:#ffb72f;fill-opacity:1;fill-rule:evenodd;stroke:none"
         id="path6442"
         transform="matrix(0.13333333,0,0,-0.13333333,0,2933.3333)" />
      <path
         d="m 1869.86,15168.6 c 1.55,14.8 -5.86,28.4 -6.17,46.6 0,18.2 6.78,40.7 4.32,66.4 -2.47,25.3 -14.5,53.3 -31.47,63.8 -17.27,10.5 -40.1,3.1 -62.31,-19.1 -22.21,-22.2 -43.81,-59.2 -59.23,-85.2 -15.43,-25.9 -24.69,-40.4 -23.76,-69.7 0.92,-29.6 11.72,-74 26.22,-100.2 14.2,-26.3 31.78,-34.6 49.36,-35.2 17.28,-0.6 34.56,6.2 48.13,21.6 13.88,15.4 23.76,39.5 33.62,59.5 10.18,20.1 20.06,36.4 21.29,51.5"
         style="fill:#ffb72f;fill-opacity:1;fill-rule:evenodd;stroke:none"
         id="path6444"
         transform="matrix(0.13333333,0,0,-0.13333333,0,2933.3333)" />
      <path
         d="m 2425.78,15403.7 c 30.85,19.5 55.53,28.7 67.25,38.3 11.42,9.9 9.88,20.3 -3.7,29.9 -13.26,9.9 -38.25,18.8 -64.47,21.9 -26.53,2.8 -53.99,-0.3 -84.23,-9.9 -30.23,-9.5 -62.93,-25.3 -89.77,-42.2 -26.84,-16.7 -48.43,-34.3 -69.72,-60.5 -21.59,-25.9 -43.5,-60.5 -57.07,-104.3 -13.58,-43.8 -19.13,-96.8 -18.83,-127.1 0.32,-30.5 6.18,-38.2 15.13,-37.6 9.24,0.3 21.28,8.9 40.72,34.2 19.12,25 45.65,67 73.42,99.4 27.77,32.4 57.38,55.5 90.39,82 33.32,26.6 70.03,56.5 100.88,75.9"
         style="fill:#ffb72f;fill-opacity:1;fill-rule:evenodd;stroke:none"
         id="path6446"
         transform="matrix(0.13333333,0,0,-0.13333333,0,2933.3333)" />
      <path
         d="m 2613.04,15543.5 c -17.89,4.9 -52.75,9.8 -83.29,10.8 -30.54,0.9 -56.77,-2.2 -78.36,-5.6 -21.6,-3.4 -38.56,-7.1 -38.87,0.9 -0.31,7.8 15.42,27.2 30.85,43.2 15.42,15.8 30.23,28.1 46.58,34.6 16.04,6.8 33.32,7.7 51.22,7.1 17.88,-0.3 36.4,-2.2 53.67,-6.8 17.28,-4.6 33.01,-11.7 49.06,-24.4 16.34,-12.3 32.7,-29.9 42.87,-41.9 10.5,-11.8 15.12,-17.6 12.96,-23.5 -1.84,-5.8 -10.48,-11.7 -22.83,-13.2 -12.33,-1.6 -28.07,0.9 -36.4,4.9 -8.63,3.7 -9.25,8.9 -27.46,13.9"
         style="fill:#ffb72f;fill-opacity:1;fill-rule:evenodd;stroke:none"
         id="path6448"
         transform="matrix(0.13333333,0,0,-0.13333333,0,2933.3333)" />
      <path
         d="m 3047.1,15687.5 c -9.86,5.6 -32.08,21.6 -46.58,35.5 -14.19,14.2 -20.36,26.6 -9.56,38.6 10.8,12 38.87,23.7 66.33,29.3 27.46,5.9 54.29,5.2 77.43,1.5 23.14,-3.4 42.57,-10.1 59.24,-22.2 16.96,-12 30.84,-29.3 42.88,-54.6 12.02,-25 22.21,-58.3 26.22,-91.3 4.01,-33 2.15,-66.3 -5.56,-82.4 -7.71,-16.3 -21.28,-16 -38.87,-7.4 -17.89,8.7 -39.48,25.3 -62.32,47.5 -22.52,21.9 -46.27,49.1 -63.55,68.2 -17.58,19.1 -28.69,29.9 -33.31,33 -4.63,3.1 -2.47,-1.2 -12.35,4.3"
         style="fill:#ffb72f;fill-opacity:1;fill-rule:evenodd;stroke:none"
         id="path6450"
         transform="matrix(0.13333333,0,0,-0.13333333,0,2933.3333)" />
      <path
         d="m 3582.05,15396.9 c -15.12,17.3 -33.01,33.7 -45.35,46 -12.34,12.7 -18.51,21 -9.56,25.3 8.95,4.3 33.63,4.3 54.6,0.6 21.29,-4 38.87,-11.7 50.59,-21 11.73,-9.2 17.59,-20 22.22,-34.2 4.63,-14.5 7.71,-32.1 7.09,-46 -0.62,-13.8 -5.24,-23.7 -12.65,-27.1 -7.71,-3.4 -17.88,-0.3 -28.99,10.5 -11.11,10.5 -23.14,28.7 -37.95,45.9"
         style="fill:#ffb72f;fill-opacity:1;fill-rule:evenodd;stroke:none"
         id="path6452"
         transform="matrix(0.13333333,0,0,-0.13333333,0,2933.3333)" />
      <path
         d="m 3692.81,14625.7 c 4.93,29.9 4.31,58.6 2.15,85.7 -2.15,27.2 -5.24,53.1 -7.4,72.5 -2.47,19.2 -3.7,31.8 4.32,38.6 8.33,6.5 25.91,6.8 47.81,1.2 21.6,-5.5 47.52,-17.5 68.19,-49.6 20.66,-32.1 36.09,-84.9 41.95,-128.7 5.86,-43.8 2.16,-78.6 -6.48,-112.9 -8.95,-34.5 -23.14,-68.5 -41.96,-94.4 -18.81,-25.9 -42.26,-43.5 -62.31,-54.6 -19.75,-11.1 -36.1,-15.7 -44.12,-5.6 -8.02,10.2 -7.4,35.2 -12.34,53.4 -4.63,18.5 -14.8,30.3 -18.2,46 -3.7,15.7 -0.92,35.2 5.86,60.8 6.79,25.6 17.59,57.3 22.53,87.6"
         style="fill:#ffb72f;fill-opacity:1;fill-rule:evenodd;stroke:none"
         id="path6454"
         transform="matrix(0.13333333,0,0,-0.13333333,0,2933.3333)" />
      <path
         d="m 3540.41,13844.6 c -16.36,-16.4 -43.51,-40.2 -70.04,-60.2 -26.22,-20.1 -51.52,-35.8 -70.95,-47.5 -19.75,-11.4 -33.32,-18.8 -33.01,-26.2 0.31,-7.4 14.19,-15.2 30.54,-21.6 16.35,-6.2 34.86,-11.4 56.15,-13 20.98,-1.5 44.42,0.3 68.48,3.4 23.76,3.4 47.82,7.7 65.1,15.7 16.96,8.1 27.46,19.5 35.79,31.5 8.02,12.3 13.87,25.6 24.99,43.8 10.79,18.5 26.52,42 39.48,65.7 12.96,23.8 22.83,47.8 22.83,78.4 -0.31,30.8 -10.8,67.8 -19.13,93.2 -8.33,24.9 -14.8,38.2 -21.59,31.7 -6.79,-6.8 -13.88,-33 -23.14,-56.4 -8.95,-23.8 -20.05,-44.5 -33.32,-61.4 -13.27,-17.3 -29.31,-30.3 -39.79,-41.1 -10.8,-11.1 -16.05,-19.7 -32.39,-36"
         style="fill:#ffb72f;fill-opacity:1;fill-rule:evenodd;stroke:none"
         id="path6456"
         transform="matrix(0.13333333,0,0,-0.13333333,0,2933.3333)" />
      <path
         d="m 2836.4,13855.7 c -27.77,12 -75.89,27.7 -107.67,40.4 -32.08,12.3 -48.12,21.3 -63.24,20.3 -15.12,-0.9 -29.62,-11.7 -53.99,-17.9 -24.06,-6.4 -58.3,-8.3 -95.02,1.6 -37.02,9.5 -77.13,30.8 -103.04,46.3 -26.22,15.1 -38.25,24 -42.57,19.1 -4.32,-4.9 -0.62,-24.1 5.86,-49.7 6.48,-25.6 16.04,-57.7 35.48,-86.1 19.12,-28.3 48.12,-52.7 73.42,-69.4 24.99,-16.6 46.28,-25.3 69.41,-27.7 23.14,-2.8 48.13,0.3 72.2,7.4 24.06,7.1 47.19,17.9 66.02,27.7 18.81,10.2 33.32,19.2 47.81,24.4 14.51,5.3 29,6.5 48.44,10.2 19.12,3.7 43.19,9.6 58.92,14.2 15.43,4.9 22.83,8.3 22.83,14.2 0,5.5 -7.4,13.2 -34.86,25"
         style="fill:#ffb72f;fill-opacity:1;fill-rule:evenodd;stroke:none"
         id="path6458"
         transform="matrix(0.13333333,0,0,-0.13333333,0,2933.3333)" />
      <path
         d="m 2285.1,14614 c -8.94,-14.2 -25.91,-37.1 -34.86,-66.4 -9.25,-29.6 -10.48,-65.7 0,-119.4 10.49,-53.6 33.01,-124.6 63.25,-178.3 30.23,-53.6 68.48,-89.7 108.28,-112.9 39.8,-23.1 81.76,-33.3 113.53,-34.5 31.78,-1.3 53.37,5.8 71.58,0 18.19,-5.9 32.7,-25 54.29,-50.9 21.9,-25.7 50.9,-58.3 87,-80.2 36.41,-21.6 79.9,-32.8 113.52,-29.1 33.63,3.7 57.08,22 77.13,34.9 20.06,13.3 36.1,21.3 71.26,11.4 34.87,-9.8 88.24,-37.9 129.89,-49.3 41.95,-11.4 71.88,-5.9 112.59,16.6 40.73,22.9 92.56,62.6 122.79,104 30.54,41.3 39.49,83.9 42.88,111.4 3.09,27.7 0.31,40.4 9.88,50.9 9.56,10.5 31.15,18.5 59.84,39.1 28.39,20.4 63.87,52.8 83.92,96.9 20.05,44.1 24.37,99.3 27.15,139.8 2.78,40.4 3.7,65.7 0,84.8 -3.71,18.8 -11.73,31.8 -15.43,52.4 -3.7,21 -2.77,50 -7.71,84.9 -4.94,34.8 -15.73,75.9 -34.56,105.8 -18.5,29.9 -44.73,48.7 -62,59.2 -17.28,10.5 -25.3,12.4 -27.77,8.4 -2.16,-4.4 1.55,-14.2 5.56,-45.1 4.01,-30.8 8.64,-82.3 10.48,-110.1 1.86,-27.8 0.93,-31.5 -8.63,-15.4 -9.57,15.7 -27.77,51.2 -33.63,92.8 -5.86,41.7 0.61,89.8 -6.79,134.8 -7.4,44.8 -28.07,86.7 -58.93,117.3 -30.84,30.8 -71.56,50.9 -107.97,58.6 -36.4,7.7 -67.87,3.1 -88.85,0.6 -20.97,-2.8 -30.85,-3.7 -39.79,-1.6 -9.25,2.5 -17.28,7.8 -32.7,24.1 -15.43,16.4 -38.26,43.5 -73.42,72.2 -35.48,28.4 -83.61,58.3 -128.04,76.2 -44.42,17.6 -85.14,23.1 -128.33,17.6 -42.88,-5.6 -88.23,-21.9 -121.55,-37.6 -33.01,-15.8 -53.99,-31.2 -72.81,-44.8 -19.13,-13.9 -36.4,-25.6 -65.1,-38.5 -28.38,-13.3 -68.48,-27.8 -107.35,-47.2 -38.88,-19.5 -77.13,-44.2 -106.43,-77.8 -29.62,-33.3 -50.6,-76.2 -57.69,-124.9 -7.41,-49.1 -0.93,-104.3 12.64,-156.1 13.58,-51.9 34.55,-99.7 44.11,-126.8 9.57,-27.2 8.03,-33.3 -1.23,-47.8"
         style="fill:#ffb72f;fill-opacity:1;fill-rule:evenodd;stroke:none"
         id="path6460"
         transform="matrix(0.13333333,0,0,-0.13333333,0,2933.3333)" />
      <path
         d="m 1334.61,15830.7 c -22.22,13.3 -50.6,31.2 -95.33,59.5 -45.04,28.4 -106.74,67 -139.13,93.8 -32.7,26.9 -36.41,41.7 -34.25,54.9 1.85,13.6 9.56,25.3 21.29,30 11.41,4.9 26.83,2.7 60.77,-25 34.25,-27.8 86.69,-80.9 128.34,-122.2 41.96,-41 72.81,-70.6 89.77,-88.8 16.97,-17.9 20.06,-24.7 13.58,-24.1 -6.78,0.6 -22.83,8.6 -45.04,21.9"
         style="fill:#feda3b;fill-opacity:1;fill-rule:evenodd;stroke:none"
         id="path6462"
         transform="matrix(0.13333333,0,0,-0.13333333,0,2933.3333)" />
      <path
         d="m 2819.13,16237.3 c -4.95,42.6 -13.58,116.9 -20.99,175.8 -7.4,58.7 -13.88,101.8 -14.18,133 -0.63,31.5 4.93,50.9 14.8,58.9 9.57,8.4 23.75,5 33.94,-6.1 10.49,-11.1 17.28,-30 17.9,-61.4 0.3,-31.8 -5.57,-75.6 -10.5,-138.6 -4.93,-62.6 -8.95,-144.3 -11.72,-179.8 -2.77,-35.2 -4.01,-24.4 -9.25,18.2"
         style="fill:#feda3b;fill-opacity:1;fill-rule:evenodd;stroke:none"
         id="path6464"
         transform="matrix(0.13333333,0,0,-0.13333333,0,2933.3333)" />
      <path
         d="m 4279.88,15919.5 c 21.9,20.7 61.09,56.5 91.01,80.9 29.93,24.7 50.59,37.6 67.56,45.9 16.66,8.1 29.31,11.1 38.57,9.3 9.56,-2.2 15.42,-9.3 13.57,-16.7 -1.85,-7.1 -11.42,-14.5 -31.47,-24.3 -19.74,-10.2 -50.29,-22.9 -87.3,-44.5 -36.72,-21.2 -80.52,-51.8 -99.65,-64.1 -19.13,-12.7 -14.19,-7.1 7.71,13.5"
         style="fill:#feda3b;fill-opacity:1;fill-rule:evenodd;stroke:none"
         id="path6466"
         transform="matrix(0.13333333,0,0,-0.13333333,0,2933.3333)" />
      <path
         d="m 1864.93,13820.8 c -55.23,-40.1 -151.79,-114.2 -216.57,-164.7 -64.48,-50.6 -97.18,-77.8 -112.92,-95.7 -15.42,-17.9 -14.19,-26.5 -8.95,-33.6 5.25,-7.1 14.2,-12.4 25,-11.4 10.49,1.2 22.83,8.9 52.44,34.2 29.31,25.6 76.2,68.5 120.32,108.6 44.11,40.4 85.76,77.5 122.79,112.9 37.01,35.8 69.1,69.8 78.36,83.3 8.94,13.6 -4.95,6.8 -60.47,-33.6"
         style="fill:#feda3b;fill-opacity:1;fill-rule:evenodd;stroke:none"
         id="path6468"
         transform="matrix(0.13333333,0,0,-0.13333333,0,2933.3333)" />
      <path
         d="m 4169.75,13224.8 c -42.88,36.7 -113.22,107 -161.04,157 -47.82,49.7 -73.11,79.3 -83.92,94.1 -11.1,14.8 -7.4,14.8 25.92,-10.5 33.32,-25.3 96.57,-75.6 150.24,-115.7 53.99,-40.1 99.03,-70 127.72,-95.9 28.39,-25.9 40.72,-47.5 40.42,-59 -0.32,-11.4 -12.96,-12.3 -26.84,-11.1 -14.19,1.3 -29.62,4.4 -72.5,41.1"
         style="fill:#feda3b;fill-opacity:1;fill-rule:evenodd;stroke:none"
         id="path6470"
         transform="matrix(0.13333333,0,0,-0.13333333,0,2933.3333)" />
      <path
         d="m 4083.98,14891.6 c 50.6,19.8 143.46,56.5 199.91,78.7 56.15,22.2 75.58,29.9 93.48,28.7 17.89,-1.3 34.24,-11.7 39.79,-22.9 5.87,-11.1 0.93,-22.8 -9.25,-32 -10.18,-9 -25.61,-15.5 -52.75,-21.6 -26.84,-5.9 -65.4,-12.1 -116.31,-21.3 -50.9,-9.6 -113.84,-22.9 -152.71,-29.3 -39.18,-6.8 -53.99,-6.8 -57.38,-5 -3.39,1.6 4.63,4.7 55.22,24.7"
         style="fill:#feda3b;fill-opacity:1;fill-rule:evenodd;stroke:none"
         id="path6472"
         transform="matrix(0.13333333,0,0,-0.13333333,0,2933.3333)" />
      <path
         d="m 2428.25,15001.4 c -17.59,-4.6 -40.42,-15.4 -61.7,-29 -21.29,-13.5 -41.34,-29.9 -55.84,-61.4 -14.5,-31.1 -23.44,-77.4 -24.06,-114.1 -0.32,-36.7 7.71,-63.9 14.19,-86.1 6.47,-22.5 10.8,-39.5 13.26,-57.7 2.16,-18.2 2.16,-37.3 2.16,-56.7 0,-19.5 0,-39.5 -6.47,-52.2 -6.18,-12.6 -18.83,-18.2 -26.54,-36.4 -7.71,-17.9 -10.49,-48.7 -1.85,-84.2 8.64,-35.5 28.39,-75.3 51.52,-100.6 23.14,-25.6 49.67,-36.4 71.27,-47.8 21.9,-11.1 39.18,-23.1 51.82,-25.3 12.65,-2.1 20.67,5 21.29,17.6 0.31,13 -6.78,30.9 -12.34,53.1 -5.55,22.2 -8.95,48.7 -6.78,50 2.15,1.5 10.48,-22.3 21.28,-46.3 10.8,-24.1 24.69,-48.5 44.43,-70.4 20.05,-21.6 46.28,-40.7 79.9,-58.3 33.63,-17.9 74.35,-34.2 102.11,-47.8 27.46,-13.6 41.96,-24.4 59.85,-39.5 17.58,-14.8 38.57,-33.9 64.17,-44.4 25.91,-10.2 56.76,-12 79.9,-9.3 23.14,2.5 38.56,9.9 60.47,16.7 21.59,6.8 49.67,13.3 82.06,36.4 32.08,23.1 68.48,62.9 89.16,101.5 20.98,38.6 26.22,75.6 26.22,100.3 0,24.3 -5.24,36.1 -19.74,41.9 -14.5,5.9 -38.26,5.9 -50.28,-0.9 -12.35,-6.8 -13.28,-20.4 -20.99,-27.2 -7.71,-6.7 -22.21,-6.7 -37.63,-9.5 -15.43,-2.5 -31.78,-8 -49.06,-15.4 -17.27,-7.1 -35.17,-16.4 -43.5,-17.6 -8.01,-1.3 -6.16,4.9 -9.86,20.3 -3.71,15.5 -12.66,40.1 -19.14,53.7 -6.16,13.6 -9.86,16.4 -3.08,22.2 6.79,5.9 24.07,14.8 40.72,27.2 16.67,12.3 33.01,27.7 45.04,45.6 11.73,18.2 18.82,39.2 24.07,48.8 4.93,9.2 7.71,7.7 16.66,0.3 8.94,-7.1 24.37,-20.1 37.63,-24.1 13.27,-4 24.07,0.6 24.99,-4 0.93,-4.6 -8.33,-18.2 -17.28,-30.8 -8.94,-12.7 -18.19,-24.4 -24.99,-32.7 -6.78,-8.1 -11.41,-12.7 -4.93,-13.6 6.17,-0.9 23.44,1.8 41.35,4.6 17.57,2.8 35.78,5.3 44.72,3.7 9.26,-1.8 9.26,-8.3 17.28,-10.5 8.02,-2.4 24.37,-0.6 41.65,10.5 17.27,10.8 35.48,30.6 43.49,33.3 8.33,2.8 6.48,-11.7 9.26,-18.8 2.77,-7.4 9.87,-7.4 21.29,6.2 11.41,13.6 26.84,40.7 40.72,86.7 14.19,45.6 26.84,110.1 32.4,161.9 5.24,51.6 3.38,90.7 -8.33,115.4 -11.73,25 -33.64,36.1 -52.45,45.1 -19.13,8.9 -35.48,16.3 -42.27,14.5 -6.78,-1.9 -4.01,-12.7 -10.48,-21.3 -6.48,-8.7 -21.91,-15.1 -36.72,-21 -15.12,-5.9 -29.61,-11.1 -41.34,-19.7 -11.72,-8.7 -20.67,-20.4 -29,-20.4 -8.02,0 -15.43,11.7 -23.44,28.1 -8.33,16.3 -17.28,37 -30.54,50.3 -12.96,12.9 -30.23,18.5 -46.28,23.4 -15.73,4.9 -30.23,9.6 -38.56,21.9 -8.03,12 -9.87,32.1 -13.58,50.3 -3.69,18.2 -8.94,34.5 -7.71,51.8 1.55,17 9.56,35.2 5.55,46.6 -4,11.4 -20.36,15.7 -30.85,29 -10.48,13.3 -15.11,34.9 -12.33,48.4 2.77,13.6 12.64,19.2 23.75,17.9 10.8,-1.5 22.52,-9.5 26.53,-6.8 4.32,2.5 0.61,16.1 -13.88,34 -14.51,17.6 -40.11,39.5 -72.5,55.2 -32.7,16 -72.81,25.9 -98.41,28.7 -25.92,2.8 -37.64,-1.9 -47.82,-8.3 -9.87,-6.2 -17.89,-14.5 -27.15,-21.6 -8.95,-7.4 -19.12,-13.6 -12.34,-18.9 7.1,-4.9 30.55,-8.3 51.83,-11.1 21.28,-2.7 40.42,-4.6 54.3,-10.1 14.19,-5.3 23.14,-14.5 16.04,-16.7 -7.41,-2.2 -30.85,2.2 -52.14,4 -21.29,1.9 -40.41,0.9 -58.62,-2.1 -18.19,-3.1 -35.16,-8.7 -52.13,-11.8 -16.66,-3.4 -33.01,-4.3 -49.98,-6.8 -16.66,-2.7 -33.94,-7.4 -50.59,-13.9 -16.97,-6.1 -33.02,-14.5 -45.36,-23.7 -12.34,-9.6 -20.36,-20.7 -22.82,-27.8 -2.16,-7.4 1.54,-10.8 15.11,-12.6 13.58,-1.9 37.02,-1.9 58,-5.6 20.98,-3.7 38.88,-10.8 61.09,-15.4 22.21,-4.6 48.74,-6.2 61.7,-14.5 13.26,-8 13.26,-22.5 17.27,-39.8 4.01,-17.3 12.34,-37.3 20.05,-52.7 7.72,-15.5 14.81,-26.3 6.18,-29.4 -8.33,-3.3 -33.01,1.3 -64.17,-3.7 -31.47,-4.9 -69.42,-19.4 -99.03,-34.5 -29.31,-14.8 -50.29,-30.2 -62.62,-40.4 -12.04,-9.9 -15.74,-14.5 -9.88,-2.5 5.86,11.7 21.29,39.8 40.72,61.1 19.74,21.3 43.19,35.8 61.39,47.5 18.21,12 30.86,21 28.07,26.5 -2.77,5.3 -20.97,7.1 -38.55,6.8 -17.59,-0.6 -34.87,-3.4 -47.52,-6.4 -12.65,-3.1 -20.98,-6.8 -18.81,-2.8 2.46,4.3 15.11,16 24.99,24.7 10.17,8.6 17.28,13.8 18.19,20.6 0.93,6.8 -4.62,15.1 -15.73,17.3 -11.41,2.2 -28.69,-1.2 -43.49,-4.9 -15.12,-3.7 -27.77,-7.4 -40.42,-8.4 -12.65,-0.6 -25.6,1 -43.19,-3.4"
         style="fill:#feda3b;fill-opacity:1;fill-rule:evenodd;stroke:none"
         id="path6474"
         transform="matrix(0.13333333,0,0,-0.13333333,0,2933.3333)" />
      <path
         d="m 3074.57,14937.9 c -9.26,10.2 -18.83,27.4 -28.08,41.9 -9.57,14.5 -18.51,26.3 -27.76,34.6 -9.26,8 -18.82,12.6 -24.37,17.3 -5.25,4.9 -6.8,9.8 -2.48,13.5 4.33,4.1 14.19,6.8 24.68,12.1 10.18,4.9 20.36,12.6 33.32,18.2 12.96,5.5 28.39,8.6 43.81,8.3 15.43,-0.6 30.85,-4.6 44.12,-14.2 13.57,-9.5 24.98,-24.4 33.63,-38.5 8.33,-14.2 14.49,-27.2 18.19,-40.5 4.01,-12.9 5.56,-26.2 8.95,-42.8 3.09,-16.4 7.71,-36.4 3.09,-51.9 -4.63,-15.4 -18.21,-26.2 -30.23,-33.9 -12.35,-7.7 -23.14,-12.3 -30.85,-10.2 -7.72,2.5 -12.35,11.4 -14.51,22.2 -1.85,10.5 -1.54,22.9 -4.93,30.9 -3.4,8.3 -10.49,12.3 -19.13,16 -8.33,3.7 -17.89,6.8 -27.45,17"
         style="fill:#feda3b;fill-opacity:1;fill-rule:evenodd;stroke:none"
         id="path6476"
         transform="matrix(0.13333333,0,0,-0.13333333,0,2933.3333)" />
      <path
         d="m 2593.61,13900.7 c -15.73,1.5 -34.25,4.6 -51.22,9.9 -16.96,5.2 -32.39,12.3 -42.57,16.6 -10.49,4.4 -15.43,5.9 -15.12,-2.8 0.31,-8.6 5.56,-27.1 16.05,-41.9 10.18,-14.8 24.98,-25.6 45.96,-33.3 20.67,-7.4 47.52,-11.4 67.88,-12.7 20.36,-0.9 34.55,0.7 40.1,6.2 5.87,5.6 3.09,14.5 6.48,20.1 3.4,5.2 12.96,7.1 22.21,7.1 9.26,-0.4 18.21,-2.8 28.07,-1 9.88,1.9 20.06,7.7 18.52,13.6 -1.55,5.6 -15.12,11.1 -28.69,18.5 -13.58,7.4 -27.15,17 -41.65,26.2 -14.19,9.3 -29,18.5 -38.26,23.5 -9.56,4.9 -12.95,5.8 -12.03,-0.6 0.62,-6.2 6.17,-19.8 11.11,-29.3 4.93,-9.6 9.56,-15.2 5.55,-17.9 -4.01,-3.1 -16.66,-3.4 -32.39,-2.2"
         style="fill:#feda3b;fill-opacity:1;fill-rule:evenodd;stroke:none"
         id="path6478"
         transform="matrix(0.13333333,0,0,-0.13333333,0,2933.3333)" />
      <path
         d="m 1659.46,14514.9 c -6.48,11.4 -18.51,28.7 -28.07,44.1 -9.26,15.5 -15.43,29 -20.36,27.8 -5.25,-0.9 -8.64,-17 -9.57,-36.1 -0.92,-19.4 0.93,-41.9 3.4,-62 2.78,-20 6.48,-37.3 13.88,-55.2 7.09,-18.2 17.9,-37.3 29.93,-50.3 12.03,-13 25.29,-19.8 31.77,-18.2 6.48,1.9 6.48,11.7 4.32,25.3 -2.16,13.6 -6.79,30.8 -10.18,48.4 -3.39,17.3 -5.55,34.9 -7.1,46.9 -1.23,11.7 -1.85,17.6 -8.02,29.3"
         style="fill:#feda3b;fill-opacity:1;fill-rule:evenodd;stroke:none"
         id="path6480"
         transform="matrix(0.13333333,0,0,-0.13333333,0,2933.3333)" />
      <path
         d="m 2030.28,14600.1 c -4.93,9.2 -13.58,18.2 -20.67,22.8 -7.4,4.6 -13.27,4.6 -14.19,-5.9 -0.92,-10.4 3.09,-31.1 7.71,-49.9 4.63,-18.5 9.57,-34.9 18.52,-48.8 8.63,-14.2 21.28,-25.9 32.08,-32.7 10.48,-6.8 19.13,-8.6 18.2,-0.9 -1.24,7.7 -12.03,25 -19.43,41 -7.1,16.1 -10.81,30.9 -13.28,43.2 -2.46,12.4 -4.01,21.9 -8.94,31.2"
         style="fill:#feda3b;fill-opacity:1;fill-rule:evenodd;stroke:none"
         id="path6482"
         transform="matrix(0.13333333,0,0,-0.13333333,0,2933.3333)" />
      <path
         d="m 2340.63,15335.2 c -12.03,-6.1 -33.93,-12.3 -53.36,-20 -19.44,-7.7 -36.72,-16.7 -45.66,-19.1 -8.64,-2.2 -9.27,2.4 -3.4,12.6 5.86,10.5 18.2,26.8 26.22,37 7.72,10.2 11.42,14.2 21.9,21.3 10.5,7.1 27.77,17 42.89,21.9 15.12,4.6 28.38,4.3 37.02,2.2 8.95,-1.9 13.58,-5.6 11.41,-12.4 -1.84,-6.4 -10.48,-16 -16.35,-23.7 -5.55,-7.7 -8.33,-13.6 -20.67,-19.8"
         style="fill:#feda3b;fill-opacity:1;fill-rule:evenodd;stroke:none"
         id="path6484"
         transform="matrix(0.13333333,0,0,-0.13333333,0,2933.3333)" />
      <path
         d="m 3084.13,15641.6 c -9.56,13.6 -17.59,29 -25.92,38.5 -8.33,9.9 -16.96,13.9 -20.97,18.6 -3.7,4.9 -2.78,10.4 8.33,10.7 11.1,0.4 32.39,-4 51.2,-9.8 18.83,-5.9 35.17,-13.3 48.13,-25.6 12.65,-12.1 22.21,-29.3 29.62,-45.4 7.09,-15.7 12.03,-30.2 8.63,-34.5 -3.38,-4.3 -15.11,1.5 -28.07,5.2 -12.96,3.7 -26.84,5 -39.18,11.4 -12.34,6.2 -22.52,17.6 -31.77,30.9"
         style="fill:#feda3b;fill-opacity:1;fill-rule:evenodd;stroke:none"
         id="path6486"
         transform="matrix(0.13333333,0,0,-0.13333333,0,2933.3333)" />
      <path
         d="m 3674.29,14577.6 c 9.57,22.8 15.43,45.6 19.75,67.2 4.31,21.3 7.09,42 13.57,50.6 6.78,8.3 17.28,5.2 24.99,-8 7.4,-13.6 12.65,-37 10.8,-63 -1.85,-26.2 -10.49,-54.9 -21.91,-76.2 -11.41,-21.3 -25.29,-35.1 -41.03,-45.3 -15.73,-10.5 -32.7,-16.7 -40.11,-15.1 -7.09,1.5 -4.62,11.1 3.4,27.4 8.02,16.4 20.98,39.5 30.54,62.4"
         style="fill:#feda3b;fill-opacity:1;fill-rule:evenodd;stroke:none"
         id="path6488"
         transform="matrix(0.13333333,0,0,-0.13333333,0,2933.3333)" />
      <path
         d="m 3529.6,13851.9 c 14.81,13.3 30.24,26.6 41.96,37.7 11.41,11.4 19.13,21 24.99,25.6 5.55,4.3 9.26,4 10.79,-7.7 1.55,-11.4 0.93,-34.3 -8.32,-57.4 -9.56,-23.4 -28.39,-47.5 -43.19,-61.7 -15.12,-13.9 -26.23,-17.9 -42.27,-21 -16.35,-2.7 -37.02,-4.6 -52.44,-5.8 -15.12,-1.3 -24.68,-1.6 -30.24,-1 -5.55,0.7 -7.4,2.5 -5.55,6.5 1.85,3.7 7.1,9.6 17.89,17.3 10.49,7.7 26.54,17.3 41.65,29 15.12,11.4 29.62,25 44.73,38.5"
         style="fill:#feda3b;fill-opacity:1;fill-rule:evenodd;stroke:none"
         id="path6490"
         transform="matrix(0.13333333,0,0,-0.13333333,0,2933.3333)" />
      <path
         d="m 2515.25,14688.3 c 0,10.2 -1.24,26.5 -3.39,30.6 -1.86,3.7 -4.63,-5 -8.95,-18.3 -4.01,-13.2 -9.26,-31.4 -11.1,-50.9 -1.86,-19.7 0,-40.4 1.22,-65.1 1.55,-24.3 2.17,-52.4 6.79,-72.1 4.63,-19.8 12.66,-31.2 25.61,-40.8 12.65,-9.5 29.92,-16.9 43.5,-16.9 13.57,0 23.44,7.4 26.22,16.6 2.78,9 -1.85,19.5 -4.32,28.4 -2.47,9.3 -3.09,17 -0.92,21.3 2.15,4.3 6.47,5.2 8.95,3.7 2.46,-1.2 3.08,-4.9 5.54,-1.5 2.48,3.4 7.1,13.8 11.73,23.4 4.93,9.6 9.87,18.2 12.03,27.8 2.47,9.2 1.85,19.7 2.16,31.1 0.31,11.4 0.93,23.5 12.03,45.1 11.41,21.6 32.7,52.4 41.34,71.9 8.33,19.4 4.32,27.7 -4.32,29.9 -8.95,2.4 -22.52,-1.3 -38.25,-8.7 -15.74,-7.7 -33.32,-18.8 -47.51,-32 -13.89,-13.3 -24.37,-28.1 -29.93,-41.7 -5.86,-13.6 -6.78,-25.9 -9.87,-26.5 -3.09,-0.3 -8.63,11.1 -12.95,17.3 -4.32,5.8 -7.41,6.7 -10.19,0.9 -2.77,-5.9 -4.94,-18.5 -8.02,-18.2 -2.77,0 -6.47,13.2 -7.71,21.9 -0.93,8.6 0.31,12.6 0.31,22.8"
         style="fill:#fbf5df;fill-opacity:1;fill-rule:evenodd;stroke:none"
         id="path6492"
         transform="matrix(0.13333333,0,0,-0.13333333,0,2933.3333)" />
      <path
         d="m 2678.14,14785.2 c -10.49,-0.6 -23.45,-1.9 -39.18,-10.5 -15.73,-8.6 -33.63,-24.4 -45.04,-34.6 -11.11,-10.2 -15.43,-14.5 -16.04,-11.4 -0.93,2.8 2.15,13 6.47,21.3 4.01,8 9.57,14.2 7.1,14.8 -2.47,0.6 -12.96,-4.3 -20.06,-8.9 -7.09,-4.3 -10.48,-8.4 -11.72,-7.4 -1.23,0.9 0.31,6.8 5.87,14.2 5.85,7.7 16.04,17.2 24.37,24.3 8.33,7.1 14.49,12.1 16.97,15.4 2.46,3.8 0.92,6.2 1.84,11.5 0.93,4.9 4.32,12.6 12.96,20.6 8.95,7.8 23.14,15.8 33.63,20.4 10.8,4.9 17.59,6.8 24.37,10.2 6.79,3.4 13.58,8.3 19.74,13.2 6.48,4.7 12.34,9.3 27.46,9.6 15.12,0 39.18,-4 55.84,-9.2 16.35,-5.6 24.99,-12.4 34.86,-21.9 9.56,-9.9 20.36,-22.3 27.15,-35.5 6.79,-13.6 9.57,-27.8 10.18,-40.4 0.31,-12.7 -1.55,-23.5 -2.16,-32.1 -0.62,-8.4 -0.31,-14.5 3.7,-15.4 3.7,-1 10.49,3.3 20.36,3.3 9.87,0 22.83,-4.3 29.93,-5.8 7.4,-1.3 8.94,0 11.72,6.5 2.47,6.1 5.87,17.5 9.87,24.3 4.01,6.5 8.64,8.7 6.79,12.4 -1.85,3.4 -9.87,8.6 -15.42,14.8 -5.56,6.2 -8.65,13.2 -6.48,19.4 2.46,6.2 9.87,11.1 14.49,17.6 4.95,6.5 6.79,14.2 11.11,17.6 4.32,3.4 11.11,2.1 23.45,-9.9 12.65,-11.7 30.85,-34.5 44.12,-57.1 13.26,-22.8 21.59,-45.3 25.91,-67.8 4.01,-22.6 4.62,-44.8 0.92,-69.4 -3.7,-25 -11.41,-52.5 -22.52,-73.5 -11.41,-20.9 -26.53,-35.4 -36.71,-41 -10.18,-5.6 -15.43,-2.5 -19.74,1.9 -4.32,4.6 -7.72,10.1 -10.5,14.1 -3.08,4.1 -5.55,6.5 -8.94,4.4 -3.39,-2.5 -7.1,-9.6 -11.1,-15.2 -3.71,-5.5 -7.71,-9.2 -9.57,-14.1 -1.85,-5 -1.85,-11.2 -2.77,-21 -0.93,-9.9 -2.78,-22.9 -9.26,-37 -6.79,-13.9 -17.9,-29 -29,-40.8 -10.8,-11.7 -21.28,-20 -34.24,-25.3 -13.26,-5.5 -29,-8 -47.51,-7.1 -18.51,1 -39.8,5.6 -58.93,14.5 -19.43,8.7 -37.32,21.9 -49.67,28.4 -12.34,6.8 -19.74,6.8 -26.21,9.3 -6.8,2.4 -12.65,7.4 -12.65,15.7 -0.31,8.3 4.93,19.8 12.95,25.9 7.72,6.5 17.89,7.4 30.54,6.5 12.65,-0.9 27.46,-3.4 34.25,-6.8 6.78,-3.4 5.55,-7.7 9.87,-8 4.32,-0.3 14.19,3.4 23.45,6.8 8.94,3.7 17.27,7.1 23.13,13.2 5.87,6.2 9.26,15.2 11.42,25 1.85,9.9 2.16,20.7 0.92,27.5 -0.92,6.8 -3.08,9.9 -3.08,14.2 0.31,4.6 3.08,10.8 8.33,16.6 5.55,6.2 13.27,12.1 19.74,16.1 6.18,4 11.11,6.5 15.42,5.2 4.02,-1.2 7.72,-5.5 11.43,-14.2 4,-8.6 8.01,-21.2 8.33,-31.4 0.3,-10.2 -3.1,-17.9 -1.55,-19.2 1.85,-1.2 8.33,4.4 14.19,14.5 5.55,10.5 10.8,25.7 13.57,36.4 3.09,10.5 4.32,16.7 1.24,18.3 -3.08,1.5 -10.18,-1.3 -16.36,-1.9 -6.16,-0.6 -11.09,1.2 -13.57,8 -2.47,6.8 -2.47,18.5 -3.39,26.6 -0.93,8 -2.78,12.3 -6.48,14.5 -3.7,2.1 -8.94,2.1 -11.11,6.7 -2.15,4.7 -0.61,13.6 0,21.3 0.93,7.4 1.24,13.6 0.31,17.3 -0.92,3.7 -3.08,5.2 -6.17,5.6 -3.08,0 -7.4,-1 -12.03,3.6 -4.63,4.7 -9.87,15.2 -19.13,25.7 -9.56,10.8 -23.13,22.2 -34.54,30.8 -11.42,8.3 -20.37,14.2 -28.39,18.2 -8.33,4.3 -16.04,7.1 -23.76,8.3 -7.4,1.6 -15.11,1.9 -25.29,1.3"
         style="fill:#fbf5df;fill-opacity:1;fill-rule:evenodd;stroke:none"
         id="path6494"
         transform="matrix(0.13333333,0,0,-0.13333333,0,2933.3333)" />
      <path
         d="m 2671.66,14534.1 c 4.63,-2.2 8.64,-4.7 17.9,-5.6 8.94,-0.6 23.44,0.6 34.85,3.7 11.42,3.1 20.06,8 25.61,11.4 5.86,3.4 8.33,5.3 9.56,4 1.23,-1.2 0.62,-5.5 -2.47,-11.1 -3.08,-5.2 -8.94,-12 -17.58,-16.9 -8.64,-4.7 -19.75,-8.1 -30.54,-8.4 -10.8,-0.3 -21.6,2.2 -30.24,7.4 -8.33,5.3 -15.11,13.3 -15.73,16.4 -0.93,3.1 4.01,1.2 8.64,-0.9"
         style="fill:#fbf5df;fill-opacity:1;fill-rule:evenodd;stroke:none"
         id="path6496"
         transform="matrix(0.13333333,0,0,-0.13333333,0,2933.3333)" />
      <path
         d="m 2612.42,14363.8 c 12.04,-4.4 30.55,-9 45.97,-13 15.43,-3.7 28.08,-6.8 39.19,-8.9 11.1,-2.2 20.35,-3.4 33.01,-3.7 12.95,-0.4 29.3,0.3 46.58,1.2 17.58,0.9 36.1,1.8 45.34,-0.3 9.26,-2.2 8.95,-8 5.87,-16.1 -3.39,-8.3 -9.25,-19.4 -15.73,-26.5 -6.48,-7.1 -13.27,-10.5 -27.46,-11.4 -13.88,-1.2 -35.48,0.3 -56.77,3.4 -21.59,3.1 -43.49,7.7 -61.7,15.4 -18.2,7.4 -33.01,17.9 -45.04,28.7 -12.34,11.1 -22.21,22.2 -27.14,29.6 -4.94,7.4 -5.25,10.5 -2.48,10.2 2.78,-0.3 8.33,-4.3 20.36,-8.6"
         style="fill:#fbf5df;fill-opacity:1;fill-rule:evenodd;stroke:none"
         id="path6498"
         transform="matrix(0.13333333,0,0,-0.13333333,0,2933.3333)" />
      <path
         d="m 4387.55,13036.9 c -7.72,3.4 -14.5,12.9 -18.51,22.5 -4.32,9.6 -6.17,18.8 -4.94,25.6 1.24,6.5 5.55,10.2 12.03,12.4 6.17,2.1 14.2,2.7 22.53,2.4 8.64,0 17.27,-1.2 23.13,-4 6.17,-2.8 9.88,-7.1 11.11,-13.3 0.92,-6.4 -0.31,-14.8 -4.01,-22.5 -3.7,-7.7 -9.56,-14.8 -16.97,-19.4 -7.4,-4.9 -16.66,-7.4 -24.37,-3.7"
         style="fill:#feda3b;fill-opacity:1;fill-rule:evenodd;stroke:none"
         id="path6500"
         transform="matrix(0.13333333,0,0,-0.13333333,0,2933.3333)" />
      <path
         d="m 4377.99,13057.9 c 0.92,7.4 6.79,15.7 13.57,22.2 6.79,6.2 14.19,10.5 20.05,11.4 5.87,0.6 10.18,-1.9 13.88,-6.5 3.4,-4.6 6.49,-11.1 8.64,-18.2 2.47,-7.1 4.01,-14.8 3.39,-20.7 -0.61,-5.8 -3.08,-10.1 -8.01,-12.9 -4.94,-2.8 -12.35,-4 -20.06,-3.4 -7.4,0.9 -15.11,3.7 -21.29,8.6 -6.16,5 -10.79,11.8 -10.17,19.5"
         style="fill:#962934;fill-opacity:1;fill-rule:evenodd;stroke:none"
         id="path6502"
         transform="matrix(0.13333333,0,0,-0.13333333,0,2933.3333)" />
      <path
         d="m 4368.73,13067.7 c -1.23,5.6 0.31,12.1 2.77,16.4 2.48,4.3 5.56,6.2 9.88,6.5 4.32,0.3 9.87,-1.3 14.19,-3.4 4.32,-2.5 7.71,-5.9 9.56,-10.2 1.85,-4.6 1.85,-10.2 -0.31,-15.1 -2.15,-4.6 -6.47,-8.7 -11.41,-9.9 -4.63,-1.5 -9.87,-0.3 -14.5,2.8 -4.62,2.8 -8.94,7.4 -10.18,12.9"
         style="fill:#fbf5df;fill-opacity:1;fill-rule:evenodd;stroke:none"
         id="path6504"
         transform="matrix(0.13333333,0,0,-0.13333333,0,2933.3333)" />
      <path
         d="m 1038.13,13479.6 c -0.92,3.7 -2.77,9.3 -3.7,14.2 -0.61,4.9 -0.3,9.5 4.01,12 4.64,2.5 12.96,2.5 19.75,1.9 6.79,-0.6 12.03,-2.2 14.8,-6.8 2.78,-4.6 2.78,-12 0.94,-18.2 -2.17,-6.2 -6.48,-11.4 -11.73,-13.9 -5.55,-2.8 -12.03,-3.4 -16.35,-2.5 -4.32,0.6 -6.48,2.8 -7.1,5 -0.62,2.1 0,4.3 -0.62,8.3"
         style="fill:#feda3b;fill-opacity:1;fill-rule:evenodd;stroke:none"
         id="path6506"
         transform="matrix(0.13333333,0,0,-0.13333333,0,2933.3333)" />
      <path
         d="m 1020.24,13481.4 c -1.23,4.7 -1.23,9 -0.62,12.7 0.62,3.7 1.86,6.8 6.8,8.6 4.62,1.6 12.95,1.9 19.74,1 6.78,-0.7 12.03,-2.2 14.81,-6.8 2.77,-4.3 3.08,-12.1 0.92,-18.2 -1.85,-6.2 -6.17,-11.1 -11.72,-13.9 -5.56,-2.8 -12.04,-3.1 -16.35,-2.5 -4.32,0.9 -6.49,2.8 -8.33,6.5 -2.16,3.4 -4.32,8.3 -5.25,12.6"
         style="fill:#962934;fill-opacity:1;fill-rule:evenodd;stroke:none"
         id="path6508"
         transform="matrix(0.13333333,0,0,-0.13333333,0,2933.3333)" />
      <path
         d="m 1045.85,13478.1 c -1.86,0.3 -3.7,0.3 -5.86,2.1 -1.86,1.9 -4.33,5.6 -4.94,8.9 -0.92,3.1 0,6.2 2.16,8.1 1.85,1.8 5.25,2.4 8.02,1.8 2.78,-0.9 5.25,-2.7 6.79,-5.2 1.54,-2.5 2.16,-4.9 2.16,-7.7 -0.31,-2.5 -1.24,-5.3 -2.78,-6.5 -1.54,-1.5 -3.7,-1.5 -5.55,-1.5"
         style="fill:#fbf5df;fill-opacity:1;fill-rule:evenodd;stroke:none"
         id="path6510"
         transform="matrix(0.13333333,0,0,-0.13333333,0,2933.3333)" />
      <path
         d="m 858.277,16293.4 c 7.719,-4.6 14.2,-12.3 16.352,-23.1 1.855,-10.8 -0.613,-24 -5.856,-32.7 -5.25,-8.6 -13.269,-12 -22.527,-13.6 -9.562,-1.2 -20.363,-0.3 -28.379,5.9 -8.023,6.2 -12.961,17.9 -12.961,29.3 0,11.1 4.629,22.5 9.879,29.3 5.551,7.1 11.41,9.9 19.121,10.5 7.407,0.6 16.66,-0.9 24.371,-5.6"
         style="fill:#962934;fill-opacity:1;fill-rule:evenodd;stroke:none"
         id="path6512"
         transform="matrix(0.13333333,0,0,-0.13333333,0,2933.3333)" />
      <path
         d="m 868.152,16268.8 c 7.098,-4.4 12.961,-11.1 14.813,-21 1.848,-9.6 -0.621,-21.9 -4.938,-29 -4.32,-7.4 -10.492,-9.9 -18.511,-9.3 -8.024,0.7 -17.899,4.4 -25.301,9.9 -7.399,5.6 -12.34,12.7 -12.953,21 -0.617,8.3 3.39,18.2 8.015,24 4.629,6.2 10.188,8.7 16.969,9.3 6.789,0.6 14.809,-0.6 21.906,-4.9"
         style="fill:#feda3b;fill-opacity:1;fill-rule:evenodd;stroke:none"
         id="path6514"
         transform="matrix(0.13333333,0,0,-0.13333333,0,2933.3333)" />
      <path
         d="m 863.832,16236.7 c -4.008,-3.7 -10.18,-6.2 -15.73,-6.8 -5.559,-0.9 -10.188,0 -12.34,1.2 -2.164,1.6 -1.235,3.1 2.152,6.2 3.399,3.1 9.57,7.7 13.578,12.3 4.012,4.7 6.176,9.6 8.332,12.4 2.156,2.8 4.321,3.4 6.172,3.4 1.848,0 3.391,-0.6 4.317,-3.7 0.921,-2.8 0.921,-7.7 0,-12.4 -0.926,-4.6 -2.469,-9.2 -6.481,-12.6"
         style="fill:#fbf5df;fill-opacity:1;fill-rule:evenodd;stroke:none"
         id="path6516"
         transform="matrix(0.13333333,0,0,-0.13333333,0,2933.3333)" />
      <path
         d="m 4766.7,16213.5 c -4.62,-7.4 -11.11,-16 -19.13,-21.9 -7.71,-6.1 -16.97,-9.5 -24.99,-9.5 -8.02,0 -15.42,3.4 -18.81,12 -3.7,8.3 -3.39,21.9 1.23,33 4.93,10.8 14.19,18.8 23.76,22.2 9.56,3.4 19.74,1.9 27.76,-1.8 8.33,-3.7 14.5,-9.3 16.35,-15.1 1.54,-5.9 -1.24,-11.8 -6.17,-18.9"
         style="fill:#feda3b;fill-opacity:1;fill-rule:evenodd;stroke:none"
         id="path6518"
         transform="matrix(0.13333333,0,0,-0.13333333,0,2933.3333)" />
      <path
         d="m 4742.94,16201.2 c -7.09,0.6 -14.18,4.3 -19.12,10.5 -4.94,6.2 -7.71,15.1 -8.02,22.2 0,7.1 2.15,12.4 5.86,15.7 3.7,3.7 8.33,5.9 13.88,6.5 5.25,0.6 11.41,-0.6 17.59,-2.8 5.85,-2.1 12.34,-5.8 16.66,-10.8 4.32,-5.2 7.09,-12 5.86,-18.2 -1.24,-6.4 -6.48,-12.3 -12.66,-16.6 -5.85,-4.3 -12.95,-7.1 -20.05,-6.5"
         style="fill:#962934;fill-opacity:1;fill-rule:evenodd;stroke:none"
         id="path6520"
         transform="matrix(0.13333333,0,0,-0.13333333,0,2933.3333)" />
      <path
         d="m 4729.99,16201.5 c -3.7,0 -7.41,2.2 -9.87,5.3 -2.78,3.4 -4.01,8 -4.32,12.3 0,4.3 1.23,8.6 2.77,11.1 1.55,2.8 3.4,4 6.48,3.7 2.78,-0.6 6.48,-2.5 9.25,-4.6 3.1,-1.9 5.25,-3.7 6.8,-6.5 1.53,-3.1 2.15,-7.4 2.15,-10.5 0,-3.1 -0.92,-5.2 -3.39,-7.1 -2.16,-1.8 -5.86,-3.7 -9.87,-3.7"
         style="fill:#fbf5df;fill-opacity:1;fill-rule:evenodd;stroke:none"
         id="path6522"
         transform="matrix(0.13333333,0,0,-0.13333333,0,2933.3333)" />
   </g>
</svg>
